G04 #@! TF.GenerationSoftware,KiCad,Pcbnew,5.1.2-f72e74a~84~ubuntu18.04.1*
G04 #@! TF.CreationDate,2019-06-08T16:30:23+01:00*
G04 #@! TF.ProjectId,macro-kb,6d616372-6f2d-46b6-922e-6b696361645f,rev?*
G04 #@! TF.SameCoordinates,Original*
G04 #@! TF.FileFunction,Legend,Bot*
G04 #@! TF.FilePolarity,Positive*
%FSLAX46Y46*%
G04 Gerber Fmt 4.6, Leading zero omitted, Abs format (unit mm)*
G04 Created by KiCad (PCBNEW 5.1.2-f72e74a~84~ubuntu18.04.1) date 2019-06-08 16:30:23*
%MOMM*%
%LPD*%
G04 APERTURE LIST*
%ADD10C,0.150000*%
%ADD11C,0.125000*%
%ADD12C,0.120000*%
%ADD13C,1.802000*%
%ADD14C,4.102000*%
%ADD15C,2.302000*%
%ADD16C,3.302000*%
%ADD17C,0.100000*%
%ADD18C,0.977000*%
%ADD19C,0.692000*%
%ADD20C,1.077000*%
%ADD21C,0.352000*%
%ADD22C,3.202000*%
%ADD23C,1.102000*%
%ADD24R,2.102000X1.802000*%
%ADD25R,0.602000X2.102000*%
%ADD26R,1.502000X1.302000*%
%ADD27R,1.652000X1.102000*%
%ADD28C,0.852000*%
%ADD29C,1.352000*%
%ADD30R,1.102000X1.602000*%
%ADD31R,1.602000X1.102000*%
%ADD32R,1.202000X1.202000*%
G04 APERTURE END LIST*
D10*
X161462404Y-85066630D02*
X161462404Y-84399964D01*
X161462404Y-84495202D02*
X161414785Y-84447583D01*
X161319547Y-84399964D01*
X161176690Y-84399964D01*
X161081452Y-84447583D01*
X161033833Y-84542821D01*
X161033833Y-85066630D01*
X161033833Y-84542821D02*
X160986214Y-84447583D01*
X160890976Y-84399964D01*
X160748119Y-84399964D01*
X160652880Y-84447583D01*
X160605261Y-84542821D01*
X160605261Y-85066630D01*
X159700500Y-85066630D02*
X159700500Y-84542821D01*
X159748119Y-84447583D01*
X159843357Y-84399964D01*
X160033833Y-84399964D01*
X160129071Y-84447583D01*
X159700500Y-85019011D02*
X159795738Y-85066630D01*
X160033833Y-85066630D01*
X160129071Y-85019011D01*
X160176690Y-84923773D01*
X160176690Y-84828535D01*
X160129071Y-84733297D01*
X160033833Y-84685678D01*
X159795738Y-84685678D01*
X159700500Y-84638059D01*
X158795738Y-85019011D02*
X158890976Y-85066630D01*
X159081452Y-85066630D01*
X159176690Y-85019011D01*
X159224309Y-84971392D01*
X159271928Y-84876154D01*
X159271928Y-84590440D01*
X159224309Y-84495202D01*
X159176690Y-84447583D01*
X159081452Y-84399964D01*
X158890976Y-84399964D01*
X158795738Y-84447583D01*
X158367166Y-85066630D02*
X158367166Y-84399964D01*
X158367166Y-84590440D02*
X158319547Y-84495202D01*
X158271928Y-84447583D01*
X158176690Y-84399964D01*
X158081452Y-84399964D01*
X157605261Y-85066630D02*
X157700500Y-85019011D01*
X157748119Y-84971392D01*
X157795738Y-84876154D01*
X157795738Y-84590440D01*
X157748119Y-84495202D01*
X157700500Y-84447583D01*
X157605261Y-84399964D01*
X157462404Y-84399964D01*
X157367166Y-84447583D01*
X157319547Y-84495202D01*
X157271928Y-84590440D01*
X157271928Y-84876154D01*
X157319547Y-84971392D01*
X157367166Y-85019011D01*
X157462404Y-85066630D01*
X157605261Y-85066630D01*
X156843357Y-85066630D02*
X156843357Y-84066630D01*
X156271928Y-85066630D02*
X156700500Y-84495202D01*
X156271928Y-84066630D02*
X156843357Y-84638059D01*
X155510023Y-84542821D02*
X155367166Y-84590440D01*
X155319547Y-84638059D01*
X155271928Y-84733297D01*
X155271928Y-84876154D01*
X155319547Y-84971392D01*
X155367166Y-85019011D01*
X155462404Y-85066630D01*
X155843357Y-85066630D01*
X155843357Y-84066630D01*
X155510023Y-84066630D01*
X155414785Y-84114250D01*
X155367166Y-84161869D01*
X155319547Y-84257107D01*
X155319547Y-84352345D01*
X155367166Y-84447583D01*
X155414785Y-84495202D01*
X155510023Y-84542821D01*
X155843357Y-84542821D01*
X161557642Y-86049964D02*
X161319547Y-86716630D01*
X161081452Y-86049964D01*
X160319547Y-86669011D02*
X160414785Y-86716630D01*
X160605261Y-86716630D01*
X160700500Y-86669011D01*
X160748119Y-86573773D01*
X160748119Y-86192821D01*
X160700500Y-86097583D01*
X160605261Y-86049964D01*
X160414785Y-86049964D01*
X160319547Y-86097583D01*
X160271928Y-86192821D01*
X160271928Y-86288059D01*
X160748119Y-86383297D01*
X159843357Y-86716630D02*
X159843357Y-86049964D01*
X159843357Y-86240440D02*
X159795738Y-86145202D01*
X159748119Y-86097583D01*
X159652880Y-86049964D01*
X159557642Y-86049964D01*
X159271928Y-86669011D02*
X159176690Y-86716630D01*
X158986214Y-86716630D01*
X158890976Y-86669011D01*
X158843357Y-86573773D01*
X158843357Y-86526154D01*
X158890976Y-86430916D01*
X158986214Y-86383297D01*
X159129071Y-86383297D01*
X159224309Y-86335678D01*
X159271928Y-86240440D01*
X159271928Y-86192821D01*
X159224309Y-86097583D01*
X159129071Y-86049964D01*
X158986214Y-86049964D01*
X158890976Y-86097583D01*
X158414785Y-86716630D02*
X158414785Y-86049964D01*
X158414785Y-85716630D02*
X158462404Y-85764250D01*
X158414785Y-85811869D01*
X158367166Y-85764250D01*
X158414785Y-85716630D01*
X158414785Y-85811869D01*
X157795738Y-86716630D02*
X157890976Y-86669011D01*
X157938595Y-86621392D01*
X157986214Y-86526154D01*
X157986214Y-86240440D01*
X157938595Y-86145202D01*
X157890976Y-86097583D01*
X157795738Y-86049964D01*
X157652880Y-86049964D01*
X157557642Y-86097583D01*
X157510023Y-86145202D01*
X157462404Y-86240440D01*
X157462404Y-86526154D01*
X157510023Y-86621392D01*
X157557642Y-86669011D01*
X157652880Y-86716630D01*
X157795738Y-86716630D01*
X157033833Y-86049964D02*
X157033833Y-86716630D01*
X157033833Y-86145202D02*
X156986214Y-86097583D01*
X156890976Y-86049964D01*
X156748119Y-86049964D01*
X156652880Y-86097583D01*
X156605261Y-86192821D01*
X156605261Y-86716630D01*
X154843357Y-86716630D02*
X155414785Y-86716630D01*
X155129071Y-86716630D02*
X155129071Y-85716630D01*
X155224309Y-85859488D01*
X155319547Y-85954726D01*
X155414785Y-86002345D01*
X154414785Y-86621392D02*
X154367166Y-86669011D01*
X154414785Y-86716630D01*
X154462404Y-86669011D01*
X154414785Y-86621392D01*
X154414785Y-86716630D01*
X153748119Y-85716630D02*
X153652880Y-85716630D01*
X153557642Y-85764250D01*
X153510023Y-85811869D01*
X153462404Y-85907107D01*
X153414785Y-86097583D01*
X153414785Y-86335678D01*
X153462404Y-86526154D01*
X153510023Y-86621392D01*
X153557642Y-86669011D01*
X153652880Y-86716630D01*
X153748119Y-86716630D01*
X153843357Y-86669011D01*
X153890976Y-86621392D01*
X153938595Y-86526154D01*
X153986214Y-86335678D01*
X153986214Y-86097583D01*
X153938595Y-85907107D01*
X153890976Y-85811869D01*
X153843357Y-85764250D01*
X153748119Y-85716630D01*
D11*
X147280142Y-101040440D02*
X147280142Y-101397583D01*
X147303952Y-101469011D01*
X147351571Y-101516630D01*
X147423000Y-101540440D01*
X147470619Y-101540440D01*
X147042047Y-101540440D02*
X147042047Y-101040440D01*
X146875380Y-101397583D01*
X146708714Y-101040440D01*
X146708714Y-101540440D01*
X146113476Y-101088059D02*
X146089666Y-101064250D01*
X146042047Y-101040440D01*
X145923000Y-101040440D01*
X145875380Y-101064250D01*
X145851571Y-101088059D01*
X145827761Y-101135678D01*
X145827761Y-101183297D01*
X145851571Y-101254726D01*
X146137285Y-101540440D01*
X145827761Y-101540440D01*
X145518238Y-101040440D02*
X145470619Y-101040440D01*
X145423000Y-101064250D01*
X145399190Y-101088059D01*
X145375380Y-101135678D01*
X145351571Y-101230916D01*
X145351571Y-101349964D01*
X145375380Y-101445202D01*
X145399190Y-101492821D01*
X145423000Y-101516630D01*
X145470619Y-101540440D01*
X145518238Y-101540440D01*
X145565857Y-101516630D01*
X145589666Y-101492821D01*
X145613476Y-101445202D01*
X145637285Y-101349964D01*
X145637285Y-101230916D01*
X145613476Y-101135678D01*
X145589666Y-101088059D01*
X145565857Y-101064250D01*
X145518238Y-101040440D01*
X144875380Y-101540440D02*
X145161095Y-101540440D01*
X145018238Y-101540440D02*
X145018238Y-101040440D01*
X145065857Y-101111869D01*
X145113476Y-101159488D01*
X145161095Y-101183297D01*
X144637285Y-101540440D02*
X144542047Y-101540440D01*
X144494428Y-101516630D01*
X144470619Y-101492821D01*
X144423000Y-101421392D01*
X144399190Y-101326154D01*
X144399190Y-101135678D01*
X144423000Y-101088059D01*
X144446809Y-101064250D01*
X144494428Y-101040440D01*
X144589666Y-101040440D01*
X144637285Y-101064250D01*
X144661095Y-101088059D01*
X144684904Y-101135678D01*
X144684904Y-101254726D01*
X144661095Y-101302345D01*
X144637285Y-101326154D01*
X144589666Y-101349964D01*
X144494428Y-101349964D01*
X144446809Y-101326154D01*
X144423000Y-101302345D01*
X144399190Y-101254726D01*
D10*
X143350380Y-121173773D02*
X143540857Y-121269011D01*
X143921809Y-121269011D01*
X144112285Y-121173773D01*
X144207523Y-120983297D01*
X144207523Y-120221392D01*
X144112285Y-120030916D01*
X143921809Y-119935678D01*
X143540857Y-119935678D01*
X143350380Y-120030916D01*
X143255142Y-120221392D01*
X143255142Y-120411869D01*
X144207523Y-120602345D01*
X142112285Y-121269011D02*
X142302761Y-121173773D01*
X142398000Y-120983297D01*
X142398000Y-119269011D01*
X140588476Y-121173773D02*
X140778952Y-121269011D01*
X141159904Y-121269011D01*
X141350380Y-121173773D01*
X141445619Y-120983297D01*
X141445619Y-120221392D01*
X141350380Y-120030916D01*
X141159904Y-119935678D01*
X140778952Y-119935678D01*
X140588476Y-120030916D01*
X140493238Y-120221392D01*
X140493238Y-120411869D01*
X141445619Y-120602345D01*
X139921809Y-119935678D02*
X139159904Y-119935678D01*
X139636095Y-119269011D02*
X139636095Y-120983297D01*
X139540857Y-121173773D01*
X139350380Y-121269011D01*
X139159904Y-121269011D01*
X138493238Y-121269011D02*
X138493238Y-119935678D01*
X138493238Y-120316630D02*
X138398000Y-120126154D01*
X138302761Y-120030916D01*
X138112285Y-119935678D01*
X137921809Y-119935678D01*
X136398000Y-121173773D02*
X136588476Y-121269011D01*
X136969428Y-121269011D01*
X137159904Y-121173773D01*
X137255142Y-121078535D01*
X137350380Y-120888059D01*
X137350380Y-120316630D01*
X137255142Y-120126154D01*
X137159904Y-120030916D01*
X136969428Y-119935678D01*
X136588476Y-119935678D01*
X136398000Y-120030916D01*
X135540857Y-121269011D02*
X135540857Y-119269011D01*
X134683714Y-121173773D02*
X134398000Y-121269011D01*
X133921809Y-121269011D01*
X133731333Y-121173773D01*
X133636095Y-121078535D01*
X133540857Y-120888059D01*
X133540857Y-120697583D01*
X133636095Y-120507107D01*
X133731333Y-120411869D01*
X133921809Y-120316630D01*
X134302761Y-120221392D01*
X134493238Y-120126154D01*
X134588476Y-120030916D01*
X134683714Y-119840440D01*
X134683714Y-119649964D01*
X134588476Y-119459488D01*
X134493238Y-119364250D01*
X134302761Y-119269011D01*
X133826571Y-119269011D01*
X133540857Y-119364250D01*
X132969428Y-119269011D02*
X131826571Y-119269011D01*
X132398000Y-121269011D02*
X132398000Y-119269011D01*
X130302761Y-121269011D02*
X130302761Y-120221392D01*
X130398000Y-120030916D01*
X130588476Y-119935678D01*
X130969428Y-119935678D01*
X131159904Y-120030916D01*
X130302761Y-121173773D02*
X130493238Y-121269011D01*
X130969428Y-121269011D01*
X131159904Y-121173773D01*
X131255142Y-120983297D01*
X131255142Y-120792821D01*
X131159904Y-120602345D01*
X130969428Y-120507107D01*
X130493238Y-120507107D01*
X130302761Y-120411869D01*
X129445619Y-121173773D02*
X129255142Y-121269011D01*
X128874190Y-121269011D01*
X128683714Y-121173773D01*
X128588476Y-120983297D01*
X128588476Y-120888059D01*
X128683714Y-120697583D01*
X128874190Y-120602345D01*
X129159904Y-120602345D01*
X129350380Y-120507107D01*
X129445619Y-120316630D01*
X129445619Y-120221392D01*
X129350380Y-120030916D01*
X129159904Y-119935678D01*
X128874190Y-119935678D01*
X128683714Y-120030916D01*
D12*
X127918750Y-99081471D02*
X127918750Y-99407029D01*
X128938750Y-99081471D02*
X128938750Y-99407029D01*
X121416029Y-106967750D02*
X121090471Y-106967750D01*
X121416029Y-105947750D02*
X121090471Y-105947750D01*
X139138922Y-96540250D02*
X139656078Y-96540250D01*
X139138922Y-97960250D02*
X139656078Y-97960250D01*
X124297221Y-96359250D02*
X124622779Y-96359250D01*
X124297221Y-97379250D02*
X124622779Y-97379250D01*
X142365000Y-91088529D02*
X142365000Y-90762971D01*
X143385000Y-91088529D02*
X143385000Y-90762971D01*
X145163000Y-91088529D02*
X145163000Y-90762971D01*
X144143000Y-91088529D02*
X144143000Y-90762971D01*
X118393750Y-104182029D02*
X118393750Y-103856471D01*
X119413750Y-104182029D02*
X119413750Y-103856471D01*
X126276250Y-103766750D02*
X126276250Y-104241750D01*
X121056250Y-99021750D02*
X121531250Y-99021750D01*
X121056250Y-99496750D02*
X121056250Y-99021750D01*
X121056250Y-104241750D02*
X121531250Y-104241750D01*
X121056250Y-103766750D02*
X121056250Y-104241750D01*
X126276250Y-99021750D02*
X125801250Y-99021750D01*
X126276250Y-99496750D02*
X126276250Y-99021750D01*
X140235000Y-75274750D02*
X140235000Y-77224750D01*
X140235000Y-79444750D02*
X140235000Y-82674750D01*
X140955000Y-84594750D02*
X142035000Y-84594750D01*
X146255000Y-84594750D02*
X147335000Y-84594750D01*
X148055000Y-79444750D02*
X148055000Y-82674750D01*
X148055000Y-75274750D02*
X148055000Y-77224750D01*
X142035000Y-84594750D02*
X142035000Y-85024750D01*
X148055000Y-75274750D02*
X140235000Y-75274750D01*
X127508250Y-107726750D02*
X127508250Y-104426750D01*
X127508250Y-104426750D02*
X131508250Y-104426750D01*
X131123471Y-102522750D02*
X131449029Y-102522750D01*
X131123471Y-101502750D02*
X131449029Y-101502750D01*
X132935250Y-105096529D02*
X132935250Y-104770971D01*
X133955250Y-105096529D02*
X133955250Y-104770971D01*
X118173000Y-84383000D02*
X119098000Y-84383000D01*
X118173000Y-88083000D02*
X122873000Y-88083000D01*
X122973000Y-86508000D02*
X122973000Y-85958000D01*
X118073000Y-86508000D02*
X118073000Y-85958000D01*
X121948000Y-84383000D02*
X122873000Y-84383000D01*
X158460221Y-105793000D02*
X158785779Y-105793000D01*
X158460221Y-104773000D02*
X158785779Y-104773000D01*
X138495500Y-115438971D02*
X138495500Y-115764529D01*
X137475500Y-115438971D02*
X137475500Y-115764529D01*
X118425500Y-115438971D02*
X118425500Y-115764529D01*
X119445500Y-115438971D02*
X119445500Y-115764529D01*
X109573279Y-105793000D02*
X109247721Y-105793000D01*
X109573279Y-104773000D02*
X109247721Y-104773000D01*
X132237564Y-83285500D02*
X131033436Y-83285500D01*
X132237564Y-86005500D02*
X131033436Y-86005500D01*
X161373000Y-103376750D02*
X160223000Y-103376750D01*
X161373000Y-96076750D02*
X161373000Y-103376750D01*
X155873000Y-96076750D02*
X155873000Y-103376750D01*
X139891750Y-117558000D02*
X139891750Y-116408000D01*
X147191750Y-117558000D02*
X139891750Y-117558000D01*
X147191750Y-112058000D02*
X139891750Y-112058000D01*
X120841750Y-117558000D02*
X120841750Y-116408000D01*
X128141750Y-117558000D02*
X120841750Y-117558000D01*
X128141750Y-112058000D02*
X120841750Y-112058000D01*
X112160500Y-103376750D02*
X112160500Y-96076750D01*
X106660500Y-103376750D02*
X106660500Y-96076750D01*
X106660500Y-96076750D02*
X107810500Y-96076750D01*
X108410500Y-83239250D02*
X108410500Y-87089250D01*
X110410500Y-83239250D02*
X110410500Y-87089250D01*
X108410500Y-83239250D02*
X110410500Y-83239250D01*
X125079250Y-89589250D02*
X127079250Y-89589250D01*
X127079250Y-89589250D02*
X127079250Y-93439250D01*
X125079250Y-89589250D02*
X125079250Y-93439250D01*
X144516750Y-99139250D02*
X144516750Y-97139250D01*
X144516750Y-97139250D02*
X148366750Y-97139250D01*
X144516750Y-99139250D02*
X148366750Y-99139250D01*
X109616750Y-116214250D02*
X109616750Y-112364250D01*
X107616750Y-116214250D02*
X107616750Y-112364250D01*
X109616750Y-116214250D02*
X107616750Y-116214250D01*
X140160500Y-103083000D02*
X142160500Y-103083000D01*
X142160500Y-103083000D02*
X142160500Y-106933000D01*
X140160500Y-103083000D02*
X140160500Y-106933000D01*
X144923000Y-103083000D02*
X144923000Y-106933000D01*
X146923000Y-103083000D02*
X146923000Y-106933000D01*
X144923000Y-103083000D02*
X146923000Y-103083000D01*
X114050029Y-84361750D02*
X113724471Y-84361750D01*
X114050029Y-83341750D02*
X113724471Y-83341750D01*
D10*
X157475380Y-95862464D02*
X157475380Y-95291035D01*
X157475380Y-95576750D02*
X156475380Y-95576750D01*
X156618238Y-95481511D01*
X156713476Y-95386273D01*
X156761095Y-95291035D01*
X147406035Y-113660380D02*
X147977464Y-113660380D01*
X147691750Y-113660380D02*
X147691750Y-112660380D01*
X147786988Y-112803238D01*
X147882226Y-112898476D01*
X147977464Y-112946095D01*
X128356035Y-113660380D02*
X128927464Y-113660380D01*
X128641750Y-113660380D02*
X128641750Y-112660380D01*
X128736988Y-112803238D01*
X128832226Y-112898476D01*
X128927464Y-112946095D01*
X111462880Y-104162464D02*
X111462880Y-103591035D01*
X111462880Y-103876750D02*
X110462880Y-103876750D01*
X110605738Y-103781511D01*
X110700976Y-103686273D01*
X110748595Y-103591035D01*
%LPC*%
D13*
X128905000Y-90201750D03*
X139065000Y-90201750D03*
D14*
X133985000Y-90201750D03*
D15*
X137795000Y-92741750D03*
X131445000Y-95281750D03*
D16*
X104648000Y-119570500D03*
X163385500Y-119570500D03*
X163385500Y-79883000D03*
X104648000Y-79883000D03*
D17*
G36*
X128734441Y-97969426D02*
G01*
X128758151Y-97972943D01*
X128781402Y-97978767D01*
X128803970Y-97986842D01*
X128825639Y-97997091D01*
X128846198Y-98009414D01*
X128865451Y-98023692D01*
X128883211Y-98039789D01*
X128899308Y-98057549D01*
X128913586Y-98076802D01*
X128925909Y-98097361D01*
X128936158Y-98119030D01*
X128944233Y-98141598D01*
X128950057Y-98164849D01*
X128953574Y-98188559D01*
X128954750Y-98212500D01*
X128954750Y-98701000D01*
X128953574Y-98724941D01*
X128950057Y-98748651D01*
X128944233Y-98771902D01*
X128936158Y-98794470D01*
X128925909Y-98816139D01*
X128913586Y-98836698D01*
X128899308Y-98855951D01*
X128883211Y-98873711D01*
X128865451Y-98889808D01*
X128846198Y-98904086D01*
X128825639Y-98916409D01*
X128803970Y-98926658D01*
X128781402Y-98934733D01*
X128758151Y-98940557D01*
X128734441Y-98944074D01*
X128710500Y-98945250D01*
X128147000Y-98945250D01*
X128123059Y-98944074D01*
X128099349Y-98940557D01*
X128076098Y-98934733D01*
X128053530Y-98926658D01*
X128031861Y-98916409D01*
X128011302Y-98904086D01*
X127992049Y-98889808D01*
X127974289Y-98873711D01*
X127958192Y-98855951D01*
X127943914Y-98836698D01*
X127931591Y-98816139D01*
X127921342Y-98794470D01*
X127913267Y-98771902D01*
X127907443Y-98748651D01*
X127903926Y-98724941D01*
X127902750Y-98701000D01*
X127902750Y-98212500D01*
X127903926Y-98188559D01*
X127907443Y-98164849D01*
X127913267Y-98141598D01*
X127921342Y-98119030D01*
X127931591Y-98097361D01*
X127943914Y-98076802D01*
X127958192Y-98057549D01*
X127974289Y-98039789D01*
X127992049Y-98023692D01*
X128011302Y-98009414D01*
X128031861Y-97997091D01*
X128053530Y-97986842D01*
X128076098Y-97978767D01*
X128099349Y-97972943D01*
X128123059Y-97969426D01*
X128147000Y-97968250D01*
X128710500Y-97968250D01*
X128734441Y-97969426D01*
X128734441Y-97969426D01*
G37*
D18*
X128428750Y-98456750D03*
D17*
G36*
X128734441Y-99544426D02*
G01*
X128758151Y-99547943D01*
X128781402Y-99553767D01*
X128803970Y-99561842D01*
X128825639Y-99572091D01*
X128846198Y-99584414D01*
X128865451Y-99598692D01*
X128883211Y-99614789D01*
X128899308Y-99632549D01*
X128913586Y-99651802D01*
X128925909Y-99672361D01*
X128936158Y-99694030D01*
X128944233Y-99716598D01*
X128950057Y-99739849D01*
X128953574Y-99763559D01*
X128954750Y-99787500D01*
X128954750Y-100276000D01*
X128953574Y-100299941D01*
X128950057Y-100323651D01*
X128944233Y-100346902D01*
X128936158Y-100369470D01*
X128925909Y-100391139D01*
X128913586Y-100411698D01*
X128899308Y-100430951D01*
X128883211Y-100448711D01*
X128865451Y-100464808D01*
X128846198Y-100479086D01*
X128825639Y-100491409D01*
X128803970Y-100501658D01*
X128781402Y-100509733D01*
X128758151Y-100515557D01*
X128734441Y-100519074D01*
X128710500Y-100520250D01*
X128147000Y-100520250D01*
X128123059Y-100519074D01*
X128099349Y-100515557D01*
X128076098Y-100509733D01*
X128053530Y-100501658D01*
X128031861Y-100491409D01*
X128011302Y-100479086D01*
X127992049Y-100464808D01*
X127974289Y-100448711D01*
X127958192Y-100430951D01*
X127943914Y-100411698D01*
X127931591Y-100391139D01*
X127921342Y-100369470D01*
X127913267Y-100346902D01*
X127907443Y-100323651D01*
X127903926Y-100299941D01*
X127902750Y-100276000D01*
X127902750Y-99787500D01*
X127903926Y-99763559D01*
X127907443Y-99739849D01*
X127913267Y-99716598D01*
X127921342Y-99694030D01*
X127931591Y-99672361D01*
X127943914Y-99651802D01*
X127958192Y-99632549D01*
X127974289Y-99614789D01*
X127992049Y-99598692D01*
X128011302Y-99584414D01*
X128031861Y-99572091D01*
X128053530Y-99561842D01*
X128076098Y-99553767D01*
X128099349Y-99547943D01*
X128123059Y-99544426D01*
X128147000Y-99543250D01*
X128710500Y-99543250D01*
X128734441Y-99544426D01*
X128734441Y-99544426D01*
G37*
D18*
X128428750Y-100031750D03*
D17*
G36*
X129215207Y-102025583D02*
G01*
X129232001Y-102028074D01*
X129248469Y-102032199D01*
X129264454Y-102037919D01*
X129279802Y-102045178D01*
X129294364Y-102053906D01*
X129308000Y-102064019D01*
X129320579Y-102075421D01*
X129331981Y-102088000D01*
X129342094Y-102101636D01*
X129350822Y-102116198D01*
X129358081Y-102131546D01*
X129363801Y-102147531D01*
X129367926Y-102163999D01*
X129370417Y-102180793D01*
X129371250Y-102197750D01*
X129371250Y-102543750D01*
X129370417Y-102560707D01*
X129367926Y-102577501D01*
X129363801Y-102593969D01*
X129358081Y-102609954D01*
X129350822Y-102625302D01*
X129342094Y-102639864D01*
X129331981Y-102653500D01*
X129320579Y-102666079D01*
X129308000Y-102677481D01*
X129294364Y-102687594D01*
X129279802Y-102696322D01*
X129264454Y-102703581D01*
X129248469Y-102709301D01*
X129232001Y-102713426D01*
X129215207Y-102715917D01*
X129198250Y-102716750D01*
X128802250Y-102716750D01*
X128785293Y-102715917D01*
X128768499Y-102713426D01*
X128752031Y-102709301D01*
X128736046Y-102703581D01*
X128720698Y-102696322D01*
X128706136Y-102687594D01*
X128692500Y-102677481D01*
X128679921Y-102666079D01*
X128668519Y-102653500D01*
X128658406Y-102639864D01*
X128649678Y-102625302D01*
X128642419Y-102609954D01*
X128636699Y-102593969D01*
X128632574Y-102577501D01*
X128630083Y-102560707D01*
X128629250Y-102543750D01*
X128629250Y-102197750D01*
X128630083Y-102180793D01*
X128632574Y-102163999D01*
X128636699Y-102147531D01*
X128642419Y-102131546D01*
X128649678Y-102116198D01*
X128658406Y-102101636D01*
X128668519Y-102088000D01*
X128679921Y-102075421D01*
X128692500Y-102064019D01*
X128706136Y-102053906D01*
X128720698Y-102045178D01*
X128736046Y-102037919D01*
X128752031Y-102032199D01*
X128768499Y-102028074D01*
X128785293Y-102025583D01*
X128802250Y-102024750D01*
X129198250Y-102024750D01*
X129215207Y-102025583D01*
X129215207Y-102025583D01*
G37*
D19*
X129000250Y-102370750D03*
D17*
G36*
X129215207Y-101055583D02*
G01*
X129232001Y-101058074D01*
X129248469Y-101062199D01*
X129264454Y-101067919D01*
X129279802Y-101075178D01*
X129294364Y-101083906D01*
X129308000Y-101094019D01*
X129320579Y-101105421D01*
X129331981Y-101118000D01*
X129342094Y-101131636D01*
X129350822Y-101146198D01*
X129358081Y-101161546D01*
X129363801Y-101177531D01*
X129367926Y-101193999D01*
X129370417Y-101210793D01*
X129371250Y-101227750D01*
X129371250Y-101573750D01*
X129370417Y-101590707D01*
X129367926Y-101607501D01*
X129363801Y-101623969D01*
X129358081Y-101639954D01*
X129350822Y-101655302D01*
X129342094Y-101669864D01*
X129331981Y-101683500D01*
X129320579Y-101696079D01*
X129308000Y-101707481D01*
X129294364Y-101717594D01*
X129279802Y-101726322D01*
X129264454Y-101733581D01*
X129248469Y-101739301D01*
X129232001Y-101743426D01*
X129215207Y-101745917D01*
X129198250Y-101746750D01*
X128802250Y-101746750D01*
X128785293Y-101745917D01*
X128768499Y-101743426D01*
X128752031Y-101739301D01*
X128736046Y-101733581D01*
X128720698Y-101726322D01*
X128706136Y-101717594D01*
X128692500Y-101707481D01*
X128679921Y-101696079D01*
X128668519Y-101683500D01*
X128658406Y-101669864D01*
X128649678Y-101655302D01*
X128642419Y-101639954D01*
X128636699Y-101623969D01*
X128632574Y-101607501D01*
X128630083Y-101590707D01*
X128629250Y-101573750D01*
X128629250Y-101227750D01*
X128630083Y-101210793D01*
X128632574Y-101193999D01*
X128636699Y-101177531D01*
X128642419Y-101161546D01*
X128649678Y-101146198D01*
X128658406Y-101131636D01*
X128668519Y-101118000D01*
X128679921Y-101105421D01*
X128692500Y-101094019D01*
X128706136Y-101083906D01*
X128720698Y-101075178D01*
X128736046Y-101067919D01*
X128752031Y-101062199D01*
X128768499Y-101058074D01*
X128785293Y-101055583D01*
X128802250Y-101054750D01*
X129198250Y-101054750D01*
X129215207Y-101055583D01*
X129215207Y-101055583D01*
G37*
D19*
X129000250Y-101400750D03*
D17*
G36*
X124849207Y-106214583D02*
G01*
X124866001Y-106217074D01*
X124882469Y-106221199D01*
X124898454Y-106226919D01*
X124913802Y-106234178D01*
X124928364Y-106242906D01*
X124942000Y-106253019D01*
X124954579Y-106264421D01*
X124965981Y-106277000D01*
X124976094Y-106290636D01*
X124984822Y-106305198D01*
X124992081Y-106320546D01*
X124997801Y-106336531D01*
X125001926Y-106352999D01*
X125004417Y-106369793D01*
X125005250Y-106386750D01*
X125005250Y-106782750D01*
X125004417Y-106799707D01*
X125001926Y-106816501D01*
X124997801Y-106832969D01*
X124992081Y-106848954D01*
X124984822Y-106864302D01*
X124976094Y-106878864D01*
X124965981Y-106892500D01*
X124954579Y-106905079D01*
X124942000Y-106916481D01*
X124928364Y-106926594D01*
X124913802Y-106935322D01*
X124898454Y-106942581D01*
X124882469Y-106948301D01*
X124866001Y-106952426D01*
X124849207Y-106954917D01*
X124832250Y-106955750D01*
X124486250Y-106955750D01*
X124469293Y-106954917D01*
X124452499Y-106952426D01*
X124436031Y-106948301D01*
X124420046Y-106942581D01*
X124404698Y-106935322D01*
X124390136Y-106926594D01*
X124376500Y-106916481D01*
X124363921Y-106905079D01*
X124352519Y-106892500D01*
X124342406Y-106878864D01*
X124333678Y-106864302D01*
X124326419Y-106848954D01*
X124320699Y-106832969D01*
X124316574Y-106816501D01*
X124314083Y-106799707D01*
X124313250Y-106782750D01*
X124313250Y-106386750D01*
X124314083Y-106369793D01*
X124316574Y-106352999D01*
X124320699Y-106336531D01*
X124326419Y-106320546D01*
X124333678Y-106305198D01*
X124342406Y-106290636D01*
X124352519Y-106277000D01*
X124363921Y-106264421D01*
X124376500Y-106253019D01*
X124390136Y-106242906D01*
X124404698Y-106234178D01*
X124420046Y-106226919D01*
X124436031Y-106221199D01*
X124452499Y-106217074D01*
X124469293Y-106214583D01*
X124486250Y-106213750D01*
X124832250Y-106213750D01*
X124849207Y-106214583D01*
X124849207Y-106214583D01*
G37*
D19*
X124659250Y-106584750D03*
D17*
G36*
X123879207Y-106214583D02*
G01*
X123896001Y-106217074D01*
X123912469Y-106221199D01*
X123928454Y-106226919D01*
X123943802Y-106234178D01*
X123958364Y-106242906D01*
X123972000Y-106253019D01*
X123984579Y-106264421D01*
X123995981Y-106277000D01*
X124006094Y-106290636D01*
X124014822Y-106305198D01*
X124022081Y-106320546D01*
X124027801Y-106336531D01*
X124031926Y-106352999D01*
X124034417Y-106369793D01*
X124035250Y-106386750D01*
X124035250Y-106782750D01*
X124034417Y-106799707D01*
X124031926Y-106816501D01*
X124027801Y-106832969D01*
X124022081Y-106848954D01*
X124014822Y-106864302D01*
X124006094Y-106878864D01*
X123995981Y-106892500D01*
X123984579Y-106905079D01*
X123972000Y-106916481D01*
X123958364Y-106926594D01*
X123943802Y-106935322D01*
X123928454Y-106942581D01*
X123912469Y-106948301D01*
X123896001Y-106952426D01*
X123879207Y-106954917D01*
X123862250Y-106955750D01*
X123516250Y-106955750D01*
X123499293Y-106954917D01*
X123482499Y-106952426D01*
X123466031Y-106948301D01*
X123450046Y-106942581D01*
X123434698Y-106935322D01*
X123420136Y-106926594D01*
X123406500Y-106916481D01*
X123393921Y-106905079D01*
X123382519Y-106892500D01*
X123372406Y-106878864D01*
X123363678Y-106864302D01*
X123356419Y-106848954D01*
X123350699Y-106832969D01*
X123346574Y-106816501D01*
X123344083Y-106799707D01*
X123343250Y-106782750D01*
X123343250Y-106386750D01*
X123344083Y-106369793D01*
X123346574Y-106352999D01*
X123350699Y-106336531D01*
X123356419Y-106320546D01*
X123363678Y-106305198D01*
X123372406Y-106290636D01*
X123382519Y-106277000D01*
X123393921Y-106264421D01*
X123406500Y-106253019D01*
X123420136Y-106242906D01*
X123434698Y-106234178D01*
X123450046Y-106226919D01*
X123466031Y-106221199D01*
X123482499Y-106217074D01*
X123499293Y-106214583D01*
X123516250Y-106213750D01*
X123862250Y-106213750D01*
X123879207Y-106214583D01*
X123879207Y-106214583D01*
G37*
D19*
X123689250Y-106584750D03*
D17*
G36*
X120733941Y-105932926D02*
G01*
X120757651Y-105936443D01*
X120780902Y-105942267D01*
X120803470Y-105950342D01*
X120825139Y-105960591D01*
X120845698Y-105972914D01*
X120864951Y-105987192D01*
X120882711Y-106003289D01*
X120898808Y-106021049D01*
X120913086Y-106040302D01*
X120925409Y-106060861D01*
X120935658Y-106082530D01*
X120943733Y-106105098D01*
X120949557Y-106128349D01*
X120953074Y-106152059D01*
X120954250Y-106176000D01*
X120954250Y-106739500D01*
X120953074Y-106763441D01*
X120949557Y-106787151D01*
X120943733Y-106810402D01*
X120935658Y-106832970D01*
X120925409Y-106854639D01*
X120913086Y-106875198D01*
X120898808Y-106894451D01*
X120882711Y-106912211D01*
X120864951Y-106928308D01*
X120845698Y-106942586D01*
X120825139Y-106954909D01*
X120803470Y-106965158D01*
X120780902Y-106973233D01*
X120757651Y-106979057D01*
X120733941Y-106982574D01*
X120710000Y-106983750D01*
X120221500Y-106983750D01*
X120197559Y-106982574D01*
X120173849Y-106979057D01*
X120150598Y-106973233D01*
X120128030Y-106965158D01*
X120106361Y-106954909D01*
X120085802Y-106942586D01*
X120066549Y-106928308D01*
X120048789Y-106912211D01*
X120032692Y-106894451D01*
X120018414Y-106875198D01*
X120006091Y-106854639D01*
X119995842Y-106832970D01*
X119987767Y-106810402D01*
X119981943Y-106787151D01*
X119978426Y-106763441D01*
X119977250Y-106739500D01*
X119977250Y-106176000D01*
X119978426Y-106152059D01*
X119981943Y-106128349D01*
X119987767Y-106105098D01*
X119995842Y-106082530D01*
X120006091Y-106060861D01*
X120018414Y-106040302D01*
X120032692Y-106021049D01*
X120048789Y-106003289D01*
X120066549Y-105987192D01*
X120085802Y-105972914D01*
X120106361Y-105960591D01*
X120128030Y-105950342D01*
X120150598Y-105942267D01*
X120173849Y-105936443D01*
X120197559Y-105932926D01*
X120221500Y-105931750D01*
X120710000Y-105931750D01*
X120733941Y-105932926D01*
X120733941Y-105932926D01*
G37*
D18*
X120465750Y-106457750D03*
D17*
G36*
X122308941Y-105932926D02*
G01*
X122332651Y-105936443D01*
X122355902Y-105942267D01*
X122378470Y-105950342D01*
X122400139Y-105960591D01*
X122420698Y-105972914D01*
X122439951Y-105987192D01*
X122457711Y-106003289D01*
X122473808Y-106021049D01*
X122488086Y-106040302D01*
X122500409Y-106060861D01*
X122510658Y-106082530D01*
X122518733Y-106105098D01*
X122524557Y-106128349D01*
X122528074Y-106152059D01*
X122529250Y-106176000D01*
X122529250Y-106739500D01*
X122528074Y-106763441D01*
X122524557Y-106787151D01*
X122518733Y-106810402D01*
X122510658Y-106832970D01*
X122500409Y-106854639D01*
X122488086Y-106875198D01*
X122473808Y-106894451D01*
X122457711Y-106912211D01*
X122439951Y-106928308D01*
X122420698Y-106942586D01*
X122400139Y-106954909D01*
X122378470Y-106965158D01*
X122355902Y-106973233D01*
X122332651Y-106979057D01*
X122308941Y-106982574D01*
X122285000Y-106983750D01*
X121796500Y-106983750D01*
X121772559Y-106982574D01*
X121748849Y-106979057D01*
X121725598Y-106973233D01*
X121703030Y-106965158D01*
X121681361Y-106954909D01*
X121660802Y-106942586D01*
X121641549Y-106928308D01*
X121623789Y-106912211D01*
X121607692Y-106894451D01*
X121593414Y-106875198D01*
X121581091Y-106854639D01*
X121570842Y-106832970D01*
X121562767Y-106810402D01*
X121556943Y-106787151D01*
X121553426Y-106763441D01*
X121552250Y-106739500D01*
X121552250Y-106176000D01*
X121553426Y-106152059D01*
X121556943Y-106128349D01*
X121562767Y-106105098D01*
X121570842Y-106082530D01*
X121581091Y-106060861D01*
X121593414Y-106040302D01*
X121607692Y-106021049D01*
X121623789Y-106003289D01*
X121641549Y-105987192D01*
X121660802Y-105972914D01*
X121681361Y-105960591D01*
X121703030Y-105950342D01*
X121725598Y-105942267D01*
X121748849Y-105936443D01*
X121772559Y-105932926D01*
X121796500Y-105931750D01*
X122285000Y-105931750D01*
X122308941Y-105932926D01*
X122308941Y-105932926D01*
G37*
D18*
X122040750Y-106457750D03*
D17*
G36*
X140630641Y-96500547D02*
G01*
X140656778Y-96504424D01*
X140682409Y-96510844D01*
X140707288Y-96519745D01*
X140731174Y-96531043D01*
X140753837Y-96544627D01*
X140775060Y-96560367D01*
X140794639Y-96578111D01*
X140812383Y-96597690D01*
X140828123Y-96618913D01*
X140841707Y-96641576D01*
X140853005Y-96665462D01*
X140861906Y-96690341D01*
X140868326Y-96715972D01*
X140872203Y-96742109D01*
X140873500Y-96768500D01*
X140873500Y-97732000D01*
X140872203Y-97758391D01*
X140868326Y-97784528D01*
X140861906Y-97810159D01*
X140853005Y-97835038D01*
X140841707Y-97858924D01*
X140828123Y-97881587D01*
X140812383Y-97902810D01*
X140794639Y-97922389D01*
X140775060Y-97940133D01*
X140753837Y-97955873D01*
X140731174Y-97969457D01*
X140707288Y-97980755D01*
X140682409Y-97989656D01*
X140656778Y-97996076D01*
X140630641Y-97999953D01*
X140604250Y-98001250D01*
X140065750Y-98001250D01*
X140039359Y-97999953D01*
X140013222Y-97996076D01*
X139987591Y-97989656D01*
X139962712Y-97980755D01*
X139938826Y-97969457D01*
X139916163Y-97955873D01*
X139894940Y-97940133D01*
X139875361Y-97922389D01*
X139857617Y-97902810D01*
X139841877Y-97881587D01*
X139828293Y-97858924D01*
X139816995Y-97835038D01*
X139808094Y-97810159D01*
X139801674Y-97784528D01*
X139797797Y-97758391D01*
X139796500Y-97732000D01*
X139796500Y-96768500D01*
X139797797Y-96742109D01*
X139801674Y-96715972D01*
X139808094Y-96690341D01*
X139816995Y-96665462D01*
X139828293Y-96641576D01*
X139841877Y-96618913D01*
X139857617Y-96597690D01*
X139875361Y-96578111D01*
X139894940Y-96560367D01*
X139916163Y-96544627D01*
X139938826Y-96531043D01*
X139962712Y-96519745D01*
X139987591Y-96510844D01*
X140013222Y-96504424D01*
X140039359Y-96500547D01*
X140065750Y-96499250D01*
X140604250Y-96499250D01*
X140630641Y-96500547D01*
X140630641Y-96500547D01*
G37*
D20*
X140335000Y-97250250D03*
D17*
G36*
X138755641Y-96500547D02*
G01*
X138781778Y-96504424D01*
X138807409Y-96510844D01*
X138832288Y-96519745D01*
X138856174Y-96531043D01*
X138878837Y-96544627D01*
X138900060Y-96560367D01*
X138919639Y-96578111D01*
X138937383Y-96597690D01*
X138953123Y-96618913D01*
X138966707Y-96641576D01*
X138978005Y-96665462D01*
X138986906Y-96690341D01*
X138993326Y-96715972D01*
X138997203Y-96742109D01*
X138998500Y-96768500D01*
X138998500Y-97732000D01*
X138997203Y-97758391D01*
X138993326Y-97784528D01*
X138986906Y-97810159D01*
X138978005Y-97835038D01*
X138966707Y-97858924D01*
X138953123Y-97881587D01*
X138937383Y-97902810D01*
X138919639Y-97922389D01*
X138900060Y-97940133D01*
X138878837Y-97955873D01*
X138856174Y-97969457D01*
X138832288Y-97980755D01*
X138807409Y-97989656D01*
X138781778Y-97996076D01*
X138755641Y-97999953D01*
X138729250Y-98001250D01*
X138190750Y-98001250D01*
X138164359Y-97999953D01*
X138138222Y-97996076D01*
X138112591Y-97989656D01*
X138087712Y-97980755D01*
X138063826Y-97969457D01*
X138041163Y-97955873D01*
X138019940Y-97940133D01*
X138000361Y-97922389D01*
X137982617Y-97902810D01*
X137966877Y-97881587D01*
X137953293Y-97858924D01*
X137941995Y-97835038D01*
X137933094Y-97810159D01*
X137926674Y-97784528D01*
X137922797Y-97758391D01*
X137921500Y-97732000D01*
X137921500Y-96768500D01*
X137922797Y-96742109D01*
X137926674Y-96715972D01*
X137933094Y-96690341D01*
X137941995Y-96665462D01*
X137953293Y-96641576D01*
X137966877Y-96618913D01*
X137982617Y-96597690D01*
X138000361Y-96578111D01*
X138019940Y-96560367D01*
X138041163Y-96544627D01*
X138063826Y-96531043D01*
X138087712Y-96519745D01*
X138112591Y-96510844D01*
X138138222Y-96504424D01*
X138164359Y-96500547D01*
X138190750Y-96499250D01*
X138729250Y-96499250D01*
X138755641Y-96500547D01*
X138755641Y-96500547D01*
G37*
D20*
X138460000Y-97250250D03*
D17*
G36*
X125515691Y-96344426D02*
G01*
X125539401Y-96347943D01*
X125562652Y-96353767D01*
X125585220Y-96361842D01*
X125606889Y-96372091D01*
X125627448Y-96384414D01*
X125646701Y-96398692D01*
X125664461Y-96414789D01*
X125680558Y-96432549D01*
X125694836Y-96451802D01*
X125707159Y-96472361D01*
X125717408Y-96494030D01*
X125725483Y-96516598D01*
X125731307Y-96539849D01*
X125734824Y-96563559D01*
X125736000Y-96587500D01*
X125736000Y-97151000D01*
X125734824Y-97174941D01*
X125731307Y-97198651D01*
X125725483Y-97221902D01*
X125717408Y-97244470D01*
X125707159Y-97266139D01*
X125694836Y-97286698D01*
X125680558Y-97305951D01*
X125664461Y-97323711D01*
X125646701Y-97339808D01*
X125627448Y-97354086D01*
X125606889Y-97366409D01*
X125585220Y-97376658D01*
X125562652Y-97384733D01*
X125539401Y-97390557D01*
X125515691Y-97394074D01*
X125491750Y-97395250D01*
X125003250Y-97395250D01*
X124979309Y-97394074D01*
X124955599Y-97390557D01*
X124932348Y-97384733D01*
X124909780Y-97376658D01*
X124888111Y-97366409D01*
X124867552Y-97354086D01*
X124848299Y-97339808D01*
X124830539Y-97323711D01*
X124814442Y-97305951D01*
X124800164Y-97286698D01*
X124787841Y-97266139D01*
X124777592Y-97244470D01*
X124769517Y-97221902D01*
X124763693Y-97198651D01*
X124760176Y-97174941D01*
X124759000Y-97151000D01*
X124759000Y-96587500D01*
X124760176Y-96563559D01*
X124763693Y-96539849D01*
X124769517Y-96516598D01*
X124777592Y-96494030D01*
X124787841Y-96472361D01*
X124800164Y-96451802D01*
X124814442Y-96432549D01*
X124830539Y-96414789D01*
X124848299Y-96398692D01*
X124867552Y-96384414D01*
X124888111Y-96372091D01*
X124909780Y-96361842D01*
X124932348Y-96353767D01*
X124955599Y-96347943D01*
X124979309Y-96344426D01*
X125003250Y-96343250D01*
X125491750Y-96343250D01*
X125515691Y-96344426D01*
X125515691Y-96344426D01*
G37*
D18*
X125247500Y-96869250D03*
D17*
G36*
X123940691Y-96344426D02*
G01*
X123964401Y-96347943D01*
X123987652Y-96353767D01*
X124010220Y-96361842D01*
X124031889Y-96372091D01*
X124052448Y-96384414D01*
X124071701Y-96398692D01*
X124089461Y-96414789D01*
X124105558Y-96432549D01*
X124119836Y-96451802D01*
X124132159Y-96472361D01*
X124142408Y-96494030D01*
X124150483Y-96516598D01*
X124156307Y-96539849D01*
X124159824Y-96563559D01*
X124161000Y-96587500D01*
X124161000Y-97151000D01*
X124159824Y-97174941D01*
X124156307Y-97198651D01*
X124150483Y-97221902D01*
X124142408Y-97244470D01*
X124132159Y-97266139D01*
X124119836Y-97286698D01*
X124105558Y-97305951D01*
X124089461Y-97323711D01*
X124071701Y-97339808D01*
X124052448Y-97354086D01*
X124031889Y-97366409D01*
X124010220Y-97376658D01*
X123987652Y-97384733D01*
X123964401Y-97390557D01*
X123940691Y-97394074D01*
X123916750Y-97395250D01*
X123428250Y-97395250D01*
X123404309Y-97394074D01*
X123380599Y-97390557D01*
X123357348Y-97384733D01*
X123334780Y-97376658D01*
X123313111Y-97366409D01*
X123292552Y-97354086D01*
X123273299Y-97339808D01*
X123255539Y-97323711D01*
X123239442Y-97305951D01*
X123225164Y-97286698D01*
X123212841Y-97266139D01*
X123202592Y-97244470D01*
X123194517Y-97221902D01*
X123188693Y-97198651D01*
X123185176Y-97174941D01*
X123184000Y-97151000D01*
X123184000Y-96587500D01*
X123185176Y-96563559D01*
X123188693Y-96539849D01*
X123194517Y-96516598D01*
X123202592Y-96494030D01*
X123212841Y-96472361D01*
X123225164Y-96451802D01*
X123239442Y-96432549D01*
X123255539Y-96414789D01*
X123273299Y-96398692D01*
X123292552Y-96384414D01*
X123313111Y-96372091D01*
X123334780Y-96361842D01*
X123357348Y-96353767D01*
X123380599Y-96347943D01*
X123404309Y-96344426D01*
X123428250Y-96343250D01*
X123916750Y-96343250D01*
X123940691Y-96344426D01*
X123940691Y-96344426D01*
G37*
D18*
X123672500Y-96869250D03*
D17*
G36*
X143180691Y-89650926D02*
G01*
X143204401Y-89654443D01*
X143227652Y-89660267D01*
X143250220Y-89668342D01*
X143271889Y-89678591D01*
X143292448Y-89690914D01*
X143311701Y-89705192D01*
X143329461Y-89721289D01*
X143345558Y-89739049D01*
X143359836Y-89758302D01*
X143372159Y-89778861D01*
X143382408Y-89800530D01*
X143390483Y-89823098D01*
X143396307Y-89846349D01*
X143399824Y-89870059D01*
X143401000Y-89894000D01*
X143401000Y-90382500D01*
X143399824Y-90406441D01*
X143396307Y-90430151D01*
X143390483Y-90453402D01*
X143382408Y-90475970D01*
X143372159Y-90497639D01*
X143359836Y-90518198D01*
X143345558Y-90537451D01*
X143329461Y-90555211D01*
X143311701Y-90571308D01*
X143292448Y-90585586D01*
X143271889Y-90597909D01*
X143250220Y-90608158D01*
X143227652Y-90616233D01*
X143204401Y-90622057D01*
X143180691Y-90625574D01*
X143156750Y-90626750D01*
X142593250Y-90626750D01*
X142569309Y-90625574D01*
X142545599Y-90622057D01*
X142522348Y-90616233D01*
X142499780Y-90608158D01*
X142478111Y-90597909D01*
X142457552Y-90585586D01*
X142438299Y-90571308D01*
X142420539Y-90555211D01*
X142404442Y-90537451D01*
X142390164Y-90518198D01*
X142377841Y-90497639D01*
X142367592Y-90475970D01*
X142359517Y-90453402D01*
X142353693Y-90430151D01*
X142350176Y-90406441D01*
X142349000Y-90382500D01*
X142349000Y-89894000D01*
X142350176Y-89870059D01*
X142353693Y-89846349D01*
X142359517Y-89823098D01*
X142367592Y-89800530D01*
X142377841Y-89778861D01*
X142390164Y-89758302D01*
X142404442Y-89739049D01*
X142420539Y-89721289D01*
X142438299Y-89705192D01*
X142457552Y-89690914D01*
X142478111Y-89678591D01*
X142499780Y-89668342D01*
X142522348Y-89660267D01*
X142545599Y-89654443D01*
X142569309Y-89650926D01*
X142593250Y-89649750D01*
X143156750Y-89649750D01*
X143180691Y-89650926D01*
X143180691Y-89650926D01*
G37*
D18*
X142875000Y-90138250D03*
D17*
G36*
X143180691Y-91225926D02*
G01*
X143204401Y-91229443D01*
X143227652Y-91235267D01*
X143250220Y-91243342D01*
X143271889Y-91253591D01*
X143292448Y-91265914D01*
X143311701Y-91280192D01*
X143329461Y-91296289D01*
X143345558Y-91314049D01*
X143359836Y-91333302D01*
X143372159Y-91353861D01*
X143382408Y-91375530D01*
X143390483Y-91398098D01*
X143396307Y-91421349D01*
X143399824Y-91445059D01*
X143401000Y-91469000D01*
X143401000Y-91957500D01*
X143399824Y-91981441D01*
X143396307Y-92005151D01*
X143390483Y-92028402D01*
X143382408Y-92050970D01*
X143372159Y-92072639D01*
X143359836Y-92093198D01*
X143345558Y-92112451D01*
X143329461Y-92130211D01*
X143311701Y-92146308D01*
X143292448Y-92160586D01*
X143271889Y-92172909D01*
X143250220Y-92183158D01*
X143227652Y-92191233D01*
X143204401Y-92197057D01*
X143180691Y-92200574D01*
X143156750Y-92201750D01*
X142593250Y-92201750D01*
X142569309Y-92200574D01*
X142545599Y-92197057D01*
X142522348Y-92191233D01*
X142499780Y-92183158D01*
X142478111Y-92172909D01*
X142457552Y-92160586D01*
X142438299Y-92146308D01*
X142420539Y-92130211D01*
X142404442Y-92112451D01*
X142390164Y-92093198D01*
X142377841Y-92072639D01*
X142367592Y-92050970D01*
X142359517Y-92028402D01*
X142353693Y-92005151D01*
X142350176Y-91981441D01*
X142349000Y-91957500D01*
X142349000Y-91469000D01*
X142350176Y-91445059D01*
X142353693Y-91421349D01*
X142359517Y-91398098D01*
X142367592Y-91375530D01*
X142377841Y-91353861D01*
X142390164Y-91333302D01*
X142404442Y-91314049D01*
X142420539Y-91296289D01*
X142438299Y-91280192D01*
X142457552Y-91265914D01*
X142478111Y-91253591D01*
X142499780Y-91243342D01*
X142522348Y-91235267D01*
X142545599Y-91229443D01*
X142569309Y-91225926D01*
X142593250Y-91224750D01*
X143156750Y-91224750D01*
X143180691Y-91225926D01*
X143180691Y-91225926D01*
G37*
D18*
X142875000Y-91713250D03*
D17*
G36*
X144958691Y-91225926D02*
G01*
X144982401Y-91229443D01*
X145005652Y-91235267D01*
X145028220Y-91243342D01*
X145049889Y-91253591D01*
X145070448Y-91265914D01*
X145089701Y-91280192D01*
X145107461Y-91296289D01*
X145123558Y-91314049D01*
X145137836Y-91333302D01*
X145150159Y-91353861D01*
X145160408Y-91375530D01*
X145168483Y-91398098D01*
X145174307Y-91421349D01*
X145177824Y-91445059D01*
X145179000Y-91469000D01*
X145179000Y-91957500D01*
X145177824Y-91981441D01*
X145174307Y-92005151D01*
X145168483Y-92028402D01*
X145160408Y-92050970D01*
X145150159Y-92072639D01*
X145137836Y-92093198D01*
X145123558Y-92112451D01*
X145107461Y-92130211D01*
X145089701Y-92146308D01*
X145070448Y-92160586D01*
X145049889Y-92172909D01*
X145028220Y-92183158D01*
X145005652Y-92191233D01*
X144982401Y-92197057D01*
X144958691Y-92200574D01*
X144934750Y-92201750D01*
X144371250Y-92201750D01*
X144347309Y-92200574D01*
X144323599Y-92197057D01*
X144300348Y-92191233D01*
X144277780Y-92183158D01*
X144256111Y-92172909D01*
X144235552Y-92160586D01*
X144216299Y-92146308D01*
X144198539Y-92130211D01*
X144182442Y-92112451D01*
X144168164Y-92093198D01*
X144155841Y-92072639D01*
X144145592Y-92050970D01*
X144137517Y-92028402D01*
X144131693Y-92005151D01*
X144128176Y-91981441D01*
X144127000Y-91957500D01*
X144127000Y-91469000D01*
X144128176Y-91445059D01*
X144131693Y-91421349D01*
X144137517Y-91398098D01*
X144145592Y-91375530D01*
X144155841Y-91353861D01*
X144168164Y-91333302D01*
X144182442Y-91314049D01*
X144198539Y-91296289D01*
X144216299Y-91280192D01*
X144235552Y-91265914D01*
X144256111Y-91253591D01*
X144277780Y-91243342D01*
X144300348Y-91235267D01*
X144323599Y-91229443D01*
X144347309Y-91225926D01*
X144371250Y-91224750D01*
X144934750Y-91224750D01*
X144958691Y-91225926D01*
X144958691Y-91225926D01*
G37*
D18*
X144653000Y-91713250D03*
D17*
G36*
X144958691Y-89650926D02*
G01*
X144982401Y-89654443D01*
X145005652Y-89660267D01*
X145028220Y-89668342D01*
X145049889Y-89678591D01*
X145070448Y-89690914D01*
X145089701Y-89705192D01*
X145107461Y-89721289D01*
X145123558Y-89739049D01*
X145137836Y-89758302D01*
X145150159Y-89778861D01*
X145160408Y-89800530D01*
X145168483Y-89823098D01*
X145174307Y-89846349D01*
X145177824Y-89870059D01*
X145179000Y-89894000D01*
X145179000Y-90382500D01*
X145177824Y-90406441D01*
X145174307Y-90430151D01*
X145168483Y-90453402D01*
X145160408Y-90475970D01*
X145150159Y-90497639D01*
X145137836Y-90518198D01*
X145123558Y-90537451D01*
X145107461Y-90555211D01*
X145089701Y-90571308D01*
X145070448Y-90585586D01*
X145049889Y-90597909D01*
X145028220Y-90608158D01*
X145005652Y-90616233D01*
X144982401Y-90622057D01*
X144958691Y-90625574D01*
X144934750Y-90626750D01*
X144371250Y-90626750D01*
X144347309Y-90625574D01*
X144323599Y-90622057D01*
X144300348Y-90616233D01*
X144277780Y-90608158D01*
X144256111Y-90597909D01*
X144235552Y-90585586D01*
X144216299Y-90571308D01*
X144198539Y-90555211D01*
X144182442Y-90537451D01*
X144168164Y-90518198D01*
X144155841Y-90497639D01*
X144145592Y-90475970D01*
X144137517Y-90453402D01*
X144131693Y-90430151D01*
X144128176Y-90406441D01*
X144127000Y-90382500D01*
X144127000Y-89894000D01*
X144128176Y-89870059D01*
X144131693Y-89846349D01*
X144137517Y-89823098D01*
X144145592Y-89800530D01*
X144155841Y-89778861D01*
X144168164Y-89758302D01*
X144182442Y-89739049D01*
X144198539Y-89721289D01*
X144216299Y-89705192D01*
X144235552Y-89690914D01*
X144256111Y-89678591D01*
X144277780Y-89668342D01*
X144300348Y-89660267D01*
X144323599Y-89654443D01*
X144347309Y-89650926D01*
X144371250Y-89649750D01*
X144934750Y-89649750D01*
X144958691Y-89650926D01*
X144958691Y-89650926D01*
G37*
D18*
X144653000Y-90138250D03*
D17*
G36*
X119209441Y-102744426D02*
G01*
X119233151Y-102747943D01*
X119256402Y-102753767D01*
X119278970Y-102761842D01*
X119300639Y-102772091D01*
X119321198Y-102784414D01*
X119340451Y-102798692D01*
X119358211Y-102814789D01*
X119374308Y-102832549D01*
X119388586Y-102851802D01*
X119400909Y-102872361D01*
X119411158Y-102894030D01*
X119419233Y-102916598D01*
X119425057Y-102939849D01*
X119428574Y-102963559D01*
X119429750Y-102987500D01*
X119429750Y-103476000D01*
X119428574Y-103499941D01*
X119425057Y-103523651D01*
X119419233Y-103546902D01*
X119411158Y-103569470D01*
X119400909Y-103591139D01*
X119388586Y-103611698D01*
X119374308Y-103630951D01*
X119358211Y-103648711D01*
X119340451Y-103664808D01*
X119321198Y-103679086D01*
X119300639Y-103691409D01*
X119278970Y-103701658D01*
X119256402Y-103709733D01*
X119233151Y-103715557D01*
X119209441Y-103719074D01*
X119185500Y-103720250D01*
X118622000Y-103720250D01*
X118598059Y-103719074D01*
X118574349Y-103715557D01*
X118551098Y-103709733D01*
X118528530Y-103701658D01*
X118506861Y-103691409D01*
X118486302Y-103679086D01*
X118467049Y-103664808D01*
X118449289Y-103648711D01*
X118433192Y-103630951D01*
X118418914Y-103611698D01*
X118406591Y-103591139D01*
X118396342Y-103569470D01*
X118388267Y-103546902D01*
X118382443Y-103523651D01*
X118378926Y-103499941D01*
X118377750Y-103476000D01*
X118377750Y-102987500D01*
X118378926Y-102963559D01*
X118382443Y-102939849D01*
X118388267Y-102916598D01*
X118396342Y-102894030D01*
X118406591Y-102872361D01*
X118418914Y-102851802D01*
X118433192Y-102832549D01*
X118449289Y-102814789D01*
X118467049Y-102798692D01*
X118486302Y-102784414D01*
X118506861Y-102772091D01*
X118528530Y-102761842D01*
X118551098Y-102753767D01*
X118574349Y-102747943D01*
X118598059Y-102744426D01*
X118622000Y-102743250D01*
X119185500Y-102743250D01*
X119209441Y-102744426D01*
X119209441Y-102744426D01*
G37*
D18*
X118903750Y-103231750D03*
D17*
G36*
X119209441Y-104319426D02*
G01*
X119233151Y-104322943D01*
X119256402Y-104328767D01*
X119278970Y-104336842D01*
X119300639Y-104347091D01*
X119321198Y-104359414D01*
X119340451Y-104373692D01*
X119358211Y-104389789D01*
X119374308Y-104407549D01*
X119388586Y-104426802D01*
X119400909Y-104447361D01*
X119411158Y-104469030D01*
X119419233Y-104491598D01*
X119425057Y-104514849D01*
X119428574Y-104538559D01*
X119429750Y-104562500D01*
X119429750Y-105051000D01*
X119428574Y-105074941D01*
X119425057Y-105098651D01*
X119419233Y-105121902D01*
X119411158Y-105144470D01*
X119400909Y-105166139D01*
X119388586Y-105186698D01*
X119374308Y-105205951D01*
X119358211Y-105223711D01*
X119340451Y-105239808D01*
X119321198Y-105254086D01*
X119300639Y-105266409D01*
X119278970Y-105276658D01*
X119256402Y-105284733D01*
X119233151Y-105290557D01*
X119209441Y-105294074D01*
X119185500Y-105295250D01*
X118622000Y-105295250D01*
X118598059Y-105294074D01*
X118574349Y-105290557D01*
X118551098Y-105284733D01*
X118528530Y-105276658D01*
X118506861Y-105266409D01*
X118486302Y-105254086D01*
X118467049Y-105239808D01*
X118449289Y-105223711D01*
X118433192Y-105205951D01*
X118418914Y-105186698D01*
X118406591Y-105166139D01*
X118396342Y-105144470D01*
X118388267Y-105121902D01*
X118382443Y-105098651D01*
X118378926Y-105074941D01*
X118377750Y-105051000D01*
X118377750Y-104562500D01*
X118378926Y-104538559D01*
X118382443Y-104514849D01*
X118388267Y-104491598D01*
X118396342Y-104469030D01*
X118406591Y-104447361D01*
X118418914Y-104426802D01*
X118433192Y-104407549D01*
X118449289Y-104389789D01*
X118467049Y-104373692D01*
X118486302Y-104359414D01*
X118506861Y-104347091D01*
X118528530Y-104336842D01*
X118551098Y-104328767D01*
X118574349Y-104322943D01*
X118598059Y-104319426D01*
X118622000Y-104318250D01*
X119185500Y-104318250D01*
X119209441Y-104319426D01*
X119209441Y-104319426D01*
G37*
D18*
X118903750Y-104806750D03*
D17*
G36*
X126512876Y-103206174D02*
G01*
X126521418Y-103207441D01*
X126529795Y-103209539D01*
X126537926Y-103212449D01*
X126545733Y-103216141D01*
X126553140Y-103220581D01*
X126560077Y-103225725D01*
X126566475Y-103231525D01*
X126572275Y-103237923D01*
X126577419Y-103244860D01*
X126581859Y-103252267D01*
X126585551Y-103260074D01*
X126588461Y-103268205D01*
X126590559Y-103276582D01*
X126591826Y-103285124D01*
X126592250Y-103293750D01*
X126592250Y-103469750D01*
X126591826Y-103478376D01*
X126590559Y-103486918D01*
X126588461Y-103495295D01*
X126585551Y-103503426D01*
X126581859Y-103511233D01*
X126577419Y-103518640D01*
X126572275Y-103525577D01*
X126566475Y-103531975D01*
X126560077Y-103537775D01*
X126553140Y-103542919D01*
X126545733Y-103547359D01*
X126537926Y-103551051D01*
X126529795Y-103553961D01*
X126521418Y-103556059D01*
X126512876Y-103557326D01*
X126504250Y-103557750D01*
X125703250Y-103557750D01*
X125694624Y-103557326D01*
X125686082Y-103556059D01*
X125677705Y-103553961D01*
X125669574Y-103551051D01*
X125661767Y-103547359D01*
X125654360Y-103542919D01*
X125647423Y-103537775D01*
X125641025Y-103531975D01*
X125635225Y-103525577D01*
X125630081Y-103518640D01*
X125625641Y-103511233D01*
X125621949Y-103503426D01*
X125619039Y-103495295D01*
X125616941Y-103486918D01*
X125615674Y-103478376D01*
X125615250Y-103469750D01*
X125615250Y-103293750D01*
X125615674Y-103285124D01*
X125616941Y-103276582D01*
X125619039Y-103268205D01*
X125621949Y-103260074D01*
X125625641Y-103252267D01*
X125630081Y-103244860D01*
X125635225Y-103237923D01*
X125641025Y-103231525D01*
X125647423Y-103225725D01*
X125654360Y-103220581D01*
X125661767Y-103216141D01*
X125669574Y-103212449D01*
X125677705Y-103209539D01*
X125686082Y-103207441D01*
X125694624Y-103206174D01*
X125703250Y-103205750D01*
X126504250Y-103205750D01*
X126512876Y-103206174D01*
X126512876Y-103206174D01*
G37*
D21*
X126103750Y-103381750D03*
D17*
G36*
X126512876Y-102706174D02*
G01*
X126521418Y-102707441D01*
X126529795Y-102709539D01*
X126537926Y-102712449D01*
X126545733Y-102716141D01*
X126553140Y-102720581D01*
X126560077Y-102725725D01*
X126566475Y-102731525D01*
X126572275Y-102737923D01*
X126577419Y-102744860D01*
X126581859Y-102752267D01*
X126585551Y-102760074D01*
X126588461Y-102768205D01*
X126590559Y-102776582D01*
X126591826Y-102785124D01*
X126592250Y-102793750D01*
X126592250Y-102969750D01*
X126591826Y-102978376D01*
X126590559Y-102986918D01*
X126588461Y-102995295D01*
X126585551Y-103003426D01*
X126581859Y-103011233D01*
X126577419Y-103018640D01*
X126572275Y-103025577D01*
X126566475Y-103031975D01*
X126560077Y-103037775D01*
X126553140Y-103042919D01*
X126545733Y-103047359D01*
X126537926Y-103051051D01*
X126529795Y-103053961D01*
X126521418Y-103056059D01*
X126512876Y-103057326D01*
X126504250Y-103057750D01*
X125703250Y-103057750D01*
X125694624Y-103057326D01*
X125686082Y-103056059D01*
X125677705Y-103053961D01*
X125669574Y-103051051D01*
X125661767Y-103047359D01*
X125654360Y-103042919D01*
X125647423Y-103037775D01*
X125641025Y-103031975D01*
X125635225Y-103025577D01*
X125630081Y-103018640D01*
X125625641Y-103011233D01*
X125621949Y-103003426D01*
X125619039Y-102995295D01*
X125616941Y-102986918D01*
X125615674Y-102978376D01*
X125615250Y-102969750D01*
X125615250Y-102793750D01*
X125615674Y-102785124D01*
X125616941Y-102776582D01*
X125619039Y-102768205D01*
X125621949Y-102760074D01*
X125625641Y-102752267D01*
X125630081Y-102744860D01*
X125635225Y-102737923D01*
X125641025Y-102731525D01*
X125647423Y-102725725D01*
X125654360Y-102720581D01*
X125661767Y-102716141D01*
X125669574Y-102712449D01*
X125677705Y-102709539D01*
X125686082Y-102707441D01*
X125694624Y-102706174D01*
X125703250Y-102705750D01*
X126504250Y-102705750D01*
X126512876Y-102706174D01*
X126512876Y-102706174D01*
G37*
D21*
X126103750Y-102881750D03*
D17*
G36*
X126512876Y-102206174D02*
G01*
X126521418Y-102207441D01*
X126529795Y-102209539D01*
X126537926Y-102212449D01*
X126545733Y-102216141D01*
X126553140Y-102220581D01*
X126560077Y-102225725D01*
X126566475Y-102231525D01*
X126572275Y-102237923D01*
X126577419Y-102244860D01*
X126581859Y-102252267D01*
X126585551Y-102260074D01*
X126588461Y-102268205D01*
X126590559Y-102276582D01*
X126591826Y-102285124D01*
X126592250Y-102293750D01*
X126592250Y-102469750D01*
X126591826Y-102478376D01*
X126590559Y-102486918D01*
X126588461Y-102495295D01*
X126585551Y-102503426D01*
X126581859Y-102511233D01*
X126577419Y-102518640D01*
X126572275Y-102525577D01*
X126566475Y-102531975D01*
X126560077Y-102537775D01*
X126553140Y-102542919D01*
X126545733Y-102547359D01*
X126537926Y-102551051D01*
X126529795Y-102553961D01*
X126521418Y-102556059D01*
X126512876Y-102557326D01*
X126504250Y-102557750D01*
X125703250Y-102557750D01*
X125694624Y-102557326D01*
X125686082Y-102556059D01*
X125677705Y-102553961D01*
X125669574Y-102551051D01*
X125661767Y-102547359D01*
X125654360Y-102542919D01*
X125647423Y-102537775D01*
X125641025Y-102531975D01*
X125635225Y-102525577D01*
X125630081Y-102518640D01*
X125625641Y-102511233D01*
X125621949Y-102503426D01*
X125619039Y-102495295D01*
X125616941Y-102486918D01*
X125615674Y-102478376D01*
X125615250Y-102469750D01*
X125615250Y-102293750D01*
X125615674Y-102285124D01*
X125616941Y-102276582D01*
X125619039Y-102268205D01*
X125621949Y-102260074D01*
X125625641Y-102252267D01*
X125630081Y-102244860D01*
X125635225Y-102237923D01*
X125641025Y-102231525D01*
X125647423Y-102225725D01*
X125654360Y-102220581D01*
X125661767Y-102216141D01*
X125669574Y-102212449D01*
X125677705Y-102209539D01*
X125686082Y-102207441D01*
X125694624Y-102206174D01*
X125703250Y-102205750D01*
X126504250Y-102205750D01*
X126512876Y-102206174D01*
X126512876Y-102206174D01*
G37*
D21*
X126103750Y-102381750D03*
D17*
G36*
X126512876Y-101706174D02*
G01*
X126521418Y-101707441D01*
X126529795Y-101709539D01*
X126537926Y-101712449D01*
X126545733Y-101716141D01*
X126553140Y-101720581D01*
X126560077Y-101725725D01*
X126566475Y-101731525D01*
X126572275Y-101737923D01*
X126577419Y-101744860D01*
X126581859Y-101752267D01*
X126585551Y-101760074D01*
X126588461Y-101768205D01*
X126590559Y-101776582D01*
X126591826Y-101785124D01*
X126592250Y-101793750D01*
X126592250Y-101969750D01*
X126591826Y-101978376D01*
X126590559Y-101986918D01*
X126588461Y-101995295D01*
X126585551Y-102003426D01*
X126581859Y-102011233D01*
X126577419Y-102018640D01*
X126572275Y-102025577D01*
X126566475Y-102031975D01*
X126560077Y-102037775D01*
X126553140Y-102042919D01*
X126545733Y-102047359D01*
X126537926Y-102051051D01*
X126529795Y-102053961D01*
X126521418Y-102056059D01*
X126512876Y-102057326D01*
X126504250Y-102057750D01*
X125703250Y-102057750D01*
X125694624Y-102057326D01*
X125686082Y-102056059D01*
X125677705Y-102053961D01*
X125669574Y-102051051D01*
X125661767Y-102047359D01*
X125654360Y-102042919D01*
X125647423Y-102037775D01*
X125641025Y-102031975D01*
X125635225Y-102025577D01*
X125630081Y-102018640D01*
X125625641Y-102011233D01*
X125621949Y-102003426D01*
X125619039Y-101995295D01*
X125616941Y-101986918D01*
X125615674Y-101978376D01*
X125615250Y-101969750D01*
X125615250Y-101793750D01*
X125615674Y-101785124D01*
X125616941Y-101776582D01*
X125619039Y-101768205D01*
X125621949Y-101760074D01*
X125625641Y-101752267D01*
X125630081Y-101744860D01*
X125635225Y-101737923D01*
X125641025Y-101731525D01*
X125647423Y-101725725D01*
X125654360Y-101720581D01*
X125661767Y-101716141D01*
X125669574Y-101712449D01*
X125677705Y-101709539D01*
X125686082Y-101707441D01*
X125694624Y-101706174D01*
X125703250Y-101705750D01*
X126504250Y-101705750D01*
X126512876Y-101706174D01*
X126512876Y-101706174D01*
G37*
D21*
X126103750Y-101881750D03*
D17*
G36*
X126512876Y-101206174D02*
G01*
X126521418Y-101207441D01*
X126529795Y-101209539D01*
X126537926Y-101212449D01*
X126545733Y-101216141D01*
X126553140Y-101220581D01*
X126560077Y-101225725D01*
X126566475Y-101231525D01*
X126572275Y-101237923D01*
X126577419Y-101244860D01*
X126581859Y-101252267D01*
X126585551Y-101260074D01*
X126588461Y-101268205D01*
X126590559Y-101276582D01*
X126591826Y-101285124D01*
X126592250Y-101293750D01*
X126592250Y-101469750D01*
X126591826Y-101478376D01*
X126590559Y-101486918D01*
X126588461Y-101495295D01*
X126585551Y-101503426D01*
X126581859Y-101511233D01*
X126577419Y-101518640D01*
X126572275Y-101525577D01*
X126566475Y-101531975D01*
X126560077Y-101537775D01*
X126553140Y-101542919D01*
X126545733Y-101547359D01*
X126537926Y-101551051D01*
X126529795Y-101553961D01*
X126521418Y-101556059D01*
X126512876Y-101557326D01*
X126504250Y-101557750D01*
X125703250Y-101557750D01*
X125694624Y-101557326D01*
X125686082Y-101556059D01*
X125677705Y-101553961D01*
X125669574Y-101551051D01*
X125661767Y-101547359D01*
X125654360Y-101542919D01*
X125647423Y-101537775D01*
X125641025Y-101531975D01*
X125635225Y-101525577D01*
X125630081Y-101518640D01*
X125625641Y-101511233D01*
X125621949Y-101503426D01*
X125619039Y-101495295D01*
X125616941Y-101486918D01*
X125615674Y-101478376D01*
X125615250Y-101469750D01*
X125615250Y-101293750D01*
X125615674Y-101285124D01*
X125616941Y-101276582D01*
X125619039Y-101268205D01*
X125621949Y-101260074D01*
X125625641Y-101252267D01*
X125630081Y-101244860D01*
X125635225Y-101237923D01*
X125641025Y-101231525D01*
X125647423Y-101225725D01*
X125654360Y-101220581D01*
X125661767Y-101216141D01*
X125669574Y-101212449D01*
X125677705Y-101209539D01*
X125686082Y-101207441D01*
X125694624Y-101206174D01*
X125703250Y-101205750D01*
X126504250Y-101205750D01*
X126512876Y-101206174D01*
X126512876Y-101206174D01*
G37*
D21*
X126103750Y-101381750D03*
D17*
G36*
X126512876Y-100706174D02*
G01*
X126521418Y-100707441D01*
X126529795Y-100709539D01*
X126537926Y-100712449D01*
X126545733Y-100716141D01*
X126553140Y-100720581D01*
X126560077Y-100725725D01*
X126566475Y-100731525D01*
X126572275Y-100737923D01*
X126577419Y-100744860D01*
X126581859Y-100752267D01*
X126585551Y-100760074D01*
X126588461Y-100768205D01*
X126590559Y-100776582D01*
X126591826Y-100785124D01*
X126592250Y-100793750D01*
X126592250Y-100969750D01*
X126591826Y-100978376D01*
X126590559Y-100986918D01*
X126588461Y-100995295D01*
X126585551Y-101003426D01*
X126581859Y-101011233D01*
X126577419Y-101018640D01*
X126572275Y-101025577D01*
X126566475Y-101031975D01*
X126560077Y-101037775D01*
X126553140Y-101042919D01*
X126545733Y-101047359D01*
X126537926Y-101051051D01*
X126529795Y-101053961D01*
X126521418Y-101056059D01*
X126512876Y-101057326D01*
X126504250Y-101057750D01*
X125703250Y-101057750D01*
X125694624Y-101057326D01*
X125686082Y-101056059D01*
X125677705Y-101053961D01*
X125669574Y-101051051D01*
X125661767Y-101047359D01*
X125654360Y-101042919D01*
X125647423Y-101037775D01*
X125641025Y-101031975D01*
X125635225Y-101025577D01*
X125630081Y-101018640D01*
X125625641Y-101011233D01*
X125621949Y-101003426D01*
X125619039Y-100995295D01*
X125616941Y-100986918D01*
X125615674Y-100978376D01*
X125615250Y-100969750D01*
X125615250Y-100793750D01*
X125615674Y-100785124D01*
X125616941Y-100776582D01*
X125619039Y-100768205D01*
X125621949Y-100760074D01*
X125625641Y-100752267D01*
X125630081Y-100744860D01*
X125635225Y-100737923D01*
X125641025Y-100731525D01*
X125647423Y-100725725D01*
X125654360Y-100720581D01*
X125661767Y-100716141D01*
X125669574Y-100712449D01*
X125677705Y-100709539D01*
X125686082Y-100707441D01*
X125694624Y-100706174D01*
X125703250Y-100705750D01*
X126504250Y-100705750D01*
X126512876Y-100706174D01*
X126512876Y-100706174D01*
G37*
D21*
X126103750Y-100881750D03*
D17*
G36*
X126512876Y-100206174D02*
G01*
X126521418Y-100207441D01*
X126529795Y-100209539D01*
X126537926Y-100212449D01*
X126545733Y-100216141D01*
X126553140Y-100220581D01*
X126560077Y-100225725D01*
X126566475Y-100231525D01*
X126572275Y-100237923D01*
X126577419Y-100244860D01*
X126581859Y-100252267D01*
X126585551Y-100260074D01*
X126588461Y-100268205D01*
X126590559Y-100276582D01*
X126591826Y-100285124D01*
X126592250Y-100293750D01*
X126592250Y-100469750D01*
X126591826Y-100478376D01*
X126590559Y-100486918D01*
X126588461Y-100495295D01*
X126585551Y-100503426D01*
X126581859Y-100511233D01*
X126577419Y-100518640D01*
X126572275Y-100525577D01*
X126566475Y-100531975D01*
X126560077Y-100537775D01*
X126553140Y-100542919D01*
X126545733Y-100547359D01*
X126537926Y-100551051D01*
X126529795Y-100553961D01*
X126521418Y-100556059D01*
X126512876Y-100557326D01*
X126504250Y-100557750D01*
X125703250Y-100557750D01*
X125694624Y-100557326D01*
X125686082Y-100556059D01*
X125677705Y-100553961D01*
X125669574Y-100551051D01*
X125661767Y-100547359D01*
X125654360Y-100542919D01*
X125647423Y-100537775D01*
X125641025Y-100531975D01*
X125635225Y-100525577D01*
X125630081Y-100518640D01*
X125625641Y-100511233D01*
X125621949Y-100503426D01*
X125619039Y-100495295D01*
X125616941Y-100486918D01*
X125615674Y-100478376D01*
X125615250Y-100469750D01*
X125615250Y-100293750D01*
X125615674Y-100285124D01*
X125616941Y-100276582D01*
X125619039Y-100268205D01*
X125621949Y-100260074D01*
X125625641Y-100252267D01*
X125630081Y-100244860D01*
X125635225Y-100237923D01*
X125641025Y-100231525D01*
X125647423Y-100225725D01*
X125654360Y-100220581D01*
X125661767Y-100216141D01*
X125669574Y-100212449D01*
X125677705Y-100209539D01*
X125686082Y-100207441D01*
X125694624Y-100206174D01*
X125703250Y-100205750D01*
X126504250Y-100205750D01*
X126512876Y-100206174D01*
X126512876Y-100206174D01*
G37*
D21*
X126103750Y-100381750D03*
D17*
G36*
X126512876Y-99706174D02*
G01*
X126521418Y-99707441D01*
X126529795Y-99709539D01*
X126537926Y-99712449D01*
X126545733Y-99716141D01*
X126553140Y-99720581D01*
X126560077Y-99725725D01*
X126566475Y-99731525D01*
X126572275Y-99737923D01*
X126577419Y-99744860D01*
X126581859Y-99752267D01*
X126585551Y-99760074D01*
X126588461Y-99768205D01*
X126590559Y-99776582D01*
X126591826Y-99785124D01*
X126592250Y-99793750D01*
X126592250Y-99969750D01*
X126591826Y-99978376D01*
X126590559Y-99986918D01*
X126588461Y-99995295D01*
X126585551Y-100003426D01*
X126581859Y-100011233D01*
X126577419Y-100018640D01*
X126572275Y-100025577D01*
X126566475Y-100031975D01*
X126560077Y-100037775D01*
X126553140Y-100042919D01*
X126545733Y-100047359D01*
X126537926Y-100051051D01*
X126529795Y-100053961D01*
X126521418Y-100056059D01*
X126512876Y-100057326D01*
X126504250Y-100057750D01*
X125703250Y-100057750D01*
X125694624Y-100057326D01*
X125686082Y-100056059D01*
X125677705Y-100053961D01*
X125669574Y-100051051D01*
X125661767Y-100047359D01*
X125654360Y-100042919D01*
X125647423Y-100037775D01*
X125641025Y-100031975D01*
X125635225Y-100025577D01*
X125630081Y-100018640D01*
X125625641Y-100011233D01*
X125621949Y-100003426D01*
X125619039Y-99995295D01*
X125616941Y-99986918D01*
X125615674Y-99978376D01*
X125615250Y-99969750D01*
X125615250Y-99793750D01*
X125615674Y-99785124D01*
X125616941Y-99776582D01*
X125619039Y-99768205D01*
X125621949Y-99760074D01*
X125625641Y-99752267D01*
X125630081Y-99744860D01*
X125635225Y-99737923D01*
X125641025Y-99731525D01*
X125647423Y-99725725D01*
X125654360Y-99720581D01*
X125661767Y-99716141D01*
X125669574Y-99712449D01*
X125677705Y-99709539D01*
X125686082Y-99707441D01*
X125694624Y-99706174D01*
X125703250Y-99705750D01*
X126504250Y-99705750D01*
X126512876Y-99706174D01*
X126512876Y-99706174D01*
G37*
D21*
X126103750Y-99881750D03*
D17*
G36*
X125512876Y-98706174D02*
G01*
X125521418Y-98707441D01*
X125529795Y-98709539D01*
X125537926Y-98712449D01*
X125545733Y-98716141D01*
X125553140Y-98720581D01*
X125560077Y-98725725D01*
X125566475Y-98731525D01*
X125572275Y-98737923D01*
X125577419Y-98744860D01*
X125581859Y-98752267D01*
X125585551Y-98760074D01*
X125588461Y-98768205D01*
X125590559Y-98776582D01*
X125591826Y-98785124D01*
X125592250Y-98793750D01*
X125592250Y-99594750D01*
X125591826Y-99603376D01*
X125590559Y-99611918D01*
X125588461Y-99620295D01*
X125585551Y-99628426D01*
X125581859Y-99636233D01*
X125577419Y-99643640D01*
X125572275Y-99650577D01*
X125566475Y-99656975D01*
X125560077Y-99662775D01*
X125553140Y-99667919D01*
X125545733Y-99672359D01*
X125537926Y-99676051D01*
X125529795Y-99678961D01*
X125521418Y-99681059D01*
X125512876Y-99682326D01*
X125504250Y-99682750D01*
X125328250Y-99682750D01*
X125319624Y-99682326D01*
X125311082Y-99681059D01*
X125302705Y-99678961D01*
X125294574Y-99676051D01*
X125286767Y-99672359D01*
X125279360Y-99667919D01*
X125272423Y-99662775D01*
X125266025Y-99656975D01*
X125260225Y-99650577D01*
X125255081Y-99643640D01*
X125250641Y-99636233D01*
X125246949Y-99628426D01*
X125244039Y-99620295D01*
X125241941Y-99611918D01*
X125240674Y-99603376D01*
X125240250Y-99594750D01*
X125240250Y-98793750D01*
X125240674Y-98785124D01*
X125241941Y-98776582D01*
X125244039Y-98768205D01*
X125246949Y-98760074D01*
X125250641Y-98752267D01*
X125255081Y-98744860D01*
X125260225Y-98737923D01*
X125266025Y-98731525D01*
X125272423Y-98725725D01*
X125279360Y-98720581D01*
X125286767Y-98716141D01*
X125294574Y-98712449D01*
X125302705Y-98709539D01*
X125311082Y-98707441D01*
X125319624Y-98706174D01*
X125328250Y-98705750D01*
X125504250Y-98705750D01*
X125512876Y-98706174D01*
X125512876Y-98706174D01*
G37*
D21*
X125416250Y-99194250D03*
D17*
G36*
X125012876Y-98706174D02*
G01*
X125021418Y-98707441D01*
X125029795Y-98709539D01*
X125037926Y-98712449D01*
X125045733Y-98716141D01*
X125053140Y-98720581D01*
X125060077Y-98725725D01*
X125066475Y-98731525D01*
X125072275Y-98737923D01*
X125077419Y-98744860D01*
X125081859Y-98752267D01*
X125085551Y-98760074D01*
X125088461Y-98768205D01*
X125090559Y-98776582D01*
X125091826Y-98785124D01*
X125092250Y-98793750D01*
X125092250Y-99594750D01*
X125091826Y-99603376D01*
X125090559Y-99611918D01*
X125088461Y-99620295D01*
X125085551Y-99628426D01*
X125081859Y-99636233D01*
X125077419Y-99643640D01*
X125072275Y-99650577D01*
X125066475Y-99656975D01*
X125060077Y-99662775D01*
X125053140Y-99667919D01*
X125045733Y-99672359D01*
X125037926Y-99676051D01*
X125029795Y-99678961D01*
X125021418Y-99681059D01*
X125012876Y-99682326D01*
X125004250Y-99682750D01*
X124828250Y-99682750D01*
X124819624Y-99682326D01*
X124811082Y-99681059D01*
X124802705Y-99678961D01*
X124794574Y-99676051D01*
X124786767Y-99672359D01*
X124779360Y-99667919D01*
X124772423Y-99662775D01*
X124766025Y-99656975D01*
X124760225Y-99650577D01*
X124755081Y-99643640D01*
X124750641Y-99636233D01*
X124746949Y-99628426D01*
X124744039Y-99620295D01*
X124741941Y-99611918D01*
X124740674Y-99603376D01*
X124740250Y-99594750D01*
X124740250Y-98793750D01*
X124740674Y-98785124D01*
X124741941Y-98776582D01*
X124744039Y-98768205D01*
X124746949Y-98760074D01*
X124750641Y-98752267D01*
X124755081Y-98744860D01*
X124760225Y-98737923D01*
X124766025Y-98731525D01*
X124772423Y-98725725D01*
X124779360Y-98720581D01*
X124786767Y-98716141D01*
X124794574Y-98712449D01*
X124802705Y-98709539D01*
X124811082Y-98707441D01*
X124819624Y-98706174D01*
X124828250Y-98705750D01*
X125004250Y-98705750D01*
X125012876Y-98706174D01*
X125012876Y-98706174D01*
G37*
D21*
X124916250Y-99194250D03*
D17*
G36*
X124512876Y-98706174D02*
G01*
X124521418Y-98707441D01*
X124529795Y-98709539D01*
X124537926Y-98712449D01*
X124545733Y-98716141D01*
X124553140Y-98720581D01*
X124560077Y-98725725D01*
X124566475Y-98731525D01*
X124572275Y-98737923D01*
X124577419Y-98744860D01*
X124581859Y-98752267D01*
X124585551Y-98760074D01*
X124588461Y-98768205D01*
X124590559Y-98776582D01*
X124591826Y-98785124D01*
X124592250Y-98793750D01*
X124592250Y-99594750D01*
X124591826Y-99603376D01*
X124590559Y-99611918D01*
X124588461Y-99620295D01*
X124585551Y-99628426D01*
X124581859Y-99636233D01*
X124577419Y-99643640D01*
X124572275Y-99650577D01*
X124566475Y-99656975D01*
X124560077Y-99662775D01*
X124553140Y-99667919D01*
X124545733Y-99672359D01*
X124537926Y-99676051D01*
X124529795Y-99678961D01*
X124521418Y-99681059D01*
X124512876Y-99682326D01*
X124504250Y-99682750D01*
X124328250Y-99682750D01*
X124319624Y-99682326D01*
X124311082Y-99681059D01*
X124302705Y-99678961D01*
X124294574Y-99676051D01*
X124286767Y-99672359D01*
X124279360Y-99667919D01*
X124272423Y-99662775D01*
X124266025Y-99656975D01*
X124260225Y-99650577D01*
X124255081Y-99643640D01*
X124250641Y-99636233D01*
X124246949Y-99628426D01*
X124244039Y-99620295D01*
X124241941Y-99611918D01*
X124240674Y-99603376D01*
X124240250Y-99594750D01*
X124240250Y-98793750D01*
X124240674Y-98785124D01*
X124241941Y-98776582D01*
X124244039Y-98768205D01*
X124246949Y-98760074D01*
X124250641Y-98752267D01*
X124255081Y-98744860D01*
X124260225Y-98737923D01*
X124266025Y-98731525D01*
X124272423Y-98725725D01*
X124279360Y-98720581D01*
X124286767Y-98716141D01*
X124294574Y-98712449D01*
X124302705Y-98709539D01*
X124311082Y-98707441D01*
X124319624Y-98706174D01*
X124328250Y-98705750D01*
X124504250Y-98705750D01*
X124512876Y-98706174D01*
X124512876Y-98706174D01*
G37*
D21*
X124416250Y-99194250D03*
D17*
G36*
X124012876Y-98706174D02*
G01*
X124021418Y-98707441D01*
X124029795Y-98709539D01*
X124037926Y-98712449D01*
X124045733Y-98716141D01*
X124053140Y-98720581D01*
X124060077Y-98725725D01*
X124066475Y-98731525D01*
X124072275Y-98737923D01*
X124077419Y-98744860D01*
X124081859Y-98752267D01*
X124085551Y-98760074D01*
X124088461Y-98768205D01*
X124090559Y-98776582D01*
X124091826Y-98785124D01*
X124092250Y-98793750D01*
X124092250Y-99594750D01*
X124091826Y-99603376D01*
X124090559Y-99611918D01*
X124088461Y-99620295D01*
X124085551Y-99628426D01*
X124081859Y-99636233D01*
X124077419Y-99643640D01*
X124072275Y-99650577D01*
X124066475Y-99656975D01*
X124060077Y-99662775D01*
X124053140Y-99667919D01*
X124045733Y-99672359D01*
X124037926Y-99676051D01*
X124029795Y-99678961D01*
X124021418Y-99681059D01*
X124012876Y-99682326D01*
X124004250Y-99682750D01*
X123828250Y-99682750D01*
X123819624Y-99682326D01*
X123811082Y-99681059D01*
X123802705Y-99678961D01*
X123794574Y-99676051D01*
X123786767Y-99672359D01*
X123779360Y-99667919D01*
X123772423Y-99662775D01*
X123766025Y-99656975D01*
X123760225Y-99650577D01*
X123755081Y-99643640D01*
X123750641Y-99636233D01*
X123746949Y-99628426D01*
X123744039Y-99620295D01*
X123741941Y-99611918D01*
X123740674Y-99603376D01*
X123740250Y-99594750D01*
X123740250Y-98793750D01*
X123740674Y-98785124D01*
X123741941Y-98776582D01*
X123744039Y-98768205D01*
X123746949Y-98760074D01*
X123750641Y-98752267D01*
X123755081Y-98744860D01*
X123760225Y-98737923D01*
X123766025Y-98731525D01*
X123772423Y-98725725D01*
X123779360Y-98720581D01*
X123786767Y-98716141D01*
X123794574Y-98712449D01*
X123802705Y-98709539D01*
X123811082Y-98707441D01*
X123819624Y-98706174D01*
X123828250Y-98705750D01*
X124004250Y-98705750D01*
X124012876Y-98706174D01*
X124012876Y-98706174D01*
G37*
D21*
X123916250Y-99194250D03*
D17*
G36*
X123512876Y-98706174D02*
G01*
X123521418Y-98707441D01*
X123529795Y-98709539D01*
X123537926Y-98712449D01*
X123545733Y-98716141D01*
X123553140Y-98720581D01*
X123560077Y-98725725D01*
X123566475Y-98731525D01*
X123572275Y-98737923D01*
X123577419Y-98744860D01*
X123581859Y-98752267D01*
X123585551Y-98760074D01*
X123588461Y-98768205D01*
X123590559Y-98776582D01*
X123591826Y-98785124D01*
X123592250Y-98793750D01*
X123592250Y-99594750D01*
X123591826Y-99603376D01*
X123590559Y-99611918D01*
X123588461Y-99620295D01*
X123585551Y-99628426D01*
X123581859Y-99636233D01*
X123577419Y-99643640D01*
X123572275Y-99650577D01*
X123566475Y-99656975D01*
X123560077Y-99662775D01*
X123553140Y-99667919D01*
X123545733Y-99672359D01*
X123537926Y-99676051D01*
X123529795Y-99678961D01*
X123521418Y-99681059D01*
X123512876Y-99682326D01*
X123504250Y-99682750D01*
X123328250Y-99682750D01*
X123319624Y-99682326D01*
X123311082Y-99681059D01*
X123302705Y-99678961D01*
X123294574Y-99676051D01*
X123286767Y-99672359D01*
X123279360Y-99667919D01*
X123272423Y-99662775D01*
X123266025Y-99656975D01*
X123260225Y-99650577D01*
X123255081Y-99643640D01*
X123250641Y-99636233D01*
X123246949Y-99628426D01*
X123244039Y-99620295D01*
X123241941Y-99611918D01*
X123240674Y-99603376D01*
X123240250Y-99594750D01*
X123240250Y-98793750D01*
X123240674Y-98785124D01*
X123241941Y-98776582D01*
X123244039Y-98768205D01*
X123246949Y-98760074D01*
X123250641Y-98752267D01*
X123255081Y-98744860D01*
X123260225Y-98737923D01*
X123266025Y-98731525D01*
X123272423Y-98725725D01*
X123279360Y-98720581D01*
X123286767Y-98716141D01*
X123294574Y-98712449D01*
X123302705Y-98709539D01*
X123311082Y-98707441D01*
X123319624Y-98706174D01*
X123328250Y-98705750D01*
X123504250Y-98705750D01*
X123512876Y-98706174D01*
X123512876Y-98706174D01*
G37*
D21*
X123416250Y-99194250D03*
D17*
G36*
X123012876Y-98706174D02*
G01*
X123021418Y-98707441D01*
X123029795Y-98709539D01*
X123037926Y-98712449D01*
X123045733Y-98716141D01*
X123053140Y-98720581D01*
X123060077Y-98725725D01*
X123066475Y-98731525D01*
X123072275Y-98737923D01*
X123077419Y-98744860D01*
X123081859Y-98752267D01*
X123085551Y-98760074D01*
X123088461Y-98768205D01*
X123090559Y-98776582D01*
X123091826Y-98785124D01*
X123092250Y-98793750D01*
X123092250Y-99594750D01*
X123091826Y-99603376D01*
X123090559Y-99611918D01*
X123088461Y-99620295D01*
X123085551Y-99628426D01*
X123081859Y-99636233D01*
X123077419Y-99643640D01*
X123072275Y-99650577D01*
X123066475Y-99656975D01*
X123060077Y-99662775D01*
X123053140Y-99667919D01*
X123045733Y-99672359D01*
X123037926Y-99676051D01*
X123029795Y-99678961D01*
X123021418Y-99681059D01*
X123012876Y-99682326D01*
X123004250Y-99682750D01*
X122828250Y-99682750D01*
X122819624Y-99682326D01*
X122811082Y-99681059D01*
X122802705Y-99678961D01*
X122794574Y-99676051D01*
X122786767Y-99672359D01*
X122779360Y-99667919D01*
X122772423Y-99662775D01*
X122766025Y-99656975D01*
X122760225Y-99650577D01*
X122755081Y-99643640D01*
X122750641Y-99636233D01*
X122746949Y-99628426D01*
X122744039Y-99620295D01*
X122741941Y-99611918D01*
X122740674Y-99603376D01*
X122740250Y-99594750D01*
X122740250Y-98793750D01*
X122740674Y-98785124D01*
X122741941Y-98776582D01*
X122744039Y-98768205D01*
X122746949Y-98760074D01*
X122750641Y-98752267D01*
X122755081Y-98744860D01*
X122760225Y-98737923D01*
X122766025Y-98731525D01*
X122772423Y-98725725D01*
X122779360Y-98720581D01*
X122786767Y-98716141D01*
X122794574Y-98712449D01*
X122802705Y-98709539D01*
X122811082Y-98707441D01*
X122819624Y-98706174D01*
X122828250Y-98705750D01*
X123004250Y-98705750D01*
X123012876Y-98706174D01*
X123012876Y-98706174D01*
G37*
D21*
X122916250Y-99194250D03*
D17*
G36*
X122512876Y-98706174D02*
G01*
X122521418Y-98707441D01*
X122529795Y-98709539D01*
X122537926Y-98712449D01*
X122545733Y-98716141D01*
X122553140Y-98720581D01*
X122560077Y-98725725D01*
X122566475Y-98731525D01*
X122572275Y-98737923D01*
X122577419Y-98744860D01*
X122581859Y-98752267D01*
X122585551Y-98760074D01*
X122588461Y-98768205D01*
X122590559Y-98776582D01*
X122591826Y-98785124D01*
X122592250Y-98793750D01*
X122592250Y-99594750D01*
X122591826Y-99603376D01*
X122590559Y-99611918D01*
X122588461Y-99620295D01*
X122585551Y-99628426D01*
X122581859Y-99636233D01*
X122577419Y-99643640D01*
X122572275Y-99650577D01*
X122566475Y-99656975D01*
X122560077Y-99662775D01*
X122553140Y-99667919D01*
X122545733Y-99672359D01*
X122537926Y-99676051D01*
X122529795Y-99678961D01*
X122521418Y-99681059D01*
X122512876Y-99682326D01*
X122504250Y-99682750D01*
X122328250Y-99682750D01*
X122319624Y-99682326D01*
X122311082Y-99681059D01*
X122302705Y-99678961D01*
X122294574Y-99676051D01*
X122286767Y-99672359D01*
X122279360Y-99667919D01*
X122272423Y-99662775D01*
X122266025Y-99656975D01*
X122260225Y-99650577D01*
X122255081Y-99643640D01*
X122250641Y-99636233D01*
X122246949Y-99628426D01*
X122244039Y-99620295D01*
X122241941Y-99611918D01*
X122240674Y-99603376D01*
X122240250Y-99594750D01*
X122240250Y-98793750D01*
X122240674Y-98785124D01*
X122241941Y-98776582D01*
X122244039Y-98768205D01*
X122246949Y-98760074D01*
X122250641Y-98752267D01*
X122255081Y-98744860D01*
X122260225Y-98737923D01*
X122266025Y-98731525D01*
X122272423Y-98725725D01*
X122279360Y-98720581D01*
X122286767Y-98716141D01*
X122294574Y-98712449D01*
X122302705Y-98709539D01*
X122311082Y-98707441D01*
X122319624Y-98706174D01*
X122328250Y-98705750D01*
X122504250Y-98705750D01*
X122512876Y-98706174D01*
X122512876Y-98706174D01*
G37*
D21*
X122416250Y-99194250D03*
D17*
G36*
X122012876Y-98706174D02*
G01*
X122021418Y-98707441D01*
X122029795Y-98709539D01*
X122037926Y-98712449D01*
X122045733Y-98716141D01*
X122053140Y-98720581D01*
X122060077Y-98725725D01*
X122066475Y-98731525D01*
X122072275Y-98737923D01*
X122077419Y-98744860D01*
X122081859Y-98752267D01*
X122085551Y-98760074D01*
X122088461Y-98768205D01*
X122090559Y-98776582D01*
X122091826Y-98785124D01*
X122092250Y-98793750D01*
X122092250Y-99594750D01*
X122091826Y-99603376D01*
X122090559Y-99611918D01*
X122088461Y-99620295D01*
X122085551Y-99628426D01*
X122081859Y-99636233D01*
X122077419Y-99643640D01*
X122072275Y-99650577D01*
X122066475Y-99656975D01*
X122060077Y-99662775D01*
X122053140Y-99667919D01*
X122045733Y-99672359D01*
X122037926Y-99676051D01*
X122029795Y-99678961D01*
X122021418Y-99681059D01*
X122012876Y-99682326D01*
X122004250Y-99682750D01*
X121828250Y-99682750D01*
X121819624Y-99682326D01*
X121811082Y-99681059D01*
X121802705Y-99678961D01*
X121794574Y-99676051D01*
X121786767Y-99672359D01*
X121779360Y-99667919D01*
X121772423Y-99662775D01*
X121766025Y-99656975D01*
X121760225Y-99650577D01*
X121755081Y-99643640D01*
X121750641Y-99636233D01*
X121746949Y-99628426D01*
X121744039Y-99620295D01*
X121741941Y-99611918D01*
X121740674Y-99603376D01*
X121740250Y-99594750D01*
X121740250Y-98793750D01*
X121740674Y-98785124D01*
X121741941Y-98776582D01*
X121744039Y-98768205D01*
X121746949Y-98760074D01*
X121750641Y-98752267D01*
X121755081Y-98744860D01*
X121760225Y-98737923D01*
X121766025Y-98731525D01*
X121772423Y-98725725D01*
X121779360Y-98720581D01*
X121786767Y-98716141D01*
X121794574Y-98712449D01*
X121802705Y-98709539D01*
X121811082Y-98707441D01*
X121819624Y-98706174D01*
X121828250Y-98705750D01*
X122004250Y-98705750D01*
X122012876Y-98706174D01*
X122012876Y-98706174D01*
G37*
D21*
X121916250Y-99194250D03*
D17*
G36*
X121637876Y-99706174D02*
G01*
X121646418Y-99707441D01*
X121654795Y-99709539D01*
X121662926Y-99712449D01*
X121670733Y-99716141D01*
X121678140Y-99720581D01*
X121685077Y-99725725D01*
X121691475Y-99731525D01*
X121697275Y-99737923D01*
X121702419Y-99744860D01*
X121706859Y-99752267D01*
X121710551Y-99760074D01*
X121713461Y-99768205D01*
X121715559Y-99776582D01*
X121716826Y-99785124D01*
X121717250Y-99793750D01*
X121717250Y-99969750D01*
X121716826Y-99978376D01*
X121715559Y-99986918D01*
X121713461Y-99995295D01*
X121710551Y-100003426D01*
X121706859Y-100011233D01*
X121702419Y-100018640D01*
X121697275Y-100025577D01*
X121691475Y-100031975D01*
X121685077Y-100037775D01*
X121678140Y-100042919D01*
X121670733Y-100047359D01*
X121662926Y-100051051D01*
X121654795Y-100053961D01*
X121646418Y-100056059D01*
X121637876Y-100057326D01*
X121629250Y-100057750D01*
X120828250Y-100057750D01*
X120819624Y-100057326D01*
X120811082Y-100056059D01*
X120802705Y-100053961D01*
X120794574Y-100051051D01*
X120786767Y-100047359D01*
X120779360Y-100042919D01*
X120772423Y-100037775D01*
X120766025Y-100031975D01*
X120760225Y-100025577D01*
X120755081Y-100018640D01*
X120750641Y-100011233D01*
X120746949Y-100003426D01*
X120744039Y-99995295D01*
X120741941Y-99986918D01*
X120740674Y-99978376D01*
X120740250Y-99969750D01*
X120740250Y-99793750D01*
X120740674Y-99785124D01*
X120741941Y-99776582D01*
X120744039Y-99768205D01*
X120746949Y-99760074D01*
X120750641Y-99752267D01*
X120755081Y-99744860D01*
X120760225Y-99737923D01*
X120766025Y-99731525D01*
X120772423Y-99725725D01*
X120779360Y-99720581D01*
X120786767Y-99716141D01*
X120794574Y-99712449D01*
X120802705Y-99709539D01*
X120811082Y-99707441D01*
X120819624Y-99706174D01*
X120828250Y-99705750D01*
X121629250Y-99705750D01*
X121637876Y-99706174D01*
X121637876Y-99706174D01*
G37*
D21*
X121228750Y-99881750D03*
D17*
G36*
X121637876Y-100206174D02*
G01*
X121646418Y-100207441D01*
X121654795Y-100209539D01*
X121662926Y-100212449D01*
X121670733Y-100216141D01*
X121678140Y-100220581D01*
X121685077Y-100225725D01*
X121691475Y-100231525D01*
X121697275Y-100237923D01*
X121702419Y-100244860D01*
X121706859Y-100252267D01*
X121710551Y-100260074D01*
X121713461Y-100268205D01*
X121715559Y-100276582D01*
X121716826Y-100285124D01*
X121717250Y-100293750D01*
X121717250Y-100469750D01*
X121716826Y-100478376D01*
X121715559Y-100486918D01*
X121713461Y-100495295D01*
X121710551Y-100503426D01*
X121706859Y-100511233D01*
X121702419Y-100518640D01*
X121697275Y-100525577D01*
X121691475Y-100531975D01*
X121685077Y-100537775D01*
X121678140Y-100542919D01*
X121670733Y-100547359D01*
X121662926Y-100551051D01*
X121654795Y-100553961D01*
X121646418Y-100556059D01*
X121637876Y-100557326D01*
X121629250Y-100557750D01*
X120828250Y-100557750D01*
X120819624Y-100557326D01*
X120811082Y-100556059D01*
X120802705Y-100553961D01*
X120794574Y-100551051D01*
X120786767Y-100547359D01*
X120779360Y-100542919D01*
X120772423Y-100537775D01*
X120766025Y-100531975D01*
X120760225Y-100525577D01*
X120755081Y-100518640D01*
X120750641Y-100511233D01*
X120746949Y-100503426D01*
X120744039Y-100495295D01*
X120741941Y-100486918D01*
X120740674Y-100478376D01*
X120740250Y-100469750D01*
X120740250Y-100293750D01*
X120740674Y-100285124D01*
X120741941Y-100276582D01*
X120744039Y-100268205D01*
X120746949Y-100260074D01*
X120750641Y-100252267D01*
X120755081Y-100244860D01*
X120760225Y-100237923D01*
X120766025Y-100231525D01*
X120772423Y-100225725D01*
X120779360Y-100220581D01*
X120786767Y-100216141D01*
X120794574Y-100212449D01*
X120802705Y-100209539D01*
X120811082Y-100207441D01*
X120819624Y-100206174D01*
X120828250Y-100205750D01*
X121629250Y-100205750D01*
X121637876Y-100206174D01*
X121637876Y-100206174D01*
G37*
D21*
X121228750Y-100381750D03*
D17*
G36*
X121637876Y-100706174D02*
G01*
X121646418Y-100707441D01*
X121654795Y-100709539D01*
X121662926Y-100712449D01*
X121670733Y-100716141D01*
X121678140Y-100720581D01*
X121685077Y-100725725D01*
X121691475Y-100731525D01*
X121697275Y-100737923D01*
X121702419Y-100744860D01*
X121706859Y-100752267D01*
X121710551Y-100760074D01*
X121713461Y-100768205D01*
X121715559Y-100776582D01*
X121716826Y-100785124D01*
X121717250Y-100793750D01*
X121717250Y-100969750D01*
X121716826Y-100978376D01*
X121715559Y-100986918D01*
X121713461Y-100995295D01*
X121710551Y-101003426D01*
X121706859Y-101011233D01*
X121702419Y-101018640D01*
X121697275Y-101025577D01*
X121691475Y-101031975D01*
X121685077Y-101037775D01*
X121678140Y-101042919D01*
X121670733Y-101047359D01*
X121662926Y-101051051D01*
X121654795Y-101053961D01*
X121646418Y-101056059D01*
X121637876Y-101057326D01*
X121629250Y-101057750D01*
X120828250Y-101057750D01*
X120819624Y-101057326D01*
X120811082Y-101056059D01*
X120802705Y-101053961D01*
X120794574Y-101051051D01*
X120786767Y-101047359D01*
X120779360Y-101042919D01*
X120772423Y-101037775D01*
X120766025Y-101031975D01*
X120760225Y-101025577D01*
X120755081Y-101018640D01*
X120750641Y-101011233D01*
X120746949Y-101003426D01*
X120744039Y-100995295D01*
X120741941Y-100986918D01*
X120740674Y-100978376D01*
X120740250Y-100969750D01*
X120740250Y-100793750D01*
X120740674Y-100785124D01*
X120741941Y-100776582D01*
X120744039Y-100768205D01*
X120746949Y-100760074D01*
X120750641Y-100752267D01*
X120755081Y-100744860D01*
X120760225Y-100737923D01*
X120766025Y-100731525D01*
X120772423Y-100725725D01*
X120779360Y-100720581D01*
X120786767Y-100716141D01*
X120794574Y-100712449D01*
X120802705Y-100709539D01*
X120811082Y-100707441D01*
X120819624Y-100706174D01*
X120828250Y-100705750D01*
X121629250Y-100705750D01*
X121637876Y-100706174D01*
X121637876Y-100706174D01*
G37*
D21*
X121228750Y-100881750D03*
D17*
G36*
X121637876Y-101206174D02*
G01*
X121646418Y-101207441D01*
X121654795Y-101209539D01*
X121662926Y-101212449D01*
X121670733Y-101216141D01*
X121678140Y-101220581D01*
X121685077Y-101225725D01*
X121691475Y-101231525D01*
X121697275Y-101237923D01*
X121702419Y-101244860D01*
X121706859Y-101252267D01*
X121710551Y-101260074D01*
X121713461Y-101268205D01*
X121715559Y-101276582D01*
X121716826Y-101285124D01*
X121717250Y-101293750D01*
X121717250Y-101469750D01*
X121716826Y-101478376D01*
X121715559Y-101486918D01*
X121713461Y-101495295D01*
X121710551Y-101503426D01*
X121706859Y-101511233D01*
X121702419Y-101518640D01*
X121697275Y-101525577D01*
X121691475Y-101531975D01*
X121685077Y-101537775D01*
X121678140Y-101542919D01*
X121670733Y-101547359D01*
X121662926Y-101551051D01*
X121654795Y-101553961D01*
X121646418Y-101556059D01*
X121637876Y-101557326D01*
X121629250Y-101557750D01*
X120828250Y-101557750D01*
X120819624Y-101557326D01*
X120811082Y-101556059D01*
X120802705Y-101553961D01*
X120794574Y-101551051D01*
X120786767Y-101547359D01*
X120779360Y-101542919D01*
X120772423Y-101537775D01*
X120766025Y-101531975D01*
X120760225Y-101525577D01*
X120755081Y-101518640D01*
X120750641Y-101511233D01*
X120746949Y-101503426D01*
X120744039Y-101495295D01*
X120741941Y-101486918D01*
X120740674Y-101478376D01*
X120740250Y-101469750D01*
X120740250Y-101293750D01*
X120740674Y-101285124D01*
X120741941Y-101276582D01*
X120744039Y-101268205D01*
X120746949Y-101260074D01*
X120750641Y-101252267D01*
X120755081Y-101244860D01*
X120760225Y-101237923D01*
X120766025Y-101231525D01*
X120772423Y-101225725D01*
X120779360Y-101220581D01*
X120786767Y-101216141D01*
X120794574Y-101212449D01*
X120802705Y-101209539D01*
X120811082Y-101207441D01*
X120819624Y-101206174D01*
X120828250Y-101205750D01*
X121629250Y-101205750D01*
X121637876Y-101206174D01*
X121637876Y-101206174D01*
G37*
D21*
X121228750Y-101381750D03*
D17*
G36*
X121637876Y-101706174D02*
G01*
X121646418Y-101707441D01*
X121654795Y-101709539D01*
X121662926Y-101712449D01*
X121670733Y-101716141D01*
X121678140Y-101720581D01*
X121685077Y-101725725D01*
X121691475Y-101731525D01*
X121697275Y-101737923D01*
X121702419Y-101744860D01*
X121706859Y-101752267D01*
X121710551Y-101760074D01*
X121713461Y-101768205D01*
X121715559Y-101776582D01*
X121716826Y-101785124D01*
X121717250Y-101793750D01*
X121717250Y-101969750D01*
X121716826Y-101978376D01*
X121715559Y-101986918D01*
X121713461Y-101995295D01*
X121710551Y-102003426D01*
X121706859Y-102011233D01*
X121702419Y-102018640D01*
X121697275Y-102025577D01*
X121691475Y-102031975D01*
X121685077Y-102037775D01*
X121678140Y-102042919D01*
X121670733Y-102047359D01*
X121662926Y-102051051D01*
X121654795Y-102053961D01*
X121646418Y-102056059D01*
X121637876Y-102057326D01*
X121629250Y-102057750D01*
X120828250Y-102057750D01*
X120819624Y-102057326D01*
X120811082Y-102056059D01*
X120802705Y-102053961D01*
X120794574Y-102051051D01*
X120786767Y-102047359D01*
X120779360Y-102042919D01*
X120772423Y-102037775D01*
X120766025Y-102031975D01*
X120760225Y-102025577D01*
X120755081Y-102018640D01*
X120750641Y-102011233D01*
X120746949Y-102003426D01*
X120744039Y-101995295D01*
X120741941Y-101986918D01*
X120740674Y-101978376D01*
X120740250Y-101969750D01*
X120740250Y-101793750D01*
X120740674Y-101785124D01*
X120741941Y-101776582D01*
X120744039Y-101768205D01*
X120746949Y-101760074D01*
X120750641Y-101752267D01*
X120755081Y-101744860D01*
X120760225Y-101737923D01*
X120766025Y-101731525D01*
X120772423Y-101725725D01*
X120779360Y-101720581D01*
X120786767Y-101716141D01*
X120794574Y-101712449D01*
X120802705Y-101709539D01*
X120811082Y-101707441D01*
X120819624Y-101706174D01*
X120828250Y-101705750D01*
X121629250Y-101705750D01*
X121637876Y-101706174D01*
X121637876Y-101706174D01*
G37*
D21*
X121228750Y-101881750D03*
D17*
G36*
X121637876Y-102206174D02*
G01*
X121646418Y-102207441D01*
X121654795Y-102209539D01*
X121662926Y-102212449D01*
X121670733Y-102216141D01*
X121678140Y-102220581D01*
X121685077Y-102225725D01*
X121691475Y-102231525D01*
X121697275Y-102237923D01*
X121702419Y-102244860D01*
X121706859Y-102252267D01*
X121710551Y-102260074D01*
X121713461Y-102268205D01*
X121715559Y-102276582D01*
X121716826Y-102285124D01*
X121717250Y-102293750D01*
X121717250Y-102469750D01*
X121716826Y-102478376D01*
X121715559Y-102486918D01*
X121713461Y-102495295D01*
X121710551Y-102503426D01*
X121706859Y-102511233D01*
X121702419Y-102518640D01*
X121697275Y-102525577D01*
X121691475Y-102531975D01*
X121685077Y-102537775D01*
X121678140Y-102542919D01*
X121670733Y-102547359D01*
X121662926Y-102551051D01*
X121654795Y-102553961D01*
X121646418Y-102556059D01*
X121637876Y-102557326D01*
X121629250Y-102557750D01*
X120828250Y-102557750D01*
X120819624Y-102557326D01*
X120811082Y-102556059D01*
X120802705Y-102553961D01*
X120794574Y-102551051D01*
X120786767Y-102547359D01*
X120779360Y-102542919D01*
X120772423Y-102537775D01*
X120766025Y-102531975D01*
X120760225Y-102525577D01*
X120755081Y-102518640D01*
X120750641Y-102511233D01*
X120746949Y-102503426D01*
X120744039Y-102495295D01*
X120741941Y-102486918D01*
X120740674Y-102478376D01*
X120740250Y-102469750D01*
X120740250Y-102293750D01*
X120740674Y-102285124D01*
X120741941Y-102276582D01*
X120744039Y-102268205D01*
X120746949Y-102260074D01*
X120750641Y-102252267D01*
X120755081Y-102244860D01*
X120760225Y-102237923D01*
X120766025Y-102231525D01*
X120772423Y-102225725D01*
X120779360Y-102220581D01*
X120786767Y-102216141D01*
X120794574Y-102212449D01*
X120802705Y-102209539D01*
X120811082Y-102207441D01*
X120819624Y-102206174D01*
X120828250Y-102205750D01*
X121629250Y-102205750D01*
X121637876Y-102206174D01*
X121637876Y-102206174D01*
G37*
D21*
X121228750Y-102381750D03*
D17*
G36*
X121637876Y-102706174D02*
G01*
X121646418Y-102707441D01*
X121654795Y-102709539D01*
X121662926Y-102712449D01*
X121670733Y-102716141D01*
X121678140Y-102720581D01*
X121685077Y-102725725D01*
X121691475Y-102731525D01*
X121697275Y-102737923D01*
X121702419Y-102744860D01*
X121706859Y-102752267D01*
X121710551Y-102760074D01*
X121713461Y-102768205D01*
X121715559Y-102776582D01*
X121716826Y-102785124D01*
X121717250Y-102793750D01*
X121717250Y-102969750D01*
X121716826Y-102978376D01*
X121715559Y-102986918D01*
X121713461Y-102995295D01*
X121710551Y-103003426D01*
X121706859Y-103011233D01*
X121702419Y-103018640D01*
X121697275Y-103025577D01*
X121691475Y-103031975D01*
X121685077Y-103037775D01*
X121678140Y-103042919D01*
X121670733Y-103047359D01*
X121662926Y-103051051D01*
X121654795Y-103053961D01*
X121646418Y-103056059D01*
X121637876Y-103057326D01*
X121629250Y-103057750D01*
X120828250Y-103057750D01*
X120819624Y-103057326D01*
X120811082Y-103056059D01*
X120802705Y-103053961D01*
X120794574Y-103051051D01*
X120786767Y-103047359D01*
X120779360Y-103042919D01*
X120772423Y-103037775D01*
X120766025Y-103031975D01*
X120760225Y-103025577D01*
X120755081Y-103018640D01*
X120750641Y-103011233D01*
X120746949Y-103003426D01*
X120744039Y-102995295D01*
X120741941Y-102986918D01*
X120740674Y-102978376D01*
X120740250Y-102969750D01*
X120740250Y-102793750D01*
X120740674Y-102785124D01*
X120741941Y-102776582D01*
X120744039Y-102768205D01*
X120746949Y-102760074D01*
X120750641Y-102752267D01*
X120755081Y-102744860D01*
X120760225Y-102737923D01*
X120766025Y-102731525D01*
X120772423Y-102725725D01*
X120779360Y-102720581D01*
X120786767Y-102716141D01*
X120794574Y-102712449D01*
X120802705Y-102709539D01*
X120811082Y-102707441D01*
X120819624Y-102706174D01*
X120828250Y-102705750D01*
X121629250Y-102705750D01*
X121637876Y-102706174D01*
X121637876Y-102706174D01*
G37*
D21*
X121228750Y-102881750D03*
D17*
G36*
X121637876Y-103206174D02*
G01*
X121646418Y-103207441D01*
X121654795Y-103209539D01*
X121662926Y-103212449D01*
X121670733Y-103216141D01*
X121678140Y-103220581D01*
X121685077Y-103225725D01*
X121691475Y-103231525D01*
X121697275Y-103237923D01*
X121702419Y-103244860D01*
X121706859Y-103252267D01*
X121710551Y-103260074D01*
X121713461Y-103268205D01*
X121715559Y-103276582D01*
X121716826Y-103285124D01*
X121717250Y-103293750D01*
X121717250Y-103469750D01*
X121716826Y-103478376D01*
X121715559Y-103486918D01*
X121713461Y-103495295D01*
X121710551Y-103503426D01*
X121706859Y-103511233D01*
X121702419Y-103518640D01*
X121697275Y-103525577D01*
X121691475Y-103531975D01*
X121685077Y-103537775D01*
X121678140Y-103542919D01*
X121670733Y-103547359D01*
X121662926Y-103551051D01*
X121654795Y-103553961D01*
X121646418Y-103556059D01*
X121637876Y-103557326D01*
X121629250Y-103557750D01*
X120828250Y-103557750D01*
X120819624Y-103557326D01*
X120811082Y-103556059D01*
X120802705Y-103553961D01*
X120794574Y-103551051D01*
X120786767Y-103547359D01*
X120779360Y-103542919D01*
X120772423Y-103537775D01*
X120766025Y-103531975D01*
X120760225Y-103525577D01*
X120755081Y-103518640D01*
X120750641Y-103511233D01*
X120746949Y-103503426D01*
X120744039Y-103495295D01*
X120741941Y-103486918D01*
X120740674Y-103478376D01*
X120740250Y-103469750D01*
X120740250Y-103293750D01*
X120740674Y-103285124D01*
X120741941Y-103276582D01*
X120744039Y-103268205D01*
X120746949Y-103260074D01*
X120750641Y-103252267D01*
X120755081Y-103244860D01*
X120760225Y-103237923D01*
X120766025Y-103231525D01*
X120772423Y-103225725D01*
X120779360Y-103220581D01*
X120786767Y-103216141D01*
X120794574Y-103212449D01*
X120802705Y-103209539D01*
X120811082Y-103207441D01*
X120819624Y-103206174D01*
X120828250Y-103205750D01*
X121629250Y-103205750D01*
X121637876Y-103206174D01*
X121637876Y-103206174D01*
G37*
D21*
X121228750Y-103381750D03*
D17*
G36*
X122012876Y-103581174D02*
G01*
X122021418Y-103582441D01*
X122029795Y-103584539D01*
X122037926Y-103587449D01*
X122045733Y-103591141D01*
X122053140Y-103595581D01*
X122060077Y-103600725D01*
X122066475Y-103606525D01*
X122072275Y-103612923D01*
X122077419Y-103619860D01*
X122081859Y-103627267D01*
X122085551Y-103635074D01*
X122088461Y-103643205D01*
X122090559Y-103651582D01*
X122091826Y-103660124D01*
X122092250Y-103668750D01*
X122092250Y-104469750D01*
X122091826Y-104478376D01*
X122090559Y-104486918D01*
X122088461Y-104495295D01*
X122085551Y-104503426D01*
X122081859Y-104511233D01*
X122077419Y-104518640D01*
X122072275Y-104525577D01*
X122066475Y-104531975D01*
X122060077Y-104537775D01*
X122053140Y-104542919D01*
X122045733Y-104547359D01*
X122037926Y-104551051D01*
X122029795Y-104553961D01*
X122021418Y-104556059D01*
X122012876Y-104557326D01*
X122004250Y-104557750D01*
X121828250Y-104557750D01*
X121819624Y-104557326D01*
X121811082Y-104556059D01*
X121802705Y-104553961D01*
X121794574Y-104551051D01*
X121786767Y-104547359D01*
X121779360Y-104542919D01*
X121772423Y-104537775D01*
X121766025Y-104531975D01*
X121760225Y-104525577D01*
X121755081Y-104518640D01*
X121750641Y-104511233D01*
X121746949Y-104503426D01*
X121744039Y-104495295D01*
X121741941Y-104486918D01*
X121740674Y-104478376D01*
X121740250Y-104469750D01*
X121740250Y-103668750D01*
X121740674Y-103660124D01*
X121741941Y-103651582D01*
X121744039Y-103643205D01*
X121746949Y-103635074D01*
X121750641Y-103627267D01*
X121755081Y-103619860D01*
X121760225Y-103612923D01*
X121766025Y-103606525D01*
X121772423Y-103600725D01*
X121779360Y-103595581D01*
X121786767Y-103591141D01*
X121794574Y-103587449D01*
X121802705Y-103584539D01*
X121811082Y-103582441D01*
X121819624Y-103581174D01*
X121828250Y-103580750D01*
X122004250Y-103580750D01*
X122012876Y-103581174D01*
X122012876Y-103581174D01*
G37*
D21*
X121916250Y-104069250D03*
D17*
G36*
X122512876Y-103581174D02*
G01*
X122521418Y-103582441D01*
X122529795Y-103584539D01*
X122537926Y-103587449D01*
X122545733Y-103591141D01*
X122553140Y-103595581D01*
X122560077Y-103600725D01*
X122566475Y-103606525D01*
X122572275Y-103612923D01*
X122577419Y-103619860D01*
X122581859Y-103627267D01*
X122585551Y-103635074D01*
X122588461Y-103643205D01*
X122590559Y-103651582D01*
X122591826Y-103660124D01*
X122592250Y-103668750D01*
X122592250Y-104469750D01*
X122591826Y-104478376D01*
X122590559Y-104486918D01*
X122588461Y-104495295D01*
X122585551Y-104503426D01*
X122581859Y-104511233D01*
X122577419Y-104518640D01*
X122572275Y-104525577D01*
X122566475Y-104531975D01*
X122560077Y-104537775D01*
X122553140Y-104542919D01*
X122545733Y-104547359D01*
X122537926Y-104551051D01*
X122529795Y-104553961D01*
X122521418Y-104556059D01*
X122512876Y-104557326D01*
X122504250Y-104557750D01*
X122328250Y-104557750D01*
X122319624Y-104557326D01*
X122311082Y-104556059D01*
X122302705Y-104553961D01*
X122294574Y-104551051D01*
X122286767Y-104547359D01*
X122279360Y-104542919D01*
X122272423Y-104537775D01*
X122266025Y-104531975D01*
X122260225Y-104525577D01*
X122255081Y-104518640D01*
X122250641Y-104511233D01*
X122246949Y-104503426D01*
X122244039Y-104495295D01*
X122241941Y-104486918D01*
X122240674Y-104478376D01*
X122240250Y-104469750D01*
X122240250Y-103668750D01*
X122240674Y-103660124D01*
X122241941Y-103651582D01*
X122244039Y-103643205D01*
X122246949Y-103635074D01*
X122250641Y-103627267D01*
X122255081Y-103619860D01*
X122260225Y-103612923D01*
X122266025Y-103606525D01*
X122272423Y-103600725D01*
X122279360Y-103595581D01*
X122286767Y-103591141D01*
X122294574Y-103587449D01*
X122302705Y-103584539D01*
X122311082Y-103582441D01*
X122319624Y-103581174D01*
X122328250Y-103580750D01*
X122504250Y-103580750D01*
X122512876Y-103581174D01*
X122512876Y-103581174D01*
G37*
D21*
X122416250Y-104069250D03*
D17*
G36*
X123012876Y-103581174D02*
G01*
X123021418Y-103582441D01*
X123029795Y-103584539D01*
X123037926Y-103587449D01*
X123045733Y-103591141D01*
X123053140Y-103595581D01*
X123060077Y-103600725D01*
X123066475Y-103606525D01*
X123072275Y-103612923D01*
X123077419Y-103619860D01*
X123081859Y-103627267D01*
X123085551Y-103635074D01*
X123088461Y-103643205D01*
X123090559Y-103651582D01*
X123091826Y-103660124D01*
X123092250Y-103668750D01*
X123092250Y-104469750D01*
X123091826Y-104478376D01*
X123090559Y-104486918D01*
X123088461Y-104495295D01*
X123085551Y-104503426D01*
X123081859Y-104511233D01*
X123077419Y-104518640D01*
X123072275Y-104525577D01*
X123066475Y-104531975D01*
X123060077Y-104537775D01*
X123053140Y-104542919D01*
X123045733Y-104547359D01*
X123037926Y-104551051D01*
X123029795Y-104553961D01*
X123021418Y-104556059D01*
X123012876Y-104557326D01*
X123004250Y-104557750D01*
X122828250Y-104557750D01*
X122819624Y-104557326D01*
X122811082Y-104556059D01*
X122802705Y-104553961D01*
X122794574Y-104551051D01*
X122786767Y-104547359D01*
X122779360Y-104542919D01*
X122772423Y-104537775D01*
X122766025Y-104531975D01*
X122760225Y-104525577D01*
X122755081Y-104518640D01*
X122750641Y-104511233D01*
X122746949Y-104503426D01*
X122744039Y-104495295D01*
X122741941Y-104486918D01*
X122740674Y-104478376D01*
X122740250Y-104469750D01*
X122740250Y-103668750D01*
X122740674Y-103660124D01*
X122741941Y-103651582D01*
X122744039Y-103643205D01*
X122746949Y-103635074D01*
X122750641Y-103627267D01*
X122755081Y-103619860D01*
X122760225Y-103612923D01*
X122766025Y-103606525D01*
X122772423Y-103600725D01*
X122779360Y-103595581D01*
X122786767Y-103591141D01*
X122794574Y-103587449D01*
X122802705Y-103584539D01*
X122811082Y-103582441D01*
X122819624Y-103581174D01*
X122828250Y-103580750D01*
X123004250Y-103580750D01*
X123012876Y-103581174D01*
X123012876Y-103581174D01*
G37*
D21*
X122916250Y-104069250D03*
D17*
G36*
X123512876Y-103581174D02*
G01*
X123521418Y-103582441D01*
X123529795Y-103584539D01*
X123537926Y-103587449D01*
X123545733Y-103591141D01*
X123553140Y-103595581D01*
X123560077Y-103600725D01*
X123566475Y-103606525D01*
X123572275Y-103612923D01*
X123577419Y-103619860D01*
X123581859Y-103627267D01*
X123585551Y-103635074D01*
X123588461Y-103643205D01*
X123590559Y-103651582D01*
X123591826Y-103660124D01*
X123592250Y-103668750D01*
X123592250Y-104469750D01*
X123591826Y-104478376D01*
X123590559Y-104486918D01*
X123588461Y-104495295D01*
X123585551Y-104503426D01*
X123581859Y-104511233D01*
X123577419Y-104518640D01*
X123572275Y-104525577D01*
X123566475Y-104531975D01*
X123560077Y-104537775D01*
X123553140Y-104542919D01*
X123545733Y-104547359D01*
X123537926Y-104551051D01*
X123529795Y-104553961D01*
X123521418Y-104556059D01*
X123512876Y-104557326D01*
X123504250Y-104557750D01*
X123328250Y-104557750D01*
X123319624Y-104557326D01*
X123311082Y-104556059D01*
X123302705Y-104553961D01*
X123294574Y-104551051D01*
X123286767Y-104547359D01*
X123279360Y-104542919D01*
X123272423Y-104537775D01*
X123266025Y-104531975D01*
X123260225Y-104525577D01*
X123255081Y-104518640D01*
X123250641Y-104511233D01*
X123246949Y-104503426D01*
X123244039Y-104495295D01*
X123241941Y-104486918D01*
X123240674Y-104478376D01*
X123240250Y-104469750D01*
X123240250Y-103668750D01*
X123240674Y-103660124D01*
X123241941Y-103651582D01*
X123244039Y-103643205D01*
X123246949Y-103635074D01*
X123250641Y-103627267D01*
X123255081Y-103619860D01*
X123260225Y-103612923D01*
X123266025Y-103606525D01*
X123272423Y-103600725D01*
X123279360Y-103595581D01*
X123286767Y-103591141D01*
X123294574Y-103587449D01*
X123302705Y-103584539D01*
X123311082Y-103582441D01*
X123319624Y-103581174D01*
X123328250Y-103580750D01*
X123504250Y-103580750D01*
X123512876Y-103581174D01*
X123512876Y-103581174D01*
G37*
D21*
X123416250Y-104069250D03*
D17*
G36*
X124012876Y-103581174D02*
G01*
X124021418Y-103582441D01*
X124029795Y-103584539D01*
X124037926Y-103587449D01*
X124045733Y-103591141D01*
X124053140Y-103595581D01*
X124060077Y-103600725D01*
X124066475Y-103606525D01*
X124072275Y-103612923D01*
X124077419Y-103619860D01*
X124081859Y-103627267D01*
X124085551Y-103635074D01*
X124088461Y-103643205D01*
X124090559Y-103651582D01*
X124091826Y-103660124D01*
X124092250Y-103668750D01*
X124092250Y-104469750D01*
X124091826Y-104478376D01*
X124090559Y-104486918D01*
X124088461Y-104495295D01*
X124085551Y-104503426D01*
X124081859Y-104511233D01*
X124077419Y-104518640D01*
X124072275Y-104525577D01*
X124066475Y-104531975D01*
X124060077Y-104537775D01*
X124053140Y-104542919D01*
X124045733Y-104547359D01*
X124037926Y-104551051D01*
X124029795Y-104553961D01*
X124021418Y-104556059D01*
X124012876Y-104557326D01*
X124004250Y-104557750D01*
X123828250Y-104557750D01*
X123819624Y-104557326D01*
X123811082Y-104556059D01*
X123802705Y-104553961D01*
X123794574Y-104551051D01*
X123786767Y-104547359D01*
X123779360Y-104542919D01*
X123772423Y-104537775D01*
X123766025Y-104531975D01*
X123760225Y-104525577D01*
X123755081Y-104518640D01*
X123750641Y-104511233D01*
X123746949Y-104503426D01*
X123744039Y-104495295D01*
X123741941Y-104486918D01*
X123740674Y-104478376D01*
X123740250Y-104469750D01*
X123740250Y-103668750D01*
X123740674Y-103660124D01*
X123741941Y-103651582D01*
X123744039Y-103643205D01*
X123746949Y-103635074D01*
X123750641Y-103627267D01*
X123755081Y-103619860D01*
X123760225Y-103612923D01*
X123766025Y-103606525D01*
X123772423Y-103600725D01*
X123779360Y-103595581D01*
X123786767Y-103591141D01*
X123794574Y-103587449D01*
X123802705Y-103584539D01*
X123811082Y-103582441D01*
X123819624Y-103581174D01*
X123828250Y-103580750D01*
X124004250Y-103580750D01*
X124012876Y-103581174D01*
X124012876Y-103581174D01*
G37*
D21*
X123916250Y-104069250D03*
D17*
G36*
X124512876Y-103581174D02*
G01*
X124521418Y-103582441D01*
X124529795Y-103584539D01*
X124537926Y-103587449D01*
X124545733Y-103591141D01*
X124553140Y-103595581D01*
X124560077Y-103600725D01*
X124566475Y-103606525D01*
X124572275Y-103612923D01*
X124577419Y-103619860D01*
X124581859Y-103627267D01*
X124585551Y-103635074D01*
X124588461Y-103643205D01*
X124590559Y-103651582D01*
X124591826Y-103660124D01*
X124592250Y-103668750D01*
X124592250Y-104469750D01*
X124591826Y-104478376D01*
X124590559Y-104486918D01*
X124588461Y-104495295D01*
X124585551Y-104503426D01*
X124581859Y-104511233D01*
X124577419Y-104518640D01*
X124572275Y-104525577D01*
X124566475Y-104531975D01*
X124560077Y-104537775D01*
X124553140Y-104542919D01*
X124545733Y-104547359D01*
X124537926Y-104551051D01*
X124529795Y-104553961D01*
X124521418Y-104556059D01*
X124512876Y-104557326D01*
X124504250Y-104557750D01*
X124328250Y-104557750D01*
X124319624Y-104557326D01*
X124311082Y-104556059D01*
X124302705Y-104553961D01*
X124294574Y-104551051D01*
X124286767Y-104547359D01*
X124279360Y-104542919D01*
X124272423Y-104537775D01*
X124266025Y-104531975D01*
X124260225Y-104525577D01*
X124255081Y-104518640D01*
X124250641Y-104511233D01*
X124246949Y-104503426D01*
X124244039Y-104495295D01*
X124241941Y-104486918D01*
X124240674Y-104478376D01*
X124240250Y-104469750D01*
X124240250Y-103668750D01*
X124240674Y-103660124D01*
X124241941Y-103651582D01*
X124244039Y-103643205D01*
X124246949Y-103635074D01*
X124250641Y-103627267D01*
X124255081Y-103619860D01*
X124260225Y-103612923D01*
X124266025Y-103606525D01*
X124272423Y-103600725D01*
X124279360Y-103595581D01*
X124286767Y-103591141D01*
X124294574Y-103587449D01*
X124302705Y-103584539D01*
X124311082Y-103582441D01*
X124319624Y-103581174D01*
X124328250Y-103580750D01*
X124504250Y-103580750D01*
X124512876Y-103581174D01*
X124512876Y-103581174D01*
G37*
D21*
X124416250Y-104069250D03*
D17*
G36*
X125012876Y-103581174D02*
G01*
X125021418Y-103582441D01*
X125029795Y-103584539D01*
X125037926Y-103587449D01*
X125045733Y-103591141D01*
X125053140Y-103595581D01*
X125060077Y-103600725D01*
X125066475Y-103606525D01*
X125072275Y-103612923D01*
X125077419Y-103619860D01*
X125081859Y-103627267D01*
X125085551Y-103635074D01*
X125088461Y-103643205D01*
X125090559Y-103651582D01*
X125091826Y-103660124D01*
X125092250Y-103668750D01*
X125092250Y-104469750D01*
X125091826Y-104478376D01*
X125090559Y-104486918D01*
X125088461Y-104495295D01*
X125085551Y-104503426D01*
X125081859Y-104511233D01*
X125077419Y-104518640D01*
X125072275Y-104525577D01*
X125066475Y-104531975D01*
X125060077Y-104537775D01*
X125053140Y-104542919D01*
X125045733Y-104547359D01*
X125037926Y-104551051D01*
X125029795Y-104553961D01*
X125021418Y-104556059D01*
X125012876Y-104557326D01*
X125004250Y-104557750D01*
X124828250Y-104557750D01*
X124819624Y-104557326D01*
X124811082Y-104556059D01*
X124802705Y-104553961D01*
X124794574Y-104551051D01*
X124786767Y-104547359D01*
X124779360Y-104542919D01*
X124772423Y-104537775D01*
X124766025Y-104531975D01*
X124760225Y-104525577D01*
X124755081Y-104518640D01*
X124750641Y-104511233D01*
X124746949Y-104503426D01*
X124744039Y-104495295D01*
X124741941Y-104486918D01*
X124740674Y-104478376D01*
X124740250Y-104469750D01*
X124740250Y-103668750D01*
X124740674Y-103660124D01*
X124741941Y-103651582D01*
X124744039Y-103643205D01*
X124746949Y-103635074D01*
X124750641Y-103627267D01*
X124755081Y-103619860D01*
X124760225Y-103612923D01*
X124766025Y-103606525D01*
X124772423Y-103600725D01*
X124779360Y-103595581D01*
X124786767Y-103591141D01*
X124794574Y-103587449D01*
X124802705Y-103584539D01*
X124811082Y-103582441D01*
X124819624Y-103581174D01*
X124828250Y-103580750D01*
X125004250Y-103580750D01*
X125012876Y-103581174D01*
X125012876Y-103581174D01*
G37*
D21*
X124916250Y-104069250D03*
D17*
G36*
X125512876Y-103581174D02*
G01*
X125521418Y-103582441D01*
X125529795Y-103584539D01*
X125537926Y-103587449D01*
X125545733Y-103591141D01*
X125553140Y-103595581D01*
X125560077Y-103600725D01*
X125566475Y-103606525D01*
X125572275Y-103612923D01*
X125577419Y-103619860D01*
X125581859Y-103627267D01*
X125585551Y-103635074D01*
X125588461Y-103643205D01*
X125590559Y-103651582D01*
X125591826Y-103660124D01*
X125592250Y-103668750D01*
X125592250Y-104469750D01*
X125591826Y-104478376D01*
X125590559Y-104486918D01*
X125588461Y-104495295D01*
X125585551Y-104503426D01*
X125581859Y-104511233D01*
X125577419Y-104518640D01*
X125572275Y-104525577D01*
X125566475Y-104531975D01*
X125560077Y-104537775D01*
X125553140Y-104542919D01*
X125545733Y-104547359D01*
X125537926Y-104551051D01*
X125529795Y-104553961D01*
X125521418Y-104556059D01*
X125512876Y-104557326D01*
X125504250Y-104557750D01*
X125328250Y-104557750D01*
X125319624Y-104557326D01*
X125311082Y-104556059D01*
X125302705Y-104553961D01*
X125294574Y-104551051D01*
X125286767Y-104547359D01*
X125279360Y-104542919D01*
X125272423Y-104537775D01*
X125266025Y-104531975D01*
X125260225Y-104525577D01*
X125255081Y-104518640D01*
X125250641Y-104511233D01*
X125246949Y-104503426D01*
X125244039Y-104495295D01*
X125241941Y-104486918D01*
X125240674Y-104478376D01*
X125240250Y-104469750D01*
X125240250Y-103668750D01*
X125240674Y-103660124D01*
X125241941Y-103651582D01*
X125244039Y-103643205D01*
X125246949Y-103635074D01*
X125250641Y-103627267D01*
X125255081Y-103619860D01*
X125260225Y-103612923D01*
X125266025Y-103606525D01*
X125272423Y-103600725D01*
X125279360Y-103595581D01*
X125286767Y-103591141D01*
X125294574Y-103587449D01*
X125302705Y-103584539D01*
X125311082Y-103582441D01*
X125319624Y-103581174D01*
X125328250Y-103580750D01*
X125504250Y-103580750D01*
X125512876Y-103581174D01*
X125512876Y-103581174D01*
G37*
D21*
X125416250Y-104069250D03*
D17*
G36*
X125034335Y-100031993D02*
G01*
X125059402Y-100035712D01*
X125083984Y-100041869D01*
X125107843Y-100050406D01*
X125130751Y-100061241D01*
X125152487Y-100074269D01*
X125172841Y-100089364D01*
X125191618Y-100106382D01*
X125208636Y-100125159D01*
X125223731Y-100145513D01*
X125236759Y-100167249D01*
X125247594Y-100190157D01*
X125256131Y-100214016D01*
X125262288Y-100238598D01*
X125266007Y-100263665D01*
X125267250Y-100288975D01*
X125267250Y-102974525D01*
X125266007Y-102999835D01*
X125262288Y-103024902D01*
X125256131Y-103049484D01*
X125247594Y-103073343D01*
X125236759Y-103096251D01*
X125223731Y-103117987D01*
X125208636Y-103138341D01*
X125191618Y-103157118D01*
X125172841Y-103174136D01*
X125152487Y-103189231D01*
X125130751Y-103202259D01*
X125107843Y-103213094D01*
X125083984Y-103221631D01*
X125059402Y-103227788D01*
X125034335Y-103231507D01*
X125009025Y-103232750D01*
X122323475Y-103232750D01*
X122298165Y-103231507D01*
X122273098Y-103227788D01*
X122248516Y-103221631D01*
X122224657Y-103213094D01*
X122201749Y-103202259D01*
X122180013Y-103189231D01*
X122159659Y-103174136D01*
X122140882Y-103157118D01*
X122123864Y-103138341D01*
X122108769Y-103117987D01*
X122095741Y-103096251D01*
X122084906Y-103073343D01*
X122076369Y-103049484D01*
X122070212Y-103024902D01*
X122066493Y-102999835D01*
X122065250Y-102974525D01*
X122065250Y-100288975D01*
X122066493Y-100263665D01*
X122070212Y-100238598D01*
X122076369Y-100214016D01*
X122084906Y-100190157D01*
X122095741Y-100167249D01*
X122108769Y-100145513D01*
X122123864Y-100125159D01*
X122140882Y-100106382D01*
X122159659Y-100089364D01*
X122180013Y-100074269D01*
X122201749Y-100061241D01*
X122224657Y-100050406D01*
X122248516Y-100041869D01*
X122273098Y-100035712D01*
X122298165Y-100031993D01*
X122323475Y-100030750D01*
X125009025Y-100030750D01*
X125034335Y-100031993D01*
X125034335Y-100031993D01*
G37*
D22*
X123666250Y-101631750D03*
D23*
X146345000Y-81184750D03*
X141945000Y-81184750D03*
D24*
X148595000Y-78334750D03*
X148595000Y-83784750D03*
X139695000Y-78334750D03*
X139695000Y-83784750D03*
D25*
X145745000Y-83884750D03*
X144945000Y-83884750D03*
X144145000Y-83884750D03*
X143345000Y-83884750D03*
X142545000Y-83884750D03*
D15*
X112395000Y-95281750D03*
X118745000Y-92741750D03*
D14*
X114935000Y-90201750D03*
D13*
X120015000Y-90201750D03*
X109855000Y-90201750D03*
D15*
X150495000Y-95281750D03*
X156845000Y-92741750D03*
D14*
X153035000Y-90201750D03*
D13*
X158115000Y-90201750D03*
X147955000Y-90201750D03*
X109855000Y-109251750D03*
X120015000Y-109251750D03*
D14*
X114935000Y-109251750D03*
D15*
X118745000Y-111791750D03*
X112395000Y-114331750D03*
X131445000Y-114331750D03*
X137795000Y-111791750D03*
D14*
X133985000Y-109251750D03*
D13*
X139065000Y-109251750D03*
X128905000Y-109251750D03*
X147955000Y-109251750D03*
X158115000Y-109251750D03*
D14*
X153035000Y-109251750D03*
D15*
X156845000Y-111791750D03*
X150495000Y-114331750D03*
D26*
X128408250Y-105226750D03*
X130608250Y-105226750D03*
X130608250Y-106926750D03*
X128408250Y-106926750D03*
D17*
G36*
X130766941Y-101487926D02*
G01*
X130790651Y-101491443D01*
X130813902Y-101497267D01*
X130836470Y-101505342D01*
X130858139Y-101515591D01*
X130878698Y-101527914D01*
X130897951Y-101542192D01*
X130915711Y-101558289D01*
X130931808Y-101576049D01*
X130946086Y-101595302D01*
X130958409Y-101615861D01*
X130968658Y-101637530D01*
X130976733Y-101660098D01*
X130982557Y-101683349D01*
X130986074Y-101707059D01*
X130987250Y-101731000D01*
X130987250Y-102294500D01*
X130986074Y-102318441D01*
X130982557Y-102342151D01*
X130976733Y-102365402D01*
X130968658Y-102387970D01*
X130958409Y-102409639D01*
X130946086Y-102430198D01*
X130931808Y-102449451D01*
X130915711Y-102467211D01*
X130897951Y-102483308D01*
X130878698Y-102497586D01*
X130858139Y-102509909D01*
X130836470Y-102520158D01*
X130813902Y-102528233D01*
X130790651Y-102534057D01*
X130766941Y-102537574D01*
X130743000Y-102538750D01*
X130254500Y-102538750D01*
X130230559Y-102537574D01*
X130206849Y-102534057D01*
X130183598Y-102528233D01*
X130161030Y-102520158D01*
X130139361Y-102509909D01*
X130118802Y-102497586D01*
X130099549Y-102483308D01*
X130081789Y-102467211D01*
X130065692Y-102449451D01*
X130051414Y-102430198D01*
X130039091Y-102409639D01*
X130028842Y-102387970D01*
X130020767Y-102365402D01*
X130014943Y-102342151D01*
X130011426Y-102318441D01*
X130010250Y-102294500D01*
X130010250Y-101731000D01*
X130011426Y-101707059D01*
X130014943Y-101683349D01*
X130020767Y-101660098D01*
X130028842Y-101637530D01*
X130039091Y-101615861D01*
X130051414Y-101595302D01*
X130065692Y-101576049D01*
X130081789Y-101558289D01*
X130099549Y-101542192D01*
X130118802Y-101527914D01*
X130139361Y-101515591D01*
X130161030Y-101505342D01*
X130183598Y-101497267D01*
X130206849Y-101491443D01*
X130230559Y-101487926D01*
X130254500Y-101486750D01*
X130743000Y-101486750D01*
X130766941Y-101487926D01*
X130766941Y-101487926D01*
G37*
D18*
X130498750Y-102012750D03*
D17*
G36*
X132341941Y-101487926D02*
G01*
X132365651Y-101491443D01*
X132388902Y-101497267D01*
X132411470Y-101505342D01*
X132433139Y-101515591D01*
X132453698Y-101527914D01*
X132472951Y-101542192D01*
X132490711Y-101558289D01*
X132506808Y-101576049D01*
X132521086Y-101595302D01*
X132533409Y-101615861D01*
X132543658Y-101637530D01*
X132551733Y-101660098D01*
X132557557Y-101683349D01*
X132561074Y-101707059D01*
X132562250Y-101731000D01*
X132562250Y-102294500D01*
X132561074Y-102318441D01*
X132557557Y-102342151D01*
X132551733Y-102365402D01*
X132543658Y-102387970D01*
X132533409Y-102409639D01*
X132521086Y-102430198D01*
X132506808Y-102449451D01*
X132490711Y-102467211D01*
X132472951Y-102483308D01*
X132453698Y-102497586D01*
X132433139Y-102509909D01*
X132411470Y-102520158D01*
X132388902Y-102528233D01*
X132365651Y-102534057D01*
X132341941Y-102537574D01*
X132318000Y-102538750D01*
X131829500Y-102538750D01*
X131805559Y-102537574D01*
X131781849Y-102534057D01*
X131758598Y-102528233D01*
X131736030Y-102520158D01*
X131714361Y-102509909D01*
X131693802Y-102497586D01*
X131674549Y-102483308D01*
X131656789Y-102467211D01*
X131640692Y-102449451D01*
X131626414Y-102430198D01*
X131614091Y-102409639D01*
X131603842Y-102387970D01*
X131595767Y-102365402D01*
X131589943Y-102342151D01*
X131586426Y-102318441D01*
X131585250Y-102294500D01*
X131585250Y-101731000D01*
X131586426Y-101707059D01*
X131589943Y-101683349D01*
X131595767Y-101660098D01*
X131603842Y-101637530D01*
X131614091Y-101615861D01*
X131626414Y-101595302D01*
X131640692Y-101576049D01*
X131656789Y-101558289D01*
X131674549Y-101542192D01*
X131693802Y-101527914D01*
X131714361Y-101515591D01*
X131736030Y-101505342D01*
X131758598Y-101497267D01*
X131781849Y-101491443D01*
X131805559Y-101487926D01*
X131829500Y-101486750D01*
X132318000Y-101486750D01*
X132341941Y-101487926D01*
X132341941Y-101487926D01*
G37*
D18*
X132073750Y-102012750D03*
D17*
G36*
X133750941Y-103658926D02*
G01*
X133774651Y-103662443D01*
X133797902Y-103668267D01*
X133820470Y-103676342D01*
X133842139Y-103686591D01*
X133862698Y-103698914D01*
X133881951Y-103713192D01*
X133899711Y-103729289D01*
X133915808Y-103747049D01*
X133930086Y-103766302D01*
X133942409Y-103786861D01*
X133952658Y-103808530D01*
X133960733Y-103831098D01*
X133966557Y-103854349D01*
X133970074Y-103878059D01*
X133971250Y-103902000D01*
X133971250Y-104390500D01*
X133970074Y-104414441D01*
X133966557Y-104438151D01*
X133960733Y-104461402D01*
X133952658Y-104483970D01*
X133942409Y-104505639D01*
X133930086Y-104526198D01*
X133915808Y-104545451D01*
X133899711Y-104563211D01*
X133881951Y-104579308D01*
X133862698Y-104593586D01*
X133842139Y-104605909D01*
X133820470Y-104616158D01*
X133797902Y-104624233D01*
X133774651Y-104630057D01*
X133750941Y-104633574D01*
X133727000Y-104634750D01*
X133163500Y-104634750D01*
X133139559Y-104633574D01*
X133115849Y-104630057D01*
X133092598Y-104624233D01*
X133070030Y-104616158D01*
X133048361Y-104605909D01*
X133027802Y-104593586D01*
X133008549Y-104579308D01*
X132990789Y-104563211D01*
X132974692Y-104545451D01*
X132960414Y-104526198D01*
X132948091Y-104505639D01*
X132937842Y-104483970D01*
X132929767Y-104461402D01*
X132923943Y-104438151D01*
X132920426Y-104414441D01*
X132919250Y-104390500D01*
X132919250Y-103902000D01*
X132920426Y-103878059D01*
X132923943Y-103854349D01*
X132929767Y-103831098D01*
X132937842Y-103808530D01*
X132948091Y-103786861D01*
X132960414Y-103766302D01*
X132974692Y-103747049D01*
X132990789Y-103729289D01*
X133008549Y-103713192D01*
X133027802Y-103698914D01*
X133048361Y-103686591D01*
X133070030Y-103676342D01*
X133092598Y-103668267D01*
X133115849Y-103662443D01*
X133139559Y-103658926D01*
X133163500Y-103657750D01*
X133727000Y-103657750D01*
X133750941Y-103658926D01*
X133750941Y-103658926D01*
G37*
D18*
X133445250Y-104146250D03*
D17*
G36*
X133750941Y-105233926D02*
G01*
X133774651Y-105237443D01*
X133797902Y-105243267D01*
X133820470Y-105251342D01*
X133842139Y-105261591D01*
X133862698Y-105273914D01*
X133881951Y-105288192D01*
X133899711Y-105304289D01*
X133915808Y-105322049D01*
X133930086Y-105341302D01*
X133942409Y-105361861D01*
X133952658Y-105383530D01*
X133960733Y-105406098D01*
X133966557Y-105429349D01*
X133970074Y-105453059D01*
X133971250Y-105477000D01*
X133971250Y-105965500D01*
X133970074Y-105989441D01*
X133966557Y-106013151D01*
X133960733Y-106036402D01*
X133952658Y-106058970D01*
X133942409Y-106080639D01*
X133930086Y-106101198D01*
X133915808Y-106120451D01*
X133899711Y-106138211D01*
X133881951Y-106154308D01*
X133862698Y-106168586D01*
X133842139Y-106180909D01*
X133820470Y-106191158D01*
X133797902Y-106199233D01*
X133774651Y-106205057D01*
X133750941Y-106208574D01*
X133727000Y-106209750D01*
X133163500Y-106209750D01*
X133139559Y-106208574D01*
X133115849Y-106205057D01*
X133092598Y-106199233D01*
X133070030Y-106191158D01*
X133048361Y-106180909D01*
X133027802Y-106168586D01*
X133008549Y-106154308D01*
X132990789Y-106138211D01*
X132974692Y-106120451D01*
X132960414Y-106101198D01*
X132948091Y-106080639D01*
X132937842Y-106058970D01*
X132929767Y-106036402D01*
X132923943Y-106013151D01*
X132920426Y-105989441D01*
X132919250Y-105965500D01*
X132919250Y-105477000D01*
X132920426Y-105453059D01*
X132923943Y-105429349D01*
X132929767Y-105406098D01*
X132937842Y-105383530D01*
X132948091Y-105361861D01*
X132960414Y-105341302D01*
X132974692Y-105322049D01*
X132990789Y-105304289D01*
X133008549Y-105288192D01*
X133027802Y-105273914D01*
X133048361Y-105261591D01*
X133070030Y-105251342D01*
X133092598Y-105243267D01*
X133115849Y-105237443D01*
X133139559Y-105233926D01*
X133163500Y-105232750D01*
X133727000Y-105232750D01*
X133750941Y-105233926D01*
X133750941Y-105233926D01*
G37*
D18*
X133445250Y-105721250D03*
D27*
X117898000Y-87083000D03*
X123148000Y-87083000D03*
X123148000Y-85383000D03*
X117898000Y-85383000D03*
D28*
X120523000Y-87608000D03*
X120523000Y-84858000D03*
D17*
G36*
X158103691Y-104758176D02*
G01*
X158127401Y-104761693D01*
X158150652Y-104767517D01*
X158173220Y-104775592D01*
X158194889Y-104785841D01*
X158215448Y-104798164D01*
X158234701Y-104812442D01*
X158252461Y-104828539D01*
X158268558Y-104846299D01*
X158282836Y-104865552D01*
X158295159Y-104886111D01*
X158305408Y-104907780D01*
X158313483Y-104930348D01*
X158319307Y-104953599D01*
X158322824Y-104977309D01*
X158324000Y-105001250D01*
X158324000Y-105564750D01*
X158322824Y-105588691D01*
X158319307Y-105612401D01*
X158313483Y-105635652D01*
X158305408Y-105658220D01*
X158295159Y-105679889D01*
X158282836Y-105700448D01*
X158268558Y-105719701D01*
X158252461Y-105737461D01*
X158234701Y-105753558D01*
X158215448Y-105767836D01*
X158194889Y-105780159D01*
X158173220Y-105790408D01*
X158150652Y-105798483D01*
X158127401Y-105804307D01*
X158103691Y-105807824D01*
X158079750Y-105809000D01*
X157591250Y-105809000D01*
X157567309Y-105807824D01*
X157543599Y-105804307D01*
X157520348Y-105798483D01*
X157497780Y-105790408D01*
X157476111Y-105780159D01*
X157455552Y-105767836D01*
X157436299Y-105753558D01*
X157418539Y-105737461D01*
X157402442Y-105719701D01*
X157388164Y-105700448D01*
X157375841Y-105679889D01*
X157365592Y-105658220D01*
X157357517Y-105635652D01*
X157351693Y-105612401D01*
X157348176Y-105588691D01*
X157347000Y-105564750D01*
X157347000Y-105001250D01*
X157348176Y-104977309D01*
X157351693Y-104953599D01*
X157357517Y-104930348D01*
X157365592Y-104907780D01*
X157375841Y-104886111D01*
X157388164Y-104865552D01*
X157402442Y-104846299D01*
X157418539Y-104828539D01*
X157436299Y-104812442D01*
X157455552Y-104798164D01*
X157476111Y-104785841D01*
X157497780Y-104775592D01*
X157520348Y-104767517D01*
X157543599Y-104761693D01*
X157567309Y-104758176D01*
X157591250Y-104757000D01*
X158079750Y-104757000D01*
X158103691Y-104758176D01*
X158103691Y-104758176D01*
G37*
D18*
X157835500Y-105283000D03*
D17*
G36*
X159678691Y-104758176D02*
G01*
X159702401Y-104761693D01*
X159725652Y-104767517D01*
X159748220Y-104775592D01*
X159769889Y-104785841D01*
X159790448Y-104798164D01*
X159809701Y-104812442D01*
X159827461Y-104828539D01*
X159843558Y-104846299D01*
X159857836Y-104865552D01*
X159870159Y-104886111D01*
X159880408Y-104907780D01*
X159888483Y-104930348D01*
X159894307Y-104953599D01*
X159897824Y-104977309D01*
X159899000Y-105001250D01*
X159899000Y-105564750D01*
X159897824Y-105588691D01*
X159894307Y-105612401D01*
X159888483Y-105635652D01*
X159880408Y-105658220D01*
X159870159Y-105679889D01*
X159857836Y-105700448D01*
X159843558Y-105719701D01*
X159827461Y-105737461D01*
X159809701Y-105753558D01*
X159790448Y-105767836D01*
X159769889Y-105780159D01*
X159748220Y-105790408D01*
X159725652Y-105798483D01*
X159702401Y-105804307D01*
X159678691Y-105807824D01*
X159654750Y-105809000D01*
X159166250Y-105809000D01*
X159142309Y-105807824D01*
X159118599Y-105804307D01*
X159095348Y-105798483D01*
X159072780Y-105790408D01*
X159051111Y-105780159D01*
X159030552Y-105767836D01*
X159011299Y-105753558D01*
X158993539Y-105737461D01*
X158977442Y-105719701D01*
X158963164Y-105700448D01*
X158950841Y-105679889D01*
X158940592Y-105658220D01*
X158932517Y-105635652D01*
X158926693Y-105612401D01*
X158923176Y-105588691D01*
X158922000Y-105564750D01*
X158922000Y-105001250D01*
X158923176Y-104977309D01*
X158926693Y-104953599D01*
X158932517Y-104930348D01*
X158940592Y-104907780D01*
X158950841Y-104886111D01*
X158963164Y-104865552D01*
X158977442Y-104846299D01*
X158993539Y-104828539D01*
X159011299Y-104812442D01*
X159030552Y-104798164D01*
X159051111Y-104785841D01*
X159072780Y-104775592D01*
X159095348Y-104767517D01*
X159118599Y-104761693D01*
X159142309Y-104758176D01*
X159166250Y-104757000D01*
X159654750Y-104757000D01*
X159678691Y-104758176D01*
X159678691Y-104758176D01*
G37*
D18*
X159410500Y-105283000D03*
D17*
G36*
X138291191Y-115901926D02*
G01*
X138314901Y-115905443D01*
X138338152Y-115911267D01*
X138360720Y-115919342D01*
X138382389Y-115929591D01*
X138402948Y-115941914D01*
X138422201Y-115956192D01*
X138439961Y-115972289D01*
X138456058Y-115990049D01*
X138470336Y-116009302D01*
X138482659Y-116029861D01*
X138492908Y-116051530D01*
X138500983Y-116074098D01*
X138506807Y-116097349D01*
X138510324Y-116121059D01*
X138511500Y-116145000D01*
X138511500Y-116633500D01*
X138510324Y-116657441D01*
X138506807Y-116681151D01*
X138500983Y-116704402D01*
X138492908Y-116726970D01*
X138482659Y-116748639D01*
X138470336Y-116769198D01*
X138456058Y-116788451D01*
X138439961Y-116806211D01*
X138422201Y-116822308D01*
X138402948Y-116836586D01*
X138382389Y-116848909D01*
X138360720Y-116859158D01*
X138338152Y-116867233D01*
X138314901Y-116873057D01*
X138291191Y-116876574D01*
X138267250Y-116877750D01*
X137703750Y-116877750D01*
X137679809Y-116876574D01*
X137656099Y-116873057D01*
X137632848Y-116867233D01*
X137610280Y-116859158D01*
X137588611Y-116848909D01*
X137568052Y-116836586D01*
X137548799Y-116822308D01*
X137531039Y-116806211D01*
X137514942Y-116788451D01*
X137500664Y-116769198D01*
X137488341Y-116748639D01*
X137478092Y-116726970D01*
X137470017Y-116704402D01*
X137464193Y-116681151D01*
X137460676Y-116657441D01*
X137459500Y-116633500D01*
X137459500Y-116145000D01*
X137460676Y-116121059D01*
X137464193Y-116097349D01*
X137470017Y-116074098D01*
X137478092Y-116051530D01*
X137488341Y-116029861D01*
X137500664Y-116009302D01*
X137514942Y-115990049D01*
X137531039Y-115972289D01*
X137548799Y-115956192D01*
X137568052Y-115941914D01*
X137588611Y-115929591D01*
X137610280Y-115919342D01*
X137632848Y-115911267D01*
X137656099Y-115905443D01*
X137679809Y-115901926D01*
X137703750Y-115900750D01*
X138267250Y-115900750D01*
X138291191Y-115901926D01*
X138291191Y-115901926D01*
G37*
D18*
X137985500Y-116389250D03*
D17*
G36*
X138291191Y-114326926D02*
G01*
X138314901Y-114330443D01*
X138338152Y-114336267D01*
X138360720Y-114344342D01*
X138382389Y-114354591D01*
X138402948Y-114366914D01*
X138422201Y-114381192D01*
X138439961Y-114397289D01*
X138456058Y-114415049D01*
X138470336Y-114434302D01*
X138482659Y-114454861D01*
X138492908Y-114476530D01*
X138500983Y-114499098D01*
X138506807Y-114522349D01*
X138510324Y-114546059D01*
X138511500Y-114570000D01*
X138511500Y-115058500D01*
X138510324Y-115082441D01*
X138506807Y-115106151D01*
X138500983Y-115129402D01*
X138492908Y-115151970D01*
X138482659Y-115173639D01*
X138470336Y-115194198D01*
X138456058Y-115213451D01*
X138439961Y-115231211D01*
X138422201Y-115247308D01*
X138402948Y-115261586D01*
X138382389Y-115273909D01*
X138360720Y-115284158D01*
X138338152Y-115292233D01*
X138314901Y-115298057D01*
X138291191Y-115301574D01*
X138267250Y-115302750D01*
X137703750Y-115302750D01*
X137679809Y-115301574D01*
X137656099Y-115298057D01*
X137632848Y-115292233D01*
X137610280Y-115284158D01*
X137588611Y-115273909D01*
X137568052Y-115261586D01*
X137548799Y-115247308D01*
X137531039Y-115231211D01*
X137514942Y-115213451D01*
X137500664Y-115194198D01*
X137488341Y-115173639D01*
X137478092Y-115151970D01*
X137470017Y-115129402D01*
X137464193Y-115106151D01*
X137460676Y-115082441D01*
X137459500Y-115058500D01*
X137459500Y-114570000D01*
X137460676Y-114546059D01*
X137464193Y-114522349D01*
X137470017Y-114499098D01*
X137478092Y-114476530D01*
X137488341Y-114454861D01*
X137500664Y-114434302D01*
X137514942Y-114415049D01*
X137531039Y-114397289D01*
X137548799Y-114381192D01*
X137568052Y-114366914D01*
X137588611Y-114354591D01*
X137610280Y-114344342D01*
X137632848Y-114336267D01*
X137656099Y-114330443D01*
X137679809Y-114326926D01*
X137703750Y-114325750D01*
X138267250Y-114325750D01*
X138291191Y-114326926D01*
X138291191Y-114326926D01*
G37*
D18*
X137985500Y-114814250D03*
D17*
G36*
X119241191Y-114326926D02*
G01*
X119264901Y-114330443D01*
X119288152Y-114336267D01*
X119310720Y-114344342D01*
X119332389Y-114354591D01*
X119352948Y-114366914D01*
X119372201Y-114381192D01*
X119389961Y-114397289D01*
X119406058Y-114415049D01*
X119420336Y-114434302D01*
X119432659Y-114454861D01*
X119442908Y-114476530D01*
X119450983Y-114499098D01*
X119456807Y-114522349D01*
X119460324Y-114546059D01*
X119461500Y-114570000D01*
X119461500Y-115058500D01*
X119460324Y-115082441D01*
X119456807Y-115106151D01*
X119450983Y-115129402D01*
X119442908Y-115151970D01*
X119432659Y-115173639D01*
X119420336Y-115194198D01*
X119406058Y-115213451D01*
X119389961Y-115231211D01*
X119372201Y-115247308D01*
X119352948Y-115261586D01*
X119332389Y-115273909D01*
X119310720Y-115284158D01*
X119288152Y-115292233D01*
X119264901Y-115298057D01*
X119241191Y-115301574D01*
X119217250Y-115302750D01*
X118653750Y-115302750D01*
X118629809Y-115301574D01*
X118606099Y-115298057D01*
X118582848Y-115292233D01*
X118560280Y-115284158D01*
X118538611Y-115273909D01*
X118518052Y-115261586D01*
X118498799Y-115247308D01*
X118481039Y-115231211D01*
X118464942Y-115213451D01*
X118450664Y-115194198D01*
X118438341Y-115173639D01*
X118428092Y-115151970D01*
X118420017Y-115129402D01*
X118414193Y-115106151D01*
X118410676Y-115082441D01*
X118409500Y-115058500D01*
X118409500Y-114570000D01*
X118410676Y-114546059D01*
X118414193Y-114522349D01*
X118420017Y-114499098D01*
X118428092Y-114476530D01*
X118438341Y-114454861D01*
X118450664Y-114434302D01*
X118464942Y-114415049D01*
X118481039Y-114397289D01*
X118498799Y-114381192D01*
X118518052Y-114366914D01*
X118538611Y-114354591D01*
X118560280Y-114344342D01*
X118582848Y-114336267D01*
X118606099Y-114330443D01*
X118629809Y-114326926D01*
X118653750Y-114325750D01*
X119217250Y-114325750D01*
X119241191Y-114326926D01*
X119241191Y-114326926D01*
G37*
D18*
X118935500Y-114814250D03*
D17*
G36*
X119241191Y-115901926D02*
G01*
X119264901Y-115905443D01*
X119288152Y-115911267D01*
X119310720Y-115919342D01*
X119332389Y-115929591D01*
X119352948Y-115941914D01*
X119372201Y-115956192D01*
X119389961Y-115972289D01*
X119406058Y-115990049D01*
X119420336Y-116009302D01*
X119432659Y-116029861D01*
X119442908Y-116051530D01*
X119450983Y-116074098D01*
X119456807Y-116097349D01*
X119460324Y-116121059D01*
X119461500Y-116145000D01*
X119461500Y-116633500D01*
X119460324Y-116657441D01*
X119456807Y-116681151D01*
X119450983Y-116704402D01*
X119442908Y-116726970D01*
X119432659Y-116748639D01*
X119420336Y-116769198D01*
X119406058Y-116788451D01*
X119389961Y-116806211D01*
X119372201Y-116822308D01*
X119352948Y-116836586D01*
X119332389Y-116848909D01*
X119310720Y-116859158D01*
X119288152Y-116867233D01*
X119264901Y-116873057D01*
X119241191Y-116876574D01*
X119217250Y-116877750D01*
X118653750Y-116877750D01*
X118629809Y-116876574D01*
X118606099Y-116873057D01*
X118582848Y-116867233D01*
X118560280Y-116859158D01*
X118538611Y-116848909D01*
X118518052Y-116836586D01*
X118498799Y-116822308D01*
X118481039Y-116806211D01*
X118464942Y-116788451D01*
X118450664Y-116769198D01*
X118438341Y-116748639D01*
X118428092Y-116726970D01*
X118420017Y-116704402D01*
X118414193Y-116681151D01*
X118410676Y-116657441D01*
X118409500Y-116633500D01*
X118409500Y-116145000D01*
X118410676Y-116121059D01*
X118414193Y-116097349D01*
X118420017Y-116074098D01*
X118428092Y-116051530D01*
X118438341Y-116029861D01*
X118450664Y-116009302D01*
X118464942Y-115990049D01*
X118481039Y-115972289D01*
X118498799Y-115956192D01*
X118518052Y-115941914D01*
X118538611Y-115929591D01*
X118560280Y-115919342D01*
X118582848Y-115911267D01*
X118606099Y-115905443D01*
X118629809Y-115901926D01*
X118653750Y-115900750D01*
X119217250Y-115900750D01*
X119241191Y-115901926D01*
X119241191Y-115901926D01*
G37*
D18*
X118935500Y-116389250D03*
D17*
G36*
X108891191Y-104758176D02*
G01*
X108914901Y-104761693D01*
X108938152Y-104767517D01*
X108960720Y-104775592D01*
X108982389Y-104785841D01*
X109002948Y-104798164D01*
X109022201Y-104812442D01*
X109039961Y-104828539D01*
X109056058Y-104846299D01*
X109070336Y-104865552D01*
X109082659Y-104886111D01*
X109092908Y-104907780D01*
X109100983Y-104930348D01*
X109106807Y-104953599D01*
X109110324Y-104977309D01*
X109111500Y-105001250D01*
X109111500Y-105564750D01*
X109110324Y-105588691D01*
X109106807Y-105612401D01*
X109100983Y-105635652D01*
X109092908Y-105658220D01*
X109082659Y-105679889D01*
X109070336Y-105700448D01*
X109056058Y-105719701D01*
X109039961Y-105737461D01*
X109022201Y-105753558D01*
X109002948Y-105767836D01*
X108982389Y-105780159D01*
X108960720Y-105790408D01*
X108938152Y-105798483D01*
X108914901Y-105804307D01*
X108891191Y-105807824D01*
X108867250Y-105809000D01*
X108378750Y-105809000D01*
X108354809Y-105807824D01*
X108331099Y-105804307D01*
X108307848Y-105798483D01*
X108285280Y-105790408D01*
X108263611Y-105780159D01*
X108243052Y-105767836D01*
X108223799Y-105753558D01*
X108206039Y-105737461D01*
X108189942Y-105719701D01*
X108175664Y-105700448D01*
X108163341Y-105679889D01*
X108153092Y-105658220D01*
X108145017Y-105635652D01*
X108139193Y-105612401D01*
X108135676Y-105588691D01*
X108134500Y-105564750D01*
X108134500Y-105001250D01*
X108135676Y-104977309D01*
X108139193Y-104953599D01*
X108145017Y-104930348D01*
X108153092Y-104907780D01*
X108163341Y-104886111D01*
X108175664Y-104865552D01*
X108189942Y-104846299D01*
X108206039Y-104828539D01*
X108223799Y-104812442D01*
X108243052Y-104798164D01*
X108263611Y-104785841D01*
X108285280Y-104775592D01*
X108307848Y-104767517D01*
X108331099Y-104761693D01*
X108354809Y-104758176D01*
X108378750Y-104757000D01*
X108867250Y-104757000D01*
X108891191Y-104758176D01*
X108891191Y-104758176D01*
G37*
D18*
X108623000Y-105283000D03*
D17*
G36*
X110466191Y-104758176D02*
G01*
X110489901Y-104761693D01*
X110513152Y-104767517D01*
X110535720Y-104775592D01*
X110557389Y-104785841D01*
X110577948Y-104798164D01*
X110597201Y-104812442D01*
X110614961Y-104828539D01*
X110631058Y-104846299D01*
X110645336Y-104865552D01*
X110657659Y-104886111D01*
X110667908Y-104907780D01*
X110675983Y-104930348D01*
X110681807Y-104953599D01*
X110685324Y-104977309D01*
X110686500Y-105001250D01*
X110686500Y-105564750D01*
X110685324Y-105588691D01*
X110681807Y-105612401D01*
X110675983Y-105635652D01*
X110667908Y-105658220D01*
X110657659Y-105679889D01*
X110645336Y-105700448D01*
X110631058Y-105719701D01*
X110614961Y-105737461D01*
X110597201Y-105753558D01*
X110577948Y-105767836D01*
X110557389Y-105780159D01*
X110535720Y-105790408D01*
X110513152Y-105798483D01*
X110489901Y-105804307D01*
X110466191Y-105807824D01*
X110442250Y-105809000D01*
X109953750Y-105809000D01*
X109929809Y-105807824D01*
X109906099Y-105804307D01*
X109882848Y-105798483D01*
X109860280Y-105790408D01*
X109838611Y-105780159D01*
X109818052Y-105767836D01*
X109798799Y-105753558D01*
X109781039Y-105737461D01*
X109764942Y-105719701D01*
X109750664Y-105700448D01*
X109738341Y-105679889D01*
X109728092Y-105658220D01*
X109720017Y-105635652D01*
X109714193Y-105612401D01*
X109710676Y-105588691D01*
X109709500Y-105564750D01*
X109709500Y-105001250D01*
X109710676Y-104977309D01*
X109714193Y-104953599D01*
X109720017Y-104930348D01*
X109728092Y-104907780D01*
X109738341Y-104886111D01*
X109750664Y-104865552D01*
X109764942Y-104846299D01*
X109781039Y-104828539D01*
X109798799Y-104812442D01*
X109818052Y-104798164D01*
X109838611Y-104785841D01*
X109860280Y-104775592D01*
X109882848Y-104767517D01*
X109906099Y-104761693D01*
X109929809Y-104758176D01*
X109953750Y-104757000D01*
X110442250Y-104757000D01*
X110466191Y-104758176D01*
X110466191Y-104758176D01*
G37*
D18*
X110198000Y-105283000D03*
D17*
G36*
X133467604Y-83270802D02*
G01*
X133493852Y-83274696D01*
X133519593Y-83281143D01*
X133544578Y-83290083D01*
X133568566Y-83301428D01*
X133591326Y-83315071D01*
X133612640Y-83330878D01*
X133632302Y-83348698D01*
X133650122Y-83368360D01*
X133665929Y-83389674D01*
X133679572Y-83412434D01*
X133690917Y-83436422D01*
X133699857Y-83461407D01*
X133706304Y-83487148D01*
X133710198Y-83513396D01*
X133711500Y-83539900D01*
X133711500Y-85751100D01*
X133710198Y-85777604D01*
X133706304Y-85803852D01*
X133699857Y-85829593D01*
X133690917Y-85854578D01*
X133679572Y-85878566D01*
X133665929Y-85901326D01*
X133650122Y-85922640D01*
X133632302Y-85942302D01*
X133612640Y-85960122D01*
X133591326Y-85975929D01*
X133568566Y-85989572D01*
X133544578Y-86000917D01*
X133519593Y-86009857D01*
X133493852Y-86016304D01*
X133467604Y-86020198D01*
X133441100Y-86021500D01*
X132629900Y-86021500D01*
X132603396Y-86020198D01*
X132577148Y-86016304D01*
X132551407Y-86009857D01*
X132526422Y-86000917D01*
X132502434Y-85989572D01*
X132479674Y-85975929D01*
X132458360Y-85960122D01*
X132438698Y-85942302D01*
X132420878Y-85922640D01*
X132405071Y-85901326D01*
X132391428Y-85878566D01*
X132380083Y-85854578D01*
X132371143Y-85829593D01*
X132364696Y-85803852D01*
X132360802Y-85777604D01*
X132359500Y-85751100D01*
X132359500Y-83539900D01*
X132360802Y-83513396D01*
X132364696Y-83487148D01*
X132371143Y-83461407D01*
X132380083Y-83436422D01*
X132391428Y-83412434D01*
X132405071Y-83389674D01*
X132420878Y-83368360D01*
X132438698Y-83348698D01*
X132458360Y-83330878D01*
X132479674Y-83315071D01*
X132502434Y-83301428D01*
X132526422Y-83290083D01*
X132551407Y-83281143D01*
X132577148Y-83274696D01*
X132603396Y-83270802D01*
X132629900Y-83269500D01*
X133441100Y-83269500D01*
X133467604Y-83270802D01*
X133467604Y-83270802D01*
G37*
D29*
X133035500Y-84645500D03*
D17*
G36*
X130667604Y-83270802D02*
G01*
X130693852Y-83274696D01*
X130719593Y-83281143D01*
X130744578Y-83290083D01*
X130768566Y-83301428D01*
X130791326Y-83315071D01*
X130812640Y-83330878D01*
X130832302Y-83348698D01*
X130850122Y-83368360D01*
X130865929Y-83389674D01*
X130879572Y-83412434D01*
X130890917Y-83436422D01*
X130899857Y-83461407D01*
X130906304Y-83487148D01*
X130910198Y-83513396D01*
X130911500Y-83539900D01*
X130911500Y-85751100D01*
X130910198Y-85777604D01*
X130906304Y-85803852D01*
X130899857Y-85829593D01*
X130890917Y-85854578D01*
X130879572Y-85878566D01*
X130865929Y-85901326D01*
X130850122Y-85922640D01*
X130832302Y-85942302D01*
X130812640Y-85960122D01*
X130791326Y-85975929D01*
X130768566Y-85989572D01*
X130744578Y-86000917D01*
X130719593Y-86009857D01*
X130693852Y-86016304D01*
X130667604Y-86020198D01*
X130641100Y-86021500D01*
X129829900Y-86021500D01*
X129803396Y-86020198D01*
X129777148Y-86016304D01*
X129751407Y-86009857D01*
X129726422Y-86000917D01*
X129702434Y-85989572D01*
X129679674Y-85975929D01*
X129658360Y-85960122D01*
X129638698Y-85942302D01*
X129620878Y-85922640D01*
X129605071Y-85901326D01*
X129591428Y-85878566D01*
X129580083Y-85854578D01*
X129571143Y-85829593D01*
X129564696Y-85803852D01*
X129560802Y-85777604D01*
X129559500Y-85751100D01*
X129559500Y-83539900D01*
X129560802Y-83513396D01*
X129564696Y-83487148D01*
X129571143Y-83461407D01*
X129580083Y-83436422D01*
X129591428Y-83412434D01*
X129605071Y-83389674D01*
X129620878Y-83368360D01*
X129638698Y-83348698D01*
X129658360Y-83330878D01*
X129679674Y-83315071D01*
X129702434Y-83301428D01*
X129726422Y-83290083D01*
X129751407Y-83281143D01*
X129777148Y-83274696D01*
X129803396Y-83270802D01*
X129829900Y-83269500D01*
X130641100Y-83269500D01*
X130667604Y-83270802D01*
X130667604Y-83270802D01*
G37*
D29*
X130235500Y-84645500D03*
D30*
X157023000Y-97276750D03*
X160223000Y-97276750D03*
X157023000Y-102176750D03*
X160223000Y-102176750D03*
D31*
X145991750Y-113208000D03*
X145991750Y-116408000D03*
X141091750Y-113208000D03*
X141091750Y-116408000D03*
X126941750Y-113208000D03*
X126941750Y-116408000D03*
X122041750Y-113208000D03*
X122041750Y-116408000D03*
D30*
X107810500Y-97276750D03*
X111010500Y-97276750D03*
X107810500Y-102176750D03*
X111010500Y-102176750D03*
D32*
X109410500Y-86839250D03*
X109410500Y-84039250D03*
X126079250Y-90389250D03*
X126079250Y-93189250D03*
X145316750Y-98139250D03*
X148116750Y-98139250D03*
X108616750Y-112614250D03*
X108616750Y-115414250D03*
X141160500Y-103883000D03*
X141160500Y-106683000D03*
X145923000Y-106683000D03*
X145923000Y-103883000D03*
D17*
G36*
X113367941Y-83326926D02*
G01*
X113391651Y-83330443D01*
X113414902Y-83336267D01*
X113437470Y-83344342D01*
X113459139Y-83354591D01*
X113479698Y-83366914D01*
X113498951Y-83381192D01*
X113516711Y-83397289D01*
X113532808Y-83415049D01*
X113547086Y-83434302D01*
X113559409Y-83454861D01*
X113569658Y-83476530D01*
X113577733Y-83499098D01*
X113583557Y-83522349D01*
X113587074Y-83546059D01*
X113588250Y-83570000D01*
X113588250Y-84133500D01*
X113587074Y-84157441D01*
X113583557Y-84181151D01*
X113577733Y-84204402D01*
X113569658Y-84226970D01*
X113559409Y-84248639D01*
X113547086Y-84269198D01*
X113532808Y-84288451D01*
X113516711Y-84306211D01*
X113498951Y-84322308D01*
X113479698Y-84336586D01*
X113459139Y-84348909D01*
X113437470Y-84359158D01*
X113414902Y-84367233D01*
X113391651Y-84373057D01*
X113367941Y-84376574D01*
X113344000Y-84377750D01*
X112855500Y-84377750D01*
X112831559Y-84376574D01*
X112807849Y-84373057D01*
X112784598Y-84367233D01*
X112762030Y-84359158D01*
X112740361Y-84348909D01*
X112719802Y-84336586D01*
X112700549Y-84322308D01*
X112682789Y-84306211D01*
X112666692Y-84288451D01*
X112652414Y-84269198D01*
X112640091Y-84248639D01*
X112629842Y-84226970D01*
X112621767Y-84204402D01*
X112615943Y-84181151D01*
X112612426Y-84157441D01*
X112611250Y-84133500D01*
X112611250Y-83570000D01*
X112612426Y-83546059D01*
X112615943Y-83522349D01*
X112621767Y-83499098D01*
X112629842Y-83476530D01*
X112640091Y-83454861D01*
X112652414Y-83434302D01*
X112666692Y-83415049D01*
X112682789Y-83397289D01*
X112700549Y-83381192D01*
X112719802Y-83366914D01*
X112740361Y-83354591D01*
X112762030Y-83344342D01*
X112784598Y-83336267D01*
X112807849Y-83330443D01*
X112831559Y-83326926D01*
X112855500Y-83325750D01*
X113344000Y-83325750D01*
X113367941Y-83326926D01*
X113367941Y-83326926D01*
G37*
D18*
X113099750Y-83851750D03*
D17*
G36*
X114942941Y-83326926D02*
G01*
X114966651Y-83330443D01*
X114989902Y-83336267D01*
X115012470Y-83344342D01*
X115034139Y-83354591D01*
X115054698Y-83366914D01*
X115073951Y-83381192D01*
X115091711Y-83397289D01*
X115107808Y-83415049D01*
X115122086Y-83434302D01*
X115134409Y-83454861D01*
X115144658Y-83476530D01*
X115152733Y-83499098D01*
X115158557Y-83522349D01*
X115162074Y-83546059D01*
X115163250Y-83570000D01*
X115163250Y-84133500D01*
X115162074Y-84157441D01*
X115158557Y-84181151D01*
X115152733Y-84204402D01*
X115144658Y-84226970D01*
X115134409Y-84248639D01*
X115122086Y-84269198D01*
X115107808Y-84288451D01*
X115091711Y-84306211D01*
X115073951Y-84322308D01*
X115054698Y-84336586D01*
X115034139Y-84348909D01*
X115012470Y-84359158D01*
X114989902Y-84367233D01*
X114966651Y-84373057D01*
X114942941Y-84376574D01*
X114919000Y-84377750D01*
X114430500Y-84377750D01*
X114406559Y-84376574D01*
X114382849Y-84373057D01*
X114359598Y-84367233D01*
X114337030Y-84359158D01*
X114315361Y-84348909D01*
X114294802Y-84336586D01*
X114275549Y-84322308D01*
X114257789Y-84306211D01*
X114241692Y-84288451D01*
X114227414Y-84269198D01*
X114215091Y-84248639D01*
X114204842Y-84226970D01*
X114196767Y-84204402D01*
X114190943Y-84181151D01*
X114187426Y-84157441D01*
X114186250Y-84133500D01*
X114186250Y-83570000D01*
X114187426Y-83546059D01*
X114190943Y-83522349D01*
X114196767Y-83499098D01*
X114204842Y-83476530D01*
X114215091Y-83454861D01*
X114227414Y-83434302D01*
X114241692Y-83415049D01*
X114257789Y-83397289D01*
X114275549Y-83381192D01*
X114294802Y-83366914D01*
X114315361Y-83354591D01*
X114337030Y-83344342D01*
X114359598Y-83336267D01*
X114382849Y-83330443D01*
X114406559Y-83326926D01*
X114430500Y-83325750D01*
X114919000Y-83325750D01*
X114942941Y-83326926D01*
X114942941Y-83326926D01*
G37*
D18*
X114674750Y-83851750D03*
M02*
