M48
; DRILL file {KiCad 5.1.2-f72e74a~84~ubuntu18.04.1} date dom 07 jul 2019 22:09:51 WEST
; FORMAT={-:-/ absolute / inch / decimal}
; #@! TF.CreationDate,2019-07-07T22:09:51+01:00
; #@! TF.GenerationSoftware,Kicad,Pcbnew,5.1.2-f72e74a~84~ubuntu18.04.1
; #@! TF.FileFunction,NonPlated,1,2,NPTH
FMAT,2
INCH
T1C0.0295
T2C0.0394
T3C0.0669
T4C0.1260
T5C0.1575
%
G90
G05
T1
X4.745Y-3.3409
X4.745Y-3.4491
T2
X5.5884Y-3.1963
X5.7616Y-3.1963
T3
X5.075Y-4.3012
X5.475Y-4.3012
X5.075Y-3.5513
X5.475Y-3.5513
X5.825Y-4.3012
X6.225Y-4.3012
X5.825Y-3.5513
X6.225Y-3.5513
X4.325Y-4.3012
X4.725Y-4.3012
X4.325Y-3.5513
X4.725Y-3.5513
T4
X4.12Y-3.145
X6.4325Y-4.7075
X4.12Y-4.7075
X6.4325Y-3.145
T5
X5.275Y-3.5513
X6.025Y-4.3012
X6.025Y-3.5513
X4.525Y-4.3012
X4.525Y-3.5513
X5.275Y-4.3012
T0
M30
