G04 #@! TF.GenerationSoftware,KiCad,Pcbnew,5.1.2-f72e74a~84~ubuntu18.04.1*
G04 #@! TF.CreationDate,2019-06-08T16:30:23+01:00*
G04 #@! TF.ProjectId,macro-kb,6d616372-6f2d-46b6-922e-6b696361645f,rev?*
G04 #@! TF.SameCoordinates,Original*
G04 #@! TF.FileFunction,Copper,L1,Top*
G04 #@! TF.FilePolarity,Positive*
%FSLAX46Y46*%
G04 Gerber Fmt 4.6, Leading zero omitted, Abs format (unit mm)*
G04 Created by KiCad (PCBNEW 5.1.2-f72e74a~84~ubuntu18.04.1) date 2019-06-08 16:30:23*
%MOMM*%
%LPD*%
G04 APERTURE LIST*
%ADD10C,2.200000*%
%ADD11C,0.100000*%
%ADD12C,0.875000*%
%ADD13R,1.000000X0.600000*%
%ADD14C,0.800000*%
%ADD15C,0.400000*%
%ADD16C,0.250000*%
%ADD17C,0.254000*%
G04 APERTURE END LIST*
D10*
X137795000Y-92741750D03*
X131445000Y-95281750D03*
X112395000Y-95281750D03*
X118745000Y-92741750D03*
X150495000Y-95281750D03*
X156845000Y-92741750D03*
X118745000Y-111791750D03*
X112395000Y-114331750D03*
X131445000Y-114331750D03*
X137795000Y-111791750D03*
X156845000Y-111791750D03*
X150495000Y-114331750D03*
D11*
G36*
X119213191Y-81821553D02*
G01*
X119234426Y-81824703D01*
X119255250Y-81829919D01*
X119275462Y-81837151D01*
X119294868Y-81846330D01*
X119313281Y-81857366D01*
X119330524Y-81870154D01*
X119346430Y-81884570D01*
X119360846Y-81900476D01*
X119373634Y-81917719D01*
X119384670Y-81936132D01*
X119393849Y-81955538D01*
X119401081Y-81975750D01*
X119406297Y-81996574D01*
X119409447Y-82017809D01*
X119410500Y-82039250D01*
X119410500Y-82476750D01*
X119409447Y-82498191D01*
X119406297Y-82519426D01*
X119401081Y-82540250D01*
X119393849Y-82560462D01*
X119384670Y-82579868D01*
X119373634Y-82598281D01*
X119360846Y-82615524D01*
X119346430Y-82631430D01*
X119330524Y-82645846D01*
X119313281Y-82658634D01*
X119294868Y-82669670D01*
X119275462Y-82678849D01*
X119255250Y-82686081D01*
X119234426Y-82691297D01*
X119213191Y-82694447D01*
X119191750Y-82695500D01*
X118679250Y-82695500D01*
X118657809Y-82694447D01*
X118636574Y-82691297D01*
X118615750Y-82686081D01*
X118595538Y-82678849D01*
X118576132Y-82669670D01*
X118557719Y-82658634D01*
X118540476Y-82645846D01*
X118524570Y-82631430D01*
X118510154Y-82615524D01*
X118497366Y-82598281D01*
X118486330Y-82579868D01*
X118477151Y-82560462D01*
X118469919Y-82540250D01*
X118464703Y-82519426D01*
X118461553Y-82498191D01*
X118460500Y-82476750D01*
X118460500Y-82039250D01*
X118461553Y-82017809D01*
X118464703Y-81996574D01*
X118469919Y-81975750D01*
X118477151Y-81955538D01*
X118486330Y-81936132D01*
X118497366Y-81917719D01*
X118510154Y-81900476D01*
X118524570Y-81884570D01*
X118540476Y-81870154D01*
X118557719Y-81857366D01*
X118576132Y-81846330D01*
X118595538Y-81837151D01*
X118615750Y-81829919D01*
X118636574Y-81824703D01*
X118657809Y-81821553D01*
X118679250Y-81820500D01*
X119191750Y-81820500D01*
X119213191Y-81821553D01*
X119213191Y-81821553D01*
G37*
D12*
X118935500Y-82258000D03*
D11*
G36*
X119213191Y-80246553D02*
G01*
X119234426Y-80249703D01*
X119255250Y-80254919D01*
X119275462Y-80262151D01*
X119294868Y-80271330D01*
X119313281Y-80282366D01*
X119330524Y-80295154D01*
X119346430Y-80309570D01*
X119360846Y-80325476D01*
X119373634Y-80342719D01*
X119384670Y-80361132D01*
X119393849Y-80380538D01*
X119401081Y-80400750D01*
X119406297Y-80421574D01*
X119409447Y-80442809D01*
X119410500Y-80464250D01*
X119410500Y-80901750D01*
X119409447Y-80923191D01*
X119406297Y-80944426D01*
X119401081Y-80965250D01*
X119393849Y-80985462D01*
X119384670Y-81004868D01*
X119373634Y-81023281D01*
X119360846Y-81040524D01*
X119346430Y-81056430D01*
X119330524Y-81070846D01*
X119313281Y-81083634D01*
X119294868Y-81094670D01*
X119275462Y-81103849D01*
X119255250Y-81111081D01*
X119234426Y-81116297D01*
X119213191Y-81119447D01*
X119191750Y-81120500D01*
X118679250Y-81120500D01*
X118657809Y-81119447D01*
X118636574Y-81116297D01*
X118615750Y-81111081D01*
X118595538Y-81103849D01*
X118576132Y-81094670D01*
X118557719Y-81083634D01*
X118540476Y-81070846D01*
X118524570Y-81056430D01*
X118510154Y-81040524D01*
X118497366Y-81023281D01*
X118486330Y-81004868D01*
X118477151Y-80985462D01*
X118469919Y-80965250D01*
X118464703Y-80944426D01*
X118461553Y-80923191D01*
X118460500Y-80901750D01*
X118460500Y-80464250D01*
X118461553Y-80442809D01*
X118464703Y-80421574D01*
X118469919Y-80400750D01*
X118477151Y-80380538D01*
X118486330Y-80361132D01*
X118497366Y-80342719D01*
X118510154Y-80325476D01*
X118524570Y-80309570D01*
X118540476Y-80295154D01*
X118557719Y-80282366D01*
X118576132Y-80271330D01*
X118595538Y-80262151D01*
X118615750Y-80254919D01*
X118636574Y-80249703D01*
X118657809Y-80246553D01*
X118679250Y-80245500D01*
X119191750Y-80245500D01*
X119213191Y-80246553D01*
X119213191Y-80246553D01*
G37*
D12*
X118935500Y-80683000D03*
D11*
G36*
X138263191Y-80246553D02*
G01*
X138284426Y-80249703D01*
X138305250Y-80254919D01*
X138325462Y-80262151D01*
X138344868Y-80271330D01*
X138363281Y-80282366D01*
X138380524Y-80295154D01*
X138396430Y-80309570D01*
X138410846Y-80325476D01*
X138423634Y-80342719D01*
X138434670Y-80361132D01*
X138443849Y-80380538D01*
X138451081Y-80400750D01*
X138456297Y-80421574D01*
X138459447Y-80442809D01*
X138460500Y-80464250D01*
X138460500Y-80901750D01*
X138459447Y-80923191D01*
X138456297Y-80944426D01*
X138451081Y-80965250D01*
X138443849Y-80985462D01*
X138434670Y-81004868D01*
X138423634Y-81023281D01*
X138410846Y-81040524D01*
X138396430Y-81056430D01*
X138380524Y-81070846D01*
X138363281Y-81083634D01*
X138344868Y-81094670D01*
X138325462Y-81103849D01*
X138305250Y-81111081D01*
X138284426Y-81116297D01*
X138263191Y-81119447D01*
X138241750Y-81120500D01*
X137729250Y-81120500D01*
X137707809Y-81119447D01*
X137686574Y-81116297D01*
X137665750Y-81111081D01*
X137645538Y-81103849D01*
X137626132Y-81094670D01*
X137607719Y-81083634D01*
X137590476Y-81070846D01*
X137574570Y-81056430D01*
X137560154Y-81040524D01*
X137547366Y-81023281D01*
X137536330Y-81004868D01*
X137527151Y-80985462D01*
X137519919Y-80965250D01*
X137514703Y-80944426D01*
X137511553Y-80923191D01*
X137510500Y-80901750D01*
X137510500Y-80464250D01*
X137511553Y-80442809D01*
X137514703Y-80421574D01*
X137519919Y-80400750D01*
X137527151Y-80380538D01*
X137536330Y-80361132D01*
X137547366Y-80342719D01*
X137560154Y-80325476D01*
X137574570Y-80309570D01*
X137590476Y-80295154D01*
X137607719Y-80282366D01*
X137626132Y-80271330D01*
X137645538Y-80262151D01*
X137665750Y-80254919D01*
X137686574Y-80249703D01*
X137707809Y-80246553D01*
X137729250Y-80245500D01*
X138241750Y-80245500D01*
X138263191Y-80246553D01*
X138263191Y-80246553D01*
G37*
D12*
X137985500Y-80683000D03*
D11*
G36*
X138263191Y-81821553D02*
G01*
X138284426Y-81824703D01*
X138305250Y-81829919D01*
X138325462Y-81837151D01*
X138344868Y-81846330D01*
X138363281Y-81857366D01*
X138380524Y-81870154D01*
X138396430Y-81884570D01*
X138410846Y-81900476D01*
X138423634Y-81917719D01*
X138434670Y-81936132D01*
X138443849Y-81955538D01*
X138451081Y-81975750D01*
X138456297Y-81996574D01*
X138459447Y-82017809D01*
X138460500Y-82039250D01*
X138460500Y-82476750D01*
X138459447Y-82498191D01*
X138456297Y-82519426D01*
X138451081Y-82540250D01*
X138443849Y-82560462D01*
X138434670Y-82579868D01*
X138423634Y-82598281D01*
X138410846Y-82615524D01*
X138396430Y-82631430D01*
X138380524Y-82645846D01*
X138363281Y-82658634D01*
X138344868Y-82669670D01*
X138325462Y-82678849D01*
X138305250Y-82686081D01*
X138284426Y-82691297D01*
X138263191Y-82694447D01*
X138241750Y-82695500D01*
X137729250Y-82695500D01*
X137707809Y-82694447D01*
X137686574Y-82691297D01*
X137665750Y-82686081D01*
X137645538Y-82678849D01*
X137626132Y-82669670D01*
X137607719Y-82658634D01*
X137590476Y-82645846D01*
X137574570Y-82631430D01*
X137560154Y-82615524D01*
X137547366Y-82598281D01*
X137536330Y-82579868D01*
X137527151Y-82560462D01*
X137519919Y-82540250D01*
X137514703Y-82519426D01*
X137511553Y-82498191D01*
X137510500Y-82476750D01*
X137510500Y-82039250D01*
X137511553Y-82017809D01*
X137514703Y-81996574D01*
X137519919Y-81975750D01*
X137527151Y-81955538D01*
X137536330Y-81936132D01*
X137547366Y-81917719D01*
X137560154Y-81900476D01*
X137574570Y-81884570D01*
X137590476Y-81870154D01*
X137607719Y-81857366D01*
X137626132Y-81846330D01*
X137645538Y-81837151D01*
X137665750Y-81829919D01*
X137686574Y-81824703D01*
X137707809Y-81821553D01*
X137729250Y-81820500D01*
X138241750Y-81820500D01*
X138263191Y-81821553D01*
X138263191Y-81821553D01*
G37*
D12*
X137985500Y-82258000D03*
D11*
G36*
X157313191Y-80246553D02*
G01*
X157334426Y-80249703D01*
X157355250Y-80254919D01*
X157375462Y-80262151D01*
X157394868Y-80271330D01*
X157413281Y-80282366D01*
X157430524Y-80295154D01*
X157446430Y-80309570D01*
X157460846Y-80325476D01*
X157473634Y-80342719D01*
X157484670Y-80361132D01*
X157493849Y-80380538D01*
X157501081Y-80400750D01*
X157506297Y-80421574D01*
X157509447Y-80442809D01*
X157510500Y-80464250D01*
X157510500Y-80901750D01*
X157509447Y-80923191D01*
X157506297Y-80944426D01*
X157501081Y-80965250D01*
X157493849Y-80985462D01*
X157484670Y-81004868D01*
X157473634Y-81023281D01*
X157460846Y-81040524D01*
X157446430Y-81056430D01*
X157430524Y-81070846D01*
X157413281Y-81083634D01*
X157394868Y-81094670D01*
X157375462Y-81103849D01*
X157355250Y-81111081D01*
X157334426Y-81116297D01*
X157313191Y-81119447D01*
X157291750Y-81120500D01*
X156779250Y-81120500D01*
X156757809Y-81119447D01*
X156736574Y-81116297D01*
X156715750Y-81111081D01*
X156695538Y-81103849D01*
X156676132Y-81094670D01*
X156657719Y-81083634D01*
X156640476Y-81070846D01*
X156624570Y-81056430D01*
X156610154Y-81040524D01*
X156597366Y-81023281D01*
X156586330Y-81004868D01*
X156577151Y-80985462D01*
X156569919Y-80965250D01*
X156564703Y-80944426D01*
X156561553Y-80923191D01*
X156560500Y-80901750D01*
X156560500Y-80464250D01*
X156561553Y-80442809D01*
X156564703Y-80421574D01*
X156569919Y-80400750D01*
X156577151Y-80380538D01*
X156586330Y-80361132D01*
X156597366Y-80342719D01*
X156610154Y-80325476D01*
X156624570Y-80309570D01*
X156640476Y-80295154D01*
X156657719Y-80282366D01*
X156676132Y-80271330D01*
X156695538Y-80262151D01*
X156715750Y-80254919D01*
X156736574Y-80249703D01*
X156757809Y-80246553D01*
X156779250Y-80245500D01*
X157291750Y-80245500D01*
X157313191Y-80246553D01*
X157313191Y-80246553D01*
G37*
D12*
X157035500Y-80683000D03*
D11*
G36*
X157313191Y-81821553D02*
G01*
X157334426Y-81824703D01*
X157355250Y-81829919D01*
X157375462Y-81837151D01*
X157394868Y-81846330D01*
X157413281Y-81857366D01*
X157430524Y-81870154D01*
X157446430Y-81884570D01*
X157460846Y-81900476D01*
X157473634Y-81917719D01*
X157484670Y-81936132D01*
X157493849Y-81955538D01*
X157501081Y-81975750D01*
X157506297Y-81996574D01*
X157509447Y-82017809D01*
X157510500Y-82039250D01*
X157510500Y-82476750D01*
X157509447Y-82498191D01*
X157506297Y-82519426D01*
X157501081Y-82540250D01*
X157493849Y-82560462D01*
X157484670Y-82579868D01*
X157473634Y-82598281D01*
X157460846Y-82615524D01*
X157446430Y-82631430D01*
X157430524Y-82645846D01*
X157413281Y-82658634D01*
X157394868Y-82669670D01*
X157375462Y-82678849D01*
X157355250Y-82686081D01*
X157334426Y-82691297D01*
X157313191Y-82694447D01*
X157291750Y-82695500D01*
X156779250Y-82695500D01*
X156757809Y-82694447D01*
X156736574Y-82691297D01*
X156715750Y-82686081D01*
X156695538Y-82678849D01*
X156676132Y-82669670D01*
X156657719Y-82658634D01*
X156640476Y-82645846D01*
X156624570Y-82631430D01*
X156610154Y-82615524D01*
X156597366Y-82598281D01*
X156586330Y-82579868D01*
X156577151Y-82560462D01*
X156569919Y-82540250D01*
X156564703Y-82519426D01*
X156561553Y-82498191D01*
X156560500Y-82476750D01*
X156560500Y-82039250D01*
X156561553Y-82017809D01*
X156564703Y-81996574D01*
X156569919Y-81975750D01*
X156577151Y-81955538D01*
X156586330Y-81936132D01*
X156597366Y-81917719D01*
X156610154Y-81900476D01*
X156624570Y-81884570D01*
X156640476Y-81870154D01*
X156657719Y-81857366D01*
X156676132Y-81846330D01*
X156695538Y-81837151D01*
X156715750Y-81829919D01*
X156736574Y-81824703D01*
X156757809Y-81821553D01*
X156779250Y-81820500D01*
X157291750Y-81820500D01*
X157313191Y-81821553D01*
X157313191Y-81821553D01*
G37*
D12*
X157035500Y-82258000D03*
D11*
G36*
X119213191Y-100871553D02*
G01*
X119234426Y-100874703D01*
X119255250Y-100879919D01*
X119275462Y-100887151D01*
X119294868Y-100896330D01*
X119313281Y-100907366D01*
X119330524Y-100920154D01*
X119346430Y-100934570D01*
X119360846Y-100950476D01*
X119373634Y-100967719D01*
X119384670Y-100986132D01*
X119393849Y-101005538D01*
X119401081Y-101025750D01*
X119406297Y-101046574D01*
X119409447Y-101067809D01*
X119410500Y-101089250D01*
X119410500Y-101526750D01*
X119409447Y-101548191D01*
X119406297Y-101569426D01*
X119401081Y-101590250D01*
X119393849Y-101610462D01*
X119384670Y-101629868D01*
X119373634Y-101648281D01*
X119360846Y-101665524D01*
X119346430Y-101681430D01*
X119330524Y-101695846D01*
X119313281Y-101708634D01*
X119294868Y-101719670D01*
X119275462Y-101728849D01*
X119255250Y-101736081D01*
X119234426Y-101741297D01*
X119213191Y-101744447D01*
X119191750Y-101745500D01*
X118679250Y-101745500D01*
X118657809Y-101744447D01*
X118636574Y-101741297D01*
X118615750Y-101736081D01*
X118595538Y-101728849D01*
X118576132Y-101719670D01*
X118557719Y-101708634D01*
X118540476Y-101695846D01*
X118524570Y-101681430D01*
X118510154Y-101665524D01*
X118497366Y-101648281D01*
X118486330Y-101629868D01*
X118477151Y-101610462D01*
X118469919Y-101590250D01*
X118464703Y-101569426D01*
X118461553Y-101548191D01*
X118460500Y-101526750D01*
X118460500Y-101089250D01*
X118461553Y-101067809D01*
X118464703Y-101046574D01*
X118469919Y-101025750D01*
X118477151Y-101005538D01*
X118486330Y-100986132D01*
X118497366Y-100967719D01*
X118510154Y-100950476D01*
X118524570Y-100934570D01*
X118540476Y-100920154D01*
X118557719Y-100907366D01*
X118576132Y-100896330D01*
X118595538Y-100887151D01*
X118615750Y-100879919D01*
X118636574Y-100874703D01*
X118657809Y-100871553D01*
X118679250Y-100870500D01*
X119191750Y-100870500D01*
X119213191Y-100871553D01*
X119213191Y-100871553D01*
G37*
D12*
X118935500Y-101308000D03*
D11*
G36*
X119213191Y-99296553D02*
G01*
X119234426Y-99299703D01*
X119255250Y-99304919D01*
X119275462Y-99312151D01*
X119294868Y-99321330D01*
X119313281Y-99332366D01*
X119330524Y-99345154D01*
X119346430Y-99359570D01*
X119360846Y-99375476D01*
X119373634Y-99392719D01*
X119384670Y-99411132D01*
X119393849Y-99430538D01*
X119401081Y-99450750D01*
X119406297Y-99471574D01*
X119409447Y-99492809D01*
X119410500Y-99514250D01*
X119410500Y-99951750D01*
X119409447Y-99973191D01*
X119406297Y-99994426D01*
X119401081Y-100015250D01*
X119393849Y-100035462D01*
X119384670Y-100054868D01*
X119373634Y-100073281D01*
X119360846Y-100090524D01*
X119346430Y-100106430D01*
X119330524Y-100120846D01*
X119313281Y-100133634D01*
X119294868Y-100144670D01*
X119275462Y-100153849D01*
X119255250Y-100161081D01*
X119234426Y-100166297D01*
X119213191Y-100169447D01*
X119191750Y-100170500D01*
X118679250Y-100170500D01*
X118657809Y-100169447D01*
X118636574Y-100166297D01*
X118615750Y-100161081D01*
X118595538Y-100153849D01*
X118576132Y-100144670D01*
X118557719Y-100133634D01*
X118540476Y-100120846D01*
X118524570Y-100106430D01*
X118510154Y-100090524D01*
X118497366Y-100073281D01*
X118486330Y-100054868D01*
X118477151Y-100035462D01*
X118469919Y-100015250D01*
X118464703Y-99994426D01*
X118461553Y-99973191D01*
X118460500Y-99951750D01*
X118460500Y-99514250D01*
X118461553Y-99492809D01*
X118464703Y-99471574D01*
X118469919Y-99450750D01*
X118477151Y-99430538D01*
X118486330Y-99411132D01*
X118497366Y-99392719D01*
X118510154Y-99375476D01*
X118524570Y-99359570D01*
X118540476Y-99345154D01*
X118557719Y-99332366D01*
X118576132Y-99321330D01*
X118595538Y-99312151D01*
X118615750Y-99304919D01*
X118636574Y-99299703D01*
X118657809Y-99296553D01*
X118679250Y-99295500D01*
X119191750Y-99295500D01*
X119213191Y-99296553D01*
X119213191Y-99296553D01*
G37*
D12*
X118935500Y-99733000D03*
D11*
G36*
X138263191Y-99302803D02*
G01*
X138284426Y-99305953D01*
X138305250Y-99311169D01*
X138325462Y-99318401D01*
X138344868Y-99327580D01*
X138363281Y-99338616D01*
X138380524Y-99351404D01*
X138396430Y-99365820D01*
X138410846Y-99381726D01*
X138423634Y-99398969D01*
X138434670Y-99417382D01*
X138443849Y-99436788D01*
X138451081Y-99457000D01*
X138456297Y-99477824D01*
X138459447Y-99499059D01*
X138460500Y-99520500D01*
X138460500Y-99958000D01*
X138459447Y-99979441D01*
X138456297Y-100000676D01*
X138451081Y-100021500D01*
X138443849Y-100041712D01*
X138434670Y-100061118D01*
X138423634Y-100079531D01*
X138410846Y-100096774D01*
X138396430Y-100112680D01*
X138380524Y-100127096D01*
X138363281Y-100139884D01*
X138344868Y-100150920D01*
X138325462Y-100160099D01*
X138305250Y-100167331D01*
X138284426Y-100172547D01*
X138263191Y-100175697D01*
X138241750Y-100176750D01*
X137729250Y-100176750D01*
X137707809Y-100175697D01*
X137686574Y-100172547D01*
X137665750Y-100167331D01*
X137645538Y-100160099D01*
X137626132Y-100150920D01*
X137607719Y-100139884D01*
X137590476Y-100127096D01*
X137574570Y-100112680D01*
X137560154Y-100096774D01*
X137547366Y-100079531D01*
X137536330Y-100061118D01*
X137527151Y-100041712D01*
X137519919Y-100021500D01*
X137514703Y-100000676D01*
X137511553Y-99979441D01*
X137510500Y-99958000D01*
X137510500Y-99520500D01*
X137511553Y-99499059D01*
X137514703Y-99477824D01*
X137519919Y-99457000D01*
X137527151Y-99436788D01*
X137536330Y-99417382D01*
X137547366Y-99398969D01*
X137560154Y-99381726D01*
X137574570Y-99365820D01*
X137590476Y-99351404D01*
X137607719Y-99338616D01*
X137626132Y-99327580D01*
X137645538Y-99318401D01*
X137665750Y-99311169D01*
X137686574Y-99305953D01*
X137707809Y-99302803D01*
X137729250Y-99301750D01*
X138241750Y-99301750D01*
X138263191Y-99302803D01*
X138263191Y-99302803D01*
G37*
D12*
X137985500Y-99739250D03*
D11*
G36*
X138263191Y-100877803D02*
G01*
X138284426Y-100880953D01*
X138305250Y-100886169D01*
X138325462Y-100893401D01*
X138344868Y-100902580D01*
X138363281Y-100913616D01*
X138380524Y-100926404D01*
X138396430Y-100940820D01*
X138410846Y-100956726D01*
X138423634Y-100973969D01*
X138434670Y-100992382D01*
X138443849Y-101011788D01*
X138451081Y-101032000D01*
X138456297Y-101052824D01*
X138459447Y-101074059D01*
X138460500Y-101095500D01*
X138460500Y-101533000D01*
X138459447Y-101554441D01*
X138456297Y-101575676D01*
X138451081Y-101596500D01*
X138443849Y-101616712D01*
X138434670Y-101636118D01*
X138423634Y-101654531D01*
X138410846Y-101671774D01*
X138396430Y-101687680D01*
X138380524Y-101702096D01*
X138363281Y-101714884D01*
X138344868Y-101725920D01*
X138325462Y-101735099D01*
X138305250Y-101742331D01*
X138284426Y-101747547D01*
X138263191Y-101750697D01*
X138241750Y-101751750D01*
X137729250Y-101751750D01*
X137707809Y-101750697D01*
X137686574Y-101747547D01*
X137665750Y-101742331D01*
X137645538Y-101735099D01*
X137626132Y-101725920D01*
X137607719Y-101714884D01*
X137590476Y-101702096D01*
X137574570Y-101687680D01*
X137560154Y-101671774D01*
X137547366Y-101654531D01*
X137536330Y-101636118D01*
X137527151Y-101616712D01*
X137519919Y-101596500D01*
X137514703Y-101575676D01*
X137511553Y-101554441D01*
X137510500Y-101533000D01*
X137510500Y-101095500D01*
X137511553Y-101074059D01*
X137514703Y-101052824D01*
X137519919Y-101032000D01*
X137527151Y-101011788D01*
X137536330Y-100992382D01*
X137547366Y-100973969D01*
X137560154Y-100956726D01*
X137574570Y-100940820D01*
X137590476Y-100926404D01*
X137607719Y-100913616D01*
X137626132Y-100902580D01*
X137645538Y-100893401D01*
X137665750Y-100886169D01*
X137686574Y-100880953D01*
X137707809Y-100877803D01*
X137729250Y-100876750D01*
X138241750Y-100876750D01*
X138263191Y-100877803D01*
X138263191Y-100877803D01*
G37*
D12*
X137985500Y-101314250D03*
D11*
G36*
X157313191Y-100871553D02*
G01*
X157334426Y-100874703D01*
X157355250Y-100879919D01*
X157375462Y-100887151D01*
X157394868Y-100896330D01*
X157413281Y-100907366D01*
X157430524Y-100920154D01*
X157446430Y-100934570D01*
X157460846Y-100950476D01*
X157473634Y-100967719D01*
X157484670Y-100986132D01*
X157493849Y-101005538D01*
X157501081Y-101025750D01*
X157506297Y-101046574D01*
X157509447Y-101067809D01*
X157510500Y-101089250D01*
X157510500Y-101526750D01*
X157509447Y-101548191D01*
X157506297Y-101569426D01*
X157501081Y-101590250D01*
X157493849Y-101610462D01*
X157484670Y-101629868D01*
X157473634Y-101648281D01*
X157460846Y-101665524D01*
X157446430Y-101681430D01*
X157430524Y-101695846D01*
X157413281Y-101708634D01*
X157394868Y-101719670D01*
X157375462Y-101728849D01*
X157355250Y-101736081D01*
X157334426Y-101741297D01*
X157313191Y-101744447D01*
X157291750Y-101745500D01*
X156779250Y-101745500D01*
X156757809Y-101744447D01*
X156736574Y-101741297D01*
X156715750Y-101736081D01*
X156695538Y-101728849D01*
X156676132Y-101719670D01*
X156657719Y-101708634D01*
X156640476Y-101695846D01*
X156624570Y-101681430D01*
X156610154Y-101665524D01*
X156597366Y-101648281D01*
X156586330Y-101629868D01*
X156577151Y-101610462D01*
X156569919Y-101590250D01*
X156564703Y-101569426D01*
X156561553Y-101548191D01*
X156560500Y-101526750D01*
X156560500Y-101089250D01*
X156561553Y-101067809D01*
X156564703Y-101046574D01*
X156569919Y-101025750D01*
X156577151Y-101005538D01*
X156586330Y-100986132D01*
X156597366Y-100967719D01*
X156610154Y-100950476D01*
X156624570Y-100934570D01*
X156640476Y-100920154D01*
X156657719Y-100907366D01*
X156676132Y-100896330D01*
X156695538Y-100887151D01*
X156715750Y-100879919D01*
X156736574Y-100874703D01*
X156757809Y-100871553D01*
X156779250Y-100870500D01*
X157291750Y-100870500D01*
X157313191Y-100871553D01*
X157313191Y-100871553D01*
G37*
D12*
X157035500Y-101308000D03*
D11*
G36*
X157313191Y-99296553D02*
G01*
X157334426Y-99299703D01*
X157355250Y-99304919D01*
X157375462Y-99312151D01*
X157394868Y-99321330D01*
X157413281Y-99332366D01*
X157430524Y-99345154D01*
X157446430Y-99359570D01*
X157460846Y-99375476D01*
X157473634Y-99392719D01*
X157484670Y-99411132D01*
X157493849Y-99430538D01*
X157501081Y-99450750D01*
X157506297Y-99471574D01*
X157509447Y-99492809D01*
X157510500Y-99514250D01*
X157510500Y-99951750D01*
X157509447Y-99973191D01*
X157506297Y-99994426D01*
X157501081Y-100015250D01*
X157493849Y-100035462D01*
X157484670Y-100054868D01*
X157473634Y-100073281D01*
X157460846Y-100090524D01*
X157446430Y-100106430D01*
X157430524Y-100120846D01*
X157413281Y-100133634D01*
X157394868Y-100144670D01*
X157375462Y-100153849D01*
X157355250Y-100161081D01*
X157334426Y-100166297D01*
X157313191Y-100169447D01*
X157291750Y-100170500D01*
X156779250Y-100170500D01*
X156757809Y-100169447D01*
X156736574Y-100166297D01*
X156715750Y-100161081D01*
X156695538Y-100153849D01*
X156676132Y-100144670D01*
X156657719Y-100133634D01*
X156640476Y-100120846D01*
X156624570Y-100106430D01*
X156610154Y-100090524D01*
X156597366Y-100073281D01*
X156586330Y-100054868D01*
X156577151Y-100035462D01*
X156569919Y-100015250D01*
X156564703Y-99994426D01*
X156561553Y-99973191D01*
X156560500Y-99951750D01*
X156560500Y-99514250D01*
X156561553Y-99492809D01*
X156564703Y-99471574D01*
X156569919Y-99450750D01*
X156577151Y-99430538D01*
X156586330Y-99411132D01*
X156597366Y-99392719D01*
X156610154Y-99375476D01*
X156624570Y-99359570D01*
X156640476Y-99345154D01*
X156657719Y-99332366D01*
X156676132Y-99321330D01*
X156695538Y-99312151D01*
X156715750Y-99304919D01*
X156736574Y-99299703D01*
X156757809Y-99296553D01*
X156779250Y-99295500D01*
X157291750Y-99295500D01*
X157313191Y-99296553D01*
X157313191Y-99296553D01*
G37*
D12*
X157035500Y-99733000D03*
D13*
X113966750Y-80820500D03*
X113966750Y-82120500D03*
X115966750Y-80820500D03*
X115966750Y-82120500D03*
X133016750Y-80820500D03*
X133016750Y-82120500D03*
X135016750Y-80820500D03*
X135016750Y-82120500D03*
X154066750Y-82120500D03*
X154066750Y-80820500D03*
X152066750Y-82120500D03*
X152066750Y-80820500D03*
X115966750Y-101170500D03*
X115966750Y-99870500D03*
X113966750Y-101170500D03*
X113966750Y-99870500D03*
X133016750Y-99870500D03*
X133016750Y-101170500D03*
X135016750Y-99870500D03*
X135016750Y-101170500D03*
X154066750Y-101170500D03*
X154066750Y-99870500D03*
X152066750Y-101170500D03*
X152066750Y-99870500D03*
D14*
X151987250Y-84613750D03*
X137001250Y-84105750D03*
X134842250Y-84105750D03*
X115919250Y-85502750D03*
X150590250Y-103409750D03*
X116554250Y-104679750D03*
X157448250Y-106965750D03*
X125698250Y-107981750D03*
X142970250Y-101250750D03*
X140938250Y-101250750D03*
X106648250Y-104933750D03*
X106648250Y-108743750D03*
X136112250Y-79025750D03*
X135350250Y-116744750D03*
X148812250Y-117289750D03*
X131794250Y-116871750D03*
X119221250Y-78644750D03*
X155543250Y-104425750D03*
X118967250Y-97694750D03*
X153892250Y-94392750D03*
X136620250Y-98202750D03*
X154019250Y-114204750D03*
X128238250Y-103663750D03*
X126206250Y-110648750D03*
X121189750Y-96869250D03*
X105251250Y-115220750D03*
X115411250Y-116617750D03*
X130651250Y-91979750D03*
X141954250Y-97059750D03*
X121989750Y-97821750D03*
X126303103Y-96869249D03*
X122976997Y-97980963D03*
X126476315Y-97854136D03*
X138040551Y-102709283D03*
X138652250Y-105187750D03*
X115157250Y-113696750D03*
X122654903Y-108358097D03*
X125698250Y-109378750D03*
X135477250Y-112807750D03*
X135858250Y-106965750D03*
X118582289Y-110099553D03*
X111601250Y-105568750D03*
X117443250Y-98583750D03*
X120110250Y-98075750D03*
X127222250Y-96170749D03*
X129635250Y-94392750D03*
X132556250Y-97911750D03*
X130778250Y-88550750D03*
X123158250Y-94011750D03*
X142843250Y-94392750D03*
X138779250Y-95027750D03*
X127984250Y-101504750D03*
X127349250Y-97186750D03*
X127690651Y-102601937D03*
X144621250Y-94392750D03*
X137636250Y-95027750D03*
X128492250Y-96170750D03*
X152114250Y-98075750D03*
X124936250Y-114712750D03*
X113887250Y-105822750D03*
X118205250Y-107651749D03*
X113379250Y-111639250D03*
X111728250Y-84994750D03*
X120745250Y-104679750D03*
X115792250Y-103282750D03*
X112490250Y-103155750D03*
X116427250Y-83724750D03*
D15*
X152066750Y-82120500D02*
X152066750Y-84534250D01*
X152066750Y-84534250D02*
X151987250Y-84613750D01*
X152066750Y-82670500D02*
X152867000Y-83470750D01*
X152066750Y-82120500D02*
X152066750Y-82670500D01*
X155822750Y-83470750D02*
X157035500Y-82258000D01*
X152867000Y-83470750D02*
X155822750Y-83470750D01*
X137001250Y-83242250D02*
X137985500Y-82258000D01*
X137001250Y-84105750D02*
X137001250Y-83242250D01*
X133216750Y-82120500D02*
X134842250Y-83746000D01*
X133016750Y-82120500D02*
X133216750Y-82120500D01*
X134842250Y-83746000D02*
X134842250Y-84105750D01*
X113966750Y-82670500D02*
X114014250Y-82718000D01*
X113966750Y-82120500D02*
X113966750Y-82670500D01*
X114014250Y-82718000D02*
X114014250Y-83597750D01*
X114014250Y-83597750D02*
X115919250Y-85502750D01*
X115919250Y-85502750D02*
X117824250Y-85502750D01*
X119169001Y-84157999D02*
X119169001Y-83037501D01*
X117824250Y-85502750D02*
X119169001Y-84157999D01*
X118935500Y-82804000D02*
X118935500Y-82258000D01*
X119169001Y-83037501D02*
X118935500Y-82804000D01*
X133016750Y-101720500D02*
X133690000Y-102393750D01*
X133016750Y-101170500D02*
X133016750Y-101720500D01*
X136906000Y-102393750D02*
X137985500Y-101314250D01*
X133690000Y-102393750D02*
X136906000Y-102393750D01*
X152066750Y-101170500D02*
X152066750Y-101933250D01*
X152066750Y-101933250D02*
X150590250Y-103409750D01*
X117443250Y-101758750D02*
X117894000Y-101308000D01*
X113966750Y-101720500D02*
X114014250Y-101768000D01*
X113966750Y-101170500D02*
X113966750Y-101720500D01*
X114014250Y-101768000D02*
X114014250Y-103790750D01*
X114903250Y-104679750D02*
X116554250Y-104679750D01*
X117894000Y-101308000D02*
X118935500Y-101308000D01*
X116554250Y-104679750D02*
X117443250Y-103790750D01*
X157035500Y-106553000D02*
X157448250Y-106965750D01*
X157035500Y-101308000D02*
X157035500Y-106553000D01*
X125698250Y-107416065D02*
X120929935Y-102647750D01*
X120929935Y-102647750D02*
X117443250Y-102647750D01*
X125698250Y-107981750D02*
X125698250Y-107416065D01*
X117443250Y-103790750D02*
X117443250Y-102647750D01*
X117443250Y-102647750D02*
X117443250Y-101758750D01*
X138049000Y-101250750D02*
X137985500Y-101314250D01*
X114014250Y-103790750D02*
X114903250Y-104679750D01*
X142970250Y-101250750D02*
X140938250Y-101250750D01*
X140938250Y-101250750D02*
X138049000Y-101250750D01*
X106648250Y-104933750D02*
X106648250Y-108743750D01*
X118798000Y-99870500D02*
X118935500Y-99733000D01*
X115966750Y-99870500D02*
X118798000Y-99870500D01*
X135148000Y-99739250D02*
X135016750Y-99870500D01*
X154204250Y-99733000D02*
X154066750Y-99870500D01*
X154204250Y-80683000D02*
X154066750Y-80820500D01*
X157035500Y-80683000D02*
X154204250Y-80683000D01*
X135154250Y-80683000D02*
X135016750Y-80820500D01*
X137985500Y-80683000D02*
X135154250Y-80683000D01*
X116104250Y-80683000D02*
X115966750Y-80820500D01*
X118935500Y-80683000D02*
X116104250Y-80683000D01*
X135016750Y-80820500D02*
X135016750Y-80121250D01*
X135016750Y-80121250D02*
X136112250Y-79025750D01*
X148780241Y-117321759D02*
X148812250Y-117289750D01*
X135350250Y-116744750D02*
X135927259Y-117321759D01*
X135927259Y-117321759D02*
X148780241Y-117321759D01*
X135223250Y-116871750D02*
X135350250Y-116744750D01*
X131794250Y-116871750D02*
X135223250Y-116871750D01*
X136378750Y-99739250D02*
X135148000Y-99739250D01*
X137985500Y-99739250D02*
X136378750Y-99739250D01*
X118935500Y-80683000D02*
X118935500Y-78930500D01*
X118935500Y-78930500D02*
X119221250Y-78644750D01*
X154622363Y-97319863D02*
X154622363Y-96519863D01*
X157035500Y-99733000D02*
X154622363Y-97319863D01*
X142068750Y-99739250D02*
X137985500Y-99739250D01*
X149320250Y-92487750D02*
X142068750Y-99739250D01*
X155410000Y-103726815D02*
X155410000Y-99733000D01*
X155543250Y-103860065D02*
X155410000Y-103726815D01*
X157035500Y-99733000D02*
X155410000Y-99733000D01*
X155543250Y-104425750D02*
X155543250Y-103860065D01*
X155410000Y-99733000D02*
X154204250Y-99733000D01*
X157035500Y-80683000D02*
X158597500Y-80683000D01*
X158597500Y-80683000D02*
X160115250Y-82200750D01*
X160115250Y-82200750D02*
X160115250Y-84359750D01*
X160115250Y-84359750D02*
X157702250Y-86772750D01*
X157702250Y-86772750D02*
X151606250Y-86772750D01*
X151606250Y-86772750D02*
X150082250Y-88296750D01*
X150082250Y-88296750D02*
X150082250Y-92487750D01*
X150590250Y-92487750D02*
X150082250Y-92487750D01*
X150082250Y-92487750D02*
X149320250Y-92487750D01*
X118967250Y-99701250D02*
X118935500Y-99733000D01*
X118967250Y-97694750D02*
X118967250Y-99701250D01*
X152876250Y-94392750D02*
X152685750Y-94583250D01*
X153892250Y-94392750D02*
X152876250Y-94392750D01*
X154622363Y-96519863D02*
X152685750Y-94583250D01*
X152685750Y-94583250D02*
X150590250Y-92487750D01*
D16*
X136620250Y-98374000D02*
X137985500Y-99739250D01*
X136620250Y-98202750D02*
X136620250Y-98374000D01*
D15*
X155543250Y-110873498D02*
X155543250Y-104991435D01*
X154019250Y-112397498D02*
X155543250Y-110873498D01*
X155543250Y-104991435D02*
X155543250Y-104425750D01*
X154019250Y-114204750D02*
X154019250Y-112397498D01*
X128238250Y-103663750D02*
X127654999Y-104247001D01*
X127654999Y-109200001D02*
X126206250Y-110648750D01*
X121189750Y-96869250D02*
X121189750Y-99282250D01*
X127654999Y-104247001D02*
X127654999Y-105747499D01*
X121189750Y-99282250D02*
X127654999Y-105747499D01*
X127654999Y-105747499D02*
X127654999Y-109200001D01*
X112460998Y-116617750D02*
X115411250Y-116617750D01*
X105251250Y-115220750D02*
X106648250Y-116617750D01*
X106648250Y-116617750D02*
X112460998Y-116617750D01*
D16*
X131051249Y-92379749D02*
X130651250Y-91979750D01*
X132322659Y-92379749D02*
X131051249Y-92379749D01*
X136648251Y-91316749D02*
X135096250Y-92868750D01*
X138479001Y-91316749D02*
X136648251Y-91316749D01*
X132811660Y-92868750D02*
X132322659Y-92379749D01*
X141954250Y-97059750D02*
X141954250Y-96494065D01*
X141954250Y-96494065D02*
X141827250Y-96367065D01*
X141827250Y-93249750D02*
X140303250Y-91725750D01*
X135096250Y-92868750D02*
X132811660Y-92868750D01*
X141827250Y-96367065D02*
X141827250Y-93249750D01*
X140303250Y-91725750D02*
X138888002Y-91725750D01*
X138888002Y-91725750D02*
X138479001Y-91316749D01*
X121989750Y-97821750D02*
X123217241Y-96594259D01*
X123217241Y-96594259D02*
X126206250Y-96594259D01*
X122976997Y-97980963D02*
X126349488Y-97980963D01*
X126349488Y-97980963D02*
X126476315Y-97854136D01*
X138040551Y-102709283D02*
X138040551Y-104576051D01*
X138040551Y-104576051D02*
X138652250Y-105187750D01*
X115157250Y-113696750D02*
X115157250Y-113131065D01*
X115157250Y-113131065D02*
X117697250Y-110591065D01*
X122654903Y-108358097D02*
X123675556Y-109378750D01*
X123675556Y-109378750D02*
X125698250Y-109378750D01*
X136310001Y-107417501D02*
X135858250Y-106965750D01*
X135477250Y-112807750D02*
X136310001Y-111974999D01*
X136310001Y-111974999D02*
X136310001Y-107417501D01*
X117697250Y-110591065D02*
X118188762Y-110099553D01*
X118188762Y-110099553D02*
X118582289Y-110099553D01*
X112395000Y-114331750D02*
X112395000Y-110934500D01*
X112395000Y-110934500D02*
X111601250Y-110140750D01*
X111601250Y-103790750D02*
X109950250Y-102139750D01*
X109950250Y-97726500D02*
X112395000Y-95281750D01*
X109950250Y-102139750D02*
X109950250Y-97726500D01*
X111601250Y-105568750D02*
X111601250Y-103790750D01*
X111601250Y-110140750D02*
X111601250Y-105568750D01*
X130778250Y-111029750D02*
X130778250Y-104806750D01*
X131445000Y-114331750D02*
X131445000Y-111696500D01*
X129254250Y-103282750D02*
X129254250Y-97472500D01*
X130778250Y-104806750D02*
X129254250Y-103282750D01*
X131445000Y-111696500D02*
X130778250Y-111029750D01*
X129418249Y-95445749D02*
X130349625Y-96377125D01*
X120143249Y-95445749D02*
X129418249Y-95445749D01*
X117843249Y-97745749D02*
X120143249Y-95445749D01*
X117843249Y-98183751D02*
X117843249Y-97745749D01*
X117443250Y-98583750D02*
X117843249Y-98183751D01*
X130349625Y-96377125D02*
X131445000Y-95281750D01*
X129254250Y-97472500D02*
X130349625Y-96377125D01*
X148558250Y-97218500D02*
X150495000Y-95281750D01*
X149828250Y-105695750D02*
X148558250Y-104425750D01*
X148558250Y-104425750D02*
X148558250Y-97218500D01*
X149828250Y-112109366D02*
X149828250Y-105695750D01*
X150495000Y-114331750D02*
X150495000Y-112776116D01*
X150495000Y-112776116D02*
X149828250Y-112109366D01*
X127195750Y-96144249D02*
X127222250Y-96170749D01*
X120110250Y-98075750D02*
X120110250Y-96875748D01*
X120841749Y-96144249D02*
X127195750Y-96144249D01*
X120110250Y-96875748D02*
X120841749Y-96144249D01*
X132870001Y-97597999D02*
X132556250Y-97911750D01*
X132870001Y-94597749D02*
X132870001Y-97597999D01*
X132129001Y-93856749D02*
X132870001Y-94597749D01*
X129635250Y-94392750D02*
X130171251Y-93856749D01*
X130171251Y-93856749D02*
X132129001Y-93856749D01*
X130778250Y-88550750D02*
X130778250Y-90328750D01*
X130778250Y-90328750D02*
X129000250Y-92106750D01*
X129000250Y-92106750D02*
X125063250Y-92106750D01*
X125063250Y-92106750D02*
X123158250Y-94011750D01*
X127349250Y-100869750D02*
X127984250Y-101504750D01*
X127349250Y-97186750D02*
X127349250Y-100869750D01*
X139179249Y-95427749D02*
X138779250Y-95027750D01*
X141536251Y-97784751D02*
X139179249Y-95427749D01*
X142302251Y-97784751D02*
X141536251Y-97784751D01*
X142843250Y-97243752D02*
X142302251Y-97784751D01*
X142843250Y-94392750D02*
X142843250Y-97243752D01*
X137636250Y-95340162D02*
X137636250Y-95027750D01*
X140530849Y-98234761D02*
X137636250Y-95340162D01*
X142488651Y-98234761D02*
X140530849Y-98234761D01*
X144621250Y-94392750D02*
X144621250Y-96102162D01*
X144621250Y-96102162D02*
X142488651Y-98234761D01*
X128709251Y-101156749D02*
X128709251Y-102149022D01*
X128709251Y-102149022D02*
X128256336Y-102601937D01*
X128492250Y-100939748D02*
X128709251Y-101156749D01*
X128256336Y-102601937D02*
X127690651Y-102601937D01*
X128492250Y-96170750D02*
X128492250Y-100939748D01*
X152066750Y-99870500D02*
X152066750Y-98123250D01*
X152066750Y-98123250D02*
X152114250Y-98075750D01*
X124936250Y-114712750D02*
X123793250Y-113569750D01*
X123793250Y-113569750D02*
X123793250Y-110521750D01*
X123793250Y-110521750D02*
X120999250Y-107727750D01*
X115792250Y-105822750D02*
X113887250Y-105822750D01*
X120999250Y-107727750D02*
X119729250Y-107727750D01*
X118262252Y-108743750D02*
X117881252Y-108362750D01*
X119729250Y-107727750D02*
X118713250Y-108743750D01*
X118713250Y-108743750D02*
X118262252Y-108743750D01*
X117881252Y-108362750D02*
X117697250Y-108362750D01*
X115792250Y-106457750D02*
X115792250Y-105822750D01*
X117697250Y-108362750D02*
X115792250Y-106457750D01*
X117358500Y-77628750D02*
X116215500Y-78771750D01*
X120618250Y-77628750D02*
X117358500Y-77628750D01*
X116215500Y-78771750D02*
X114776250Y-78771750D01*
X113966750Y-79581250D02*
X113966750Y-80820500D01*
X114776250Y-78771750D02*
X113966750Y-79581250D01*
X129127250Y-86137750D02*
X126396750Y-83407250D01*
X135350250Y-86137750D02*
X129127250Y-86137750D01*
X126396750Y-83407250D02*
X120618250Y-77628750D01*
X126460250Y-83470750D02*
X126396750Y-83407250D01*
X135016750Y-82120500D02*
X135766750Y-82120500D01*
X135766750Y-82120500D02*
X136112250Y-82466000D01*
X136112250Y-82466000D02*
X136112250Y-85375750D01*
X136112250Y-85375750D02*
X135350250Y-86137750D01*
X113379250Y-112991752D02*
X115354248Y-114966750D01*
X113379250Y-111639250D02*
X113379250Y-112991752D01*
X115354248Y-114966750D02*
X117316250Y-116928752D01*
X116599503Y-117645499D02*
X106024999Y-117645499D01*
X117316250Y-116928752D02*
X116599503Y-117645499D01*
X106024999Y-117645499D02*
X103600250Y-115220750D01*
X103600250Y-115220750D02*
X103600250Y-93122750D01*
X103600250Y-93122750D02*
X111728250Y-84994750D01*
X118205250Y-107086064D02*
X118205250Y-107651749D01*
X118205250Y-106654065D02*
X118205250Y-107086064D01*
X120179565Y-104679750D02*
X118205250Y-106654065D01*
X120745250Y-104679750D02*
X120179565Y-104679750D01*
X153866750Y-82120500D02*
X153130250Y-81384000D01*
X154066750Y-82120500D02*
X153866750Y-82120500D01*
X153130250Y-80498998D02*
X152419002Y-79787750D01*
X153130250Y-81384000D02*
X153130250Y-80498998D01*
X133216750Y-80820500D02*
X133016750Y-80820500D01*
X134249500Y-79787750D02*
X133216750Y-80820500D01*
X134249500Y-79787750D02*
X134249500Y-78729500D01*
X134249500Y-78729500D02*
X134969250Y-78009750D01*
X134969250Y-78009750D02*
X137001250Y-78009750D01*
X138779250Y-79787750D02*
X152419002Y-79787750D01*
X137001250Y-78009750D02*
X138779250Y-79787750D01*
X111855250Y-102520750D02*
X112490250Y-103155750D01*
X111855250Y-99345750D02*
X111855250Y-102520750D01*
X151866750Y-80820500D02*
X145406500Y-87280750D01*
X152066750Y-80820500D02*
X151866750Y-80820500D01*
X121253250Y-94392750D02*
X116808250Y-94392750D01*
X145406500Y-87280750D02*
X128365250Y-87280750D01*
X128365250Y-87280750D02*
X121253250Y-94392750D01*
X116808250Y-94392750D02*
X111855250Y-99345750D01*
X115966750Y-101170500D02*
X115966750Y-103108250D01*
X115966750Y-103108250D02*
X115792250Y-103282750D01*
X114166750Y-99870500D02*
X119136500Y-94900750D01*
X113966750Y-99870500D02*
X114166750Y-99870500D01*
X119136500Y-94900750D02*
X127984250Y-94900750D01*
X127984250Y-94900750D02*
X129635250Y-93249750D01*
X129635250Y-93249750D02*
X132556250Y-93249750D01*
X132556250Y-93249750D02*
X134080250Y-94773750D01*
X134816750Y-101170500D02*
X135016750Y-101170500D01*
X134080250Y-100434000D02*
X134816750Y-101170500D01*
X134080250Y-94773750D02*
X134080250Y-100434000D01*
X131650500Y-99870500D02*
X133016750Y-99870500D01*
X136664998Y-106203750D02*
X131650500Y-101189252D01*
X138906250Y-106203750D02*
X136664998Y-106203750D01*
X150082250Y-116871750D02*
X141573250Y-108362750D01*
X131650500Y-101189252D02*
X131650500Y-99870500D01*
X151987250Y-116871750D02*
X150082250Y-116871750D01*
X154066750Y-101170500D02*
X154066750Y-102727250D01*
X141065250Y-108362750D02*
X138906250Y-106203750D01*
X152495250Y-113569750D02*
X152495250Y-116363750D01*
X150463250Y-106330750D02*
X150463250Y-111537750D01*
X141573250Y-108362750D02*
X141065250Y-108362750D01*
X154066750Y-102727250D02*
X150463250Y-106330750D01*
X150463250Y-111537750D02*
X152495250Y-113569750D01*
X152495250Y-116363750D02*
X151987250Y-116871750D01*
X116427250Y-82581000D02*
X115966750Y-82120500D01*
X116427250Y-83724750D02*
X116427250Y-82581000D01*
D17*
G36*
X166433500Y-122618500D02*
G01*
X101600000Y-122618500D01*
X101600000Y-119350372D01*
X102413000Y-119350372D01*
X102413000Y-119790628D01*
X102498890Y-120222425D01*
X102667369Y-120629169D01*
X102911962Y-120995229D01*
X103223271Y-121306538D01*
X103589331Y-121551131D01*
X103996075Y-121719610D01*
X104427872Y-121805500D01*
X104868128Y-121805500D01*
X105299925Y-121719610D01*
X105706669Y-121551131D01*
X106072729Y-121306538D01*
X106384038Y-120995229D01*
X106628631Y-120629169D01*
X106797110Y-120222425D01*
X106883000Y-119790628D01*
X106883000Y-119350372D01*
X161150500Y-119350372D01*
X161150500Y-119790628D01*
X161236390Y-120222425D01*
X161404869Y-120629169D01*
X161649462Y-120995229D01*
X161960771Y-121306538D01*
X162326831Y-121551131D01*
X162733575Y-121719610D01*
X163165372Y-121805500D01*
X163605628Y-121805500D01*
X164037425Y-121719610D01*
X164444169Y-121551131D01*
X164810229Y-121306538D01*
X165121538Y-120995229D01*
X165366131Y-120629169D01*
X165534610Y-120222425D01*
X165620500Y-119790628D01*
X165620500Y-119350372D01*
X165534610Y-118918575D01*
X165366131Y-118511831D01*
X165121538Y-118145771D01*
X164810229Y-117834462D01*
X164444169Y-117589869D01*
X164037425Y-117421390D01*
X163605628Y-117335500D01*
X163165372Y-117335500D01*
X162733575Y-117421390D01*
X162326831Y-117589869D01*
X161960771Y-117834462D01*
X161649462Y-118145771D01*
X161404869Y-118511831D01*
X161236390Y-118918575D01*
X161150500Y-119350372D01*
X106883000Y-119350372D01*
X106797110Y-118918575D01*
X106628631Y-118511831D01*
X106557582Y-118405499D01*
X116562181Y-118405499D01*
X116599503Y-118409175D01*
X116636825Y-118405499D01*
X116636836Y-118405499D01*
X116748489Y-118394502D01*
X116891750Y-118351045D01*
X117023779Y-118280473D01*
X117139504Y-118185500D01*
X117163306Y-118156497D01*
X117827252Y-117492551D01*
X117856251Y-117468753D01*
X117951224Y-117353028D01*
X118021796Y-117220998D01*
X118063384Y-117083896D01*
X118065252Y-117077739D01*
X118079926Y-116928753D01*
X118077925Y-116908438D01*
X118065252Y-116779766D01*
X118021796Y-116636505D01*
X117951224Y-116504476D01*
X117880049Y-116417749D01*
X117880039Y-116417739D01*
X117856250Y-116388752D01*
X117827263Y-116364963D01*
X115918051Y-114455752D01*
X115918047Y-114455747D01*
X115890005Y-114427706D01*
X115961187Y-114356524D01*
X116074455Y-114187006D01*
X116152476Y-113998648D01*
X116192250Y-113798689D01*
X116192250Y-113594811D01*
X116152476Y-113394852D01*
X116098521Y-113264595D01*
X117074785Y-112288332D01*
X117076675Y-112297831D01*
X117207463Y-112613581D01*
X117397337Y-112897748D01*
X117639002Y-113139413D01*
X117923169Y-113329287D01*
X118238919Y-113460075D01*
X118574117Y-113526750D01*
X118915883Y-113526750D01*
X119251081Y-113460075D01*
X119566831Y-113329287D01*
X119850998Y-113139413D01*
X120092663Y-112897748D01*
X120282537Y-112613581D01*
X120413325Y-112297831D01*
X120480000Y-111962633D01*
X120480000Y-111620867D01*
X120413325Y-111285669D01*
X120282537Y-110969919D01*
X120126739Y-110736750D01*
X120161260Y-110736750D01*
X120448158Y-110679682D01*
X120718411Y-110567740D01*
X120961632Y-110405225D01*
X121168475Y-110198382D01*
X121330990Y-109955161D01*
X121442932Y-109684908D01*
X121500000Y-109398010D01*
X121500000Y-109303301D01*
X123033251Y-110836553D01*
X123033250Y-113532427D01*
X123029574Y-113569750D01*
X123033250Y-113607072D01*
X123033250Y-113607082D01*
X123044247Y-113718735D01*
X123069801Y-113802976D01*
X123087704Y-113861996D01*
X123158276Y-113994026D01*
X123198121Y-114042576D01*
X123253249Y-114109751D01*
X123282252Y-114133554D01*
X123901250Y-114752552D01*
X123901250Y-114814689D01*
X123941024Y-115014648D01*
X124019045Y-115203006D01*
X124132313Y-115372524D01*
X124276476Y-115516687D01*
X124445994Y-115629955D01*
X124634352Y-115707976D01*
X124834311Y-115747750D01*
X125038189Y-115747750D01*
X125238148Y-115707976D01*
X125426506Y-115629955D01*
X125596024Y-115516687D01*
X125740187Y-115372524D01*
X125853455Y-115203006D01*
X125931476Y-115014648D01*
X125971250Y-114814689D01*
X125971250Y-114610811D01*
X125931476Y-114410852D01*
X125853455Y-114222494D01*
X125740187Y-114052976D01*
X125596024Y-113908813D01*
X125426506Y-113795545D01*
X125238148Y-113717524D01*
X125038189Y-113677750D01*
X124976052Y-113677750D01*
X124553250Y-113254949D01*
X124553250Y-110559075D01*
X124556926Y-110521750D01*
X124553250Y-110484425D01*
X124553250Y-110484417D01*
X124542253Y-110372764D01*
X124498796Y-110229503D01*
X124450287Y-110138750D01*
X124994539Y-110138750D01*
X125038476Y-110182687D01*
X125207994Y-110295955D01*
X125228575Y-110304480D01*
X125211024Y-110346852D01*
X125171250Y-110546811D01*
X125171250Y-110750689D01*
X125211024Y-110950648D01*
X125289045Y-111139006D01*
X125402313Y-111308524D01*
X125546476Y-111452687D01*
X125715994Y-111565955D01*
X125904352Y-111643976D01*
X126104311Y-111683750D01*
X126308189Y-111683750D01*
X126508148Y-111643976D01*
X126696506Y-111565955D01*
X126866024Y-111452687D01*
X127010187Y-111308524D01*
X127123455Y-111139006D01*
X127201476Y-110950648D01*
X127230343Y-110805525D01*
X127794505Y-110241362D01*
X127958368Y-110405225D01*
X128201589Y-110567740D01*
X128471842Y-110679682D01*
X128758740Y-110736750D01*
X129051260Y-110736750D01*
X129338158Y-110679682D01*
X129608411Y-110567740D01*
X129851632Y-110405225D01*
X130018250Y-110238607D01*
X130018250Y-110992427D01*
X130014574Y-111029750D01*
X130018250Y-111067072D01*
X130018250Y-111067082D01*
X130029247Y-111178735D01*
X130049501Y-111245504D01*
X130072704Y-111321996D01*
X130143276Y-111454026D01*
X130160080Y-111474501D01*
X130238249Y-111569751D01*
X130267252Y-111593553D01*
X130685001Y-112011303D01*
X130685001Y-112768602D01*
X130623169Y-112794213D01*
X130339002Y-112984087D01*
X130097337Y-113225752D01*
X129907463Y-113509919D01*
X129776675Y-113825669D01*
X129710000Y-114160867D01*
X129710000Y-114502633D01*
X129776675Y-114837831D01*
X129907463Y-115153581D01*
X130097337Y-115437748D01*
X130339002Y-115679413D01*
X130623169Y-115869287D01*
X130938919Y-116000075D01*
X131167736Y-116045589D01*
X131134476Y-116067813D01*
X130990313Y-116211976D01*
X130877045Y-116381494D01*
X130799024Y-116569852D01*
X130759250Y-116769811D01*
X130759250Y-116973689D01*
X130799024Y-117173648D01*
X130877045Y-117362006D01*
X130990313Y-117531524D01*
X131134476Y-117675687D01*
X131303994Y-117788955D01*
X131492352Y-117866976D01*
X131692311Y-117906750D01*
X131896189Y-117906750D01*
X132096148Y-117866976D01*
X132284506Y-117788955D01*
X132407535Y-117706750D01*
X134968138Y-117706750D01*
X135048352Y-117739976D01*
X135193474Y-117768842D01*
X135307821Y-117883190D01*
X135333968Y-117915050D01*
X135365827Y-117941196D01*
X135365829Y-117941198D01*
X135461113Y-118019395D01*
X135606172Y-118096931D01*
X135763570Y-118144677D01*
X135927259Y-118160799D01*
X135968277Y-118156759D01*
X148246870Y-118156759D01*
X148321994Y-118206955D01*
X148510352Y-118284976D01*
X148710311Y-118324750D01*
X148914189Y-118324750D01*
X149114148Y-118284976D01*
X149302506Y-118206955D01*
X149472024Y-118093687D01*
X149616187Y-117949524D01*
X149729455Y-117780006D01*
X149807476Y-117591648D01*
X149809174Y-117583111D01*
X149933264Y-117620753D01*
X150044917Y-117631750D01*
X150044926Y-117631750D01*
X150082249Y-117635426D01*
X150119572Y-117631750D01*
X151949928Y-117631750D01*
X151987250Y-117635426D01*
X152024572Y-117631750D01*
X152024583Y-117631750D01*
X152136236Y-117620753D01*
X152279497Y-117577296D01*
X152411526Y-117506724D01*
X152527251Y-117411751D01*
X152551053Y-117382748D01*
X153006252Y-116927550D01*
X153035251Y-116903751D01*
X153130224Y-116788026D01*
X153200796Y-116655997D01*
X153244253Y-116512736D01*
X153255250Y-116401083D01*
X153255250Y-116401074D01*
X153258926Y-116363751D01*
X153255250Y-116326428D01*
X153255250Y-114904461D01*
X153359476Y-115008687D01*
X153528994Y-115121955D01*
X153717352Y-115199976D01*
X153917311Y-115239750D01*
X154121189Y-115239750D01*
X154321148Y-115199976D01*
X154509506Y-115121955D01*
X154679024Y-115008687D01*
X154823187Y-114864524D01*
X154936455Y-114695006D01*
X155014476Y-114506648D01*
X155054250Y-114306689D01*
X155054250Y-114102811D01*
X155014476Y-113902852D01*
X154936455Y-113714494D01*
X154854250Y-113591465D01*
X154854250Y-112743365D01*
X155212733Y-112384882D01*
X155307463Y-112613581D01*
X155497337Y-112897748D01*
X155739002Y-113139413D01*
X156023169Y-113329287D01*
X156338919Y-113460075D01*
X156674117Y-113526750D01*
X157015883Y-113526750D01*
X157351081Y-113460075D01*
X157666831Y-113329287D01*
X157950998Y-113139413D01*
X158192663Y-112897748D01*
X158382537Y-112613581D01*
X158513325Y-112297831D01*
X158580000Y-111962633D01*
X158580000Y-111620867D01*
X158513325Y-111285669D01*
X158382537Y-110969919D01*
X158226739Y-110736750D01*
X158261260Y-110736750D01*
X158548158Y-110679682D01*
X158818411Y-110567740D01*
X159061632Y-110405225D01*
X159268475Y-110198382D01*
X159430990Y-109955161D01*
X159542932Y-109684908D01*
X159600000Y-109398010D01*
X159600000Y-109105490D01*
X159542932Y-108818592D01*
X159430990Y-108548339D01*
X159268475Y-108305118D01*
X159061632Y-108098275D01*
X158818411Y-107935760D01*
X158548158Y-107823818D01*
X158261260Y-107766750D01*
X157968740Y-107766750D01*
X157681842Y-107823818D01*
X157411589Y-107935760D01*
X157168368Y-108098275D01*
X156961525Y-108305118D01*
X156799010Y-108548339D01*
X156687068Y-108818592D01*
X156630000Y-109105490D01*
X156630000Y-109398010D01*
X156687068Y-109684908D01*
X156799010Y-109955161D01*
X156866890Y-110056750D01*
X156674117Y-110056750D01*
X156378250Y-110115602D01*
X156378250Y-105039035D01*
X156460455Y-104916006D01*
X156538476Y-104727648D01*
X156578250Y-104527689D01*
X156578250Y-104323811D01*
X156538476Y-104123852D01*
X156460455Y-103935494D01*
X156377490Y-103811327D01*
X156375463Y-103790750D01*
X156366168Y-103696376D01*
X156318422Y-103538978D01*
X156245000Y-103401616D01*
X156245000Y-102296880D01*
X156316320Y-102335002D01*
X156436018Y-102371312D01*
X156560500Y-102383572D01*
X156749750Y-102380500D01*
X156908500Y-102221750D01*
X156908500Y-101435000D01*
X157162500Y-101435000D01*
X157162500Y-102221750D01*
X157321250Y-102380500D01*
X157510500Y-102383572D01*
X157634982Y-102371312D01*
X157754680Y-102335002D01*
X157864994Y-102276037D01*
X157961685Y-102196685D01*
X158041037Y-102099994D01*
X158100002Y-101989680D01*
X158136312Y-101869982D01*
X158148572Y-101745500D01*
X158145500Y-101593750D01*
X157986750Y-101435000D01*
X157162500Y-101435000D01*
X156908500Y-101435000D01*
X156888500Y-101435000D01*
X156888500Y-101181000D01*
X156908500Y-101181000D01*
X156908500Y-101161000D01*
X157162500Y-101161000D01*
X157162500Y-101181000D01*
X157986750Y-101181000D01*
X158145500Y-101022250D01*
X158148572Y-100870500D01*
X158136312Y-100746018D01*
X158100002Y-100626320D01*
X158041037Y-100516006D01*
X157986400Y-100449430D01*
X158004171Y-100427775D01*
X158083350Y-100279642D01*
X158132108Y-100118908D01*
X158148572Y-99951750D01*
X158148572Y-99514250D01*
X158132108Y-99347092D01*
X158083350Y-99186358D01*
X158004171Y-99038225D01*
X157897615Y-98908385D01*
X157767775Y-98801829D01*
X157619642Y-98722650D01*
X157458908Y-98673892D01*
X157291750Y-98657428D01*
X157140796Y-98657428D01*
X155457363Y-96973996D01*
X155457363Y-96560870D01*
X155461402Y-96519862D01*
X155457363Y-96478854D01*
X155457363Y-96478844D01*
X155445281Y-96356174D01*
X155397535Y-96198776D01*
X155319999Y-96053717D01*
X155215654Y-95926572D01*
X155183790Y-95900422D01*
X154508881Y-95225514D01*
X154552024Y-95196687D01*
X154696187Y-95052524D01*
X154809455Y-94883006D01*
X154887476Y-94694648D01*
X154927250Y-94494689D01*
X154927250Y-94290811D01*
X154887476Y-94090852D01*
X154809455Y-93902494D01*
X154696187Y-93732976D01*
X154552024Y-93588813D01*
X154382506Y-93475545D01*
X154194148Y-93397524D01*
X153994189Y-93357750D01*
X153790311Y-93357750D01*
X153590352Y-93397524D01*
X153401994Y-93475545D01*
X153278965Y-93557750D01*
X152917268Y-93557750D01*
X152876250Y-93553710D01*
X152840591Y-93557222D01*
X151843818Y-92560450D01*
X152266399Y-92735489D01*
X152775475Y-92836750D01*
X153294525Y-92836750D01*
X153803601Y-92735489D01*
X154201033Y-92570867D01*
X155110000Y-92570867D01*
X155110000Y-92912633D01*
X155176675Y-93247831D01*
X155307463Y-93563581D01*
X155497337Y-93847748D01*
X155739002Y-94089413D01*
X156023169Y-94279287D01*
X156338919Y-94410075D01*
X156674117Y-94476750D01*
X157015883Y-94476750D01*
X157351081Y-94410075D01*
X157666831Y-94279287D01*
X157950998Y-94089413D01*
X158192663Y-93847748D01*
X158382537Y-93563581D01*
X158513325Y-93247831D01*
X158580000Y-92912633D01*
X158580000Y-92570867D01*
X158513325Y-92235669D01*
X158382537Y-91919919D01*
X158226739Y-91686750D01*
X158261260Y-91686750D01*
X158548158Y-91629682D01*
X158818411Y-91517740D01*
X159061632Y-91355225D01*
X159268475Y-91148382D01*
X159430990Y-90905161D01*
X159542932Y-90634908D01*
X159600000Y-90348010D01*
X159600000Y-90055490D01*
X159542932Y-89768592D01*
X159430990Y-89498339D01*
X159268475Y-89255118D01*
X159061632Y-89048275D01*
X158818411Y-88885760D01*
X158548158Y-88773818D01*
X158261260Y-88716750D01*
X157968740Y-88716750D01*
X157681842Y-88773818D01*
X157411589Y-88885760D01*
X157168368Y-89048275D01*
X156961525Y-89255118D01*
X156799010Y-89498339D01*
X156687068Y-89768592D01*
X156630000Y-90055490D01*
X156630000Y-90348010D01*
X156687068Y-90634908D01*
X156799010Y-90905161D01*
X156866890Y-91006750D01*
X156674117Y-91006750D01*
X156338919Y-91073425D01*
X156023169Y-91204213D01*
X155739002Y-91394087D01*
X155497337Y-91635752D01*
X155307463Y-91919919D01*
X155176675Y-92235669D01*
X155110000Y-92570867D01*
X154201033Y-92570867D01*
X154283141Y-92536857D01*
X154714715Y-92248488D01*
X155081738Y-91881465D01*
X155370107Y-91449891D01*
X155568739Y-90970351D01*
X155670000Y-90461275D01*
X155670000Y-89942225D01*
X155568739Y-89433149D01*
X155370107Y-88953609D01*
X155081738Y-88522035D01*
X154714715Y-88155012D01*
X154283141Y-87866643D01*
X153803601Y-87668011D01*
X153500647Y-87607750D01*
X157661232Y-87607750D01*
X157702250Y-87611790D01*
X157743268Y-87607750D01*
X157743269Y-87607750D01*
X157865939Y-87595668D01*
X158023337Y-87547922D01*
X158168396Y-87470386D01*
X158295541Y-87366041D01*
X158321696Y-87334171D01*
X160676677Y-84979191D01*
X160708541Y-84953041D01*
X160812886Y-84825896D01*
X160890422Y-84680837D01*
X160938168Y-84523439D01*
X160950250Y-84400769D01*
X160950250Y-84400759D01*
X160954289Y-84359751D01*
X160950250Y-84318743D01*
X160950250Y-82241768D01*
X160954290Y-82200750D01*
X160949063Y-82147677D01*
X160938168Y-82037061D01*
X160890422Y-81879663D01*
X160812886Y-81734604D01*
X160786394Y-81702323D01*
X160734689Y-81639320D01*
X160734687Y-81639318D01*
X160708541Y-81607459D01*
X160676683Y-81581314D01*
X159216946Y-80121578D01*
X159190791Y-80089709D01*
X159063646Y-79985364D01*
X158918587Y-79907828D01*
X158761189Y-79860082D01*
X158638519Y-79848000D01*
X158638518Y-79848000D01*
X158597500Y-79843960D01*
X158556482Y-79848000D01*
X157884961Y-79848000D01*
X157767775Y-79751829D01*
X157619642Y-79672650D01*
X157587409Y-79662872D01*
X161150500Y-79662872D01*
X161150500Y-80103128D01*
X161236390Y-80534925D01*
X161404869Y-80941669D01*
X161649462Y-81307729D01*
X161960771Y-81619038D01*
X162326831Y-81863631D01*
X162733575Y-82032110D01*
X163165372Y-82118000D01*
X163605628Y-82118000D01*
X164037425Y-82032110D01*
X164444169Y-81863631D01*
X164810229Y-81619038D01*
X165121538Y-81307729D01*
X165366131Y-80941669D01*
X165534610Y-80534925D01*
X165620500Y-80103128D01*
X165620500Y-79662872D01*
X165534610Y-79231075D01*
X165366131Y-78824331D01*
X165121538Y-78458271D01*
X164810229Y-78146962D01*
X164444169Y-77902369D01*
X164037425Y-77733890D01*
X163605628Y-77648000D01*
X163165372Y-77648000D01*
X162733575Y-77733890D01*
X162326831Y-77902369D01*
X161960771Y-78146962D01*
X161649462Y-78458271D01*
X161404869Y-78824331D01*
X161236390Y-79231075D01*
X161150500Y-79662872D01*
X157587409Y-79662872D01*
X157458908Y-79623892D01*
X157291750Y-79607428D01*
X156779250Y-79607428D01*
X156612092Y-79623892D01*
X156451358Y-79672650D01*
X156303225Y-79751829D01*
X156186039Y-79848000D01*
X154245257Y-79848000D01*
X154204249Y-79843961D01*
X154163241Y-79848000D01*
X154163231Y-79848000D01*
X154040561Y-79860082D01*
X153966896Y-79882428D01*
X153588482Y-79882428D01*
X152982805Y-79276752D01*
X152959003Y-79247749D01*
X152843278Y-79152776D01*
X152711249Y-79082204D01*
X152567988Y-79038747D01*
X152456335Y-79027750D01*
X152456324Y-79027750D01*
X152419002Y-79024074D01*
X152381680Y-79027750D01*
X139094052Y-79027750D01*
X137565054Y-77498753D01*
X137541251Y-77469749D01*
X137425526Y-77374776D01*
X137293497Y-77304204D01*
X137150236Y-77260747D01*
X137038583Y-77249750D01*
X137038572Y-77249750D01*
X137001250Y-77246074D01*
X136963928Y-77249750D01*
X135006572Y-77249750D01*
X134969249Y-77246074D01*
X134931926Y-77249750D01*
X134931917Y-77249750D01*
X134820264Y-77260747D01*
X134677003Y-77304204D01*
X134544974Y-77374776D01*
X134429249Y-77469749D01*
X134405451Y-77498748D01*
X133738498Y-78165701D01*
X133709500Y-78189499D01*
X133685702Y-78218497D01*
X133685701Y-78218498D01*
X133614526Y-78305224D01*
X133543954Y-78437254D01*
X133500498Y-78580515D01*
X133485824Y-78729500D01*
X133489501Y-78766832D01*
X133489500Y-79472948D01*
X133080021Y-79882428D01*
X132516750Y-79882428D01*
X132392268Y-79894688D01*
X132272570Y-79930998D01*
X132162256Y-79989963D01*
X132065565Y-80069315D01*
X131986213Y-80166006D01*
X131927248Y-80276320D01*
X131890938Y-80396018D01*
X131878678Y-80520500D01*
X131878678Y-81120500D01*
X131890938Y-81244982D01*
X131927248Y-81364680D01*
X131983811Y-81470500D01*
X131927248Y-81576320D01*
X131890938Y-81696018D01*
X131878678Y-81820500D01*
X131881750Y-81834750D01*
X132040500Y-81993500D01*
X132889750Y-81993500D01*
X132889750Y-81973500D01*
X133143750Y-81973500D01*
X133143750Y-81993500D01*
X133163750Y-81993500D01*
X133163750Y-82247500D01*
X133143750Y-82247500D01*
X133143750Y-82896750D01*
X133302500Y-83055500D01*
X133516750Y-83058572D01*
X133641232Y-83046312D01*
X133760930Y-83010002D01*
X133871244Y-82951037D01*
X133967935Y-82871685D01*
X134016750Y-82812204D01*
X134065565Y-82871685D01*
X134162256Y-82951037D01*
X134272570Y-83010002D01*
X134392268Y-83046312D01*
X134516750Y-83058572D01*
X135352250Y-83058572D01*
X135352251Y-85060947D01*
X135035449Y-85377750D01*
X129442052Y-85377750D01*
X126960553Y-82896252D01*
X126960549Y-82896247D01*
X126484802Y-82420500D01*
X131878678Y-82420500D01*
X131890938Y-82544982D01*
X131927248Y-82664680D01*
X131986213Y-82774994D01*
X132065565Y-82871685D01*
X132162256Y-82951037D01*
X132272570Y-83010002D01*
X132392268Y-83046312D01*
X132516750Y-83058572D01*
X132731000Y-83055500D01*
X132889750Y-82896750D01*
X132889750Y-82247500D01*
X132040500Y-82247500D01*
X131881750Y-82406250D01*
X131878678Y-82420500D01*
X126484802Y-82420500D01*
X121182054Y-77117753D01*
X121158251Y-77088749D01*
X121042526Y-76993776D01*
X120910497Y-76923204D01*
X120767236Y-76879747D01*
X120655583Y-76868750D01*
X120655572Y-76868750D01*
X120618250Y-76865074D01*
X120580928Y-76868750D01*
X117395822Y-76868750D01*
X117358499Y-76865074D01*
X117321176Y-76868750D01*
X117321167Y-76868750D01*
X117209514Y-76879747D01*
X117066253Y-76923204D01*
X116934223Y-76993776D01*
X116904018Y-77018565D01*
X116818499Y-77088749D01*
X116794701Y-77117747D01*
X115900699Y-78011750D01*
X114813573Y-78011750D01*
X114776250Y-78008074D01*
X114738927Y-78011750D01*
X114738917Y-78011750D01*
X114627264Y-78022747D01*
X114484003Y-78066204D01*
X114351973Y-78136776D01*
X114313012Y-78168751D01*
X114236249Y-78231749D01*
X114212451Y-78260748D01*
X113455752Y-79017447D01*
X113426749Y-79041249D01*
X113371621Y-79108424D01*
X113331776Y-79156974D01*
X113264545Y-79282753D01*
X113261204Y-79289004D01*
X113217747Y-79432265D01*
X113206750Y-79543918D01*
X113206750Y-79543928D01*
X113203074Y-79581250D01*
X113206750Y-79618573D01*
X113206750Y-79939454D01*
X113112256Y-79989963D01*
X113015565Y-80069315D01*
X112936213Y-80166006D01*
X112877248Y-80276320D01*
X112840938Y-80396018D01*
X112828678Y-80520500D01*
X112828678Y-81120500D01*
X112840938Y-81244982D01*
X112877248Y-81364680D01*
X112933811Y-81470500D01*
X112877248Y-81576320D01*
X112840938Y-81696018D01*
X112828678Y-81820500D01*
X112831750Y-81834750D01*
X112990500Y-81993500D01*
X113839750Y-81993500D01*
X113839750Y-81973500D01*
X114093750Y-81973500D01*
X114093750Y-81993500D01*
X114113750Y-81993500D01*
X114113750Y-82247500D01*
X114093750Y-82247500D01*
X114093750Y-82896750D01*
X114252500Y-83055500D01*
X114466750Y-83058572D01*
X114591232Y-83046312D01*
X114710930Y-83010002D01*
X114821244Y-82951037D01*
X114917935Y-82871685D01*
X114966750Y-82812204D01*
X115015565Y-82871685D01*
X115112256Y-82951037D01*
X115222570Y-83010002D01*
X115342268Y-83046312D01*
X115466750Y-83058572D01*
X115629717Y-83058572D01*
X115623313Y-83064976D01*
X115510045Y-83234494D01*
X115432024Y-83422852D01*
X115392250Y-83622811D01*
X115392250Y-83826689D01*
X115432024Y-84026648D01*
X115510045Y-84215006D01*
X115623313Y-84384524D01*
X115767476Y-84528687D01*
X115936994Y-84641955D01*
X116125352Y-84719976D01*
X116325311Y-84759750D01*
X116529189Y-84759750D01*
X116535352Y-84758524D01*
X119513000Y-84758524D01*
X119513000Y-84957476D01*
X119551814Y-85152606D01*
X119627950Y-85336414D01*
X119738482Y-85501837D01*
X119879163Y-85642518D01*
X120044586Y-85753050D01*
X120228394Y-85829186D01*
X120423524Y-85868000D01*
X120622476Y-85868000D01*
X120817606Y-85829186D01*
X121001414Y-85753050D01*
X121166837Y-85642518D01*
X121307518Y-85501837D01*
X121418050Y-85336414D01*
X121494186Y-85152606D01*
X121533000Y-84957476D01*
X121533000Y-84758524D01*
X121494186Y-84563394D01*
X121418050Y-84379586D01*
X121307518Y-84214163D01*
X121166837Y-84073482D01*
X121001414Y-83962950D01*
X120817606Y-83886814D01*
X120622476Y-83848000D01*
X120423524Y-83848000D01*
X120228394Y-83886814D01*
X120044586Y-83962950D01*
X119879163Y-84073482D01*
X119738482Y-84214163D01*
X119627950Y-84379586D01*
X119551814Y-84563394D01*
X119513000Y-84758524D01*
X116535352Y-84758524D01*
X116729148Y-84719976D01*
X116917506Y-84641955D01*
X117087024Y-84528687D01*
X117231187Y-84384524D01*
X117344455Y-84215006D01*
X117422476Y-84026648D01*
X117462250Y-83826689D01*
X117462250Y-83622811D01*
X117422476Y-83422852D01*
X117344455Y-83234494D01*
X117231187Y-83064976D01*
X117187250Y-83021039D01*
X117187250Y-82695500D01*
X117822428Y-82695500D01*
X117834688Y-82819982D01*
X117870998Y-82939680D01*
X117929963Y-83049994D01*
X118009315Y-83146685D01*
X118106006Y-83226037D01*
X118216320Y-83285002D01*
X118336018Y-83321312D01*
X118460500Y-83333572D01*
X118649750Y-83330500D01*
X118808500Y-83171750D01*
X118808500Y-82385000D01*
X119062500Y-82385000D01*
X119062500Y-83171750D01*
X119221250Y-83330500D01*
X119410500Y-83333572D01*
X119534982Y-83321312D01*
X119654680Y-83285002D01*
X119764994Y-83226037D01*
X119861685Y-83146685D01*
X119941037Y-83049994D01*
X120000002Y-82939680D01*
X120036312Y-82819982D01*
X120048572Y-82695500D01*
X120045500Y-82543750D01*
X119886750Y-82385000D01*
X119062500Y-82385000D01*
X118808500Y-82385000D01*
X117984250Y-82385000D01*
X117825500Y-82543750D01*
X117822428Y-82695500D01*
X117187250Y-82695500D01*
X117187250Y-82618322D01*
X117190926Y-82580999D01*
X117187250Y-82543676D01*
X117187250Y-82543667D01*
X117176253Y-82432014D01*
X117132796Y-82288753D01*
X117104822Y-82236418D01*
X117104822Y-81820500D01*
X117092562Y-81696018D01*
X117056252Y-81576320D01*
X117025079Y-81518000D01*
X117902171Y-81518000D01*
X117870998Y-81576320D01*
X117834688Y-81696018D01*
X117822428Y-81820500D01*
X117825500Y-81972250D01*
X117984250Y-82131000D01*
X118808500Y-82131000D01*
X118808500Y-82111000D01*
X119062500Y-82111000D01*
X119062500Y-82131000D01*
X119886750Y-82131000D01*
X120045500Y-81972250D01*
X120048572Y-81820500D01*
X120036312Y-81696018D01*
X120000002Y-81576320D01*
X119941037Y-81466006D01*
X119886400Y-81399430D01*
X119904171Y-81377775D01*
X119983350Y-81229642D01*
X120032108Y-81068908D01*
X120048572Y-80901750D01*
X120048572Y-80464250D01*
X120032108Y-80297092D01*
X119983350Y-80136358D01*
X119904171Y-79988225D01*
X119797615Y-79858385D01*
X119770500Y-79836132D01*
X119770500Y-79522537D01*
X119881024Y-79448687D01*
X120025187Y-79304524D01*
X120138455Y-79135006D01*
X120216476Y-78946648D01*
X120256250Y-78746689D01*
X120256250Y-78542811D01*
X120225606Y-78388750D01*
X120303449Y-78388750D01*
X125885747Y-83971049D01*
X125885752Y-83971053D01*
X128435448Y-86520750D01*
X128402573Y-86520750D01*
X128365250Y-86517074D01*
X128327927Y-86520750D01*
X128327917Y-86520750D01*
X128216264Y-86531747D01*
X128073003Y-86575204D01*
X127940974Y-86645776D01*
X127825249Y-86740749D01*
X127801451Y-86769747D01*
X120938449Y-93632750D01*
X120236320Y-93632750D01*
X120282537Y-93563581D01*
X120413325Y-93247831D01*
X120480000Y-92912633D01*
X120480000Y-92570867D01*
X120413325Y-92235669D01*
X120282537Y-91919919D01*
X120126739Y-91686750D01*
X120161260Y-91686750D01*
X120448158Y-91629682D01*
X120718411Y-91517740D01*
X120961632Y-91355225D01*
X121168475Y-91148382D01*
X121330990Y-90905161D01*
X121442932Y-90634908D01*
X121500000Y-90348010D01*
X121500000Y-90055490D01*
X121442932Y-89768592D01*
X121330990Y-89498339D01*
X121168475Y-89255118D01*
X120961632Y-89048275D01*
X120718411Y-88885760D01*
X120448158Y-88773818D01*
X120161260Y-88716750D01*
X119868740Y-88716750D01*
X119581842Y-88773818D01*
X119311589Y-88885760D01*
X119068368Y-89048275D01*
X118861525Y-89255118D01*
X118699010Y-89498339D01*
X118587068Y-89768592D01*
X118530000Y-90055490D01*
X118530000Y-90348010D01*
X118587068Y-90634908D01*
X118699010Y-90905161D01*
X118766890Y-91006750D01*
X118574117Y-91006750D01*
X118238919Y-91073425D01*
X117923169Y-91204213D01*
X117639002Y-91394087D01*
X117397337Y-91635752D01*
X117207463Y-91919919D01*
X117076675Y-92235669D01*
X117010000Y-92570867D01*
X117010000Y-92912633D01*
X117076675Y-93247831D01*
X117207463Y-93563581D01*
X117253680Y-93632750D01*
X116845575Y-93632750D01*
X116808250Y-93629074D01*
X116770925Y-93632750D01*
X116770917Y-93632750D01*
X116659264Y-93643747D01*
X116516003Y-93687204D01*
X116383974Y-93757776D01*
X116268249Y-93852749D01*
X116244451Y-93881747D01*
X113751146Y-96375053D01*
X113932537Y-96103581D01*
X114063325Y-95787831D01*
X114130000Y-95452633D01*
X114130000Y-95110867D01*
X114063325Y-94775669D01*
X113932537Y-94459919D01*
X113742663Y-94175752D01*
X113500998Y-93934087D01*
X113216831Y-93744213D01*
X112901081Y-93613425D01*
X112565883Y-93546750D01*
X112224117Y-93546750D01*
X111888919Y-93613425D01*
X111573169Y-93744213D01*
X111289002Y-93934087D01*
X111047337Y-94175752D01*
X110857463Y-94459919D01*
X110726675Y-94775669D01*
X110660000Y-95110867D01*
X110660000Y-95452633D01*
X110726675Y-95787831D01*
X110752286Y-95849662D01*
X109439248Y-97162701D01*
X109410250Y-97186499D01*
X109386452Y-97215497D01*
X109386451Y-97215498D01*
X109315276Y-97302224D01*
X109244704Y-97434254D01*
X109221136Y-97511951D01*
X109201248Y-97577514D01*
X109191825Y-97673186D01*
X109186574Y-97726500D01*
X109190251Y-97763832D01*
X109190250Y-102102427D01*
X109186574Y-102139750D01*
X109190250Y-102177072D01*
X109190250Y-102177082D01*
X109201247Y-102288735D01*
X109240166Y-102417036D01*
X109244704Y-102431996D01*
X109315276Y-102564026D01*
X109346389Y-102601937D01*
X109410249Y-102679751D01*
X109439253Y-102703554D01*
X110841251Y-104105553D01*
X110841250Y-104865039D01*
X110797313Y-104908976D01*
X110684045Y-105078494D01*
X110606024Y-105266852D01*
X110566250Y-105466811D01*
X110566250Y-105670689D01*
X110606024Y-105870648D01*
X110684045Y-106059006D01*
X110797313Y-106228524D01*
X110841251Y-106272462D01*
X110841250Y-108137893D01*
X110801632Y-108098275D01*
X110558411Y-107935760D01*
X110288158Y-107823818D01*
X110001260Y-107766750D01*
X109708740Y-107766750D01*
X109421842Y-107823818D01*
X109151589Y-107935760D01*
X108908368Y-108098275D01*
X108701525Y-108305118D01*
X108539010Y-108548339D01*
X108427068Y-108818592D01*
X108370000Y-109105490D01*
X108370000Y-109398010D01*
X108427068Y-109684908D01*
X108539010Y-109955161D01*
X108701525Y-110198382D01*
X108908368Y-110405225D01*
X109151589Y-110567740D01*
X109421842Y-110679682D01*
X109708740Y-110736750D01*
X110001260Y-110736750D01*
X110288158Y-110679682D01*
X110558411Y-110567740D01*
X110801632Y-110405225D01*
X110867346Y-110339511D01*
X110886135Y-110401451D01*
X110895704Y-110432996D01*
X110966276Y-110565026D01*
X110987646Y-110591065D01*
X111061249Y-110680751D01*
X111090252Y-110704553D01*
X111635001Y-111249303D01*
X111635000Y-112768602D01*
X111573169Y-112794213D01*
X111289002Y-112984087D01*
X111047337Y-113225752D01*
X110857463Y-113509919D01*
X110726675Y-113825669D01*
X110660000Y-114160867D01*
X110660000Y-114502633D01*
X110726675Y-114837831D01*
X110857463Y-115153581D01*
X111047337Y-115437748D01*
X111289002Y-115679413D01*
X111443657Y-115782750D01*
X106994118Y-115782750D01*
X106275343Y-115063975D01*
X106246476Y-114918852D01*
X106168455Y-114730494D01*
X106055187Y-114560976D01*
X105911024Y-114416813D01*
X105741506Y-114303545D01*
X105553148Y-114225524D01*
X105353189Y-114185750D01*
X105149311Y-114185750D01*
X104949352Y-114225524D01*
X104760994Y-114303545D01*
X104591476Y-114416813D01*
X104447313Y-114560976D01*
X104360250Y-114691275D01*
X104360250Y-93437551D01*
X107742311Y-90055490D01*
X108370000Y-90055490D01*
X108370000Y-90348010D01*
X108427068Y-90634908D01*
X108539010Y-90905161D01*
X108701525Y-91148382D01*
X108908368Y-91355225D01*
X109151589Y-91517740D01*
X109421842Y-91629682D01*
X109708740Y-91686750D01*
X110001260Y-91686750D01*
X110288158Y-91629682D01*
X110558411Y-91517740D01*
X110801632Y-91355225D01*
X111008475Y-91148382D01*
X111170990Y-90905161D01*
X111282932Y-90634908D01*
X111340000Y-90348010D01*
X111340000Y-90055490D01*
X111317471Y-89942225D01*
X112300000Y-89942225D01*
X112300000Y-90461275D01*
X112401261Y-90970351D01*
X112599893Y-91449891D01*
X112888262Y-91881465D01*
X113255285Y-92248488D01*
X113686859Y-92536857D01*
X114166399Y-92735489D01*
X114675475Y-92836750D01*
X115194525Y-92836750D01*
X115703601Y-92735489D01*
X116183141Y-92536857D01*
X116614715Y-92248488D01*
X116981738Y-91881465D01*
X117270107Y-91449891D01*
X117468739Y-90970351D01*
X117570000Y-90461275D01*
X117570000Y-89942225D01*
X117468739Y-89433149D01*
X117270107Y-88953609D01*
X116981738Y-88522035D01*
X116614715Y-88155012D01*
X116183141Y-87866643D01*
X115703601Y-87668011D01*
X115194525Y-87566750D01*
X114675475Y-87566750D01*
X114166399Y-87668011D01*
X113686859Y-87866643D01*
X113255285Y-88155012D01*
X112888262Y-88522035D01*
X112599893Y-88953609D01*
X112401261Y-89433149D01*
X112300000Y-89942225D01*
X111317471Y-89942225D01*
X111282932Y-89768592D01*
X111170990Y-89498339D01*
X111008475Y-89255118D01*
X110801632Y-89048275D01*
X110558411Y-88885760D01*
X110288158Y-88773818D01*
X110001260Y-88716750D01*
X109708740Y-88716750D01*
X109421842Y-88773818D01*
X109151589Y-88885760D01*
X108908368Y-89048275D01*
X108701525Y-89255118D01*
X108539010Y-89498339D01*
X108427068Y-89768592D01*
X108370000Y-90055490D01*
X107742311Y-90055490D01*
X110289277Y-87508524D01*
X119513000Y-87508524D01*
X119513000Y-87707476D01*
X119551814Y-87902606D01*
X119627950Y-88086414D01*
X119738482Y-88251837D01*
X119879163Y-88392518D01*
X120044586Y-88503050D01*
X120228394Y-88579186D01*
X120423524Y-88618000D01*
X120622476Y-88618000D01*
X120817606Y-88579186D01*
X121001414Y-88503050D01*
X121166837Y-88392518D01*
X121307518Y-88251837D01*
X121418050Y-88086414D01*
X121494186Y-87902606D01*
X121533000Y-87707476D01*
X121533000Y-87508524D01*
X121494186Y-87313394D01*
X121418050Y-87129586D01*
X121307518Y-86964163D01*
X121166837Y-86823482D01*
X121001414Y-86712950D01*
X120817606Y-86636814D01*
X120622476Y-86598000D01*
X120423524Y-86598000D01*
X120228394Y-86636814D01*
X120044586Y-86712950D01*
X119879163Y-86823482D01*
X119738482Y-86964163D01*
X119627950Y-87129586D01*
X119551814Y-87313394D01*
X119513000Y-87508524D01*
X110289277Y-87508524D01*
X111768052Y-86029750D01*
X111830189Y-86029750D01*
X112030148Y-85989976D01*
X112218506Y-85911955D01*
X112388024Y-85798687D01*
X112532187Y-85654524D01*
X112645455Y-85485006D01*
X112723476Y-85296648D01*
X112763250Y-85096689D01*
X112763250Y-84892811D01*
X112723476Y-84692852D01*
X112645455Y-84504494D01*
X112532187Y-84334976D01*
X112388024Y-84190813D01*
X112218506Y-84077545D01*
X112030148Y-83999524D01*
X111830189Y-83959750D01*
X111626311Y-83959750D01*
X111426352Y-83999524D01*
X111237994Y-84077545D01*
X111068476Y-84190813D01*
X110924313Y-84334976D01*
X110811045Y-84504494D01*
X110733024Y-84692852D01*
X110693250Y-84892811D01*
X110693250Y-84954948D01*
X103089248Y-92558951D01*
X103060250Y-92582749D01*
X103036452Y-92611747D01*
X103036451Y-92611748D01*
X102965276Y-92698474D01*
X102894704Y-92830504D01*
X102867633Y-92919750D01*
X102851248Y-92973764D01*
X102846917Y-93017735D01*
X102836574Y-93122750D01*
X102840251Y-93160083D01*
X102840250Y-115183428D01*
X102836574Y-115220750D01*
X102840250Y-115258072D01*
X102840250Y-115258082D01*
X102851247Y-115369735D01*
X102879160Y-115461752D01*
X102894704Y-115512996D01*
X102965276Y-115645026D01*
X103005121Y-115693576D01*
X103060249Y-115760751D01*
X103089253Y-115784554D01*
X104640198Y-117335500D01*
X104427872Y-117335500D01*
X103996075Y-117421390D01*
X103589331Y-117589869D01*
X103223271Y-117834462D01*
X102911962Y-118145771D01*
X102667369Y-118511831D01*
X102498890Y-118918575D01*
X102413000Y-119350372D01*
X101600000Y-119350372D01*
X101600000Y-82420500D01*
X112828678Y-82420500D01*
X112840938Y-82544982D01*
X112877248Y-82664680D01*
X112936213Y-82774994D01*
X113015565Y-82871685D01*
X113112256Y-82951037D01*
X113222570Y-83010002D01*
X113342268Y-83046312D01*
X113466750Y-83058572D01*
X113681000Y-83055500D01*
X113839750Y-82896750D01*
X113839750Y-82247500D01*
X112990500Y-82247500D01*
X112831750Y-82406250D01*
X112828678Y-82420500D01*
X101600000Y-82420500D01*
X101600000Y-79662872D01*
X102413000Y-79662872D01*
X102413000Y-80103128D01*
X102498890Y-80534925D01*
X102667369Y-80941669D01*
X102911962Y-81307729D01*
X103223271Y-81619038D01*
X103589331Y-81863631D01*
X103996075Y-82032110D01*
X104427872Y-82118000D01*
X104868128Y-82118000D01*
X105299925Y-82032110D01*
X105706669Y-81863631D01*
X106072729Y-81619038D01*
X106384038Y-81307729D01*
X106628631Y-80941669D01*
X106797110Y-80534925D01*
X106883000Y-80103128D01*
X106883000Y-79662872D01*
X106797110Y-79231075D01*
X106628631Y-78824331D01*
X106384038Y-78458271D01*
X106072729Y-78146962D01*
X105706669Y-77902369D01*
X105299925Y-77733890D01*
X104868128Y-77648000D01*
X104427872Y-77648000D01*
X103996075Y-77733890D01*
X103589331Y-77902369D01*
X103223271Y-78146962D01*
X102911962Y-78458271D01*
X102667369Y-78824331D01*
X102498890Y-79231075D01*
X102413000Y-79662872D01*
X101600000Y-79662872D01*
X101600000Y-76835000D01*
X166433500Y-76835000D01*
X166433500Y-122618500D01*
X166433500Y-122618500D01*
G37*
X166433500Y-122618500D02*
X101600000Y-122618500D01*
X101600000Y-119350372D01*
X102413000Y-119350372D01*
X102413000Y-119790628D01*
X102498890Y-120222425D01*
X102667369Y-120629169D01*
X102911962Y-120995229D01*
X103223271Y-121306538D01*
X103589331Y-121551131D01*
X103996075Y-121719610D01*
X104427872Y-121805500D01*
X104868128Y-121805500D01*
X105299925Y-121719610D01*
X105706669Y-121551131D01*
X106072729Y-121306538D01*
X106384038Y-120995229D01*
X106628631Y-120629169D01*
X106797110Y-120222425D01*
X106883000Y-119790628D01*
X106883000Y-119350372D01*
X161150500Y-119350372D01*
X161150500Y-119790628D01*
X161236390Y-120222425D01*
X161404869Y-120629169D01*
X161649462Y-120995229D01*
X161960771Y-121306538D01*
X162326831Y-121551131D01*
X162733575Y-121719610D01*
X163165372Y-121805500D01*
X163605628Y-121805500D01*
X164037425Y-121719610D01*
X164444169Y-121551131D01*
X164810229Y-121306538D01*
X165121538Y-120995229D01*
X165366131Y-120629169D01*
X165534610Y-120222425D01*
X165620500Y-119790628D01*
X165620500Y-119350372D01*
X165534610Y-118918575D01*
X165366131Y-118511831D01*
X165121538Y-118145771D01*
X164810229Y-117834462D01*
X164444169Y-117589869D01*
X164037425Y-117421390D01*
X163605628Y-117335500D01*
X163165372Y-117335500D01*
X162733575Y-117421390D01*
X162326831Y-117589869D01*
X161960771Y-117834462D01*
X161649462Y-118145771D01*
X161404869Y-118511831D01*
X161236390Y-118918575D01*
X161150500Y-119350372D01*
X106883000Y-119350372D01*
X106797110Y-118918575D01*
X106628631Y-118511831D01*
X106557582Y-118405499D01*
X116562181Y-118405499D01*
X116599503Y-118409175D01*
X116636825Y-118405499D01*
X116636836Y-118405499D01*
X116748489Y-118394502D01*
X116891750Y-118351045D01*
X117023779Y-118280473D01*
X117139504Y-118185500D01*
X117163306Y-118156497D01*
X117827252Y-117492551D01*
X117856251Y-117468753D01*
X117951224Y-117353028D01*
X118021796Y-117220998D01*
X118063384Y-117083896D01*
X118065252Y-117077739D01*
X118079926Y-116928753D01*
X118077925Y-116908438D01*
X118065252Y-116779766D01*
X118021796Y-116636505D01*
X117951224Y-116504476D01*
X117880049Y-116417749D01*
X117880039Y-116417739D01*
X117856250Y-116388752D01*
X117827263Y-116364963D01*
X115918051Y-114455752D01*
X115918047Y-114455747D01*
X115890005Y-114427706D01*
X115961187Y-114356524D01*
X116074455Y-114187006D01*
X116152476Y-113998648D01*
X116192250Y-113798689D01*
X116192250Y-113594811D01*
X116152476Y-113394852D01*
X116098521Y-113264595D01*
X117074785Y-112288332D01*
X117076675Y-112297831D01*
X117207463Y-112613581D01*
X117397337Y-112897748D01*
X117639002Y-113139413D01*
X117923169Y-113329287D01*
X118238919Y-113460075D01*
X118574117Y-113526750D01*
X118915883Y-113526750D01*
X119251081Y-113460075D01*
X119566831Y-113329287D01*
X119850998Y-113139413D01*
X120092663Y-112897748D01*
X120282537Y-112613581D01*
X120413325Y-112297831D01*
X120480000Y-111962633D01*
X120480000Y-111620867D01*
X120413325Y-111285669D01*
X120282537Y-110969919D01*
X120126739Y-110736750D01*
X120161260Y-110736750D01*
X120448158Y-110679682D01*
X120718411Y-110567740D01*
X120961632Y-110405225D01*
X121168475Y-110198382D01*
X121330990Y-109955161D01*
X121442932Y-109684908D01*
X121500000Y-109398010D01*
X121500000Y-109303301D01*
X123033251Y-110836553D01*
X123033250Y-113532427D01*
X123029574Y-113569750D01*
X123033250Y-113607072D01*
X123033250Y-113607082D01*
X123044247Y-113718735D01*
X123069801Y-113802976D01*
X123087704Y-113861996D01*
X123158276Y-113994026D01*
X123198121Y-114042576D01*
X123253249Y-114109751D01*
X123282252Y-114133554D01*
X123901250Y-114752552D01*
X123901250Y-114814689D01*
X123941024Y-115014648D01*
X124019045Y-115203006D01*
X124132313Y-115372524D01*
X124276476Y-115516687D01*
X124445994Y-115629955D01*
X124634352Y-115707976D01*
X124834311Y-115747750D01*
X125038189Y-115747750D01*
X125238148Y-115707976D01*
X125426506Y-115629955D01*
X125596024Y-115516687D01*
X125740187Y-115372524D01*
X125853455Y-115203006D01*
X125931476Y-115014648D01*
X125971250Y-114814689D01*
X125971250Y-114610811D01*
X125931476Y-114410852D01*
X125853455Y-114222494D01*
X125740187Y-114052976D01*
X125596024Y-113908813D01*
X125426506Y-113795545D01*
X125238148Y-113717524D01*
X125038189Y-113677750D01*
X124976052Y-113677750D01*
X124553250Y-113254949D01*
X124553250Y-110559075D01*
X124556926Y-110521750D01*
X124553250Y-110484425D01*
X124553250Y-110484417D01*
X124542253Y-110372764D01*
X124498796Y-110229503D01*
X124450287Y-110138750D01*
X124994539Y-110138750D01*
X125038476Y-110182687D01*
X125207994Y-110295955D01*
X125228575Y-110304480D01*
X125211024Y-110346852D01*
X125171250Y-110546811D01*
X125171250Y-110750689D01*
X125211024Y-110950648D01*
X125289045Y-111139006D01*
X125402313Y-111308524D01*
X125546476Y-111452687D01*
X125715994Y-111565955D01*
X125904352Y-111643976D01*
X126104311Y-111683750D01*
X126308189Y-111683750D01*
X126508148Y-111643976D01*
X126696506Y-111565955D01*
X126866024Y-111452687D01*
X127010187Y-111308524D01*
X127123455Y-111139006D01*
X127201476Y-110950648D01*
X127230343Y-110805525D01*
X127794505Y-110241362D01*
X127958368Y-110405225D01*
X128201589Y-110567740D01*
X128471842Y-110679682D01*
X128758740Y-110736750D01*
X129051260Y-110736750D01*
X129338158Y-110679682D01*
X129608411Y-110567740D01*
X129851632Y-110405225D01*
X130018250Y-110238607D01*
X130018250Y-110992427D01*
X130014574Y-111029750D01*
X130018250Y-111067072D01*
X130018250Y-111067082D01*
X130029247Y-111178735D01*
X130049501Y-111245504D01*
X130072704Y-111321996D01*
X130143276Y-111454026D01*
X130160080Y-111474501D01*
X130238249Y-111569751D01*
X130267252Y-111593553D01*
X130685001Y-112011303D01*
X130685001Y-112768602D01*
X130623169Y-112794213D01*
X130339002Y-112984087D01*
X130097337Y-113225752D01*
X129907463Y-113509919D01*
X129776675Y-113825669D01*
X129710000Y-114160867D01*
X129710000Y-114502633D01*
X129776675Y-114837831D01*
X129907463Y-115153581D01*
X130097337Y-115437748D01*
X130339002Y-115679413D01*
X130623169Y-115869287D01*
X130938919Y-116000075D01*
X131167736Y-116045589D01*
X131134476Y-116067813D01*
X130990313Y-116211976D01*
X130877045Y-116381494D01*
X130799024Y-116569852D01*
X130759250Y-116769811D01*
X130759250Y-116973689D01*
X130799024Y-117173648D01*
X130877045Y-117362006D01*
X130990313Y-117531524D01*
X131134476Y-117675687D01*
X131303994Y-117788955D01*
X131492352Y-117866976D01*
X131692311Y-117906750D01*
X131896189Y-117906750D01*
X132096148Y-117866976D01*
X132284506Y-117788955D01*
X132407535Y-117706750D01*
X134968138Y-117706750D01*
X135048352Y-117739976D01*
X135193474Y-117768842D01*
X135307821Y-117883190D01*
X135333968Y-117915050D01*
X135365827Y-117941196D01*
X135365829Y-117941198D01*
X135461113Y-118019395D01*
X135606172Y-118096931D01*
X135763570Y-118144677D01*
X135927259Y-118160799D01*
X135968277Y-118156759D01*
X148246870Y-118156759D01*
X148321994Y-118206955D01*
X148510352Y-118284976D01*
X148710311Y-118324750D01*
X148914189Y-118324750D01*
X149114148Y-118284976D01*
X149302506Y-118206955D01*
X149472024Y-118093687D01*
X149616187Y-117949524D01*
X149729455Y-117780006D01*
X149807476Y-117591648D01*
X149809174Y-117583111D01*
X149933264Y-117620753D01*
X150044917Y-117631750D01*
X150044926Y-117631750D01*
X150082249Y-117635426D01*
X150119572Y-117631750D01*
X151949928Y-117631750D01*
X151987250Y-117635426D01*
X152024572Y-117631750D01*
X152024583Y-117631750D01*
X152136236Y-117620753D01*
X152279497Y-117577296D01*
X152411526Y-117506724D01*
X152527251Y-117411751D01*
X152551053Y-117382748D01*
X153006252Y-116927550D01*
X153035251Y-116903751D01*
X153130224Y-116788026D01*
X153200796Y-116655997D01*
X153244253Y-116512736D01*
X153255250Y-116401083D01*
X153255250Y-116401074D01*
X153258926Y-116363751D01*
X153255250Y-116326428D01*
X153255250Y-114904461D01*
X153359476Y-115008687D01*
X153528994Y-115121955D01*
X153717352Y-115199976D01*
X153917311Y-115239750D01*
X154121189Y-115239750D01*
X154321148Y-115199976D01*
X154509506Y-115121955D01*
X154679024Y-115008687D01*
X154823187Y-114864524D01*
X154936455Y-114695006D01*
X155014476Y-114506648D01*
X155054250Y-114306689D01*
X155054250Y-114102811D01*
X155014476Y-113902852D01*
X154936455Y-113714494D01*
X154854250Y-113591465D01*
X154854250Y-112743365D01*
X155212733Y-112384882D01*
X155307463Y-112613581D01*
X155497337Y-112897748D01*
X155739002Y-113139413D01*
X156023169Y-113329287D01*
X156338919Y-113460075D01*
X156674117Y-113526750D01*
X157015883Y-113526750D01*
X157351081Y-113460075D01*
X157666831Y-113329287D01*
X157950998Y-113139413D01*
X158192663Y-112897748D01*
X158382537Y-112613581D01*
X158513325Y-112297831D01*
X158580000Y-111962633D01*
X158580000Y-111620867D01*
X158513325Y-111285669D01*
X158382537Y-110969919D01*
X158226739Y-110736750D01*
X158261260Y-110736750D01*
X158548158Y-110679682D01*
X158818411Y-110567740D01*
X159061632Y-110405225D01*
X159268475Y-110198382D01*
X159430990Y-109955161D01*
X159542932Y-109684908D01*
X159600000Y-109398010D01*
X159600000Y-109105490D01*
X159542932Y-108818592D01*
X159430990Y-108548339D01*
X159268475Y-108305118D01*
X159061632Y-108098275D01*
X158818411Y-107935760D01*
X158548158Y-107823818D01*
X158261260Y-107766750D01*
X157968740Y-107766750D01*
X157681842Y-107823818D01*
X157411589Y-107935760D01*
X157168368Y-108098275D01*
X156961525Y-108305118D01*
X156799010Y-108548339D01*
X156687068Y-108818592D01*
X156630000Y-109105490D01*
X156630000Y-109398010D01*
X156687068Y-109684908D01*
X156799010Y-109955161D01*
X156866890Y-110056750D01*
X156674117Y-110056750D01*
X156378250Y-110115602D01*
X156378250Y-105039035D01*
X156460455Y-104916006D01*
X156538476Y-104727648D01*
X156578250Y-104527689D01*
X156578250Y-104323811D01*
X156538476Y-104123852D01*
X156460455Y-103935494D01*
X156377490Y-103811327D01*
X156375463Y-103790750D01*
X156366168Y-103696376D01*
X156318422Y-103538978D01*
X156245000Y-103401616D01*
X156245000Y-102296880D01*
X156316320Y-102335002D01*
X156436018Y-102371312D01*
X156560500Y-102383572D01*
X156749750Y-102380500D01*
X156908500Y-102221750D01*
X156908500Y-101435000D01*
X157162500Y-101435000D01*
X157162500Y-102221750D01*
X157321250Y-102380500D01*
X157510500Y-102383572D01*
X157634982Y-102371312D01*
X157754680Y-102335002D01*
X157864994Y-102276037D01*
X157961685Y-102196685D01*
X158041037Y-102099994D01*
X158100002Y-101989680D01*
X158136312Y-101869982D01*
X158148572Y-101745500D01*
X158145500Y-101593750D01*
X157986750Y-101435000D01*
X157162500Y-101435000D01*
X156908500Y-101435000D01*
X156888500Y-101435000D01*
X156888500Y-101181000D01*
X156908500Y-101181000D01*
X156908500Y-101161000D01*
X157162500Y-101161000D01*
X157162500Y-101181000D01*
X157986750Y-101181000D01*
X158145500Y-101022250D01*
X158148572Y-100870500D01*
X158136312Y-100746018D01*
X158100002Y-100626320D01*
X158041037Y-100516006D01*
X157986400Y-100449430D01*
X158004171Y-100427775D01*
X158083350Y-100279642D01*
X158132108Y-100118908D01*
X158148572Y-99951750D01*
X158148572Y-99514250D01*
X158132108Y-99347092D01*
X158083350Y-99186358D01*
X158004171Y-99038225D01*
X157897615Y-98908385D01*
X157767775Y-98801829D01*
X157619642Y-98722650D01*
X157458908Y-98673892D01*
X157291750Y-98657428D01*
X157140796Y-98657428D01*
X155457363Y-96973996D01*
X155457363Y-96560870D01*
X155461402Y-96519862D01*
X155457363Y-96478854D01*
X155457363Y-96478844D01*
X155445281Y-96356174D01*
X155397535Y-96198776D01*
X155319999Y-96053717D01*
X155215654Y-95926572D01*
X155183790Y-95900422D01*
X154508881Y-95225514D01*
X154552024Y-95196687D01*
X154696187Y-95052524D01*
X154809455Y-94883006D01*
X154887476Y-94694648D01*
X154927250Y-94494689D01*
X154927250Y-94290811D01*
X154887476Y-94090852D01*
X154809455Y-93902494D01*
X154696187Y-93732976D01*
X154552024Y-93588813D01*
X154382506Y-93475545D01*
X154194148Y-93397524D01*
X153994189Y-93357750D01*
X153790311Y-93357750D01*
X153590352Y-93397524D01*
X153401994Y-93475545D01*
X153278965Y-93557750D01*
X152917268Y-93557750D01*
X152876250Y-93553710D01*
X152840591Y-93557222D01*
X151843818Y-92560450D01*
X152266399Y-92735489D01*
X152775475Y-92836750D01*
X153294525Y-92836750D01*
X153803601Y-92735489D01*
X154201033Y-92570867D01*
X155110000Y-92570867D01*
X155110000Y-92912633D01*
X155176675Y-93247831D01*
X155307463Y-93563581D01*
X155497337Y-93847748D01*
X155739002Y-94089413D01*
X156023169Y-94279287D01*
X156338919Y-94410075D01*
X156674117Y-94476750D01*
X157015883Y-94476750D01*
X157351081Y-94410075D01*
X157666831Y-94279287D01*
X157950998Y-94089413D01*
X158192663Y-93847748D01*
X158382537Y-93563581D01*
X158513325Y-93247831D01*
X158580000Y-92912633D01*
X158580000Y-92570867D01*
X158513325Y-92235669D01*
X158382537Y-91919919D01*
X158226739Y-91686750D01*
X158261260Y-91686750D01*
X158548158Y-91629682D01*
X158818411Y-91517740D01*
X159061632Y-91355225D01*
X159268475Y-91148382D01*
X159430990Y-90905161D01*
X159542932Y-90634908D01*
X159600000Y-90348010D01*
X159600000Y-90055490D01*
X159542932Y-89768592D01*
X159430990Y-89498339D01*
X159268475Y-89255118D01*
X159061632Y-89048275D01*
X158818411Y-88885760D01*
X158548158Y-88773818D01*
X158261260Y-88716750D01*
X157968740Y-88716750D01*
X157681842Y-88773818D01*
X157411589Y-88885760D01*
X157168368Y-89048275D01*
X156961525Y-89255118D01*
X156799010Y-89498339D01*
X156687068Y-89768592D01*
X156630000Y-90055490D01*
X156630000Y-90348010D01*
X156687068Y-90634908D01*
X156799010Y-90905161D01*
X156866890Y-91006750D01*
X156674117Y-91006750D01*
X156338919Y-91073425D01*
X156023169Y-91204213D01*
X155739002Y-91394087D01*
X155497337Y-91635752D01*
X155307463Y-91919919D01*
X155176675Y-92235669D01*
X155110000Y-92570867D01*
X154201033Y-92570867D01*
X154283141Y-92536857D01*
X154714715Y-92248488D01*
X155081738Y-91881465D01*
X155370107Y-91449891D01*
X155568739Y-90970351D01*
X155670000Y-90461275D01*
X155670000Y-89942225D01*
X155568739Y-89433149D01*
X155370107Y-88953609D01*
X155081738Y-88522035D01*
X154714715Y-88155012D01*
X154283141Y-87866643D01*
X153803601Y-87668011D01*
X153500647Y-87607750D01*
X157661232Y-87607750D01*
X157702250Y-87611790D01*
X157743268Y-87607750D01*
X157743269Y-87607750D01*
X157865939Y-87595668D01*
X158023337Y-87547922D01*
X158168396Y-87470386D01*
X158295541Y-87366041D01*
X158321696Y-87334171D01*
X160676677Y-84979191D01*
X160708541Y-84953041D01*
X160812886Y-84825896D01*
X160890422Y-84680837D01*
X160938168Y-84523439D01*
X160950250Y-84400769D01*
X160950250Y-84400759D01*
X160954289Y-84359751D01*
X160950250Y-84318743D01*
X160950250Y-82241768D01*
X160954290Y-82200750D01*
X160949063Y-82147677D01*
X160938168Y-82037061D01*
X160890422Y-81879663D01*
X160812886Y-81734604D01*
X160786394Y-81702323D01*
X160734689Y-81639320D01*
X160734687Y-81639318D01*
X160708541Y-81607459D01*
X160676683Y-81581314D01*
X159216946Y-80121578D01*
X159190791Y-80089709D01*
X159063646Y-79985364D01*
X158918587Y-79907828D01*
X158761189Y-79860082D01*
X158638519Y-79848000D01*
X158638518Y-79848000D01*
X158597500Y-79843960D01*
X158556482Y-79848000D01*
X157884961Y-79848000D01*
X157767775Y-79751829D01*
X157619642Y-79672650D01*
X157587409Y-79662872D01*
X161150500Y-79662872D01*
X161150500Y-80103128D01*
X161236390Y-80534925D01*
X161404869Y-80941669D01*
X161649462Y-81307729D01*
X161960771Y-81619038D01*
X162326831Y-81863631D01*
X162733575Y-82032110D01*
X163165372Y-82118000D01*
X163605628Y-82118000D01*
X164037425Y-82032110D01*
X164444169Y-81863631D01*
X164810229Y-81619038D01*
X165121538Y-81307729D01*
X165366131Y-80941669D01*
X165534610Y-80534925D01*
X165620500Y-80103128D01*
X165620500Y-79662872D01*
X165534610Y-79231075D01*
X165366131Y-78824331D01*
X165121538Y-78458271D01*
X164810229Y-78146962D01*
X164444169Y-77902369D01*
X164037425Y-77733890D01*
X163605628Y-77648000D01*
X163165372Y-77648000D01*
X162733575Y-77733890D01*
X162326831Y-77902369D01*
X161960771Y-78146962D01*
X161649462Y-78458271D01*
X161404869Y-78824331D01*
X161236390Y-79231075D01*
X161150500Y-79662872D01*
X157587409Y-79662872D01*
X157458908Y-79623892D01*
X157291750Y-79607428D01*
X156779250Y-79607428D01*
X156612092Y-79623892D01*
X156451358Y-79672650D01*
X156303225Y-79751829D01*
X156186039Y-79848000D01*
X154245257Y-79848000D01*
X154204249Y-79843961D01*
X154163241Y-79848000D01*
X154163231Y-79848000D01*
X154040561Y-79860082D01*
X153966896Y-79882428D01*
X153588482Y-79882428D01*
X152982805Y-79276752D01*
X152959003Y-79247749D01*
X152843278Y-79152776D01*
X152711249Y-79082204D01*
X152567988Y-79038747D01*
X152456335Y-79027750D01*
X152456324Y-79027750D01*
X152419002Y-79024074D01*
X152381680Y-79027750D01*
X139094052Y-79027750D01*
X137565054Y-77498753D01*
X137541251Y-77469749D01*
X137425526Y-77374776D01*
X137293497Y-77304204D01*
X137150236Y-77260747D01*
X137038583Y-77249750D01*
X137038572Y-77249750D01*
X137001250Y-77246074D01*
X136963928Y-77249750D01*
X135006572Y-77249750D01*
X134969249Y-77246074D01*
X134931926Y-77249750D01*
X134931917Y-77249750D01*
X134820264Y-77260747D01*
X134677003Y-77304204D01*
X134544974Y-77374776D01*
X134429249Y-77469749D01*
X134405451Y-77498748D01*
X133738498Y-78165701D01*
X133709500Y-78189499D01*
X133685702Y-78218497D01*
X133685701Y-78218498D01*
X133614526Y-78305224D01*
X133543954Y-78437254D01*
X133500498Y-78580515D01*
X133485824Y-78729500D01*
X133489501Y-78766832D01*
X133489500Y-79472948D01*
X133080021Y-79882428D01*
X132516750Y-79882428D01*
X132392268Y-79894688D01*
X132272570Y-79930998D01*
X132162256Y-79989963D01*
X132065565Y-80069315D01*
X131986213Y-80166006D01*
X131927248Y-80276320D01*
X131890938Y-80396018D01*
X131878678Y-80520500D01*
X131878678Y-81120500D01*
X131890938Y-81244982D01*
X131927248Y-81364680D01*
X131983811Y-81470500D01*
X131927248Y-81576320D01*
X131890938Y-81696018D01*
X131878678Y-81820500D01*
X131881750Y-81834750D01*
X132040500Y-81993500D01*
X132889750Y-81993500D01*
X132889750Y-81973500D01*
X133143750Y-81973500D01*
X133143750Y-81993500D01*
X133163750Y-81993500D01*
X133163750Y-82247500D01*
X133143750Y-82247500D01*
X133143750Y-82896750D01*
X133302500Y-83055500D01*
X133516750Y-83058572D01*
X133641232Y-83046312D01*
X133760930Y-83010002D01*
X133871244Y-82951037D01*
X133967935Y-82871685D01*
X134016750Y-82812204D01*
X134065565Y-82871685D01*
X134162256Y-82951037D01*
X134272570Y-83010002D01*
X134392268Y-83046312D01*
X134516750Y-83058572D01*
X135352250Y-83058572D01*
X135352251Y-85060947D01*
X135035449Y-85377750D01*
X129442052Y-85377750D01*
X126960553Y-82896252D01*
X126960549Y-82896247D01*
X126484802Y-82420500D01*
X131878678Y-82420500D01*
X131890938Y-82544982D01*
X131927248Y-82664680D01*
X131986213Y-82774994D01*
X132065565Y-82871685D01*
X132162256Y-82951037D01*
X132272570Y-83010002D01*
X132392268Y-83046312D01*
X132516750Y-83058572D01*
X132731000Y-83055500D01*
X132889750Y-82896750D01*
X132889750Y-82247500D01*
X132040500Y-82247500D01*
X131881750Y-82406250D01*
X131878678Y-82420500D01*
X126484802Y-82420500D01*
X121182054Y-77117753D01*
X121158251Y-77088749D01*
X121042526Y-76993776D01*
X120910497Y-76923204D01*
X120767236Y-76879747D01*
X120655583Y-76868750D01*
X120655572Y-76868750D01*
X120618250Y-76865074D01*
X120580928Y-76868750D01*
X117395822Y-76868750D01*
X117358499Y-76865074D01*
X117321176Y-76868750D01*
X117321167Y-76868750D01*
X117209514Y-76879747D01*
X117066253Y-76923204D01*
X116934223Y-76993776D01*
X116904018Y-77018565D01*
X116818499Y-77088749D01*
X116794701Y-77117747D01*
X115900699Y-78011750D01*
X114813573Y-78011750D01*
X114776250Y-78008074D01*
X114738927Y-78011750D01*
X114738917Y-78011750D01*
X114627264Y-78022747D01*
X114484003Y-78066204D01*
X114351973Y-78136776D01*
X114313012Y-78168751D01*
X114236249Y-78231749D01*
X114212451Y-78260748D01*
X113455752Y-79017447D01*
X113426749Y-79041249D01*
X113371621Y-79108424D01*
X113331776Y-79156974D01*
X113264545Y-79282753D01*
X113261204Y-79289004D01*
X113217747Y-79432265D01*
X113206750Y-79543918D01*
X113206750Y-79543928D01*
X113203074Y-79581250D01*
X113206750Y-79618573D01*
X113206750Y-79939454D01*
X113112256Y-79989963D01*
X113015565Y-80069315D01*
X112936213Y-80166006D01*
X112877248Y-80276320D01*
X112840938Y-80396018D01*
X112828678Y-80520500D01*
X112828678Y-81120500D01*
X112840938Y-81244982D01*
X112877248Y-81364680D01*
X112933811Y-81470500D01*
X112877248Y-81576320D01*
X112840938Y-81696018D01*
X112828678Y-81820500D01*
X112831750Y-81834750D01*
X112990500Y-81993500D01*
X113839750Y-81993500D01*
X113839750Y-81973500D01*
X114093750Y-81973500D01*
X114093750Y-81993500D01*
X114113750Y-81993500D01*
X114113750Y-82247500D01*
X114093750Y-82247500D01*
X114093750Y-82896750D01*
X114252500Y-83055500D01*
X114466750Y-83058572D01*
X114591232Y-83046312D01*
X114710930Y-83010002D01*
X114821244Y-82951037D01*
X114917935Y-82871685D01*
X114966750Y-82812204D01*
X115015565Y-82871685D01*
X115112256Y-82951037D01*
X115222570Y-83010002D01*
X115342268Y-83046312D01*
X115466750Y-83058572D01*
X115629717Y-83058572D01*
X115623313Y-83064976D01*
X115510045Y-83234494D01*
X115432024Y-83422852D01*
X115392250Y-83622811D01*
X115392250Y-83826689D01*
X115432024Y-84026648D01*
X115510045Y-84215006D01*
X115623313Y-84384524D01*
X115767476Y-84528687D01*
X115936994Y-84641955D01*
X116125352Y-84719976D01*
X116325311Y-84759750D01*
X116529189Y-84759750D01*
X116535352Y-84758524D01*
X119513000Y-84758524D01*
X119513000Y-84957476D01*
X119551814Y-85152606D01*
X119627950Y-85336414D01*
X119738482Y-85501837D01*
X119879163Y-85642518D01*
X120044586Y-85753050D01*
X120228394Y-85829186D01*
X120423524Y-85868000D01*
X120622476Y-85868000D01*
X120817606Y-85829186D01*
X121001414Y-85753050D01*
X121166837Y-85642518D01*
X121307518Y-85501837D01*
X121418050Y-85336414D01*
X121494186Y-85152606D01*
X121533000Y-84957476D01*
X121533000Y-84758524D01*
X121494186Y-84563394D01*
X121418050Y-84379586D01*
X121307518Y-84214163D01*
X121166837Y-84073482D01*
X121001414Y-83962950D01*
X120817606Y-83886814D01*
X120622476Y-83848000D01*
X120423524Y-83848000D01*
X120228394Y-83886814D01*
X120044586Y-83962950D01*
X119879163Y-84073482D01*
X119738482Y-84214163D01*
X119627950Y-84379586D01*
X119551814Y-84563394D01*
X119513000Y-84758524D01*
X116535352Y-84758524D01*
X116729148Y-84719976D01*
X116917506Y-84641955D01*
X117087024Y-84528687D01*
X117231187Y-84384524D01*
X117344455Y-84215006D01*
X117422476Y-84026648D01*
X117462250Y-83826689D01*
X117462250Y-83622811D01*
X117422476Y-83422852D01*
X117344455Y-83234494D01*
X117231187Y-83064976D01*
X117187250Y-83021039D01*
X117187250Y-82695500D01*
X117822428Y-82695500D01*
X117834688Y-82819982D01*
X117870998Y-82939680D01*
X117929963Y-83049994D01*
X118009315Y-83146685D01*
X118106006Y-83226037D01*
X118216320Y-83285002D01*
X118336018Y-83321312D01*
X118460500Y-83333572D01*
X118649750Y-83330500D01*
X118808500Y-83171750D01*
X118808500Y-82385000D01*
X119062500Y-82385000D01*
X119062500Y-83171750D01*
X119221250Y-83330500D01*
X119410500Y-83333572D01*
X119534982Y-83321312D01*
X119654680Y-83285002D01*
X119764994Y-83226037D01*
X119861685Y-83146685D01*
X119941037Y-83049994D01*
X120000002Y-82939680D01*
X120036312Y-82819982D01*
X120048572Y-82695500D01*
X120045500Y-82543750D01*
X119886750Y-82385000D01*
X119062500Y-82385000D01*
X118808500Y-82385000D01*
X117984250Y-82385000D01*
X117825500Y-82543750D01*
X117822428Y-82695500D01*
X117187250Y-82695500D01*
X117187250Y-82618322D01*
X117190926Y-82580999D01*
X117187250Y-82543676D01*
X117187250Y-82543667D01*
X117176253Y-82432014D01*
X117132796Y-82288753D01*
X117104822Y-82236418D01*
X117104822Y-81820500D01*
X117092562Y-81696018D01*
X117056252Y-81576320D01*
X117025079Y-81518000D01*
X117902171Y-81518000D01*
X117870998Y-81576320D01*
X117834688Y-81696018D01*
X117822428Y-81820500D01*
X117825500Y-81972250D01*
X117984250Y-82131000D01*
X118808500Y-82131000D01*
X118808500Y-82111000D01*
X119062500Y-82111000D01*
X119062500Y-82131000D01*
X119886750Y-82131000D01*
X120045500Y-81972250D01*
X120048572Y-81820500D01*
X120036312Y-81696018D01*
X120000002Y-81576320D01*
X119941037Y-81466006D01*
X119886400Y-81399430D01*
X119904171Y-81377775D01*
X119983350Y-81229642D01*
X120032108Y-81068908D01*
X120048572Y-80901750D01*
X120048572Y-80464250D01*
X120032108Y-80297092D01*
X119983350Y-80136358D01*
X119904171Y-79988225D01*
X119797615Y-79858385D01*
X119770500Y-79836132D01*
X119770500Y-79522537D01*
X119881024Y-79448687D01*
X120025187Y-79304524D01*
X120138455Y-79135006D01*
X120216476Y-78946648D01*
X120256250Y-78746689D01*
X120256250Y-78542811D01*
X120225606Y-78388750D01*
X120303449Y-78388750D01*
X125885747Y-83971049D01*
X125885752Y-83971053D01*
X128435448Y-86520750D01*
X128402573Y-86520750D01*
X128365250Y-86517074D01*
X128327927Y-86520750D01*
X128327917Y-86520750D01*
X128216264Y-86531747D01*
X128073003Y-86575204D01*
X127940974Y-86645776D01*
X127825249Y-86740749D01*
X127801451Y-86769747D01*
X120938449Y-93632750D01*
X120236320Y-93632750D01*
X120282537Y-93563581D01*
X120413325Y-93247831D01*
X120480000Y-92912633D01*
X120480000Y-92570867D01*
X120413325Y-92235669D01*
X120282537Y-91919919D01*
X120126739Y-91686750D01*
X120161260Y-91686750D01*
X120448158Y-91629682D01*
X120718411Y-91517740D01*
X120961632Y-91355225D01*
X121168475Y-91148382D01*
X121330990Y-90905161D01*
X121442932Y-90634908D01*
X121500000Y-90348010D01*
X121500000Y-90055490D01*
X121442932Y-89768592D01*
X121330990Y-89498339D01*
X121168475Y-89255118D01*
X120961632Y-89048275D01*
X120718411Y-88885760D01*
X120448158Y-88773818D01*
X120161260Y-88716750D01*
X119868740Y-88716750D01*
X119581842Y-88773818D01*
X119311589Y-88885760D01*
X119068368Y-89048275D01*
X118861525Y-89255118D01*
X118699010Y-89498339D01*
X118587068Y-89768592D01*
X118530000Y-90055490D01*
X118530000Y-90348010D01*
X118587068Y-90634908D01*
X118699010Y-90905161D01*
X118766890Y-91006750D01*
X118574117Y-91006750D01*
X118238919Y-91073425D01*
X117923169Y-91204213D01*
X117639002Y-91394087D01*
X117397337Y-91635752D01*
X117207463Y-91919919D01*
X117076675Y-92235669D01*
X117010000Y-92570867D01*
X117010000Y-92912633D01*
X117076675Y-93247831D01*
X117207463Y-93563581D01*
X117253680Y-93632750D01*
X116845575Y-93632750D01*
X116808250Y-93629074D01*
X116770925Y-93632750D01*
X116770917Y-93632750D01*
X116659264Y-93643747D01*
X116516003Y-93687204D01*
X116383974Y-93757776D01*
X116268249Y-93852749D01*
X116244451Y-93881747D01*
X113751146Y-96375053D01*
X113932537Y-96103581D01*
X114063325Y-95787831D01*
X114130000Y-95452633D01*
X114130000Y-95110867D01*
X114063325Y-94775669D01*
X113932537Y-94459919D01*
X113742663Y-94175752D01*
X113500998Y-93934087D01*
X113216831Y-93744213D01*
X112901081Y-93613425D01*
X112565883Y-93546750D01*
X112224117Y-93546750D01*
X111888919Y-93613425D01*
X111573169Y-93744213D01*
X111289002Y-93934087D01*
X111047337Y-94175752D01*
X110857463Y-94459919D01*
X110726675Y-94775669D01*
X110660000Y-95110867D01*
X110660000Y-95452633D01*
X110726675Y-95787831D01*
X110752286Y-95849662D01*
X109439248Y-97162701D01*
X109410250Y-97186499D01*
X109386452Y-97215497D01*
X109386451Y-97215498D01*
X109315276Y-97302224D01*
X109244704Y-97434254D01*
X109221136Y-97511951D01*
X109201248Y-97577514D01*
X109191825Y-97673186D01*
X109186574Y-97726500D01*
X109190251Y-97763832D01*
X109190250Y-102102427D01*
X109186574Y-102139750D01*
X109190250Y-102177072D01*
X109190250Y-102177082D01*
X109201247Y-102288735D01*
X109240166Y-102417036D01*
X109244704Y-102431996D01*
X109315276Y-102564026D01*
X109346389Y-102601937D01*
X109410249Y-102679751D01*
X109439253Y-102703554D01*
X110841251Y-104105553D01*
X110841250Y-104865039D01*
X110797313Y-104908976D01*
X110684045Y-105078494D01*
X110606024Y-105266852D01*
X110566250Y-105466811D01*
X110566250Y-105670689D01*
X110606024Y-105870648D01*
X110684045Y-106059006D01*
X110797313Y-106228524D01*
X110841251Y-106272462D01*
X110841250Y-108137893D01*
X110801632Y-108098275D01*
X110558411Y-107935760D01*
X110288158Y-107823818D01*
X110001260Y-107766750D01*
X109708740Y-107766750D01*
X109421842Y-107823818D01*
X109151589Y-107935760D01*
X108908368Y-108098275D01*
X108701525Y-108305118D01*
X108539010Y-108548339D01*
X108427068Y-108818592D01*
X108370000Y-109105490D01*
X108370000Y-109398010D01*
X108427068Y-109684908D01*
X108539010Y-109955161D01*
X108701525Y-110198382D01*
X108908368Y-110405225D01*
X109151589Y-110567740D01*
X109421842Y-110679682D01*
X109708740Y-110736750D01*
X110001260Y-110736750D01*
X110288158Y-110679682D01*
X110558411Y-110567740D01*
X110801632Y-110405225D01*
X110867346Y-110339511D01*
X110886135Y-110401451D01*
X110895704Y-110432996D01*
X110966276Y-110565026D01*
X110987646Y-110591065D01*
X111061249Y-110680751D01*
X111090252Y-110704553D01*
X111635001Y-111249303D01*
X111635000Y-112768602D01*
X111573169Y-112794213D01*
X111289002Y-112984087D01*
X111047337Y-113225752D01*
X110857463Y-113509919D01*
X110726675Y-113825669D01*
X110660000Y-114160867D01*
X110660000Y-114502633D01*
X110726675Y-114837831D01*
X110857463Y-115153581D01*
X111047337Y-115437748D01*
X111289002Y-115679413D01*
X111443657Y-115782750D01*
X106994118Y-115782750D01*
X106275343Y-115063975D01*
X106246476Y-114918852D01*
X106168455Y-114730494D01*
X106055187Y-114560976D01*
X105911024Y-114416813D01*
X105741506Y-114303545D01*
X105553148Y-114225524D01*
X105353189Y-114185750D01*
X105149311Y-114185750D01*
X104949352Y-114225524D01*
X104760994Y-114303545D01*
X104591476Y-114416813D01*
X104447313Y-114560976D01*
X104360250Y-114691275D01*
X104360250Y-93437551D01*
X107742311Y-90055490D01*
X108370000Y-90055490D01*
X108370000Y-90348010D01*
X108427068Y-90634908D01*
X108539010Y-90905161D01*
X108701525Y-91148382D01*
X108908368Y-91355225D01*
X109151589Y-91517740D01*
X109421842Y-91629682D01*
X109708740Y-91686750D01*
X110001260Y-91686750D01*
X110288158Y-91629682D01*
X110558411Y-91517740D01*
X110801632Y-91355225D01*
X111008475Y-91148382D01*
X111170990Y-90905161D01*
X111282932Y-90634908D01*
X111340000Y-90348010D01*
X111340000Y-90055490D01*
X111317471Y-89942225D01*
X112300000Y-89942225D01*
X112300000Y-90461275D01*
X112401261Y-90970351D01*
X112599893Y-91449891D01*
X112888262Y-91881465D01*
X113255285Y-92248488D01*
X113686859Y-92536857D01*
X114166399Y-92735489D01*
X114675475Y-92836750D01*
X115194525Y-92836750D01*
X115703601Y-92735489D01*
X116183141Y-92536857D01*
X116614715Y-92248488D01*
X116981738Y-91881465D01*
X117270107Y-91449891D01*
X117468739Y-90970351D01*
X117570000Y-90461275D01*
X117570000Y-89942225D01*
X117468739Y-89433149D01*
X117270107Y-88953609D01*
X116981738Y-88522035D01*
X116614715Y-88155012D01*
X116183141Y-87866643D01*
X115703601Y-87668011D01*
X115194525Y-87566750D01*
X114675475Y-87566750D01*
X114166399Y-87668011D01*
X113686859Y-87866643D01*
X113255285Y-88155012D01*
X112888262Y-88522035D01*
X112599893Y-88953609D01*
X112401261Y-89433149D01*
X112300000Y-89942225D01*
X111317471Y-89942225D01*
X111282932Y-89768592D01*
X111170990Y-89498339D01*
X111008475Y-89255118D01*
X110801632Y-89048275D01*
X110558411Y-88885760D01*
X110288158Y-88773818D01*
X110001260Y-88716750D01*
X109708740Y-88716750D01*
X109421842Y-88773818D01*
X109151589Y-88885760D01*
X108908368Y-89048275D01*
X108701525Y-89255118D01*
X108539010Y-89498339D01*
X108427068Y-89768592D01*
X108370000Y-90055490D01*
X107742311Y-90055490D01*
X110289277Y-87508524D01*
X119513000Y-87508524D01*
X119513000Y-87707476D01*
X119551814Y-87902606D01*
X119627950Y-88086414D01*
X119738482Y-88251837D01*
X119879163Y-88392518D01*
X120044586Y-88503050D01*
X120228394Y-88579186D01*
X120423524Y-88618000D01*
X120622476Y-88618000D01*
X120817606Y-88579186D01*
X121001414Y-88503050D01*
X121166837Y-88392518D01*
X121307518Y-88251837D01*
X121418050Y-88086414D01*
X121494186Y-87902606D01*
X121533000Y-87707476D01*
X121533000Y-87508524D01*
X121494186Y-87313394D01*
X121418050Y-87129586D01*
X121307518Y-86964163D01*
X121166837Y-86823482D01*
X121001414Y-86712950D01*
X120817606Y-86636814D01*
X120622476Y-86598000D01*
X120423524Y-86598000D01*
X120228394Y-86636814D01*
X120044586Y-86712950D01*
X119879163Y-86823482D01*
X119738482Y-86964163D01*
X119627950Y-87129586D01*
X119551814Y-87313394D01*
X119513000Y-87508524D01*
X110289277Y-87508524D01*
X111768052Y-86029750D01*
X111830189Y-86029750D01*
X112030148Y-85989976D01*
X112218506Y-85911955D01*
X112388024Y-85798687D01*
X112532187Y-85654524D01*
X112645455Y-85485006D01*
X112723476Y-85296648D01*
X112763250Y-85096689D01*
X112763250Y-84892811D01*
X112723476Y-84692852D01*
X112645455Y-84504494D01*
X112532187Y-84334976D01*
X112388024Y-84190813D01*
X112218506Y-84077545D01*
X112030148Y-83999524D01*
X111830189Y-83959750D01*
X111626311Y-83959750D01*
X111426352Y-83999524D01*
X111237994Y-84077545D01*
X111068476Y-84190813D01*
X110924313Y-84334976D01*
X110811045Y-84504494D01*
X110733024Y-84692852D01*
X110693250Y-84892811D01*
X110693250Y-84954948D01*
X103089248Y-92558951D01*
X103060250Y-92582749D01*
X103036452Y-92611747D01*
X103036451Y-92611748D01*
X102965276Y-92698474D01*
X102894704Y-92830504D01*
X102867633Y-92919750D01*
X102851248Y-92973764D01*
X102846917Y-93017735D01*
X102836574Y-93122750D01*
X102840251Y-93160083D01*
X102840250Y-115183428D01*
X102836574Y-115220750D01*
X102840250Y-115258072D01*
X102840250Y-115258082D01*
X102851247Y-115369735D01*
X102879160Y-115461752D01*
X102894704Y-115512996D01*
X102965276Y-115645026D01*
X103005121Y-115693576D01*
X103060249Y-115760751D01*
X103089253Y-115784554D01*
X104640198Y-117335500D01*
X104427872Y-117335500D01*
X103996075Y-117421390D01*
X103589331Y-117589869D01*
X103223271Y-117834462D01*
X102911962Y-118145771D01*
X102667369Y-118511831D01*
X102498890Y-118918575D01*
X102413000Y-119350372D01*
X101600000Y-119350372D01*
X101600000Y-82420500D01*
X112828678Y-82420500D01*
X112840938Y-82544982D01*
X112877248Y-82664680D01*
X112936213Y-82774994D01*
X113015565Y-82871685D01*
X113112256Y-82951037D01*
X113222570Y-83010002D01*
X113342268Y-83046312D01*
X113466750Y-83058572D01*
X113681000Y-83055500D01*
X113839750Y-82896750D01*
X113839750Y-82247500D01*
X112990500Y-82247500D01*
X112831750Y-82406250D01*
X112828678Y-82420500D01*
X101600000Y-82420500D01*
X101600000Y-79662872D01*
X102413000Y-79662872D01*
X102413000Y-80103128D01*
X102498890Y-80534925D01*
X102667369Y-80941669D01*
X102911962Y-81307729D01*
X103223271Y-81619038D01*
X103589331Y-81863631D01*
X103996075Y-82032110D01*
X104427872Y-82118000D01*
X104868128Y-82118000D01*
X105299925Y-82032110D01*
X105706669Y-81863631D01*
X106072729Y-81619038D01*
X106384038Y-81307729D01*
X106628631Y-80941669D01*
X106797110Y-80534925D01*
X106883000Y-80103128D01*
X106883000Y-79662872D01*
X106797110Y-79231075D01*
X106628631Y-78824331D01*
X106384038Y-78458271D01*
X106072729Y-78146962D01*
X105706669Y-77902369D01*
X105299925Y-77733890D01*
X104868128Y-77648000D01*
X104427872Y-77648000D01*
X103996075Y-77733890D01*
X103589331Y-77902369D01*
X103223271Y-78146962D01*
X102911962Y-78458271D01*
X102667369Y-78824331D01*
X102498890Y-79231075D01*
X102413000Y-79662872D01*
X101600000Y-79662872D01*
X101600000Y-76835000D01*
X166433500Y-76835000D01*
X166433500Y-122618500D01*
G36*
X150082250Y-93326790D02*
G01*
X150123269Y-93322750D01*
X150244383Y-93322750D01*
X150468383Y-93546750D01*
X150324117Y-93546750D01*
X149988919Y-93613425D01*
X149673169Y-93744213D01*
X149389002Y-93934087D01*
X149147337Y-94175752D01*
X148957463Y-94459919D01*
X148826675Y-94775669D01*
X148760000Y-95110867D01*
X148760000Y-95452633D01*
X148826675Y-95787831D01*
X148852286Y-95849662D01*
X148047248Y-96654701D01*
X148018250Y-96678499D01*
X147994452Y-96707497D01*
X147994451Y-96707498D01*
X147923276Y-96794224D01*
X147852704Y-96926254D01*
X147824931Y-97017813D01*
X147809248Y-97069514D01*
X147799548Y-97167994D01*
X147794574Y-97218500D01*
X147798251Y-97255832D01*
X147798250Y-104388427D01*
X147794574Y-104425750D01*
X147798250Y-104463072D01*
X147798250Y-104463082D01*
X147809247Y-104574735D01*
X147841103Y-104679751D01*
X147852704Y-104717996D01*
X147923276Y-104850026D01*
X147957638Y-104891896D01*
X148018249Y-104965751D01*
X148047253Y-104989554D01*
X149068251Y-106010553D01*
X149068251Y-108264894D01*
X148901632Y-108098275D01*
X148658411Y-107935760D01*
X148388158Y-107823818D01*
X148101260Y-107766750D01*
X147808740Y-107766750D01*
X147521842Y-107823818D01*
X147251589Y-107935760D01*
X147008368Y-108098275D01*
X146801525Y-108305118D01*
X146639010Y-108548339D01*
X146527068Y-108818592D01*
X146470000Y-109105490D01*
X146470000Y-109398010D01*
X146527068Y-109684908D01*
X146639010Y-109955161D01*
X146801525Y-110198382D01*
X147008368Y-110405225D01*
X147251589Y-110567740D01*
X147521842Y-110679682D01*
X147808740Y-110736750D01*
X148101260Y-110736750D01*
X148388158Y-110679682D01*
X148658411Y-110567740D01*
X148901632Y-110405225D01*
X149068250Y-110238607D01*
X149068250Y-112072043D01*
X149064574Y-112109366D01*
X149068250Y-112146688D01*
X149068250Y-112146698D01*
X149079247Y-112258351D01*
X149116774Y-112382062D01*
X149122704Y-112401612D01*
X149193276Y-112533642D01*
X149215881Y-112561186D01*
X149288249Y-112649367D01*
X149317252Y-112673169D01*
X149532373Y-112888290D01*
X149389002Y-112984087D01*
X149147337Y-113225752D01*
X148957463Y-113509919D01*
X148826675Y-113825669D01*
X148760000Y-114160867D01*
X148760000Y-114474698D01*
X142137054Y-107851753D01*
X142113251Y-107822749D01*
X141997526Y-107727776D01*
X141865497Y-107657204D01*
X141722236Y-107613747D01*
X141610583Y-107602750D01*
X141610572Y-107602750D01*
X141573250Y-107599074D01*
X141535928Y-107602750D01*
X141380052Y-107602750D01*
X139523734Y-105746433D01*
X139569455Y-105678006D01*
X139647476Y-105489648D01*
X139687250Y-105289689D01*
X139687250Y-105085811D01*
X139647476Y-104885852D01*
X139569455Y-104697494D01*
X139456187Y-104527976D01*
X139312024Y-104383813D01*
X139142506Y-104270545D01*
X138954148Y-104192524D01*
X138800551Y-104161972D01*
X138800551Y-103412994D01*
X138844488Y-103369057D01*
X138957756Y-103199539D01*
X139035777Y-103011181D01*
X139075551Y-102811222D01*
X139075551Y-102607344D01*
X139035777Y-102407385D01*
X138957756Y-102219027D01*
X138931153Y-102179213D01*
X138991037Y-102106244D01*
X139050002Y-101995930D01*
X139086312Y-101876232D01*
X139098572Y-101751750D01*
X139095500Y-101600000D01*
X138936750Y-101441250D01*
X138112500Y-101441250D01*
X138112500Y-101461250D01*
X137858500Y-101461250D01*
X137858500Y-101441250D01*
X137034250Y-101441250D01*
X136875500Y-101600000D01*
X136872428Y-101751750D01*
X136884688Y-101876232D01*
X136920998Y-101995930D01*
X136979963Y-102106244D01*
X137059315Y-102202935D01*
X137112076Y-102246235D01*
X137045325Y-102407385D01*
X137005551Y-102607344D01*
X137005551Y-102811222D01*
X137045325Y-103011181D01*
X137123346Y-103199539D01*
X137236614Y-103369057D01*
X137280551Y-103412994D01*
X137280552Y-104538719D01*
X137276875Y-104576051D01*
X137280552Y-104613384D01*
X137285043Y-104658976D01*
X137291549Y-104725036D01*
X137335005Y-104868297D01*
X137405577Y-105000327D01*
X137476752Y-105087053D01*
X137500551Y-105116052D01*
X137529549Y-105139850D01*
X137617250Y-105227551D01*
X137617250Y-105289689D01*
X137647894Y-105443750D01*
X136979800Y-105443750D01*
X133633157Y-102097107D01*
X133641232Y-102096312D01*
X133760930Y-102060002D01*
X133871244Y-102001037D01*
X133967935Y-101921685D01*
X134016750Y-101862204D01*
X134065565Y-101921685D01*
X134162256Y-102001037D01*
X134272570Y-102060002D01*
X134392268Y-102096312D01*
X134516750Y-102108572D01*
X135516750Y-102108572D01*
X135641232Y-102096312D01*
X135760930Y-102060002D01*
X135871244Y-102001037D01*
X135967935Y-101921685D01*
X136047287Y-101824994D01*
X136106252Y-101714680D01*
X136142562Y-101594982D01*
X136154822Y-101470500D01*
X136154822Y-100870500D01*
X136142562Y-100746018D01*
X136106252Y-100626320D01*
X136078420Y-100574250D01*
X136952171Y-100574250D01*
X136920998Y-100632570D01*
X136884688Y-100752268D01*
X136872428Y-100876750D01*
X136875500Y-101028500D01*
X137034250Y-101187250D01*
X137858500Y-101187250D01*
X137858500Y-101167250D01*
X138112500Y-101167250D01*
X138112500Y-101187250D01*
X138936750Y-101187250D01*
X139095500Y-101028500D01*
X139098572Y-100876750D01*
X139086312Y-100752268D01*
X139050002Y-100632570D01*
X139018829Y-100574250D01*
X142027732Y-100574250D01*
X142068750Y-100578290D01*
X142109768Y-100574250D01*
X142109769Y-100574250D01*
X142232439Y-100562168D01*
X142389837Y-100514422D01*
X142534896Y-100436886D01*
X142662041Y-100332541D01*
X142688196Y-100300671D01*
X149666119Y-93322750D01*
X150041232Y-93322750D01*
X150082250Y-93326790D01*
X150082250Y-93326790D01*
G37*
X150082250Y-93326790D02*
X150123269Y-93322750D01*
X150244383Y-93322750D01*
X150468383Y-93546750D01*
X150324117Y-93546750D01*
X149988919Y-93613425D01*
X149673169Y-93744213D01*
X149389002Y-93934087D01*
X149147337Y-94175752D01*
X148957463Y-94459919D01*
X148826675Y-94775669D01*
X148760000Y-95110867D01*
X148760000Y-95452633D01*
X148826675Y-95787831D01*
X148852286Y-95849662D01*
X148047248Y-96654701D01*
X148018250Y-96678499D01*
X147994452Y-96707497D01*
X147994451Y-96707498D01*
X147923276Y-96794224D01*
X147852704Y-96926254D01*
X147824931Y-97017813D01*
X147809248Y-97069514D01*
X147799548Y-97167994D01*
X147794574Y-97218500D01*
X147798251Y-97255832D01*
X147798250Y-104388427D01*
X147794574Y-104425750D01*
X147798250Y-104463072D01*
X147798250Y-104463082D01*
X147809247Y-104574735D01*
X147841103Y-104679751D01*
X147852704Y-104717996D01*
X147923276Y-104850026D01*
X147957638Y-104891896D01*
X148018249Y-104965751D01*
X148047253Y-104989554D01*
X149068251Y-106010553D01*
X149068251Y-108264894D01*
X148901632Y-108098275D01*
X148658411Y-107935760D01*
X148388158Y-107823818D01*
X148101260Y-107766750D01*
X147808740Y-107766750D01*
X147521842Y-107823818D01*
X147251589Y-107935760D01*
X147008368Y-108098275D01*
X146801525Y-108305118D01*
X146639010Y-108548339D01*
X146527068Y-108818592D01*
X146470000Y-109105490D01*
X146470000Y-109398010D01*
X146527068Y-109684908D01*
X146639010Y-109955161D01*
X146801525Y-110198382D01*
X147008368Y-110405225D01*
X147251589Y-110567740D01*
X147521842Y-110679682D01*
X147808740Y-110736750D01*
X148101260Y-110736750D01*
X148388158Y-110679682D01*
X148658411Y-110567740D01*
X148901632Y-110405225D01*
X149068250Y-110238607D01*
X149068250Y-112072043D01*
X149064574Y-112109366D01*
X149068250Y-112146688D01*
X149068250Y-112146698D01*
X149079247Y-112258351D01*
X149116774Y-112382062D01*
X149122704Y-112401612D01*
X149193276Y-112533642D01*
X149215881Y-112561186D01*
X149288249Y-112649367D01*
X149317252Y-112673169D01*
X149532373Y-112888290D01*
X149389002Y-112984087D01*
X149147337Y-113225752D01*
X148957463Y-113509919D01*
X148826675Y-113825669D01*
X148760000Y-114160867D01*
X148760000Y-114474698D01*
X142137054Y-107851753D01*
X142113251Y-107822749D01*
X141997526Y-107727776D01*
X141865497Y-107657204D01*
X141722236Y-107613747D01*
X141610583Y-107602750D01*
X141610572Y-107602750D01*
X141573250Y-107599074D01*
X141535928Y-107602750D01*
X141380052Y-107602750D01*
X139523734Y-105746433D01*
X139569455Y-105678006D01*
X139647476Y-105489648D01*
X139687250Y-105289689D01*
X139687250Y-105085811D01*
X139647476Y-104885852D01*
X139569455Y-104697494D01*
X139456187Y-104527976D01*
X139312024Y-104383813D01*
X139142506Y-104270545D01*
X138954148Y-104192524D01*
X138800551Y-104161972D01*
X138800551Y-103412994D01*
X138844488Y-103369057D01*
X138957756Y-103199539D01*
X139035777Y-103011181D01*
X139075551Y-102811222D01*
X139075551Y-102607344D01*
X139035777Y-102407385D01*
X138957756Y-102219027D01*
X138931153Y-102179213D01*
X138991037Y-102106244D01*
X139050002Y-101995930D01*
X139086312Y-101876232D01*
X139098572Y-101751750D01*
X139095500Y-101600000D01*
X138936750Y-101441250D01*
X138112500Y-101441250D01*
X138112500Y-101461250D01*
X137858500Y-101461250D01*
X137858500Y-101441250D01*
X137034250Y-101441250D01*
X136875500Y-101600000D01*
X136872428Y-101751750D01*
X136884688Y-101876232D01*
X136920998Y-101995930D01*
X136979963Y-102106244D01*
X137059315Y-102202935D01*
X137112076Y-102246235D01*
X137045325Y-102407385D01*
X137005551Y-102607344D01*
X137005551Y-102811222D01*
X137045325Y-103011181D01*
X137123346Y-103199539D01*
X137236614Y-103369057D01*
X137280551Y-103412994D01*
X137280552Y-104538719D01*
X137276875Y-104576051D01*
X137280552Y-104613384D01*
X137285043Y-104658976D01*
X137291549Y-104725036D01*
X137335005Y-104868297D01*
X137405577Y-105000327D01*
X137476752Y-105087053D01*
X137500551Y-105116052D01*
X137529549Y-105139850D01*
X137617250Y-105227551D01*
X137617250Y-105289689D01*
X137647894Y-105443750D01*
X136979800Y-105443750D01*
X133633157Y-102097107D01*
X133641232Y-102096312D01*
X133760930Y-102060002D01*
X133871244Y-102001037D01*
X133967935Y-101921685D01*
X134016750Y-101862204D01*
X134065565Y-101921685D01*
X134162256Y-102001037D01*
X134272570Y-102060002D01*
X134392268Y-102096312D01*
X134516750Y-102108572D01*
X135516750Y-102108572D01*
X135641232Y-102096312D01*
X135760930Y-102060002D01*
X135871244Y-102001037D01*
X135967935Y-101921685D01*
X136047287Y-101824994D01*
X136106252Y-101714680D01*
X136142562Y-101594982D01*
X136154822Y-101470500D01*
X136154822Y-100870500D01*
X136142562Y-100746018D01*
X136106252Y-100626320D01*
X136078420Y-100574250D01*
X136952171Y-100574250D01*
X136920998Y-100632570D01*
X136884688Y-100752268D01*
X136872428Y-100876750D01*
X136875500Y-101028500D01*
X137034250Y-101187250D01*
X137858500Y-101187250D01*
X137858500Y-101167250D01*
X138112500Y-101167250D01*
X138112500Y-101187250D01*
X138936750Y-101187250D01*
X139095500Y-101028500D01*
X139098572Y-100876750D01*
X139086312Y-100752268D01*
X139050002Y-100632570D01*
X139018829Y-100574250D01*
X142027732Y-100574250D01*
X142068750Y-100578290D01*
X142109768Y-100574250D01*
X142109769Y-100574250D01*
X142232439Y-100562168D01*
X142389837Y-100514422D01*
X142534896Y-100436886D01*
X142662041Y-100332541D01*
X142688196Y-100300671D01*
X149666119Y-93322750D01*
X150041232Y-93322750D01*
X150082250Y-93326790D01*
G36*
X120354751Y-99241222D02*
G01*
X120350710Y-99282250D01*
X120366832Y-99445938D01*
X120414578Y-99603336D01*
X120487226Y-99739250D01*
X120492115Y-99748396D01*
X120596460Y-99875541D01*
X120628324Y-99901691D01*
X126819999Y-106093368D01*
X126820000Y-108854132D01*
X126665301Y-109008832D01*
X126615455Y-108888494D01*
X126502187Y-108718976D01*
X126358024Y-108574813D01*
X126188506Y-108461545D01*
X126000148Y-108383524D01*
X125800189Y-108343750D01*
X125596311Y-108343750D01*
X125396352Y-108383524D01*
X125207994Y-108461545D01*
X125038476Y-108574813D01*
X124994539Y-108618750D01*
X123990358Y-108618750D01*
X123689903Y-108318296D01*
X123689903Y-108256158D01*
X123650129Y-108056199D01*
X123572108Y-107867841D01*
X123458840Y-107698323D01*
X123314677Y-107554160D01*
X123145159Y-107440892D01*
X122956801Y-107362871D01*
X122756842Y-107323097D01*
X122552964Y-107323097D01*
X122353005Y-107362871D01*
X122164647Y-107440892D01*
X121995129Y-107554160D01*
X121947795Y-107601494D01*
X121563054Y-107216753D01*
X121539251Y-107187749D01*
X121423526Y-107092776D01*
X121291497Y-107022204D01*
X121148236Y-106978747D01*
X121036583Y-106967750D01*
X121036572Y-106967750D01*
X120999250Y-106964074D01*
X120961928Y-106967750D01*
X119766572Y-106967750D01*
X119729250Y-106964074D01*
X119691927Y-106967750D01*
X119691917Y-106967750D01*
X119580264Y-106978747D01*
X119437003Y-107022204D01*
X119304973Y-107092776D01*
X119267663Y-107123396D01*
X119189249Y-107187749D01*
X119165451Y-107216747D01*
X119151232Y-107230966D01*
X119122455Y-107161493D01*
X119009187Y-106991975D01*
X118975664Y-106958452D01*
X120313095Y-105621022D01*
X120443352Y-105674976D01*
X120643311Y-105714750D01*
X120847189Y-105714750D01*
X121047148Y-105674976D01*
X121235506Y-105596955D01*
X121405024Y-105483687D01*
X121549187Y-105339524D01*
X121662455Y-105170006D01*
X121740476Y-104981648D01*
X121780250Y-104781689D01*
X121780250Y-104577811D01*
X121740476Y-104377852D01*
X121662455Y-104189494D01*
X121549187Y-104019976D01*
X121405024Y-103875813D01*
X121235506Y-103762545D01*
X121047148Y-103684524D01*
X120847189Y-103644750D01*
X120643311Y-103644750D01*
X120443352Y-103684524D01*
X120254994Y-103762545D01*
X120085476Y-103875813D01*
X120030526Y-103930763D01*
X119915524Y-103965648D01*
X119887318Y-103974204D01*
X119755288Y-104044776D01*
X119704220Y-104086687D01*
X119639564Y-104139749D01*
X119615766Y-104168747D01*
X117694253Y-106090261D01*
X117665249Y-106114064D01*
X117626063Y-106161813D01*
X117570276Y-106229789D01*
X117512938Y-106337061D01*
X117499704Y-106361819D01*
X117456247Y-106505080D01*
X117445250Y-106616733D01*
X117445250Y-106616743D01*
X117441574Y-106654065D01*
X117445250Y-106691387D01*
X117445250Y-106948038D01*
X117401313Y-106991975D01*
X117401298Y-106991997D01*
X116552250Y-106142949D01*
X116552250Y-105860083D01*
X116555927Y-105822750D01*
X116541253Y-105673764D01*
X116497796Y-105530503D01*
X116427224Y-105398474D01*
X116332251Y-105282749D01*
X116216526Y-105187776D01*
X116084497Y-105117204D01*
X115941236Y-105073747D01*
X115829583Y-105062750D01*
X115792250Y-105059073D01*
X115754917Y-105062750D01*
X114590961Y-105062750D01*
X114547024Y-105018813D01*
X114377506Y-104905545D01*
X114189148Y-104827524D01*
X113989189Y-104787750D01*
X113785311Y-104787750D01*
X113585352Y-104827524D01*
X113396994Y-104905545D01*
X113227476Y-105018813D01*
X113083313Y-105162976D01*
X112970045Y-105332494D01*
X112892024Y-105520852D01*
X112852250Y-105720811D01*
X112852250Y-105924689D01*
X112892024Y-106124648D01*
X112970045Y-106313006D01*
X113083313Y-106482524D01*
X113227476Y-106626687D01*
X113396994Y-106739955D01*
X113585352Y-106817976D01*
X113785311Y-106857750D01*
X113829039Y-106857750D01*
X113686859Y-106916643D01*
X113255285Y-107205012D01*
X112888262Y-107572035D01*
X112599893Y-108003609D01*
X112401261Y-108483149D01*
X112361250Y-108684299D01*
X112361250Y-106272461D01*
X112405187Y-106228524D01*
X112518455Y-106059006D01*
X112596476Y-105870648D01*
X112636250Y-105670689D01*
X112636250Y-105466811D01*
X112596476Y-105266852D01*
X112518455Y-105078494D01*
X112405187Y-104908976D01*
X112361250Y-104865039D01*
X112361250Y-104185367D01*
X112388311Y-104190750D01*
X112592189Y-104190750D01*
X112792148Y-104150976D01*
X112980506Y-104072955D01*
X113150024Y-103959687D01*
X113294187Y-103815524D01*
X113407455Y-103646006D01*
X113485476Y-103457648D01*
X113525250Y-103257689D01*
X113525250Y-103053811D01*
X113485476Y-102853852D01*
X113407455Y-102665494D01*
X113294187Y-102495976D01*
X113150024Y-102351813D01*
X112980506Y-102238545D01*
X112792148Y-102160524D01*
X112615250Y-102125337D01*
X112615250Y-101470500D01*
X112828678Y-101470500D01*
X112840938Y-101594982D01*
X112877248Y-101714680D01*
X112936213Y-101824994D01*
X113015565Y-101921685D01*
X113112256Y-102001037D01*
X113222570Y-102060002D01*
X113342268Y-102096312D01*
X113466750Y-102108572D01*
X113681000Y-102105500D01*
X113839750Y-101946750D01*
X113839750Y-101297500D01*
X112990500Y-101297500D01*
X112831750Y-101456250D01*
X112828678Y-101470500D01*
X112615250Y-101470500D01*
X112615250Y-99660551D01*
X112845795Y-99430006D01*
X112840938Y-99446018D01*
X112828678Y-99570500D01*
X112828678Y-100170500D01*
X112840938Y-100294982D01*
X112877248Y-100414680D01*
X112933811Y-100520500D01*
X112877248Y-100626320D01*
X112840938Y-100746018D01*
X112828678Y-100870500D01*
X112831750Y-100884750D01*
X112990500Y-101043500D01*
X113839750Y-101043500D01*
X113839750Y-101023500D01*
X114093750Y-101023500D01*
X114093750Y-101043500D01*
X114113750Y-101043500D01*
X114113750Y-101297500D01*
X114093750Y-101297500D01*
X114093750Y-101946750D01*
X114252500Y-102105500D01*
X114466750Y-102108572D01*
X114591232Y-102096312D01*
X114710930Y-102060002D01*
X114821244Y-102001037D01*
X114917935Y-101921685D01*
X114966750Y-101862204D01*
X115015565Y-101921685D01*
X115112256Y-102001037D01*
X115206750Y-102051546D01*
X115206751Y-102429184D01*
X115132476Y-102478813D01*
X114988313Y-102622976D01*
X114875045Y-102792494D01*
X114797024Y-102980852D01*
X114757250Y-103180811D01*
X114757250Y-103384689D01*
X114797024Y-103584648D01*
X114875045Y-103773006D01*
X114988313Y-103942524D01*
X115132476Y-104086687D01*
X115301994Y-104199955D01*
X115490352Y-104277976D01*
X115690311Y-104317750D01*
X115894189Y-104317750D01*
X116094148Y-104277976D01*
X116282506Y-104199955D01*
X116452024Y-104086687D01*
X116596187Y-103942524D01*
X116709455Y-103773006D01*
X116787476Y-103584648D01*
X116827250Y-103384689D01*
X116827250Y-103180811D01*
X116787476Y-102980852D01*
X116726750Y-102834248D01*
X116726750Y-102051546D01*
X116821244Y-102001037D01*
X116917935Y-101921685D01*
X116997287Y-101824994D01*
X117039778Y-101745500D01*
X117822428Y-101745500D01*
X117834688Y-101869982D01*
X117870998Y-101989680D01*
X117929963Y-102099994D01*
X118009315Y-102196685D01*
X118106006Y-102276037D01*
X118216320Y-102335002D01*
X118336018Y-102371312D01*
X118460500Y-102383572D01*
X118649750Y-102380500D01*
X118808500Y-102221750D01*
X118808500Y-101435000D01*
X119062500Y-101435000D01*
X119062500Y-102221750D01*
X119221250Y-102380500D01*
X119410500Y-102383572D01*
X119534982Y-102371312D01*
X119654680Y-102335002D01*
X119764994Y-102276037D01*
X119861685Y-102196685D01*
X119941037Y-102099994D01*
X120000002Y-101989680D01*
X120036312Y-101869982D01*
X120048572Y-101745500D01*
X120045500Y-101593750D01*
X119886750Y-101435000D01*
X119062500Y-101435000D01*
X118808500Y-101435000D01*
X117984250Y-101435000D01*
X117825500Y-101593750D01*
X117822428Y-101745500D01*
X117039778Y-101745500D01*
X117056252Y-101714680D01*
X117092562Y-101594982D01*
X117104822Y-101470500D01*
X117104822Y-100870500D01*
X117092562Y-100746018D01*
X117080271Y-100705500D01*
X117846979Y-100705500D01*
X117834688Y-100746018D01*
X117822428Y-100870500D01*
X117825500Y-101022250D01*
X117984250Y-101181000D01*
X118808500Y-101181000D01*
X118808500Y-101161000D01*
X119062500Y-101161000D01*
X119062500Y-101181000D01*
X119886750Y-101181000D01*
X120045500Y-101022250D01*
X120048572Y-100870500D01*
X120036312Y-100746018D01*
X120000002Y-100626320D01*
X119941037Y-100516006D01*
X119886400Y-100449430D01*
X119904171Y-100427775D01*
X119983350Y-100279642D01*
X120032108Y-100118908D01*
X120048572Y-99951750D01*
X120048572Y-99514250D01*
X120032108Y-99347092D01*
X119983350Y-99186358D01*
X119935159Y-99096199D01*
X120008311Y-99110750D01*
X120212189Y-99110750D01*
X120354751Y-99082393D01*
X120354751Y-99241222D01*
X120354751Y-99241222D01*
G37*
X120354751Y-99241222D02*
X120350710Y-99282250D01*
X120366832Y-99445938D01*
X120414578Y-99603336D01*
X120487226Y-99739250D01*
X120492115Y-99748396D01*
X120596460Y-99875541D01*
X120628324Y-99901691D01*
X126819999Y-106093368D01*
X126820000Y-108854132D01*
X126665301Y-109008832D01*
X126615455Y-108888494D01*
X126502187Y-108718976D01*
X126358024Y-108574813D01*
X126188506Y-108461545D01*
X126000148Y-108383524D01*
X125800189Y-108343750D01*
X125596311Y-108343750D01*
X125396352Y-108383524D01*
X125207994Y-108461545D01*
X125038476Y-108574813D01*
X124994539Y-108618750D01*
X123990358Y-108618750D01*
X123689903Y-108318296D01*
X123689903Y-108256158D01*
X123650129Y-108056199D01*
X123572108Y-107867841D01*
X123458840Y-107698323D01*
X123314677Y-107554160D01*
X123145159Y-107440892D01*
X122956801Y-107362871D01*
X122756842Y-107323097D01*
X122552964Y-107323097D01*
X122353005Y-107362871D01*
X122164647Y-107440892D01*
X121995129Y-107554160D01*
X121947795Y-107601494D01*
X121563054Y-107216753D01*
X121539251Y-107187749D01*
X121423526Y-107092776D01*
X121291497Y-107022204D01*
X121148236Y-106978747D01*
X121036583Y-106967750D01*
X121036572Y-106967750D01*
X120999250Y-106964074D01*
X120961928Y-106967750D01*
X119766572Y-106967750D01*
X119729250Y-106964074D01*
X119691927Y-106967750D01*
X119691917Y-106967750D01*
X119580264Y-106978747D01*
X119437003Y-107022204D01*
X119304973Y-107092776D01*
X119267663Y-107123396D01*
X119189249Y-107187749D01*
X119165451Y-107216747D01*
X119151232Y-107230966D01*
X119122455Y-107161493D01*
X119009187Y-106991975D01*
X118975664Y-106958452D01*
X120313095Y-105621022D01*
X120443352Y-105674976D01*
X120643311Y-105714750D01*
X120847189Y-105714750D01*
X121047148Y-105674976D01*
X121235506Y-105596955D01*
X121405024Y-105483687D01*
X121549187Y-105339524D01*
X121662455Y-105170006D01*
X121740476Y-104981648D01*
X121780250Y-104781689D01*
X121780250Y-104577811D01*
X121740476Y-104377852D01*
X121662455Y-104189494D01*
X121549187Y-104019976D01*
X121405024Y-103875813D01*
X121235506Y-103762545D01*
X121047148Y-103684524D01*
X120847189Y-103644750D01*
X120643311Y-103644750D01*
X120443352Y-103684524D01*
X120254994Y-103762545D01*
X120085476Y-103875813D01*
X120030526Y-103930763D01*
X119915524Y-103965648D01*
X119887318Y-103974204D01*
X119755288Y-104044776D01*
X119704220Y-104086687D01*
X119639564Y-104139749D01*
X119615766Y-104168747D01*
X117694253Y-106090261D01*
X117665249Y-106114064D01*
X117626063Y-106161813D01*
X117570276Y-106229789D01*
X117512938Y-106337061D01*
X117499704Y-106361819D01*
X117456247Y-106505080D01*
X117445250Y-106616733D01*
X117445250Y-106616743D01*
X117441574Y-106654065D01*
X117445250Y-106691387D01*
X117445250Y-106948038D01*
X117401313Y-106991975D01*
X117401298Y-106991997D01*
X116552250Y-106142949D01*
X116552250Y-105860083D01*
X116555927Y-105822750D01*
X116541253Y-105673764D01*
X116497796Y-105530503D01*
X116427224Y-105398474D01*
X116332251Y-105282749D01*
X116216526Y-105187776D01*
X116084497Y-105117204D01*
X115941236Y-105073747D01*
X115829583Y-105062750D01*
X115792250Y-105059073D01*
X115754917Y-105062750D01*
X114590961Y-105062750D01*
X114547024Y-105018813D01*
X114377506Y-104905545D01*
X114189148Y-104827524D01*
X113989189Y-104787750D01*
X113785311Y-104787750D01*
X113585352Y-104827524D01*
X113396994Y-104905545D01*
X113227476Y-105018813D01*
X113083313Y-105162976D01*
X112970045Y-105332494D01*
X112892024Y-105520852D01*
X112852250Y-105720811D01*
X112852250Y-105924689D01*
X112892024Y-106124648D01*
X112970045Y-106313006D01*
X113083313Y-106482524D01*
X113227476Y-106626687D01*
X113396994Y-106739955D01*
X113585352Y-106817976D01*
X113785311Y-106857750D01*
X113829039Y-106857750D01*
X113686859Y-106916643D01*
X113255285Y-107205012D01*
X112888262Y-107572035D01*
X112599893Y-108003609D01*
X112401261Y-108483149D01*
X112361250Y-108684299D01*
X112361250Y-106272461D01*
X112405187Y-106228524D01*
X112518455Y-106059006D01*
X112596476Y-105870648D01*
X112636250Y-105670689D01*
X112636250Y-105466811D01*
X112596476Y-105266852D01*
X112518455Y-105078494D01*
X112405187Y-104908976D01*
X112361250Y-104865039D01*
X112361250Y-104185367D01*
X112388311Y-104190750D01*
X112592189Y-104190750D01*
X112792148Y-104150976D01*
X112980506Y-104072955D01*
X113150024Y-103959687D01*
X113294187Y-103815524D01*
X113407455Y-103646006D01*
X113485476Y-103457648D01*
X113525250Y-103257689D01*
X113525250Y-103053811D01*
X113485476Y-102853852D01*
X113407455Y-102665494D01*
X113294187Y-102495976D01*
X113150024Y-102351813D01*
X112980506Y-102238545D01*
X112792148Y-102160524D01*
X112615250Y-102125337D01*
X112615250Y-101470500D01*
X112828678Y-101470500D01*
X112840938Y-101594982D01*
X112877248Y-101714680D01*
X112936213Y-101824994D01*
X113015565Y-101921685D01*
X113112256Y-102001037D01*
X113222570Y-102060002D01*
X113342268Y-102096312D01*
X113466750Y-102108572D01*
X113681000Y-102105500D01*
X113839750Y-101946750D01*
X113839750Y-101297500D01*
X112990500Y-101297500D01*
X112831750Y-101456250D01*
X112828678Y-101470500D01*
X112615250Y-101470500D01*
X112615250Y-99660551D01*
X112845795Y-99430006D01*
X112840938Y-99446018D01*
X112828678Y-99570500D01*
X112828678Y-100170500D01*
X112840938Y-100294982D01*
X112877248Y-100414680D01*
X112933811Y-100520500D01*
X112877248Y-100626320D01*
X112840938Y-100746018D01*
X112828678Y-100870500D01*
X112831750Y-100884750D01*
X112990500Y-101043500D01*
X113839750Y-101043500D01*
X113839750Y-101023500D01*
X114093750Y-101023500D01*
X114093750Y-101043500D01*
X114113750Y-101043500D01*
X114113750Y-101297500D01*
X114093750Y-101297500D01*
X114093750Y-101946750D01*
X114252500Y-102105500D01*
X114466750Y-102108572D01*
X114591232Y-102096312D01*
X114710930Y-102060002D01*
X114821244Y-102001037D01*
X114917935Y-101921685D01*
X114966750Y-101862204D01*
X115015565Y-101921685D01*
X115112256Y-102001037D01*
X115206750Y-102051546D01*
X115206751Y-102429184D01*
X115132476Y-102478813D01*
X114988313Y-102622976D01*
X114875045Y-102792494D01*
X114797024Y-102980852D01*
X114757250Y-103180811D01*
X114757250Y-103384689D01*
X114797024Y-103584648D01*
X114875045Y-103773006D01*
X114988313Y-103942524D01*
X115132476Y-104086687D01*
X115301994Y-104199955D01*
X115490352Y-104277976D01*
X115690311Y-104317750D01*
X115894189Y-104317750D01*
X116094148Y-104277976D01*
X116282506Y-104199955D01*
X116452024Y-104086687D01*
X116596187Y-103942524D01*
X116709455Y-103773006D01*
X116787476Y-103584648D01*
X116827250Y-103384689D01*
X116827250Y-103180811D01*
X116787476Y-102980852D01*
X116726750Y-102834248D01*
X116726750Y-102051546D01*
X116821244Y-102001037D01*
X116917935Y-101921685D01*
X116997287Y-101824994D01*
X117039778Y-101745500D01*
X117822428Y-101745500D01*
X117834688Y-101869982D01*
X117870998Y-101989680D01*
X117929963Y-102099994D01*
X118009315Y-102196685D01*
X118106006Y-102276037D01*
X118216320Y-102335002D01*
X118336018Y-102371312D01*
X118460500Y-102383572D01*
X118649750Y-102380500D01*
X118808500Y-102221750D01*
X118808500Y-101435000D01*
X119062500Y-101435000D01*
X119062500Y-102221750D01*
X119221250Y-102380500D01*
X119410500Y-102383572D01*
X119534982Y-102371312D01*
X119654680Y-102335002D01*
X119764994Y-102276037D01*
X119861685Y-102196685D01*
X119941037Y-102099994D01*
X120000002Y-101989680D01*
X120036312Y-101869982D01*
X120048572Y-101745500D01*
X120045500Y-101593750D01*
X119886750Y-101435000D01*
X119062500Y-101435000D01*
X118808500Y-101435000D01*
X117984250Y-101435000D01*
X117825500Y-101593750D01*
X117822428Y-101745500D01*
X117039778Y-101745500D01*
X117056252Y-101714680D01*
X117092562Y-101594982D01*
X117104822Y-101470500D01*
X117104822Y-100870500D01*
X117092562Y-100746018D01*
X117080271Y-100705500D01*
X117846979Y-100705500D01*
X117834688Y-100746018D01*
X117822428Y-100870500D01*
X117825500Y-101022250D01*
X117984250Y-101181000D01*
X118808500Y-101181000D01*
X118808500Y-101161000D01*
X119062500Y-101161000D01*
X119062500Y-101181000D01*
X119886750Y-101181000D01*
X120045500Y-101022250D01*
X120048572Y-100870500D01*
X120036312Y-100746018D01*
X120000002Y-100626320D01*
X119941037Y-100516006D01*
X119886400Y-100449430D01*
X119904171Y-100427775D01*
X119983350Y-100279642D01*
X120032108Y-100118908D01*
X120048572Y-99951750D01*
X120048572Y-99514250D01*
X120032108Y-99347092D01*
X119983350Y-99186358D01*
X119935159Y-99096199D01*
X120008311Y-99110750D01*
X120212189Y-99110750D01*
X120354751Y-99082393D01*
X120354751Y-99241222D01*
G36*
X153787363Y-96865731D02*
G01*
X153787363Y-97278845D01*
X153783323Y-97319863D01*
X153787658Y-97363880D01*
X153799445Y-97483551D01*
X153847191Y-97640949D01*
X153924727Y-97786008D01*
X154029072Y-97913154D01*
X154060942Y-97939309D01*
X155019633Y-98898000D01*
X154245257Y-98898000D01*
X154204249Y-98893961D01*
X154163241Y-98898000D01*
X154163231Y-98898000D01*
X154040561Y-98910082D01*
X153966896Y-98932428D01*
X153566750Y-98932428D01*
X153442268Y-98944688D01*
X153322570Y-98980998D01*
X153212256Y-99039963D01*
X153115565Y-99119315D01*
X153066750Y-99178796D01*
X153017935Y-99119315D01*
X152921244Y-99039963D01*
X152826750Y-98989454D01*
X152826750Y-98826961D01*
X152918187Y-98735524D01*
X153031455Y-98566006D01*
X153109476Y-98377648D01*
X153149250Y-98177689D01*
X153149250Y-97973811D01*
X153109476Y-97773852D01*
X153031455Y-97585494D01*
X152918187Y-97415976D01*
X152774024Y-97271813D01*
X152604506Y-97158545D01*
X152416148Y-97080524D01*
X152216189Y-97040750D01*
X152012311Y-97040750D01*
X151812352Y-97080524D01*
X151623994Y-97158545D01*
X151454476Y-97271813D01*
X151310313Y-97415976D01*
X151197045Y-97585494D01*
X151119024Y-97773852D01*
X151079250Y-97973811D01*
X151079250Y-98177689D01*
X151119024Y-98377648D01*
X151197045Y-98566006D01*
X151306751Y-98730193D01*
X151306751Y-98989454D01*
X151212256Y-99039963D01*
X151115565Y-99119315D01*
X151036213Y-99216006D01*
X150977248Y-99326320D01*
X150940938Y-99446018D01*
X150928678Y-99570500D01*
X150928678Y-100170500D01*
X150940938Y-100294982D01*
X150977248Y-100414680D01*
X151033811Y-100520500D01*
X150977248Y-100626320D01*
X150940938Y-100746018D01*
X150928678Y-100870500D01*
X150931750Y-100884750D01*
X151090500Y-101043500D01*
X151939750Y-101043500D01*
X151939750Y-101023500D01*
X152193750Y-101023500D01*
X152193750Y-101043500D01*
X152213750Y-101043500D01*
X152213750Y-101297500D01*
X152193750Y-101297500D01*
X152193750Y-101946750D01*
X152352500Y-102105500D01*
X152566750Y-102108572D01*
X152691232Y-102096312D01*
X152810930Y-102060002D01*
X152921244Y-102001037D01*
X153017935Y-101921685D01*
X153066750Y-101862204D01*
X153115565Y-101921685D01*
X153212256Y-102001037D01*
X153306751Y-102051546D01*
X153306751Y-102412447D01*
X150456238Y-105262961D01*
X150368251Y-105155749D01*
X150339253Y-105131951D01*
X149318250Y-104110949D01*
X149318250Y-101470500D01*
X150928678Y-101470500D01*
X150940938Y-101594982D01*
X150977248Y-101714680D01*
X151036213Y-101824994D01*
X151115565Y-101921685D01*
X151212256Y-102001037D01*
X151322570Y-102060002D01*
X151442268Y-102096312D01*
X151566750Y-102108572D01*
X151781000Y-102105500D01*
X151939750Y-101946750D01*
X151939750Y-101297500D01*
X151090500Y-101297500D01*
X150931750Y-101456250D01*
X150928678Y-101470500D01*
X149318250Y-101470500D01*
X149318250Y-97533301D01*
X149927088Y-96924464D01*
X149988919Y-96950075D01*
X150324117Y-97016750D01*
X150665883Y-97016750D01*
X151001081Y-96950075D01*
X151316831Y-96819287D01*
X151600998Y-96629413D01*
X151842663Y-96387748D01*
X152032537Y-96103581D01*
X152163325Y-95787831D01*
X152230000Y-95452633D01*
X152230000Y-95308367D01*
X153787363Y-96865731D01*
X153787363Y-96865731D01*
G37*
X153787363Y-96865731D02*
X153787363Y-97278845D01*
X153783323Y-97319863D01*
X153787658Y-97363880D01*
X153799445Y-97483551D01*
X153847191Y-97640949D01*
X153924727Y-97786008D01*
X154029072Y-97913154D01*
X154060942Y-97939309D01*
X155019633Y-98898000D01*
X154245257Y-98898000D01*
X154204249Y-98893961D01*
X154163241Y-98898000D01*
X154163231Y-98898000D01*
X154040561Y-98910082D01*
X153966896Y-98932428D01*
X153566750Y-98932428D01*
X153442268Y-98944688D01*
X153322570Y-98980998D01*
X153212256Y-99039963D01*
X153115565Y-99119315D01*
X153066750Y-99178796D01*
X153017935Y-99119315D01*
X152921244Y-99039963D01*
X152826750Y-98989454D01*
X152826750Y-98826961D01*
X152918187Y-98735524D01*
X153031455Y-98566006D01*
X153109476Y-98377648D01*
X153149250Y-98177689D01*
X153149250Y-97973811D01*
X153109476Y-97773852D01*
X153031455Y-97585494D01*
X152918187Y-97415976D01*
X152774024Y-97271813D01*
X152604506Y-97158545D01*
X152416148Y-97080524D01*
X152216189Y-97040750D01*
X152012311Y-97040750D01*
X151812352Y-97080524D01*
X151623994Y-97158545D01*
X151454476Y-97271813D01*
X151310313Y-97415976D01*
X151197045Y-97585494D01*
X151119024Y-97773852D01*
X151079250Y-97973811D01*
X151079250Y-98177689D01*
X151119024Y-98377648D01*
X151197045Y-98566006D01*
X151306751Y-98730193D01*
X151306751Y-98989454D01*
X151212256Y-99039963D01*
X151115565Y-99119315D01*
X151036213Y-99216006D01*
X150977248Y-99326320D01*
X150940938Y-99446018D01*
X150928678Y-99570500D01*
X150928678Y-100170500D01*
X150940938Y-100294982D01*
X150977248Y-100414680D01*
X151033811Y-100520500D01*
X150977248Y-100626320D01*
X150940938Y-100746018D01*
X150928678Y-100870500D01*
X150931750Y-100884750D01*
X151090500Y-101043500D01*
X151939750Y-101043500D01*
X151939750Y-101023500D01*
X152193750Y-101023500D01*
X152193750Y-101043500D01*
X152213750Y-101043500D01*
X152213750Y-101297500D01*
X152193750Y-101297500D01*
X152193750Y-101946750D01*
X152352500Y-102105500D01*
X152566750Y-102108572D01*
X152691232Y-102096312D01*
X152810930Y-102060002D01*
X152921244Y-102001037D01*
X153017935Y-101921685D01*
X153066750Y-101862204D01*
X153115565Y-101921685D01*
X153212256Y-102001037D01*
X153306751Y-102051546D01*
X153306751Y-102412447D01*
X150456238Y-105262961D01*
X150368251Y-105155749D01*
X150339253Y-105131951D01*
X149318250Y-104110949D01*
X149318250Y-101470500D01*
X150928678Y-101470500D01*
X150940938Y-101594982D01*
X150977248Y-101714680D01*
X151036213Y-101824994D01*
X151115565Y-101921685D01*
X151212256Y-102001037D01*
X151322570Y-102060002D01*
X151442268Y-102096312D01*
X151566750Y-102108572D01*
X151781000Y-102105500D01*
X151939750Y-101946750D01*
X151939750Y-101297500D01*
X151090500Y-101297500D01*
X150931750Y-101456250D01*
X150928678Y-101470500D01*
X149318250Y-101470500D01*
X149318250Y-97533301D01*
X149927088Y-96924464D01*
X149988919Y-96950075D01*
X150324117Y-97016750D01*
X150665883Y-97016750D01*
X151001081Y-96950075D01*
X151316831Y-96819287D01*
X151600998Y-96629413D01*
X151842663Y-96387748D01*
X152032537Y-96103581D01*
X152163325Y-95787831D01*
X152230000Y-95452633D01*
X152230000Y-95308367D01*
X153787363Y-96865731D01*
G36*
X133143750Y-101043500D02*
G01*
X133163750Y-101043500D01*
X133163750Y-101297500D01*
X133143750Y-101297500D01*
X133143750Y-101317500D01*
X132889750Y-101317500D01*
X132889750Y-101297500D01*
X132869750Y-101297500D01*
X132869750Y-101043500D01*
X132889750Y-101043500D01*
X132889750Y-101023500D01*
X133143750Y-101023500D01*
X133143750Y-101043500D01*
X133143750Y-101043500D01*
G37*
X133143750Y-101043500D02*
X133163750Y-101043500D01*
X133163750Y-101297500D01*
X133143750Y-101297500D01*
X133143750Y-101317500D01*
X132889750Y-101317500D01*
X132889750Y-101297500D01*
X132869750Y-101297500D01*
X132869750Y-101043500D01*
X132889750Y-101043500D01*
X132889750Y-101023500D01*
X133143750Y-101023500D01*
X133143750Y-101043500D01*
G36*
X155970998Y-81576320D02*
G01*
X155934688Y-81696018D01*
X155922428Y-81820500D01*
X155925500Y-81972250D01*
X156084250Y-82131000D01*
X156908500Y-82131000D01*
X156908500Y-82111000D01*
X157162500Y-82111000D01*
X157162500Y-82131000D01*
X157986750Y-82131000D01*
X158145500Y-81972250D01*
X158148572Y-81820500D01*
X158136312Y-81696018D01*
X158100002Y-81576320D01*
X158068829Y-81518000D01*
X158251633Y-81518000D01*
X159280250Y-82546619D01*
X159280251Y-84013881D01*
X157356383Y-85937750D01*
X151647257Y-85937750D01*
X151606249Y-85933711D01*
X151565241Y-85937750D01*
X151565231Y-85937750D01*
X151442561Y-85949832D01*
X151285163Y-85997578D01*
X151140104Y-86075114D01*
X151012959Y-86179459D01*
X150986811Y-86211321D01*
X149520829Y-87677304D01*
X149488959Y-87703459D01*
X149416499Y-87791753D01*
X149384614Y-87830605D01*
X149307078Y-87975664D01*
X149259332Y-88133062D01*
X149243210Y-88296750D01*
X149247250Y-88337769D01*
X149247250Y-89462810D01*
X149108475Y-89255118D01*
X148901632Y-89048275D01*
X148658411Y-88885760D01*
X148388158Y-88773818D01*
X148101260Y-88716750D01*
X147808740Y-88716750D01*
X147521842Y-88773818D01*
X147251589Y-88885760D01*
X147008368Y-89048275D01*
X146801525Y-89255118D01*
X146639010Y-89498339D01*
X146527068Y-89768592D01*
X146470000Y-90055490D01*
X146470000Y-90348010D01*
X146527068Y-90634908D01*
X146639010Y-90905161D01*
X146801525Y-91148382D01*
X147008368Y-91355225D01*
X147251589Y-91517740D01*
X147521842Y-91629682D01*
X147808740Y-91686750D01*
X148101260Y-91686750D01*
X148388158Y-91629682D01*
X148658411Y-91517740D01*
X148901632Y-91355225D01*
X149108475Y-91148382D01*
X149247251Y-90940689D01*
X149247251Y-91655900D01*
X149156561Y-91664832D01*
X148999163Y-91712578D01*
X148854104Y-91790114D01*
X148772908Y-91856750D01*
X148726959Y-91894459D01*
X148700813Y-91926318D01*
X145381250Y-95245882D01*
X145381250Y-95096461D01*
X145425187Y-95052524D01*
X145538455Y-94883006D01*
X145616476Y-94694648D01*
X145656250Y-94494689D01*
X145656250Y-94290811D01*
X145616476Y-94090852D01*
X145538455Y-93902494D01*
X145425187Y-93732976D01*
X145281024Y-93588813D01*
X145111506Y-93475545D01*
X144923148Y-93397524D01*
X144723189Y-93357750D01*
X144519311Y-93357750D01*
X144319352Y-93397524D01*
X144130994Y-93475545D01*
X143961476Y-93588813D01*
X143817313Y-93732976D01*
X143732250Y-93860282D01*
X143647187Y-93732976D01*
X143503024Y-93588813D01*
X143333506Y-93475545D01*
X143145148Y-93397524D01*
X142945189Y-93357750D01*
X142741311Y-93357750D01*
X142587250Y-93388394D01*
X142587250Y-93287072D01*
X142590926Y-93249749D01*
X142587250Y-93212426D01*
X142587250Y-93212417D01*
X142576253Y-93100764D01*
X142532796Y-92957503D01*
X142462224Y-92825474D01*
X142444621Y-92804025D01*
X142391049Y-92738746D01*
X142391045Y-92738742D01*
X142367251Y-92709749D01*
X142338258Y-92685955D01*
X140867053Y-91214752D01*
X140843251Y-91185749D01*
X140727526Y-91090776D01*
X140595497Y-91020204D01*
X140452236Y-90976747D01*
X140340583Y-90965750D01*
X140340572Y-90965750D01*
X140340510Y-90965744D01*
X140380990Y-90905161D01*
X140492932Y-90634908D01*
X140550000Y-90348010D01*
X140550000Y-90055490D01*
X140492932Y-89768592D01*
X140380990Y-89498339D01*
X140218475Y-89255118D01*
X140011632Y-89048275D01*
X139768411Y-88885760D01*
X139498158Y-88773818D01*
X139211260Y-88716750D01*
X138918740Y-88716750D01*
X138631842Y-88773818D01*
X138361589Y-88885760D01*
X138118368Y-89048275D01*
X137911525Y-89255118D01*
X137749010Y-89498339D01*
X137637068Y-89768592D01*
X137580000Y-90055490D01*
X137580000Y-90348010D01*
X137621521Y-90556749D01*
X136685574Y-90556749D01*
X136648251Y-90553073D01*
X136610928Y-90556749D01*
X136610918Y-90556749D01*
X136600811Y-90557744D01*
X136620000Y-90461275D01*
X136620000Y-89942225D01*
X136518739Y-89433149D01*
X136320107Y-88953609D01*
X136031738Y-88522035D01*
X135664715Y-88155012D01*
X135493710Y-88040750D01*
X145369178Y-88040750D01*
X145406500Y-88044426D01*
X145443822Y-88040750D01*
X145443833Y-88040750D01*
X145555486Y-88029753D01*
X145698747Y-87986296D01*
X145830776Y-87915724D01*
X145946501Y-87820751D01*
X145970304Y-87791747D01*
X151019091Y-82742961D01*
X151036213Y-82774994D01*
X151115565Y-82871685D01*
X151212256Y-82951037D01*
X151322570Y-83010002D01*
X151442268Y-83046312D01*
X151566750Y-83058572D01*
X151781000Y-83055500D01*
X151939750Y-82896750D01*
X151939750Y-82247500D01*
X151919750Y-82247500D01*
X151919750Y-81993500D01*
X151939750Y-81993500D01*
X151939750Y-81973500D01*
X152193750Y-81973500D01*
X152193750Y-81993500D01*
X152213750Y-81993500D01*
X152213750Y-82247500D01*
X152193750Y-82247500D01*
X152193750Y-82896750D01*
X152352500Y-83055500D01*
X152566750Y-83058572D01*
X152691232Y-83046312D01*
X152810930Y-83010002D01*
X152921244Y-82951037D01*
X153017935Y-82871685D01*
X153066750Y-82812204D01*
X153115565Y-82871685D01*
X153212256Y-82951037D01*
X153322570Y-83010002D01*
X153442268Y-83046312D01*
X153566750Y-83058572D01*
X154566750Y-83058572D01*
X154691232Y-83046312D01*
X154810930Y-83010002D01*
X154921244Y-82951037D01*
X155017935Y-82871685D01*
X155097287Y-82774994D01*
X155139778Y-82695500D01*
X155922428Y-82695500D01*
X155934688Y-82819982D01*
X155970998Y-82939680D01*
X156029963Y-83049994D01*
X156109315Y-83146685D01*
X156206006Y-83226037D01*
X156316320Y-83285002D01*
X156436018Y-83321312D01*
X156560500Y-83333572D01*
X156749750Y-83330500D01*
X156908500Y-83171750D01*
X156908500Y-82385000D01*
X157162500Y-82385000D01*
X157162500Y-83171750D01*
X157321250Y-83330500D01*
X157510500Y-83333572D01*
X157634982Y-83321312D01*
X157754680Y-83285002D01*
X157864994Y-83226037D01*
X157961685Y-83146685D01*
X158041037Y-83049994D01*
X158100002Y-82939680D01*
X158136312Y-82819982D01*
X158148572Y-82695500D01*
X158145500Y-82543750D01*
X157986750Y-82385000D01*
X157162500Y-82385000D01*
X156908500Y-82385000D01*
X156084250Y-82385000D01*
X155925500Y-82543750D01*
X155922428Y-82695500D01*
X155139778Y-82695500D01*
X155156252Y-82664680D01*
X155192562Y-82544982D01*
X155204822Y-82420500D01*
X155204822Y-81820500D01*
X155192562Y-81696018D01*
X155156252Y-81576320D01*
X155125079Y-81518000D01*
X156002171Y-81518000D01*
X155970998Y-81576320D01*
X155970998Y-81576320D01*
G37*
X155970998Y-81576320D02*
X155934688Y-81696018D01*
X155922428Y-81820500D01*
X155925500Y-81972250D01*
X156084250Y-82131000D01*
X156908500Y-82131000D01*
X156908500Y-82111000D01*
X157162500Y-82111000D01*
X157162500Y-82131000D01*
X157986750Y-82131000D01*
X158145500Y-81972250D01*
X158148572Y-81820500D01*
X158136312Y-81696018D01*
X158100002Y-81576320D01*
X158068829Y-81518000D01*
X158251633Y-81518000D01*
X159280250Y-82546619D01*
X159280251Y-84013881D01*
X157356383Y-85937750D01*
X151647257Y-85937750D01*
X151606249Y-85933711D01*
X151565241Y-85937750D01*
X151565231Y-85937750D01*
X151442561Y-85949832D01*
X151285163Y-85997578D01*
X151140104Y-86075114D01*
X151012959Y-86179459D01*
X150986811Y-86211321D01*
X149520829Y-87677304D01*
X149488959Y-87703459D01*
X149416499Y-87791753D01*
X149384614Y-87830605D01*
X149307078Y-87975664D01*
X149259332Y-88133062D01*
X149243210Y-88296750D01*
X149247250Y-88337769D01*
X149247250Y-89462810D01*
X149108475Y-89255118D01*
X148901632Y-89048275D01*
X148658411Y-88885760D01*
X148388158Y-88773818D01*
X148101260Y-88716750D01*
X147808740Y-88716750D01*
X147521842Y-88773818D01*
X147251589Y-88885760D01*
X147008368Y-89048275D01*
X146801525Y-89255118D01*
X146639010Y-89498339D01*
X146527068Y-89768592D01*
X146470000Y-90055490D01*
X146470000Y-90348010D01*
X146527068Y-90634908D01*
X146639010Y-90905161D01*
X146801525Y-91148382D01*
X147008368Y-91355225D01*
X147251589Y-91517740D01*
X147521842Y-91629682D01*
X147808740Y-91686750D01*
X148101260Y-91686750D01*
X148388158Y-91629682D01*
X148658411Y-91517740D01*
X148901632Y-91355225D01*
X149108475Y-91148382D01*
X149247251Y-90940689D01*
X149247251Y-91655900D01*
X149156561Y-91664832D01*
X148999163Y-91712578D01*
X148854104Y-91790114D01*
X148772908Y-91856750D01*
X148726959Y-91894459D01*
X148700813Y-91926318D01*
X145381250Y-95245882D01*
X145381250Y-95096461D01*
X145425187Y-95052524D01*
X145538455Y-94883006D01*
X145616476Y-94694648D01*
X145656250Y-94494689D01*
X145656250Y-94290811D01*
X145616476Y-94090852D01*
X145538455Y-93902494D01*
X145425187Y-93732976D01*
X145281024Y-93588813D01*
X145111506Y-93475545D01*
X144923148Y-93397524D01*
X144723189Y-93357750D01*
X144519311Y-93357750D01*
X144319352Y-93397524D01*
X144130994Y-93475545D01*
X143961476Y-93588813D01*
X143817313Y-93732976D01*
X143732250Y-93860282D01*
X143647187Y-93732976D01*
X143503024Y-93588813D01*
X143333506Y-93475545D01*
X143145148Y-93397524D01*
X142945189Y-93357750D01*
X142741311Y-93357750D01*
X142587250Y-93388394D01*
X142587250Y-93287072D01*
X142590926Y-93249749D01*
X142587250Y-93212426D01*
X142587250Y-93212417D01*
X142576253Y-93100764D01*
X142532796Y-92957503D01*
X142462224Y-92825474D01*
X142444621Y-92804025D01*
X142391049Y-92738746D01*
X142391045Y-92738742D01*
X142367251Y-92709749D01*
X142338258Y-92685955D01*
X140867053Y-91214752D01*
X140843251Y-91185749D01*
X140727526Y-91090776D01*
X140595497Y-91020204D01*
X140452236Y-90976747D01*
X140340583Y-90965750D01*
X140340572Y-90965750D01*
X140340510Y-90965744D01*
X140380990Y-90905161D01*
X140492932Y-90634908D01*
X140550000Y-90348010D01*
X140550000Y-90055490D01*
X140492932Y-89768592D01*
X140380990Y-89498339D01*
X140218475Y-89255118D01*
X140011632Y-89048275D01*
X139768411Y-88885760D01*
X139498158Y-88773818D01*
X139211260Y-88716750D01*
X138918740Y-88716750D01*
X138631842Y-88773818D01*
X138361589Y-88885760D01*
X138118368Y-89048275D01*
X137911525Y-89255118D01*
X137749010Y-89498339D01*
X137637068Y-89768592D01*
X137580000Y-90055490D01*
X137580000Y-90348010D01*
X137621521Y-90556749D01*
X136685574Y-90556749D01*
X136648251Y-90553073D01*
X136610928Y-90556749D01*
X136610918Y-90556749D01*
X136600811Y-90557744D01*
X136620000Y-90461275D01*
X136620000Y-89942225D01*
X136518739Y-89433149D01*
X136320107Y-88953609D01*
X136031738Y-88522035D01*
X135664715Y-88155012D01*
X135493710Y-88040750D01*
X145369178Y-88040750D01*
X145406500Y-88044426D01*
X145443822Y-88040750D01*
X145443833Y-88040750D01*
X145555486Y-88029753D01*
X145698747Y-87986296D01*
X145830776Y-87915724D01*
X145946501Y-87820751D01*
X145970304Y-87791747D01*
X151019091Y-82742961D01*
X151036213Y-82774994D01*
X151115565Y-82871685D01*
X151212256Y-82951037D01*
X151322570Y-83010002D01*
X151442268Y-83046312D01*
X151566750Y-83058572D01*
X151781000Y-83055500D01*
X151939750Y-82896750D01*
X151939750Y-82247500D01*
X151919750Y-82247500D01*
X151919750Y-81993500D01*
X151939750Y-81993500D01*
X151939750Y-81973500D01*
X152193750Y-81973500D01*
X152193750Y-81993500D01*
X152213750Y-81993500D01*
X152213750Y-82247500D01*
X152193750Y-82247500D01*
X152193750Y-82896750D01*
X152352500Y-83055500D01*
X152566750Y-83058572D01*
X152691232Y-83046312D01*
X152810930Y-83010002D01*
X152921244Y-82951037D01*
X153017935Y-82871685D01*
X153066750Y-82812204D01*
X153115565Y-82871685D01*
X153212256Y-82951037D01*
X153322570Y-83010002D01*
X153442268Y-83046312D01*
X153566750Y-83058572D01*
X154566750Y-83058572D01*
X154691232Y-83046312D01*
X154810930Y-83010002D01*
X154921244Y-82951037D01*
X155017935Y-82871685D01*
X155097287Y-82774994D01*
X155139778Y-82695500D01*
X155922428Y-82695500D01*
X155934688Y-82819982D01*
X155970998Y-82939680D01*
X156029963Y-83049994D01*
X156109315Y-83146685D01*
X156206006Y-83226037D01*
X156316320Y-83285002D01*
X156436018Y-83321312D01*
X156560500Y-83333572D01*
X156749750Y-83330500D01*
X156908500Y-83171750D01*
X156908500Y-82385000D01*
X157162500Y-82385000D01*
X157162500Y-83171750D01*
X157321250Y-83330500D01*
X157510500Y-83333572D01*
X157634982Y-83321312D01*
X157754680Y-83285002D01*
X157864994Y-83226037D01*
X157961685Y-83146685D01*
X158041037Y-83049994D01*
X158100002Y-82939680D01*
X158136312Y-82819982D01*
X158148572Y-82695500D01*
X158145500Y-82543750D01*
X157986750Y-82385000D01*
X157162500Y-82385000D01*
X156908500Y-82385000D01*
X156084250Y-82385000D01*
X155925500Y-82543750D01*
X155922428Y-82695500D01*
X155139778Y-82695500D01*
X155156252Y-82664680D01*
X155192562Y-82544982D01*
X155204822Y-82420500D01*
X155204822Y-81820500D01*
X155192562Y-81696018D01*
X155156252Y-81576320D01*
X155125079Y-81518000D01*
X156002171Y-81518000D01*
X155970998Y-81576320D01*
G36*
X140939176Y-80647126D02*
G01*
X140853617Y-80853683D01*
X140810000Y-81072962D01*
X140810000Y-81296538D01*
X140853617Y-81515817D01*
X140939176Y-81722374D01*
X141063388Y-81908270D01*
X141221480Y-82066362D01*
X141407376Y-82190574D01*
X141613933Y-82276133D01*
X141833212Y-82319750D01*
X142056788Y-82319750D01*
X142276067Y-82276133D01*
X142482624Y-82190574D01*
X142668520Y-82066362D01*
X142826612Y-81908270D01*
X142950824Y-81722374D01*
X143036383Y-81515817D01*
X143080000Y-81296538D01*
X143080000Y-81072962D01*
X143036383Y-80853683D01*
X142950824Y-80647126D01*
X142884423Y-80547750D01*
X145405577Y-80547750D01*
X145339176Y-80647126D01*
X145253617Y-80853683D01*
X145210000Y-81072962D01*
X145210000Y-81296538D01*
X145253617Y-81515817D01*
X145339176Y-81722374D01*
X145463388Y-81908270D01*
X145621480Y-82066362D01*
X145807376Y-82190574D01*
X146013933Y-82276133D01*
X146233212Y-82319750D01*
X146456788Y-82319750D01*
X146676067Y-82276133D01*
X146882624Y-82190574D01*
X147068520Y-82066362D01*
X147226612Y-81908270D01*
X147350824Y-81722374D01*
X147436383Y-81515817D01*
X147480000Y-81296538D01*
X147480000Y-81072962D01*
X147436383Y-80853683D01*
X147350824Y-80647126D01*
X147284423Y-80547750D01*
X150928678Y-80547750D01*
X150928678Y-80683770D01*
X145091699Y-86520750D01*
X136042051Y-86520750D01*
X136623252Y-85939549D01*
X136652251Y-85915751D01*
X136747224Y-85800026D01*
X136817796Y-85667997D01*
X136861253Y-85524736D01*
X136872250Y-85413083D01*
X136872250Y-85413075D01*
X136875926Y-85375750D01*
X136872250Y-85338425D01*
X136872250Y-82695500D01*
X136872428Y-82695500D01*
X136884688Y-82819982D01*
X136920998Y-82939680D01*
X136979963Y-83049994D01*
X137059315Y-83146685D01*
X137156006Y-83226037D01*
X137266320Y-83285002D01*
X137386018Y-83321312D01*
X137510500Y-83333572D01*
X137699750Y-83330500D01*
X137858500Y-83171750D01*
X137858500Y-82385000D01*
X138112500Y-82385000D01*
X138112500Y-83171750D01*
X138271250Y-83330500D01*
X138460500Y-83333572D01*
X138584982Y-83321312D01*
X138704680Y-83285002D01*
X138814994Y-83226037D01*
X138911685Y-83146685D01*
X138991037Y-83049994D01*
X139050002Y-82939680D01*
X139086312Y-82819982D01*
X139098572Y-82695500D01*
X139095500Y-82543750D01*
X138936750Y-82385000D01*
X138112500Y-82385000D01*
X137858500Y-82385000D01*
X137034250Y-82385000D01*
X136875500Y-82543750D01*
X136872428Y-82695500D01*
X136872250Y-82695500D01*
X136872250Y-82503325D01*
X136875926Y-82466000D01*
X136872250Y-82428675D01*
X136872250Y-82428667D01*
X136861253Y-82317014D01*
X136817796Y-82173753D01*
X136747224Y-82041724D01*
X136652251Y-81925999D01*
X136623248Y-81902197D01*
X136330554Y-81609503D01*
X136306751Y-81580499D01*
X136230596Y-81518000D01*
X136952171Y-81518000D01*
X136920998Y-81576320D01*
X136884688Y-81696018D01*
X136872428Y-81820500D01*
X136875500Y-81972250D01*
X137034250Y-82131000D01*
X137858500Y-82131000D01*
X137858500Y-82111000D01*
X138112500Y-82111000D01*
X138112500Y-82131000D01*
X138936750Y-82131000D01*
X139095500Y-81972250D01*
X139098572Y-81820500D01*
X139086312Y-81696018D01*
X139050002Y-81576320D01*
X138991037Y-81466006D01*
X138936400Y-81399430D01*
X138954171Y-81377775D01*
X139033350Y-81229642D01*
X139082108Y-81068908D01*
X139098572Y-80901750D01*
X139098572Y-80547750D01*
X141005577Y-80547750D01*
X140939176Y-80647126D01*
X140939176Y-80647126D01*
G37*
X140939176Y-80647126D02*
X140853617Y-80853683D01*
X140810000Y-81072962D01*
X140810000Y-81296538D01*
X140853617Y-81515817D01*
X140939176Y-81722374D01*
X141063388Y-81908270D01*
X141221480Y-82066362D01*
X141407376Y-82190574D01*
X141613933Y-82276133D01*
X141833212Y-82319750D01*
X142056788Y-82319750D01*
X142276067Y-82276133D01*
X142482624Y-82190574D01*
X142668520Y-82066362D01*
X142826612Y-81908270D01*
X142950824Y-81722374D01*
X143036383Y-81515817D01*
X143080000Y-81296538D01*
X143080000Y-81072962D01*
X143036383Y-80853683D01*
X142950824Y-80647126D01*
X142884423Y-80547750D01*
X145405577Y-80547750D01*
X145339176Y-80647126D01*
X145253617Y-80853683D01*
X145210000Y-81072962D01*
X145210000Y-81296538D01*
X145253617Y-81515817D01*
X145339176Y-81722374D01*
X145463388Y-81908270D01*
X145621480Y-82066362D01*
X145807376Y-82190574D01*
X146013933Y-82276133D01*
X146233212Y-82319750D01*
X146456788Y-82319750D01*
X146676067Y-82276133D01*
X146882624Y-82190574D01*
X147068520Y-82066362D01*
X147226612Y-81908270D01*
X147350824Y-81722374D01*
X147436383Y-81515817D01*
X147480000Y-81296538D01*
X147480000Y-81072962D01*
X147436383Y-80853683D01*
X147350824Y-80647126D01*
X147284423Y-80547750D01*
X150928678Y-80547750D01*
X150928678Y-80683770D01*
X145091699Y-86520750D01*
X136042051Y-86520750D01*
X136623252Y-85939549D01*
X136652251Y-85915751D01*
X136747224Y-85800026D01*
X136817796Y-85667997D01*
X136861253Y-85524736D01*
X136872250Y-85413083D01*
X136872250Y-85413075D01*
X136875926Y-85375750D01*
X136872250Y-85338425D01*
X136872250Y-82695500D01*
X136872428Y-82695500D01*
X136884688Y-82819982D01*
X136920998Y-82939680D01*
X136979963Y-83049994D01*
X137059315Y-83146685D01*
X137156006Y-83226037D01*
X137266320Y-83285002D01*
X137386018Y-83321312D01*
X137510500Y-83333572D01*
X137699750Y-83330500D01*
X137858500Y-83171750D01*
X137858500Y-82385000D01*
X138112500Y-82385000D01*
X138112500Y-83171750D01*
X138271250Y-83330500D01*
X138460500Y-83333572D01*
X138584982Y-83321312D01*
X138704680Y-83285002D01*
X138814994Y-83226037D01*
X138911685Y-83146685D01*
X138991037Y-83049994D01*
X139050002Y-82939680D01*
X139086312Y-82819982D01*
X139098572Y-82695500D01*
X139095500Y-82543750D01*
X138936750Y-82385000D01*
X138112500Y-82385000D01*
X137858500Y-82385000D01*
X137034250Y-82385000D01*
X136875500Y-82543750D01*
X136872428Y-82695500D01*
X136872250Y-82695500D01*
X136872250Y-82503325D01*
X136875926Y-82466000D01*
X136872250Y-82428675D01*
X136872250Y-82428667D01*
X136861253Y-82317014D01*
X136817796Y-82173753D01*
X136747224Y-82041724D01*
X136652251Y-81925999D01*
X136623248Y-81902197D01*
X136330554Y-81609503D01*
X136306751Y-81580499D01*
X136230596Y-81518000D01*
X136952171Y-81518000D01*
X136920998Y-81576320D01*
X136884688Y-81696018D01*
X136872428Y-81820500D01*
X136875500Y-81972250D01*
X137034250Y-82131000D01*
X137858500Y-82131000D01*
X137858500Y-82111000D01*
X138112500Y-82111000D01*
X138112500Y-82131000D01*
X138936750Y-82131000D01*
X139095500Y-81972250D01*
X139098572Y-81820500D01*
X139086312Y-81696018D01*
X139050002Y-81576320D01*
X138991037Y-81466006D01*
X138936400Y-81399430D01*
X138954171Y-81377775D01*
X139033350Y-81229642D01*
X139082108Y-81068908D01*
X139098572Y-80901750D01*
X139098572Y-80547750D01*
X141005577Y-80547750D01*
X140939176Y-80647126D01*
M02*
