G04 #@! TF.GenerationSoftware,KiCad,Pcbnew,5.1.2-f72e74a~84~ubuntu18.04.1*
G04 #@! TF.CreationDate,2019-07-07T22:09:53+01:00*
G04 #@! TF.ProjectId,macro-kb,6d616372-6f2d-46b6-922e-6b696361645f,rev?*
G04 #@! TF.SameCoordinates,Original*
G04 #@! TF.FileFunction,Legend,Top*
G04 #@! TF.FilePolarity,Positive*
%FSLAX46Y46*%
G04 Gerber Fmt 4.6, Leading zero omitted, Abs format (unit mm)*
G04 Created by KiCad (PCBNEW 5.1.2-f72e74a~84~ubuntu18.04.1) date 2019-07-07 22:09:53*
%MOMM*%
%LPD*%
G04 APERTURE LIST*
%ADD10C,0.120000*%
%ADD11C,1.802000*%
%ADD12C,4.102000*%
%ADD13C,2.302000*%
%ADD14C,3.302000*%
%ADD15C,1.102000*%
%ADD16C,0.852000*%
%ADD17C,0.100000*%
%ADD18C,0.977000*%
%ADD19R,1.102000X0.702000*%
G04 APERTURE END LIST*
D10*
X140970000Y-83216750D02*
X140970000Y-97186750D01*
X127000000Y-83216750D02*
X140970000Y-83216750D01*
X127000000Y-97186750D02*
X127000000Y-83216750D01*
X140970000Y-97186750D02*
X127000000Y-97186750D01*
X121920000Y-97186750D02*
X107950000Y-97186750D01*
X107950000Y-97186750D02*
X107950000Y-83216750D01*
X107950000Y-83216750D02*
X121920000Y-83216750D01*
X121920000Y-83216750D02*
X121920000Y-97186750D01*
X160020000Y-97186750D02*
X146050000Y-97186750D01*
X146050000Y-97186750D02*
X146050000Y-83216750D01*
X146050000Y-83216750D02*
X160020000Y-83216750D01*
X160020000Y-83216750D02*
X160020000Y-97186750D01*
X121920000Y-102266750D02*
X121920000Y-116236750D01*
X107950000Y-102266750D02*
X121920000Y-102266750D01*
X107950000Y-116236750D02*
X107950000Y-102266750D01*
X121920000Y-116236750D02*
X107950000Y-116236750D01*
X140970000Y-116236750D02*
X127000000Y-116236750D01*
X127000000Y-116236750D02*
X127000000Y-102266750D01*
X127000000Y-102266750D02*
X140970000Y-102266750D01*
X140970000Y-102266750D02*
X140970000Y-116236750D01*
X160020000Y-102266750D02*
X160020000Y-116236750D01*
X146050000Y-102266750D02*
X160020000Y-102266750D01*
X146050000Y-116236750D02*
X146050000Y-102266750D01*
X160020000Y-116236750D02*
X146050000Y-116236750D01*
X118425500Y-81307721D02*
X118425500Y-81633279D01*
X119445500Y-81307721D02*
X119445500Y-81633279D01*
X138495500Y-81307721D02*
X138495500Y-81633279D01*
X137475500Y-81307721D02*
X137475500Y-81633279D01*
X157545500Y-81307721D02*
X157545500Y-81633279D01*
X156525500Y-81307721D02*
X156525500Y-81633279D01*
X118425500Y-100357721D02*
X118425500Y-100683279D01*
X119445500Y-100357721D02*
X119445500Y-100683279D01*
X138495500Y-100363971D02*
X138495500Y-100689529D01*
X137475500Y-100363971D02*
X137475500Y-100689529D01*
X156525500Y-100357721D02*
X156525500Y-100683279D01*
X157545500Y-100357721D02*
X157545500Y-100683279D01*
X113066750Y-82870500D02*
X113066750Y-82120500D01*
X113066750Y-82870500D02*
X116866750Y-82870500D01*
X113066750Y-80070500D02*
X116866750Y-80070500D01*
X132116750Y-82870500D02*
X132116750Y-82120500D01*
X132116750Y-82870500D02*
X135916750Y-82870500D01*
X132116750Y-80070500D02*
X135916750Y-80070500D01*
X151166750Y-80070500D02*
X154966750Y-80070500D01*
X151166750Y-82870500D02*
X154966750Y-82870500D01*
X151166750Y-82870500D02*
X151166750Y-82120500D01*
X113066750Y-99120500D02*
X116866750Y-99120500D01*
X113066750Y-101920500D02*
X116866750Y-101920500D01*
X113066750Y-101920500D02*
X113066750Y-101170500D01*
X132116750Y-101920500D02*
X132116750Y-101170500D01*
X132116750Y-101920500D02*
X135916750Y-101920500D01*
X132116750Y-99120500D02*
X135916750Y-99120500D01*
X151166750Y-99120500D02*
X154966750Y-99120500D01*
X151166750Y-101920500D02*
X154966750Y-101920500D01*
X151166750Y-101920500D02*
X151166750Y-101170500D01*
X113031035Y-81159785D02*
X112602464Y-81159785D01*
X112816750Y-81159785D02*
X112816750Y-80409785D01*
X112745321Y-80516928D01*
X112673892Y-80588357D01*
X112602464Y-80624071D01*
X132081035Y-81159785D02*
X131652464Y-81159785D01*
X131866750Y-81159785D02*
X131866750Y-80409785D01*
X131795321Y-80516928D01*
X131723892Y-80588357D01*
X131652464Y-80624071D01*
X151131035Y-81159785D02*
X150702464Y-81159785D01*
X150916750Y-81159785D02*
X150916750Y-80409785D01*
X150845321Y-80516928D01*
X150773892Y-80588357D01*
X150702464Y-80624071D01*
X113031035Y-100209785D02*
X112602464Y-100209785D01*
X112816750Y-100209785D02*
X112816750Y-99459785D01*
X112745321Y-99566928D01*
X112673892Y-99638357D01*
X112602464Y-99674071D01*
X132081035Y-100209785D02*
X131652464Y-100209785D01*
X131866750Y-100209785D02*
X131866750Y-99459785D01*
X131795321Y-99566928D01*
X131723892Y-99638357D01*
X131652464Y-99674071D01*
X151131035Y-100209785D02*
X150702464Y-100209785D01*
X150916750Y-100209785D02*
X150916750Y-99459785D01*
X150845321Y-99566928D01*
X150773892Y-99638357D01*
X150702464Y-99674071D01*
%LPC*%
D11*
X128905000Y-90201750D03*
X139065000Y-90201750D03*
D12*
X133985000Y-90201750D03*
D13*
X137795000Y-92741750D03*
X131445000Y-95281750D03*
D14*
X104648000Y-119570500D03*
X163385500Y-119570500D03*
X163385500Y-79883000D03*
X104648000Y-79883000D03*
D15*
X146345000Y-81184750D03*
X141945000Y-81184750D03*
D13*
X112395000Y-95281750D03*
X118745000Y-92741750D03*
D12*
X114935000Y-90201750D03*
D11*
X120015000Y-90201750D03*
X109855000Y-90201750D03*
D13*
X150495000Y-95281750D03*
X156845000Y-92741750D03*
D12*
X153035000Y-90201750D03*
D11*
X158115000Y-90201750D03*
X147955000Y-90201750D03*
X109855000Y-109251750D03*
X120015000Y-109251750D03*
D12*
X114935000Y-109251750D03*
D13*
X118745000Y-111791750D03*
X112395000Y-114331750D03*
X131445000Y-114331750D03*
X137795000Y-111791750D03*
D12*
X133985000Y-109251750D03*
D11*
X139065000Y-109251750D03*
X128905000Y-109251750D03*
X147955000Y-109251750D03*
X158115000Y-109251750D03*
D12*
X153035000Y-109251750D03*
D13*
X156845000Y-111791750D03*
X150495000Y-114331750D03*
D16*
X120523000Y-87608000D03*
X120523000Y-84858000D03*
D17*
G36*
X119241191Y-81770676D02*
G01*
X119264901Y-81774193D01*
X119288152Y-81780017D01*
X119310720Y-81788092D01*
X119332389Y-81798341D01*
X119352948Y-81810664D01*
X119372201Y-81824942D01*
X119389961Y-81841039D01*
X119406058Y-81858799D01*
X119420336Y-81878052D01*
X119432659Y-81898611D01*
X119442908Y-81920280D01*
X119450983Y-81942848D01*
X119456807Y-81966099D01*
X119460324Y-81989809D01*
X119461500Y-82013750D01*
X119461500Y-82502250D01*
X119460324Y-82526191D01*
X119456807Y-82549901D01*
X119450983Y-82573152D01*
X119442908Y-82595720D01*
X119432659Y-82617389D01*
X119420336Y-82637948D01*
X119406058Y-82657201D01*
X119389961Y-82674961D01*
X119372201Y-82691058D01*
X119352948Y-82705336D01*
X119332389Y-82717659D01*
X119310720Y-82727908D01*
X119288152Y-82735983D01*
X119264901Y-82741807D01*
X119241191Y-82745324D01*
X119217250Y-82746500D01*
X118653750Y-82746500D01*
X118629809Y-82745324D01*
X118606099Y-82741807D01*
X118582848Y-82735983D01*
X118560280Y-82727908D01*
X118538611Y-82717659D01*
X118518052Y-82705336D01*
X118498799Y-82691058D01*
X118481039Y-82674961D01*
X118464942Y-82657201D01*
X118450664Y-82637948D01*
X118438341Y-82617389D01*
X118428092Y-82595720D01*
X118420017Y-82573152D01*
X118414193Y-82549901D01*
X118410676Y-82526191D01*
X118409500Y-82502250D01*
X118409500Y-82013750D01*
X118410676Y-81989809D01*
X118414193Y-81966099D01*
X118420017Y-81942848D01*
X118428092Y-81920280D01*
X118438341Y-81898611D01*
X118450664Y-81878052D01*
X118464942Y-81858799D01*
X118481039Y-81841039D01*
X118498799Y-81824942D01*
X118518052Y-81810664D01*
X118538611Y-81798341D01*
X118560280Y-81788092D01*
X118582848Y-81780017D01*
X118606099Y-81774193D01*
X118629809Y-81770676D01*
X118653750Y-81769500D01*
X119217250Y-81769500D01*
X119241191Y-81770676D01*
X119241191Y-81770676D01*
G37*
D18*
X118935500Y-82258000D03*
D17*
G36*
X119241191Y-80195676D02*
G01*
X119264901Y-80199193D01*
X119288152Y-80205017D01*
X119310720Y-80213092D01*
X119332389Y-80223341D01*
X119352948Y-80235664D01*
X119372201Y-80249942D01*
X119389961Y-80266039D01*
X119406058Y-80283799D01*
X119420336Y-80303052D01*
X119432659Y-80323611D01*
X119442908Y-80345280D01*
X119450983Y-80367848D01*
X119456807Y-80391099D01*
X119460324Y-80414809D01*
X119461500Y-80438750D01*
X119461500Y-80927250D01*
X119460324Y-80951191D01*
X119456807Y-80974901D01*
X119450983Y-80998152D01*
X119442908Y-81020720D01*
X119432659Y-81042389D01*
X119420336Y-81062948D01*
X119406058Y-81082201D01*
X119389961Y-81099961D01*
X119372201Y-81116058D01*
X119352948Y-81130336D01*
X119332389Y-81142659D01*
X119310720Y-81152908D01*
X119288152Y-81160983D01*
X119264901Y-81166807D01*
X119241191Y-81170324D01*
X119217250Y-81171500D01*
X118653750Y-81171500D01*
X118629809Y-81170324D01*
X118606099Y-81166807D01*
X118582848Y-81160983D01*
X118560280Y-81152908D01*
X118538611Y-81142659D01*
X118518052Y-81130336D01*
X118498799Y-81116058D01*
X118481039Y-81099961D01*
X118464942Y-81082201D01*
X118450664Y-81062948D01*
X118438341Y-81042389D01*
X118428092Y-81020720D01*
X118420017Y-80998152D01*
X118414193Y-80974901D01*
X118410676Y-80951191D01*
X118409500Y-80927250D01*
X118409500Y-80438750D01*
X118410676Y-80414809D01*
X118414193Y-80391099D01*
X118420017Y-80367848D01*
X118428092Y-80345280D01*
X118438341Y-80323611D01*
X118450664Y-80303052D01*
X118464942Y-80283799D01*
X118481039Y-80266039D01*
X118498799Y-80249942D01*
X118518052Y-80235664D01*
X118538611Y-80223341D01*
X118560280Y-80213092D01*
X118582848Y-80205017D01*
X118606099Y-80199193D01*
X118629809Y-80195676D01*
X118653750Y-80194500D01*
X119217250Y-80194500D01*
X119241191Y-80195676D01*
X119241191Y-80195676D01*
G37*
D18*
X118935500Y-80683000D03*
D17*
G36*
X138291191Y-80195676D02*
G01*
X138314901Y-80199193D01*
X138338152Y-80205017D01*
X138360720Y-80213092D01*
X138382389Y-80223341D01*
X138402948Y-80235664D01*
X138422201Y-80249942D01*
X138439961Y-80266039D01*
X138456058Y-80283799D01*
X138470336Y-80303052D01*
X138482659Y-80323611D01*
X138492908Y-80345280D01*
X138500983Y-80367848D01*
X138506807Y-80391099D01*
X138510324Y-80414809D01*
X138511500Y-80438750D01*
X138511500Y-80927250D01*
X138510324Y-80951191D01*
X138506807Y-80974901D01*
X138500983Y-80998152D01*
X138492908Y-81020720D01*
X138482659Y-81042389D01*
X138470336Y-81062948D01*
X138456058Y-81082201D01*
X138439961Y-81099961D01*
X138422201Y-81116058D01*
X138402948Y-81130336D01*
X138382389Y-81142659D01*
X138360720Y-81152908D01*
X138338152Y-81160983D01*
X138314901Y-81166807D01*
X138291191Y-81170324D01*
X138267250Y-81171500D01*
X137703750Y-81171500D01*
X137679809Y-81170324D01*
X137656099Y-81166807D01*
X137632848Y-81160983D01*
X137610280Y-81152908D01*
X137588611Y-81142659D01*
X137568052Y-81130336D01*
X137548799Y-81116058D01*
X137531039Y-81099961D01*
X137514942Y-81082201D01*
X137500664Y-81062948D01*
X137488341Y-81042389D01*
X137478092Y-81020720D01*
X137470017Y-80998152D01*
X137464193Y-80974901D01*
X137460676Y-80951191D01*
X137459500Y-80927250D01*
X137459500Y-80438750D01*
X137460676Y-80414809D01*
X137464193Y-80391099D01*
X137470017Y-80367848D01*
X137478092Y-80345280D01*
X137488341Y-80323611D01*
X137500664Y-80303052D01*
X137514942Y-80283799D01*
X137531039Y-80266039D01*
X137548799Y-80249942D01*
X137568052Y-80235664D01*
X137588611Y-80223341D01*
X137610280Y-80213092D01*
X137632848Y-80205017D01*
X137656099Y-80199193D01*
X137679809Y-80195676D01*
X137703750Y-80194500D01*
X138267250Y-80194500D01*
X138291191Y-80195676D01*
X138291191Y-80195676D01*
G37*
D18*
X137985500Y-80683000D03*
D17*
G36*
X138291191Y-81770676D02*
G01*
X138314901Y-81774193D01*
X138338152Y-81780017D01*
X138360720Y-81788092D01*
X138382389Y-81798341D01*
X138402948Y-81810664D01*
X138422201Y-81824942D01*
X138439961Y-81841039D01*
X138456058Y-81858799D01*
X138470336Y-81878052D01*
X138482659Y-81898611D01*
X138492908Y-81920280D01*
X138500983Y-81942848D01*
X138506807Y-81966099D01*
X138510324Y-81989809D01*
X138511500Y-82013750D01*
X138511500Y-82502250D01*
X138510324Y-82526191D01*
X138506807Y-82549901D01*
X138500983Y-82573152D01*
X138492908Y-82595720D01*
X138482659Y-82617389D01*
X138470336Y-82637948D01*
X138456058Y-82657201D01*
X138439961Y-82674961D01*
X138422201Y-82691058D01*
X138402948Y-82705336D01*
X138382389Y-82717659D01*
X138360720Y-82727908D01*
X138338152Y-82735983D01*
X138314901Y-82741807D01*
X138291191Y-82745324D01*
X138267250Y-82746500D01*
X137703750Y-82746500D01*
X137679809Y-82745324D01*
X137656099Y-82741807D01*
X137632848Y-82735983D01*
X137610280Y-82727908D01*
X137588611Y-82717659D01*
X137568052Y-82705336D01*
X137548799Y-82691058D01*
X137531039Y-82674961D01*
X137514942Y-82657201D01*
X137500664Y-82637948D01*
X137488341Y-82617389D01*
X137478092Y-82595720D01*
X137470017Y-82573152D01*
X137464193Y-82549901D01*
X137460676Y-82526191D01*
X137459500Y-82502250D01*
X137459500Y-82013750D01*
X137460676Y-81989809D01*
X137464193Y-81966099D01*
X137470017Y-81942848D01*
X137478092Y-81920280D01*
X137488341Y-81898611D01*
X137500664Y-81878052D01*
X137514942Y-81858799D01*
X137531039Y-81841039D01*
X137548799Y-81824942D01*
X137568052Y-81810664D01*
X137588611Y-81798341D01*
X137610280Y-81788092D01*
X137632848Y-81780017D01*
X137656099Y-81774193D01*
X137679809Y-81770676D01*
X137703750Y-81769500D01*
X138267250Y-81769500D01*
X138291191Y-81770676D01*
X138291191Y-81770676D01*
G37*
D18*
X137985500Y-82258000D03*
D17*
G36*
X157341191Y-80195676D02*
G01*
X157364901Y-80199193D01*
X157388152Y-80205017D01*
X157410720Y-80213092D01*
X157432389Y-80223341D01*
X157452948Y-80235664D01*
X157472201Y-80249942D01*
X157489961Y-80266039D01*
X157506058Y-80283799D01*
X157520336Y-80303052D01*
X157532659Y-80323611D01*
X157542908Y-80345280D01*
X157550983Y-80367848D01*
X157556807Y-80391099D01*
X157560324Y-80414809D01*
X157561500Y-80438750D01*
X157561500Y-80927250D01*
X157560324Y-80951191D01*
X157556807Y-80974901D01*
X157550983Y-80998152D01*
X157542908Y-81020720D01*
X157532659Y-81042389D01*
X157520336Y-81062948D01*
X157506058Y-81082201D01*
X157489961Y-81099961D01*
X157472201Y-81116058D01*
X157452948Y-81130336D01*
X157432389Y-81142659D01*
X157410720Y-81152908D01*
X157388152Y-81160983D01*
X157364901Y-81166807D01*
X157341191Y-81170324D01*
X157317250Y-81171500D01*
X156753750Y-81171500D01*
X156729809Y-81170324D01*
X156706099Y-81166807D01*
X156682848Y-81160983D01*
X156660280Y-81152908D01*
X156638611Y-81142659D01*
X156618052Y-81130336D01*
X156598799Y-81116058D01*
X156581039Y-81099961D01*
X156564942Y-81082201D01*
X156550664Y-81062948D01*
X156538341Y-81042389D01*
X156528092Y-81020720D01*
X156520017Y-80998152D01*
X156514193Y-80974901D01*
X156510676Y-80951191D01*
X156509500Y-80927250D01*
X156509500Y-80438750D01*
X156510676Y-80414809D01*
X156514193Y-80391099D01*
X156520017Y-80367848D01*
X156528092Y-80345280D01*
X156538341Y-80323611D01*
X156550664Y-80303052D01*
X156564942Y-80283799D01*
X156581039Y-80266039D01*
X156598799Y-80249942D01*
X156618052Y-80235664D01*
X156638611Y-80223341D01*
X156660280Y-80213092D01*
X156682848Y-80205017D01*
X156706099Y-80199193D01*
X156729809Y-80195676D01*
X156753750Y-80194500D01*
X157317250Y-80194500D01*
X157341191Y-80195676D01*
X157341191Y-80195676D01*
G37*
D18*
X157035500Y-80683000D03*
D17*
G36*
X157341191Y-81770676D02*
G01*
X157364901Y-81774193D01*
X157388152Y-81780017D01*
X157410720Y-81788092D01*
X157432389Y-81798341D01*
X157452948Y-81810664D01*
X157472201Y-81824942D01*
X157489961Y-81841039D01*
X157506058Y-81858799D01*
X157520336Y-81878052D01*
X157532659Y-81898611D01*
X157542908Y-81920280D01*
X157550983Y-81942848D01*
X157556807Y-81966099D01*
X157560324Y-81989809D01*
X157561500Y-82013750D01*
X157561500Y-82502250D01*
X157560324Y-82526191D01*
X157556807Y-82549901D01*
X157550983Y-82573152D01*
X157542908Y-82595720D01*
X157532659Y-82617389D01*
X157520336Y-82637948D01*
X157506058Y-82657201D01*
X157489961Y-82674961D01*
X157472201Y-82691058D01*
X157452948Y-82705336D01*
X157432389Y-82717659D01*
X157410720Y-82727908D01*
X157388152Y-82735983D01*
X157364901Y-82741807D01*
X157341191Y-82745324D01*
X157317250Y-82746500D01*
X156753750Y-82746500D01*
X156729809Y-82745324D01*
X156706099Y-82741807D01*
X156682848Y-82735983D01*
X156660280Y-82727908D01*
X156638611Y-82717659D01*
X156618052Y-82705336D01*
X156598799Y-82691058D01*
X156581039Y-82674961D01*
X156564942Y-82657201D01*
X156550664Y-82637948D01*
X156538341Y-82617389D01*
X156528092Y-82595720D01*
X156520017Y-82573152D01*
X156514193Y-82549901D01*
X156510676Y-82526191D01*
X156509500Y-82502250D01*
X156509500Y-82013750D01*
X156510676Y-81989809D01*
X156514193Y-81966099D01*
X156520017Y-81942848D01*
X156528092Y-81920280D01*
X156538341Y-81898611D01*
X156550664Y-81878052D01*
X156564942Y-81858799D01*
X156581039Y-81841039D01*
X156598799Y-81824942D01*
X156618052Y-81810664D01*
X156638611Y-81798341D01*
X156660280Y-81788092D01*
X156682848Y-81780017D01*
X156706099Y-81774193D01*
X156729809Y-81770676D01*
X156753750Y-81769500D01*
X157317250Y-81769500D01*
X157341191Y-81770676D01*
X157341191Y-81770676D01*
G37*
D18*
X157035500Y-82258000D03*
D17*
G36*
X119241191Y-100820676D02*
G01*
X119264901Y-100824193D01*
X119288152Y-100830017D01*
X119310720Y-100838092D01*
X119332389Y-100848341D01*
X119352948Y-100860664D01*
X119372201Y-100874942D01*
X119389961Y-100891039D01*
X119406058Y-100908799D01*
X119420336Y-100928052D01*
X119432659Y-100948611D01*
X119442908Y-100970280D01*
X119450983Y-100992848D01*
X119456807Y-101016099D01*
X119460324Y-101039809D01*
X119461500Y-101063750D01*
X119461500Y-101552250D01*
X119460324Y-101576191D01*
X119456807Y-101599901D01*
X119450983Y-101623152D01*
X119442908Y-101645720D01*
X119432659Y-101667389D01*
X119420336Y-101687948D01*
X119406058Y-101707201D01*
X119389961Y-101724961D01*
X119372201Y-101741058D01*
X119352948Y-101755336D01*
X119332389Y-101767659D01*
X119310720Y-101777908D01*
X119288152Y-101785983D01*
X119264901Y-101791807D01*
X119241191Y-101795324D01*
X119217250Y-101796500D01*
X118653750Y-101796500D01*
X118629809Y-101795324D01*
X118606099Y-101791807D01*
X118582848Y-101785983D01*
X118560280Y-101777908D01*
X118538611Y-101767659D01*
X118518052Y-101755336D01*
X118498799Y-101741058D01*
X118481039Y-101724961D01*
X118464942Y-101707201D01*
X118450664Y-101687948D01*
X118438341Y-101667389D01*
X118428092Y-101645720D01*
X118420017Y-101623152D01*
X118414193Y-101599901D01*
X118410676Y-101576191D01*
X118409500Y-101552250D01*
X118409500Y-101063750D01*
X118410676Y-101039809D01*
X118414193Y-101016099D01*
X118420017Y-100992848D01*
X118428092Y-100970280D01*
X118438341Y-100948611D01*
X118450664Y-100928052D01*
X118464942Y-100908799D01*
X118481039Y-100891039D01*
X118498799Y-100874942D01*
X118518052Y-100860664D01*
X118538611Y-100848341D01*
X118560280Y-100838092D01*
X118582848Y-100830017D01*
X118606099Y-100824193D01*
X118629809Y-100820676D01*
X118653750Y-100819500D01*
X119217250Y-100819500D01*
X119241191Y-100820676D01*
X119241191Y-100820676D01*
G37*
D18*
X118935500Y-101308000D03*
D17*
G36*
X119241191Y-99245676D02*
G01*
X119264901Y-99249193D01*
X119288152Y-99255017D01*
X119310720Y-99263092D01*
X119332389Y-99273341D01*
X119352948Y-99285664D01*
X119372201Y-99299942D01*
X119389961Y-99316039D01*
X119406058Y-99333799D01*
X119420336Y-99353052D01*
X119432659Y-99373611D01*
X119442908Y-99395280D01*
X119450983Y-99417848D01*
X119456807Y-99441099D01*
X119460324Y-99464809D01*
X119461500Y-99488750D01*
X119461500Y-99977250D01*
X119460324Y-100001191D01*
X119456807Y-100024901D01*
X119450983Y-100048152D01*
X119442908Y-100070720D01*
X119432659Y-100092389D01*
X119420336Y-100112948D01*
X119406058Y-100132201D01*
X119389961Y-100149961D01*
X119372201Y-100166058D01*
X119352948Y-100180336D01*
X119332389Y-100192659D01*
X119310720Y-100202908D01*
X119288152Y-100210983D01*
X119264901Y-100216807D01*
X119241191Y-100220324D01*
X119217250Y-100221500D01*
X118653750Y-100221500D01*
X118629809Y-100220324D01*
X118606099Y-100216807D01*
X118582848Y-100210983D01*
X118560280Y-100202908D01*
X118538611Y-100192659D01*
X118518052Y-100180336D01*
X118498799Y-100166058D01*
X118481039Y-100149961D01*
X118464942Y-100132201D01*
X118450664Y-100112948D01*
X118438341Y-100092389D01*
X118428092Y-100070720D01*
X118420017Y-100048152D01*
X118414193Y-100024901D01*
X118410676Y-100001191D01*
X118409500Y-99977250D01*
X118409500Y-99488750D01*
X118410676Y-99464809D01*
X118414193Y-99441099D01*
X118420017Y-99417848D01*
X118428092Y-99395280D01*
X118438341Y-99373611D01*
X118450664Y-99353052D01*
X118464942Y-99333799D01*
X118481039Y-99316039D01*
X118498799Y-99299942D01*
X118518052Y-99285664D01*
X118538611Y-99273341D01*
X118560280Y-99263092D01*
X118582848Y-99255017D01*
X118606099Y-99249193D01*
X118629809Y-99245676D01*
X118653750Y-99244500D01*
X119217250Y-99244500D01*
X119241191Y-99245676D01*
X119241191Y-99245676D01*
G37*
D18*
X118935500Y-99733000D03*
D17*
G36*
X138291191Y-99251926D02*
G01*
X138314901Y-99255443D01*
X138338152Y-99261267D01*
X138360720Y-99269342D01*
X138382389Y-99279591D01*
X138402948Y-99291914D01*
X138422201Y-99306192D01*
X138439961Y-99322289D01*
X138456058Y-99340049D01*
X138470336Y-99359302D01*
X138482659Y-99379861D01*
X138492908Y-99401530D01*
X138500983Y-99424098D01*
X138506807Y-99447349D01*
X138510324Y-99471059D01*
X138511500Y-99495000D01*
X138511500Y-99983500D01*
X138510324Y-100007441D01*
X138506807Y-100031151D01*
X138500983Y-100054402D01*
X138492908Y-100076970D01*
X138482659Y-100098639D01*
X138470336Y-100119198D01*
X138456058Y-100138451D01*
X138439961Y-100156211D01*
X138422201Y-100172308D01*
X138402948Y-100186586D01*
X138382389Y-100198909D01*
X138360720Y-100209158D01*
X138338152Y-100217233D01*
X138314901Y-100223057D01*
X138291191Y-100226574D01*
X138267250Y-100227750D01*
X137703750Y-100227750D01*
X137679809Y-100226574D01*
X137656099Y-100223057D01*
X137632848Y-100217233D01*
X137610280Y-100209158D01*
X137588611Y-100198909D01*
X137568052Y-100186586D01*
X137548799Y-100172308D01*
X137531039Y-100156211D01*
X137514942Y-100138451D01*
X137500664Y-100119198D01*
X137488341Y-100098639D01*
X137478092Y-100076970D01*
X137470017Y-100054402D01*
X137464193Y-100031151D01*
X137460676Y-100007441D01*
X137459500Y-99983500D01*
X137459500Y-99495000D01*
X137460676Y-99471059D01*
X137464193Y-99447349D01*
X137470017Y-99424098D01*
X137478092Y-99401530D01*
X137488341Y-99379861D01*
X137500664Y-99359302D01*
X137514942Y-99340049D01*
X137531039Y-99322289D01*
X137548799Y-99306192D01*
X137568052Y-99291914D01*
X137588611Y-99279591D01*
X137610280Y-99269342D01*
X137632848Y-99261267D01*
X137656099Y-99255443D01*
X137679809Y-99251926D01*
X137703750Y-99250750D01*
X138267250Y-99250750D01*
X138291191Y-99251926D01*
X138291191Y-99251926D01*
G37*
D18*
X137985500Y-99739250D03*
D17*
G36*
X138291191Y-100826926D02*
G01*
X138314901Y-100830443D01*
X138338152Y-100836267D01*
X138360720Y-100844342D01*
X138382389Y-100854591D01*
X138402948Y-100866914D01*
X138422201Y-100881192D01*
X138439961Y-100897289D01*
X138456058Y-100915049D01*
X138470336Y-100934302D01*
X138482659Y-100954861D01*
X138492908Y-100976530D01*
X138500983Y-100999098D01*
X138506807Y-101022349D01*
X138510324Y-101046059D01*
X138511500Y-101070000D01*
X138511500Y-101558500D01*
X138510324Y-101582441D01*
X138506807Y-101606151D01*
X138500983Y-101629402D01*
X138492908Y-101651970D01*
X138482659Y-101673639D01*
X138470336Y-101694198D01*
X138456058Y-101713451D01*
X138439961Y-101731211D01*
X138422201Y-101747308D01*
X138402948Y-101761586D01*
X138382389Y-101773909D01*
X138360720Y-101784158D01*
X138338152Y-101792233D01*
X138314901Y-101798057D01*
X138291191Y-101801574D01*
X138267250Y-101802750D01*
X137703750Y-101802750D01*
X137679809Y-101801574D01*
X137656099Y-101798057D01*
X137632848Y-101792233D01*
X137610280Y-101784158D01*
X137588611Y-101773909D01*
X137568052Y-101761586D01*
X137548799Y-101747308D01*
X137531039Y-101731211D01*
X137514942Y-101713451D01*
X137500664Y-101694198D01*
X137488341Y-101673639D01*
X137478092Y-101651970D01*
X137470017Y-101629402D01*
X137464193Y-101606151D01*
X137460676Y-101582441D01*
X137459500Y-101558500D01*
X137459500Y-101070000D01*
X137460676Y-101046059D01*
X137464193Y-101022349D01*
X137470017Y-100999098D01*
X137478092Y-100976530D01*
X137488341Y-100954861D01*
X137500664Y-100934302D01*
X137514942Y-100915049D01*
X137531039Y-100897289D01*
X137548799Y-100881192D01*
X137568052Y-100866914D01*
X137588611Y-100854591D01*
X137610280Y-100844342D01*
X137632848Y-100836267D01*
X137656099Y-100830443D01*
X137679809Y-100826926D01*
X137703750Y-100825750D01*
X138267250Y-100825750D01*
X138291191Y-100826926D01*
X138291191Y-100826926D01*
G37*
D18*
X137985500Y-101314250D03*
D17*
G36*
X157341191Y-100820676D02*
G01*
X157364901Y-100824193D01*
X157388152Y-100830017D01*
X157410720Y-100838092D01*
X157432389Y-100848341D01*
X157452948Y-100860664D01*
X157472201Y-100874942D01*
X157489961Y-100891039D01*
X157506058Y-100908799D01*
X157520336Y-100928052D01*
X157532659Y-100948611D01*
X157542908Y-100970280D01*
X157550983Y-100992848D01*
X157556807Y-101016099D01*
X157560324Y-101039809D01*
X157561500Y-101063750D01*
X157561500Y-101552250D01*
X157560324Y-101576191D01*
X157556807Y-101599901D01*
X157550983Y-101623152D01*
X157542908Y-101645720D01*
X157532659Y-101667389D01*
X157520336Y-101687948D01*
X157506058Y-101707201D01*
X157489961Y-101724961D01*
X157472201Y-101741058D01*
X157452948Y-101755336D01*
X157432389Y-101767659D01*
X157410720Y-101777908D01*
X157388152Y-101785983D01*
X157364901Y-101791807D01*
X157341191Y-101795324D01*
X157317250Y-101796500D01*
X156753750Y-101796500D01*
X156729809Y-101795324D01*
X156706099Y-101791807D01*
X156682848Y-101785983D01*
X156660280Y-101777908D01*
X156638611Y-101767659D01*
X156618052Y-101755336D01*
X156598799Y-101741058D01*
X156581039Y-101724961D01*
X156564942Y-101707201D01*
X156550664Y-101687948D01*
X156538341Y-101667389D01*
X156528092Y-101645720D01*
X156520017Y-101623152D01*
X156514193Y-101599901D01*
X156510676Y-101576191D01*
X156509500Y-101552250D01*
X156509500Y-101063750D01*
X156510676Y-101039809D01*
X156514193Y-101016099D01*
X156520017Y-100992848D01*
X156528092Y-100970280D01*
X156538341Y-100948611D01*
X156550664Y-100928052D01*
X156564942Y-100908799D01*
X156581039Y-100891039D01*
X156598799Y-100874942D01*
X156618052Y-100860664D01*
X156638611Y-100848341D01*
X156660280Y-100838092D01*
X156682848Y-100830017D01*
X156706099Y-100824193D01*
X156729809Y-100820676D01*
X156753750Y-100819500D01*
X157317250Y-100819500D01*
X157341191Y-100820676D01*
X157341191Y-100820676D01*
G37*
D18*
X157035500Y-101308000D03*
D17*
G36*
X157341191Y-99245676D02*
G01*
X157364901Y-99249193D01*
X157388152Y-99255017D01*
X157410720Y-99263092D01*
X157432389Y-99273341D01*
X157452948Y-99285664D01*
X157472201Y-99299942D01*
X157489961Y-99316039D01*
X157506058Y-99333799D01*
X157520336Y-99353052D01*
X157532659Y-99373611D01*
X157542908Y-99395280D01*
X157550983Y-99417848D01*
X157556807Y-99441099D01*
X157560324Y-99464809D01*
X157561500Y-99488750D01*
X157561500Y-99977250D01*
X157560324Y-100001191D01*
X157556807Y-100024901D01*
X157550983Y-100048152D01*
X157542908Y-100070720D01*
X157532659Y-100092389D01*
X157520336Y-100112948D01*
X157506058Y-100132201D01*
X157489961Y-100149961D01*
X157472201Y-100166058D01*
X157452948Y-100180336D01*
X157432389Y-100192659D01*
X157410720Y-100202908D01*
X157388152Y-100210983D01*
X157364901Y-100216807D01*
X157341191Y-100220324D01*
X157317250Y-100221500D01*
X156753750Y-100221500D01*
X156729809Y-100220324D01*
X156706099Y-100216807D01*
X156682848Y-100210983D01*
X156660280Y-100202908D01*
X156638611Y-100192659D01*
X156618052Y-100180336D01*
X156598799Y-100166058D01*
X156581039Y-100149961D01*
X156564942Y-100132201D01*
X156550664Y-100112948D01*
X156538341Y-100092389D01*
X156528092Y-100070720D01*
X156520017Y-100048152D01*
X156514193Y-100024901D01*
X156510676Y-100001191D01*
X156509500Y-99977250D01*
X156509500Y-99488750D01*
X156510676Y-99464809D01*
X156514193Y-99441099D01*
X156520017Y-99417848D01*
X156528092Y-99395280D01*
X156538341Y-99373611D01*
X156550664Y-99353052D01*
X156564942Y-99333799D01*
X156581039Y-99316039D01*
X156598799Y-99299942D01*
X156618052Y-99285664D01*
X156638611Y-99273341D01*
X156660280Y-99263092D01*
X156682848Y-99255017D01*
X156706099Y-99249193D01*
X156729809Y-99245676D01*
X156753750Y-99244500D01*
X157317250Y-99244500D01*
X157341191Y-99245676D01*
X157341191Y-99245676D01*
G37*
D18*
X157035500Y-99733000D03*
D19*
X113966750Y-80820500D03*
X113966750Y-82120500D03*
X115966750Y-80820500D03*
X115966750Y-82120500D03*
X133016750Y-80820500D03*
X133016750Y-82120500D03*
X135016750Y-80820500D03*
X135016750Y-82120500D03*
X154066750Y-82120500D03*
X154066750Y-80820500D03*
X152066750Y-82120500D03*
X152066750Y-80820500D03*
X115966750Y-101170500D03*
X115966750Y-99870500D03*
X113966750Y-101170500D03*
X113966750Y-99870500D03*
X133016750Y-99870500D03*
X133016750Y-101170500D03*
X135016750Y-99870500D03*
X135016750Y-101170500D03*
X154066750Y-101170500D03*
X154066750Y-99870500D03*
X152066750Y-101170500D03*
X152066750Y-99870500D03*
M02*
