G04 #@! TF.GenerationSoftware,KiCad,Pcbnew,5.1.2-f72e74a~84~ubuntu18.04.1*
G04 #@! TF.CreationDate,2019-07-07T22:09:53+01:00*
G04 #@! TF.ProjectId,macro-kb,6d616372-6f2d-46b6-922e-6b696361645f,rev?*
G04 #@! TF.SameCoordinates,Original*
G04 #@! TF.FileFunction,Soldermask,Top*
G04 #@! TF.FilePolarity,Negative*
%FSLAX46Y46*%
G04 Gerber Fmt 4.6, Leading zero omitted, Abs format (unit mm)*
G04 Created by KiCad (PCBNEW 5.1.2-f72e74a~84~ubuntu18.04.1) date 2019-07-07 22:09:53*
%MOMM*%
%LPD*%
G04 APERTURE LIST*
%ADD10C,0.100000*%
G04 APERTURE END LIST*
D10*
G36*
X163760756Y-117961798D02*
G01*
X163867079Y-117982947D01*
X164167542Y-118107403D01*
X164437951Y-118288085D01*
X164667915Y-118518049D01*
X164848597Y-118788458D01*
X164973053Y-119088921D01*
X165036500Y-119407891D01*
X165036500Y-119733109D01*
X164973053Y-120052079D01*
X164848597Y-120352542D01*
X164667915Y-120622951D01*
X164437951Y-120852915D01*
X164167542Y-121033597D01*
X163867079Y-121158053D01*
X163760756Y-121179202D01*
X163548111Y-121221500D01*
X163222889Y-121221500D01*
X163010244Y-121179202D01*
X162903921Y-121158053D01*
X162603458Y-121033597D01*
X162333049Y-120852915D01*
X162103085Y-120622951D01*
X161922403Y-120352542D01*
X161797947Y-120052079D01*
X161734500Y-119733109D01*
X161734500Y-119407891D01*
X161797947Y-119088921D01*
X161922403Y-118788458D01*
X162103085Y-118518049D01*
X162333049Y-118288085D01*
X162603458Y-118107403D01*
X162903921Y-117982947D01*
X163010244Y-117961798D01*
X163222889Y-117919500D01*
X163548111Y-117919500D01*
X163760756Y-117961798D01*
X163760756Y-117961798D01*
G37*
G36*
X105023256Y-117961798D02*
G01*
X105129579Y-117982947D01*
X105430042Y-118107403D01*
X105700451Y-118288085D01*
X105930415Y-118518049D01*
X106111097Y-118788458D01*
X106235553Y-119088921D01*
X106299000Y-119407891D01*
X106299000Y-119733109D01*
X106235553Y-120052079D01*
X106111097Y-120352542D01*
X105930415Y-120622951D01*
X105700451Y-120852915D01*
X105430042Y-121033597D01*
X105129579Y-121158053D01*
X105023256Y-121179202D01*
X104810611Y-121221500D01*
X104485389Y-121221500D01*
X104272744Y-121179202D01*
X104166421Y-121158053D01*
X103865958Y-121033597D01*
X103595549Y-120852915D01*
X103365585Y-120622951D01*
X103184903Y-120352542D01*
X103060447Y-120052079D01*
X102997000Y-119733109D01*
X102997000Y-119407891D01*
X103060447Y-119088921D01*
X103184903Y-118788458D01*
X103365585Y-118518049D01*
X103595549Y-118288085D01*
X103865958Y-118107403D01*
X104166421Y-117982947D01*
X104272744Y-117961798D01*
X104485389Y-117919500D01*
X104810611Y-117919500D01*
X105023256Y-117961798D01*
X105023256Y-117961798D01*
G37*
G36*
X131669549Y-113202866D02*
G01*
X131780734Y-113224982D01*
X131990203Y-113311747D01*
X132178720Y-113437710D01*
X132339040Y-113598030D01*
X132465003Y-113786547D01*
X132551768Y-113996016D01*
X132596000Y-114218386D01*
X132596000Y-114445114D01*
X132551768Y-114667484D01*
X132465003Y-114876953D01*
X132339040Y-115065470D01*
X132178720Y-115225790D01*
X131990203Y-115351753D01*
X131780734Y-115438518D01*
X131669549Y-115460634D01*
X131558365Y-115482750D01*
X131331635Y-115482750D01*
X131220451Y-115460634D01*
X131109266Y-115438518D01*
X130899797Y-115351753D01*
X130711280Y-115225790D01*
X130550960Y-115065470D01*
X130424997Y-114876953D01*
X130338232Y-114667484D01*
X130294000Y-114445114D01*
X130294000Y-114218386D01*
X130338232Y-113996016D01*
X130424997Y-113786547D01*
X130550960Y-113598030D01*
X130711280Y-113437710D01*
X130899797Y-113311747D01*
X131109266Y-113224982D01*
X131220451Y-113202866D01*
X131331635Y-113180750D01*
X131558365Y-113180750D01*
X131669549Y-113202866D01*
X131669549Y-113202866D01*
G37*
G36*
X112619549Y-113202866D02*
G01*
X112730734Y-113224982D01*
X112940203Y-113311747D01*
X113128720Y-113437710D01*
X113289040Y-113598030D01*
X113415003Y-113786547D01*
X113501768Y-113996016D01*
X113546000Y-114218386D01*
X113546000Y-114445114D01*
X113501768Y-114667484D01*
X113415003Y-114876953D01*
X113289040Y-115065470D01*
X113128720Y-115225790D01*
X112940203Y-115351753D01*
X112730734Y-115438518D01*
X112619549Y-115460634D01*
X112508365Y-115482750D01*
X112281635Y-115482750D01*
X112170451Y-115460634D01*
X112059266Y-115438518D01*
X111849797Y-115351753D01*
X111661280Y-115225790D01*
X111500960Y-115065470D01*
X111374997Y-114876953D01*
X111288232Y-114667484D01*
X111244000Y-114445114D01*
X111244000Y-114218386D01*
X111288232Y-113996016D01*
X111374997Y-113786547D01*
X111500960Y-113598030D01*
X111661280Y-113437710D01*
X111849797Y-113311747D01*
X112059266Y-113224982D01*
X112170451Y-113202866D01*
X112281635Y-113180750D01*
X112508365Y-113180750D01*
X112619549Y-113202866D01*
X112619549Y-113202866D01*
G37*
G36*
X150719549Y-113202866D02*
G01*
X150830734Y-113224982D01*
X151040203Y-113311747D01*
X151228720Y-113437710D01*
X151389040Y-113598030D01*
X151515003Y-113786547D01*
X151601768Y-113996016D01*
X151646000Y-114218386D01*
X151646000Y-114445114D01*
X151601768Y-114667484D01*
X151515003Y-114876953D01*
X151389040Y-115065470D01*
X151228720Y-115225790D01*
X151040203Y-115351753D01*
X150830734Y-115438518D01*
X150719549Y-115460634D01*
X150608365Y-115482750D01*
X150381635Y-115482750D01*
X150270451Y-115460634D01*
X150159266Y-115438518D01*
X149949797Y-115351753D01*
X149761280Y-115225790D01*
X149600960Y-115065470D01*
X149474997Y-114876953D01*
X149388232Y-114667484D01*
X149344000Y-114445114D01*
X149344000Y-114218386D01*
X149388232Y-113996016D01*
X149474997Y-113786547D01*
X149600960Y-113598030D01*
X149761280Y-113437710D01*
X149949797Y-113311747D01*
X150159266Y-113224982D01*
X150270451Y-113202866D01*
X150381635Y-113180750D01*
X150608365Y-113180750D01*
X150719549Y-113202866D01*
X150719549Y-113202866D01*
G37*
G36*
X157069549Y-110662866D02*
G01*
X157180734Y-110684982D01*
X157390203Y-110771747D01*
X157578720Y-110897710D01*
X157739040Y-111058030D01*
X157865003Y-111246547D01*
X157951768Y-111456016D01*
X157996000Y-111678386D01*
X157996000Y-111905114D01*
X157951768Y-112127484D01*
X157865003Y-112336953D01*
X157739040Y-112525470D01*
X157578720Y-112685790D01*
X157390203Y-112811753D01*
X157180734Y-112898518D01*
X157069549Y-112920634D01*
X156958365Y-112942750D01*
X156731635Y-112942750D01*
X156620451Y-112920634D01*
X156509266Y-112898518D01*
X156299797Y-112811753D01*
X156111280Y-112685790D01*
X155950960Y-112525470D01*
X155824997Y-112336953D01*
X155738232Y-112127484D01*
X155694000Y-111905114D01*
X155694000Y-111678386D01*
X155738232Y-111456016D01*
X155824997Y-111246547D01*
X155950960Y-111058030D01*
X156111280Y-110897710D01*
X156299797Y-110771747D01*
X156509266Y-110684982D01*
X156620451Y-110662866D01*
X156731635Y-110640750D01*
X156958365Y-110640750D01*
X157069549Y-110662866D01*
X157069549Y-110662866D01*
G37*
G36*
X138019549Y-110662866D02*
G01*
X138130734Y-110684982D01*
X138340203Y-110771747D01*
X138528720Y-110897710D01*
X138689040Y-111058030D01*
X138815003Y-111246547D01*
X138901768Y-111456016D01*
X138946000Y-111678386D01*
X138946000Y-111905114D01*
X138901768Y-112127484D01*
X138815003Y-112336953D01*
X138689040Y-112525470D01*
X138528720Y-112685790D01*
X138340203Y-112811753D01*
X138130734Y-112898518D01*
X138019549Y-112920634D01*
X137908365Y-112942750D01*
X137681635Y-112942750D01*
X137570451Y-112920634D01*
X137459266Y-112898518D01*
X137249797Y-112811753D01*
X137061280Y-112685790D01*
X136900960Y-112525470D01*
X136774997Y-112336953D01*
X136688232Y-112127484D01*
X136644000Y-111905114D01*
X136644000Y-111678386D01*
X136688232Y-111456016D01*
X136774997Y-111246547D01*
X136900960Y-111058030D01*
X137061280Y-110897710D01*
X137249797Y-110771747D01*
X137459266Y-110684982D01*
X137570451Y-110662866D01*
X137681635Y-110640750D01*
X137908365Y-110640750D01*
X138019549Y-110662866D01*
X138019549Y-110662866D01*
G37*
G36*
X118969549Y-110662866D02*
G01*
X119080734Y-110684982D01*
X119290203Y-110771747D01*
X119478720Y-110897710D01*
X119639040Y-111058030D01*
X119765003Y-111246547D01*
X119851768Y-111456016D01*
X119896000Y-111678386D01*
X119896000Y-111905114D01*
X119851768Y-112127484D01*
X119765003Y-112336953D01*
X119639040Y-112525470D01*
X119478720Y-112685790D01*
X119290203Y-112811753D01*
X119080734Y-112898518D01*
X118969549Y-112920634D01*
X118858365Y-112942750D01*
X118631635Y-112942750D01*
X118520451Y-112920634D01*
X118409266Y-112898518D01*
X118199797Y-112811753D01*
X118011280Y-112685790D01*
X117850960Y-112525470D01*
X117724997Y-112336953D01*
X117638232Y-112127484D01*
X117594000Y-111905114D01*
X117594000Y-111678386D01*
X117638232Y-111456016D01*
X117724997Y-111246547D01*
X117850960Y-111058030D01*
X118011280Y-110897710D01*
X118199797Y-110771747D01*
X118409266Y-110684982D01*
X118520451Y-110662866D01*
X118631635Y-110640750D01*
X118858365Y-110640750D01*
X118969549Y-110662866D01*
X118969549Y-110662866D01*
G37*
G36*
X134583254Y-107279568D02*
G01*
X134956511Y-107434176D01*
X134956513Y-107434177D01*
X135292436Y-107658634D01*
X135578116Y-107944314D01*
X135802574Y-108280239D01*
X135957182Y-108653496D01*
X136036000Y-109049743D01*
X136036000Y-109453757D01*
X135957182Y-109850004D01*
X135802574Y-110223261D01*
X135802573Y-110223263D01*
X135578116Y-110559186D01*
X135292436Y-110844866D01*
X134956513Y-111069323D01*
X134956512Y-111069324D01*
X134956511Y-111069324D01*
X134583254Y-111223932D01*
X134187007Y-111302750D01*
X133782993Y-111302750D01*
X133386746Y-111223932D01*
X133013489Y-111069324D01*
X133013488Y-111069324D01*
X133013487Y-111069323D01*
X132677564Y-110844866D01*
X132391884Y-110559186D01*
X132167427Y-110223263D01*
X132167426Y-110223261D01*
X132012818Y-109850004D01*
X131934000Y-109453757D01*
X131934000Y-109049743D01*
X132012818Y-108653496D01*
X132167426Y-108280239D01*
X132391884Y-107944314D01*
X132677564Y-107658634D01*
X133013487Y-107434177D01*
X133013489Y-107434176D01*
X133386746Y-107279568D01*
X133782993Y-107200750D01*
X134187007Y-107200750D01*
X134583254Y-107279568D01*
X134583254Y-107279568D01*
G37*
G36*
X115533254Y-107279568D02*
G01*
X115906511Y-107434176D01*
X115906513Y-107434177D01*
X116242436Y-107658634D01*
X116528116Y-107944314D01*
X116752574Y-108280239D01*
X116907182Y-108653496D01*
X116986000Y-109049743D01*
X116986000Y-109453757D01*
X116907182Y-109850004D01*
X116752574Y-110223261D01*
X116752573Y-110223263D01*
X116528116Y-110559186D01*
X116242436Y-110844866D01*
X115906513Y-111069323D01*
X115906512Y-111069324D01*
X115906511Y-111069324D01*
X115533254Y-111223932D01*
X115137007Y-111302750D01*
X114732993Y-111302750D01*
X114336746Y-111223932D01*
X113963489Y-111069324D01*
X113963488Y-111069324D01*
X113963487Y-111069323D01*
X113627564Y-110844866D01*
X113341884Y-110559186D01*
X113117427Y-110223263D01*
X113117426Y-110223261D01*
X112962818Y-109850004D01*
X112884000Y-109453757D01*
X112884000Y-109049743D01*
X112962818Y-108653496D01*
X113117426Y-108280239D01*
X113341884Y-107944314D01*
X113627564Y-107658634D01*
X113963487Y-107434177D01*
X113963489Y-107434176D01*
X114336746Y-107279568D01*
X114732993Y-107200750D01*
X115137007Y-107200750D01*
X115533254Y-107279568D01*
X115533254Y-107279568D01*
G37*
G36*
X153633254Y-107279568D02*
G01*
X154006511Y-107434176D01*
X154006513Y-107434177D01*
X154342436Y-107658634D01*
X154628116Y-107944314D01*
X154852574Y-108280239D01*
X155007182Y-108653496D01*
X155086000Y-109049743D01*
X155086000Y-109453757D01*
X155007182Y-109850004D01*
X154852574Y-110223261D01*
X154852573Y-110223263D01*
X154628116Y-110559186D01*
X154342436Y-110844866D01*
X154006513Y-111069323D01*
X154006512Y-111069324D01*
X154006511Y-111069324D01*
X153633254Y-111223932D01*
X153237007Y-111302750D01*
X152832993Y-111302750D01*
X152436746Y-111223932D01*
X152063489Y-111069324D01*
X152063488Y-111069324D01*
X152063487Y-111069323D01*
X151727564Y-110844866D01*
X151441884Y-110559186D01*
X151217427Y-110223263D01*
X151217426Y-110223261D01*
X151062818Y-109850004D01*
X150984000Y-109453757D01*
X150984000Y-109049743D01*
X151062818Y-108653496D01*
X151217426Y-108280239D01*
X151441884Y-107944314D01*
X151727564Y-107658634D01*
X152063487Y-107434177D01*
X152063489Y-107434176D01*
X152436746Y-107279568D01*
X152832993Y-107200750D01*
X153237007Y-107200750D01*
X153633254Y-107279568D01*
X153633254Y-107279568D01*
G37*
G36*
X139178512Y-108355677D02*
G01*
X139327812Y-108385374D01*
X139491784Y-108453294D01*
X139639354Y-108551897D01*
X139764853Y-108677396D01*
X139863456Y-108824966D01*
X139931376Y-108988938D01*
X139966000Y-109163009D01*
X139966000Y-109340491D01*
X139931376Y-109514562D01*
X139863456Y-109678534D01*
X139764853Y-109826104D01*
X139639354Y-109951603D01*
X139491784Y-110050206D01*
X139327812Y-110118126D01*
X139178512Y-110147823D01*
X139153742Y-110152750D01*
X138976258Y-110152750D01*
X138951488Y-110147823D01*
X138802188Y-110118126D01*
X138638216Y-110050206D01*
X138490646Y-109951603D01*
X138365147Y-109826104D01*
X138266544Y-109678534D01*
X138198624Y-109514562D01*
X138164000Y-109340491D01*
X138164000Y-109163009D01*
X138198624Y-108988938D01*
X138266544Y-108824966D01*
X138365147Y-108677396D01*
X138490646Y-108551897D01*
X138638216Y-108453294D01*
X138802188Y-108385374D01*
X138951488Y-108355677D01*
X138976258Y-108350750D01*
X139153742Y-108350750D01*
X139178512Y-108355677D01*
X139178512Y-108355677D01*
G37*
G36*
X129018512Y-108355677D02*
G01*
X129167812Y-108385374D01*
X129331784Y-108453294D01*
X129479354Y-108551897D01*
X129604853Y-108677396D01*
X129703456Y-108824966D01*
X129771376Y-108988938D01*
X129806000Y-109163009D01*
X129806000Y-109340491D01*
X129771376Y-109514562D01*
X129703456Y-109678534D01*
X129604853Y-109826104D01*
X129479354Y-109951603D01*
X129331784Y-110050206D01*
X129167812Y-110118126D01*
X129018512Y-110147823D01*
X128993742Y-110152750D01*
X128816258Y-110152750D01*
X128791488Y-110147823D01*
X128642188Y-110118126D01*
X128478216Y-110050206D01*
X128330646Y-109951603D01*
X128205147Y-109826104D01*
X128106544Y-109678534D01*
X128038624Y-109514562D01*
X128004000Y-109340491D01*
X128004000Y-109163009D01*
X128038624Y-108988938D01*
X128106544Y-108824966D01*
X128205147Y-108677396D01*
X128330646Y-108551897D01*
X128478216Y-108453294D01*
X128642188Y-108385374D01*
X128791488Y-108355677D01*
X128816258Y-108350750D01*
X128993742Y-108350750D01*
X129018512Y-108355677D01*
X129018512Y-108355677D01*
G37*
G36*
X148068512Y-108355677D02*
G01*
X148217812Y-108385374D01*
X148381784Y-108453294D01*
X148529354Y-108551897D01*
X148654853Y-108677396D01*
X148753456Y-108824966D01*
X148821376Y-108988938D01*
X148856000Y-109163009D01*
X148856000Y-109340491D01*
X148821376Y-109514562D01*
X148753456Y-109678534D01*
X148654853Y-109826104D01*
X148529354Y-109951603D01*
X148381784Y-110050206D01*
X148217812Y-110118126D01*
X148068512Y-110147823D01*
X148043742Y-110152750D01*
X147866258Y-110152750D01*
X147841488Y-110147823D01*
X147692188Y-110118126D01*
X147528216Y-110050206D01*
X147380646Y-109951603D01*
X147255147Y-109826104D01*
X147156544Y-109678534D01*
X147088624Y-109514562D01*
X147054000Y-109340491D01*
X147054000Y-109163009D01*
X147088624Y-108988938D01*
X147156544Y-108824966D01*
X147255147Y-108677396D01*
X147380646Y-108551897D01*
X147528216Y-108453294D01*
X147692188Y-108385374D01*
X147841488Y-108355677D01*
X147866258Y-108350750D01*
X148043742Y-108350750D01*
X148068512Y-108355677D01*
X148068512Y-108355677D01*
G37*
G36*
X120128512Y-108355677D02*
G01*
X120277812Y-108385374D01*
X120441784Y-108453294D01*
X120589354Y-108551897D01*
X120714853Y-108677396D01*
X120813456Y-108824966D01*
X120881376Y-108988938D01*
X120916000Y-109163009D01*
X120916000Y-109340491D01*
X120881376Y-109514562D01*
X120813456Y-109678534D01*
X120714853Y-109826104D01*
X120589354Y-109951603D01*
X120441784Y-110050206D01*
X120277812Y-110118126D01*
X120128512Y-110147823D01*
X120103742Y-110152750D01*
X119926258Y-110152750D01*
X119901488Y-110147823D01*
X119752188Y-110118126D01*
X119588216Y-110050206D01*
X119440646Y-109951603D01*
X119315147Y-109826104D01*
X119216544Y-109678534D01*
X119148624Y-109514562D01*
X119114000Y-109340491D01*
X119114000Y-109163009D01*
X119148624Y-108988938D01*
X119216544Y-108824966D01*
X119315147Y-108677396D01*
X119440646Y-108551897D01*
X119588216Y-108453294D01*
X119752188Y-108385374D01*
X119901488Y-108355677D01*
X119926258Y-108350750D01*
X120103742Y-108350750D01*
X120128512Y-108355677D01*
X120128512Y-108355677D01*
G37*
G36*
X158228512Y-108355677D02*
G01*
X158377812Y-108385374D01*
X158541784Y-108453294D01*
X158689354Y-108551897D01*
X158814853Y-108677396D01*
X158913456Y-108824966D01*
X158981376Y-108988938D01*
X159016000Y-109163009D01*
X159016000Y-109340491D01*
X158981376Y-109514562D01*
X158913456Y-109678534D01*
X158814853Y-109826104D01*
X158689354Y-109951603D01*
X158541784Y-110050206D01*
X158377812Y-110118126D01*
X158228512Y-110147823D01*
X158203742Y-110152750D01*
X158026258Y-110152750D01*
X158001488Y-110147823D01*
X157852188Y-110118126D01*
X157688216Y-110050206D01*
X157540646Y-109951603D01*
X157415147Y-109826104D01*
X157316544Y-109678534D01*
X157248624Y-109514562D01*
X157214000Y-109340491D01*
X157214000Y-109163009D01*
X157248624Y-108988938D01*
X157316544Y-108824966D01*
X157415147Y-108677396D01*
X157540646Y-108551897D01*
X157688216Y-108453294D01*
X157852188Y-108385374D01*
X158001488Y-108355677D01*
X158026258Y-108350750D01*
X158203742Y-108350750D01*
X158228512Y-108355677D01*
X158228512Y-108355677D01*
G37*
G36*
X109968512Y-108355677D02*
G01*
X110117812Y-108385374D01*
X110281784Y-108453294D01*
X110429354Y-108551897D01*
X110554853Y-108677396D01*
X110653456Y-108824966D01*
X110721376Y-108988938D01*
X110756000Y-109163009D01*
X110756000Y-109340491D01*
X110721376Y-109514562D01*
X110653456Y-109678534D01*
X110554853Y-109826104D01*
X110429354Y-109951603D01*
X110281784Y-110050206D01*
X110117812Y-110118126D01*
X109968512Y-110147823D01*
X109943742Y-110152750D01*
X109766258Y-110152750D01*
X109741488Y-110147823D01*
X109592188Y-110118126D01*
X109428216Y-110050206D01*
X109280646Y-109951603D01*
X109155147Y-109826104D01*
X109056544Y-109678534D01*
X108988624Y-109514562D01*
X108954000Y-109340491D01*
X108954000Y-109163009D01*
X108988624Y-108988938D01*
X109056544Y-108824966D01*
X109155147Y-108677396D01*
X109280646Y-108551897D01*
X109428216Y-108453294D01*
X109592188Y-108385374D01*
X109741488Y-108355677D01*
X109766258Y-108350750D01*
X109943742Y-108350750D01*
X109968512Y-108355677D01*
X109968512Y-108355677D01*
G37*
G36*
X138365091Y-100829835D02*
G01*
X138399069Y-100840143D01*
X138430390Y-100856884D01*
X138457839Y-100879411D01*
X138480366Y-100906860D01*
X138497107Y-100938181D01*
X138507415Y-100972159D01*
X138511500Y-101013640D01*
X138511500Y-101614860D01*
X138507415Y-101656341D01*
X138497107Y-101690319D01*
X138480366Y-101721640D01*
X138457839Y-101749089D01*
X138430390Y-101771616D01*
X138399069Y-101788357D01*
X138365091Y-101798665D01*
X138323610Y-101802750D01*
X137647390Y-101802750D01*
X137605909Y-101798665D01*
X137571931Y-101788357D01*
X137540610Y-101771616D01*
X137513161Y-101749089D01*
X137490634Y-101721640D01*
X137473893Y-101690319D01*
X137463585Y-101656341D01*
X137459500Y-101614860D01*
X137459500Y-101013640D01*
X137463585Y-100972159D01*
X137473893Y-100938181D01*
X137490634Y-100906860D01*
X137513161Y-100879411D01*
X137540610Y-100856884D01*
X137571931Y-100840143D01*
X137605909Y-100829835D01*
X137647390Y-100825750D01*
X138323610Y-100825750D01*
X138365091Y-100829835D01*
X138365091Y-100829835D01*
G37*
G36*
X157415091Y-100823585D02*
G01*
X157449069Y-100833893D01*
X157480390Y-100850634D01*
X157507839Y-100873161D01*
X157530366Y-100900610D01*
X157547107Y-100931931D01*
X157557415Y-100965909D01*
X157561500Y-101007390D01*
X157561500Y-101608610D01*
X157557415Y-101650091D01*
X157547107Y-101684069D01*
X157530366Y-101715390D01*
X157507839Y-101742839D01*
X157480390Y-101765366D01*
X157449069Y-101782107D01*
X157415091Y-101792415D01*
X157373610Y-101796500D01*
X156697390Y-101796500D01*
X156655909Y-101792415D01*
X156621931Y-101782107D01*
X156590610Y-101765366D01*
X156563161Y-101742839D01*
X156540634Y-101715390D01*
X156523893Y-101684069D01*
X156513585Y-101650091D01*
X156509500Y-101608610D01*
X156509500Y-101007390D01*
X156513585Y-100965909D01*
X156523893Y-100931931D01*
X156540634Y-100900610D01*
X156563161Y-100873161D01*
X156590610Y-100850634D01*
X156621931Y-100833893D01*
X156655909Y-100823585D01*
X156697390Y-100819500D01*
X157373610Y-100819500D01*
X157415091Y-100823585D01*
X157415091Y-100823585D01*
G37*
G36*
X119315091Y-100823585D02*
G01*
X119349069Y-100833893D01*
X119380390Y-100850634D01*
X119407839Y-100873161D01*
X119430366Y-100900610D01*
X119447107Y-100931931D01*
X119457415Y-100965909D01*
X119461500Y-101007390D01*
X119461500Y-101608610D01*
X119457415Y-101650091D01*
X119447107Y-101684069D01*
X119430366Y-101715390D01*
X119407839Y-101742839D01*
X119380390Y-101765366D01*
X119349069Y-101782107D01*
X119315091Y-101792415D01*
X119273610Y-101796500D01*
X118597390Y-101796500D01*
X118555909Y-101792415D01*
X118521931Y-101782107D01*
X118490610Y-101765366D01*
X118463161Y-101742839D01*
X118440634Y-101715390D01*
X118423893Y-101684069D01*
X118413585Y-101650091D01*
X118409500Y-101608610D01*
X118409500Y-101007390D01*
X118413585Y-100965909D01*
X118423893Y-100931931D01*
X118440634Y-100900610D01*
X118463161Y-100873161D01*
X118490610Y-100850634D01*
X118521931Y-100833893D01*
X118555909Y-100823585D01*
X118597390Y-100819500D01*
X119273610Y-100819500D01*
X119315091Y-100823585D01*
X119315091Y-100823585D01*
G37*
G36*
X133567750Y-101521500D02*
G01*
X132465750Y-101521500D01*
X132465750Y-100819500D01*
X133567750Y-100819500D01*
X133567750Y-101521500D01*
X133567750Y-101521500D01*
G37*
G36*
X154617750Y-101521500D02*
G01*
X153515750Y-101521500D01*
X153515750Y-100819500D01*
X154617750Y-100819500D01*
X154617750Y-101521500D01*
X154617750Y-101521500D01*
G37*
G36*
X152617750Y-101521500D02*
G01*
X151515750Y-101521500D01*
X151515750Y-100819500D01*
X152617750Y-100819500D01*
X152617750Y-101521500D01*
X152617750Y-101521500D01*
G37*
G36*
X116517750Y-101521500D02*
G01*
X115415750Y-101521500D01*
X115415750Y-100819500D01*
X116517750Y-100819500D01*
X116517750Y-101521500D01*
X116517750Y-101521500D01*
G37*
G36*
X135567750Y-101521500D02*
G01*
X134465750Y-101521500D01*
X134465750Y-100819500D01*
X135567750Y-100819500D01*
X135567750Y-101521500D01*
X135567750Y-101521500D01*
G37*
G36*
X114517750Y-101521500D02*
G01*
X113415750Y-101521500D01*
X113415750Y-100819500D01*
X114517750Y-100819500D01*
X114517750Y-101521500D01*
X114517750Y-101521500D01*
G37*
G36*
X138365091Y-99254835D02*
G01*
X138399069Y-99265143D01*
X138430390Y-99281884D01*
X138457839Y-99304411D01*
X138480366Y-99331860D01*
X138497107Y-99363181D01*
X138507415Y-99397159D01*
X138511500Y-99438640D01*
X138511500Y-100039860D01*
X138507415Y-100081341D01*
X138497107Y-100115319D01*
X138480366Y-100146640D01*
X138457839Y-100174089D01*
X138430390Y-100196616D01*
X138399069Y-100213357D01*
X138365091Y-100223665D01*
X138323610Y-100227750D01*
X137647390Y-100227750D01*
X137605909Y-100223665D01*
X137571931Y-100213357D01*
X137540610Y-100196616D01*
X137513161Y-100174089D01*
X137490634Y-100146640D01*
X137473893Y-100115319D01*
X137463585Y-100081341D01*
X137459500Y-100039860D01*
X137459500Y-99438640D01*
X137463585Y-99397159D01*
X137473893Y-99363181D01*
X137490634Y-99331860D01*
X137513161Y-99304411D01*
X137540610Y-99281884D01*
X137571931Y-99265143D01*
X137605909Y-99254835D01*
X137647390Y-99250750D01*
X138323610Y-99250750D01*
X138365091Y-99254835D01*
X138365091Y-99254835D01*
G37*
G36*
X154617750Y-100221500D02*
G01*
X153515750Y-100221500D01*
X153515750Y-99519500D01*
X154617750Y-99519500D01*
X154617750Y-100221500D01*
X154617750Y-100221500D01*
G37*
G36*
X152617750Y-100221500D02*
G01*
X151515750Y-100221500D01*
X151515750Y-99519500D01*
X152617750Y-99519500D01*
X152617750Y-100221500D01*
X152617750Y-100221500D01*
G37*
G36*
X157415091Y-99248585D02*
G01*
X157449069Y-99258893D01*
X157480390Y-99275634D01*
X157507839Y-99298161D01*
X157530366Y-99325610D01*
X157547107Y-99356931D01*
X157557415Y-99390909D01*
X157561500Y-99432390D01*
X157561500Y-100033610D01*
X157557415Y-100075091D01*
X157547107Y-100109069D01*
X157530366Y-100140390D01*
X157507839Y-100167839D01*
X157480390Y-100190366D01*
X157449069Y-100207107D01*
X157415091Y-100217415D01*
X157373610Y-100221500D01*
X156697390Y-100221500D01*
X156655909Y-100217415D01*
X156621931Y-100207107D01*
X156590610Y-100190366D01*
X156563161Y-100167839D01*
X156540634Y-100140390D01*
X156523893Y-100109069D01*
X156513585Y-100075091D01*
X156509500Y-100033610D01*
X156509500Y-99432390D01*
X156513585Y-99390909D01*
X156523893Y-99356931D01*
X156540634Y-99325610D01*
X156563161Y-99298161D01*
X156590610Y-99275634D01*
X156621931Y-99258893D01*
X156655909Y-99248585D01*
X156697390Y-99244500D01*
X157373610Y-99244500D01*
X157415091Y-99248585D01*
X157415091Y-99248585D01*
G37*
G36*
X119315091Y-99248585D02*
G01*
X119349069Y-99258893D01*
X119380390Y-99275634D01*
X119407839Y-99298161D01*
X119430366Y-99325610D01*
X119447107Y-99356931D01*
X119457415Y-99390909D01*
X119461500Y-99432390D01*
X119461500Y-100033610D01*
X119457415Y-100075091D01*
X119447107Y-100109069D01*
X119430366Y-100140390D01*
X119407839Y-100167839D01*
X119380390Y-100190366D01*
X119349069Y-100207107D01*
X119315091Y-100217415D01*
X119273610Y-100221500D01*
X118597390Y-100221500D01*
X118555909Y-100217415D01*
X118521931Y-100207107D01*
X118490610Y-100190366D01*
X118463161Y-100167839D01*
X118440634Y-100140390D01*
X118423893Y-100109069D01*
X118413585Y-100075091D01*
X118409500Y-100033610D01*
X118409500Y-99432390D01*
X118413585Y-99390909D01*
X118423893Y-99356931D01*
X118440634Y-99325610D01*
X118463161Y-99298161D01*
X118490610Y-99275634D01*
X118521931Y-99258893D01*
X118555909Y-99248585D01*
X118597390Y-99244500D01*
X119273610Y-99244500D01*
X119315091Y-99248585D01*
X119315091Y-99248585D01*
G37*
G36*
X116517750Y-100221500D02*
G01*
X115415750Y-100221500D01*
X115415750Y-99519500D01*
X116517750Y-99519500D01*
X116517750Y-100221500D01*
X116517750Y-100221500D01*
G37*
G36*
X114517750Y-100221500D02*
G01*
X113415750Y-100221500D01*
X113415750Y-99519500D01*
X114517750Y-99519500D01*
X114517750Y-100221500D01*
X114517750Y-100221500D01*
G37*
G36*
X133567750Y-100221500D02*
G01*
X132465750Y-100221500D01*
X132465750Y-99519500D01*
X133567750Y-99519500D01*
X133567750Y-100221500D01*
X133567750Y-100221500D01*
G37*
G36*
X135567750Y-100221500D02*
G01*
X134465750Y-100221500D01*
X134465750Y-99519500D01*
X135567750Y-99519500D01*
X135567750Y-100221500D01*
X135567750Y-100221500D01*
G37*
G36*
X112619549Y-94152866D02*
G01*
X112730734Y-94174982D01*
X112940203Y-94261747D01*
X113128720Y-94387710D01*
X113289040Y-94548030D01*
X113415003Y-94736547D01*
X113501768Y-94946016D01*
X113546000Y-95168386D01*
X113546000Y-95395114D01*
X113501768Y-95617484D01*
X113415003Y-95826953D01*
X113289040Y-96015470D01*
X113128720Y-96175790D01*
X112940203Y-96301753D01*
X112730734Y-96388518D01*
X112619549Y-96410634D01*
X112508365Y-96432750D01*
X112281635Y-96432750D01*
X112170451Y-96410634D01*
X112059266Y-96388518D01*
X111849797Y-96301753D01*
X111661280Y-96175790D01*
X111500960Y-96015470D01*
X111374997Y-95826953D01*
X111288232Y-95617484D01*
X111244000Y-95395114D01*
X111244000Y-95168386D01*
X111288232Y-94946016D01*
X111374997Y-94736547D01*
X111500960Y-94548030D01*
X111661280Y-94387710D01*
X111849797Y-94261747D01*
X112059266Y-94174982D01*
X112170451Y-94152866D01*
X112281635Y-94130750D01*
X112508365Y-94130750D01*
X112619549Y-94152866D01*
X112619549Y-94152866D01*
G37*
G36*
X131669549Y-94152866D02*
G01*
X131780734Y-94174982D01*
X131990203Y-94261747D01*
X132178720Y-94387710D01*
X132339040Y-94548030D01*
X132465003Y-94736547D01*
X132551768Y-94946016D01*
X132596000Y-95168386D01*
X132596000Y-95395114D01*
X132551768Y-95617484D01*
X132465003Y-95826953D01*
X132339040Y-96015470D01*
X132178720Y-96175790D01*
X131990203Y-96301753D01*
X131780734Y-96388518D01*
X131669549Y-96410634D01*
X131558365Y-96432750D01*
X131331635Y-96432750D01*
X131220451Y-96410634D01*
X131109266Y-96388518D01*
X130899797Y-96301753D01*
X130711280Y-96175790D01*
X130550960Y-96015470D01*
X130424997Y-95826953D01*
X130338232Y-95617484D01*
X130294000Y-95395114D01*
X130294000Y-95168386D01*
X130338232Y-94946016D01*
X130424997Y-94736547D01*
X130550960Y-94548030D01*
X130711280Y-94387710D01*
X130899797Y-94261747D01*
X131109266Y-94174982D01*
X131220451Y-94152866D01*
X131331635Y-94130750D01*
X131558365Y-94130750D01*
X131669549Y-94152866D01*
X131669549Y-94152866D01*
G37*
G36*
X150719549Y-94152866D02*
G01*
X150830734Y-94174982D01*
X151040203Y-94261747D01*
X151228720Y-94387710D01*
X151389040Y-94548030D01*
X151515003Y-94736547D01*
X151601768Y-94946016D01*
X151646000Y-95168386D01*
X151646000Y-95395114D01*
X151601768Y-95617484D01*
X151515003Y-95826953D01*
X151389040Y-96015470D01*
X151228720Y-96175790D01*
X151040203Y-96301753D01*
X150830734Y-96388518D01*
X150719549Y-96410634D01*
X150608365Y-96432750D01*
X150381635Y-96432750D01*
X150270451Y-96410634D01*
X150159266Y-96388518D01*
X149949797Y-96301753D01*
X149761280Y-96175790D01*
X149600960Y-96015470D01*
X149474997Y-95826953D01*
X149388232Y-95617484D01*
X149344000Y-95395114D01*
X149344000Y-95168386D01*
X149388232Y-94946016D01*
X149474997Y-94736547D01*
X149600960Y-94548030D01*
X149761280Y-94387710D01*
X149949797Y-94261747D01*
X150159266Y-94174982D01*
X150270451Y-94152866D01*
X150381635Y-94130750D01*
X150608365Y-94130750D01*
X150719549Y-94152866D01*
X150719549Y-94152866D01*
G37*
G36*
X157069549Y-91612866D02*
G01*
X157180734Y-91634982D01*
X157390203Y-91721747D01*
X157578720Y-91847710D01*
X157739040Y-92008030D01*
X157865003Y-92196547D01*
X157951768Y-92406016D01*
X157996000Y-92628386D01*
X157996000Y-92855114D01*
X157951768Y-93077484D01*
X157865003Y-93286953D01*
X157739040Y-93475470D01*
X157578720Y-93635790D01*
X157390203Y-93761753D01*
X157180734Y-93848518D01*
X157069549Y-93870634D01*
X156958365Y-93892750D01*
X156731635Y-93892750D01*
X156620451Y-93870634D01*
X156509266Y-93848518D01*
X156299797Y-93761753D01*
X156111280Y-93635790D01*
X155950960Y-93475470D01*
X155824997Y-93286953D01*
X155738232Y-93077484D01*
X155694000Y-92855114D01*
X155694000Y-92628386D01*
X155738232Y-92406016D01*
X155824997Y-92196547D01*
X155950960Y-92008030D01*
X156111280Y-91847710D01*
X156299797Y-91721747D01*
X156509266Y-91634982D01*
X156620451Y-91612866D01*
X156731635Y-91590750D01*
X156958365Y-91590750D01*
X157069549Y-91612866D01*
X157069549Y-91612866D01*
G37*
G36*
X138019549Y-91612866D02*
G01*
X138130734Y-91634982D01*
X138340203Y-91721747D01*
X138528720Y-91847710D01*
X138689040Y-92008030D01*
X138815003Y-92196547D01*
X138901768Y-92406016D01*
X138946000Y-92628386D01*
X138946000Y-92855114D01*
X138901768Y-93077484D01*
X138815003Y-93286953D01*
X138689040Y-93475470D01*
X138528720Y-93635790D01*
X138340203Y-93761753D01*
X138130734Y-93848518D01*
X138019549Y-93870634D01*
X137908365Y-93892750D01*
X137681635Y-93892750D01*
X137570451Y-93870634D01*
X137459266Y-93848518D01*
X137249797Y-93761753D01*
X137061280Y-93635790D01*
X136900960Y-93475470D01*
X136774997Y-93286953D01*
X136688232Y-93077484D01*
X136644000Y-92855114D01*
X136644000Y-92628386D01*
X136688232Y-92406016D01*
X136774997Y-92196547D01*
X136900960Y-92008030D01*
X137061280Y-91847710D01*
X137249797Y-91721747D01*
X137459266Y-91634982D01*
X137570451Y-91612866D01*
X137681635Y-91590750D01*
X137908365Y-91590750D01*
X138019549Y-91612866D01*
X138019549Y-91612866D01*
G37*
G36*
X118969549Y-91612866D02*
G01*
X119080734Y-91634982D01*
X119290203Y-91721747D01*
X119478720Y-91847710D01*
X119639040Y-92008030D01*
X119765003Y-92196547D01*
X119851768Y-92406016D01*
X119896000Y-92628386D01*
X119896000Y-92855114D01*
X119851768Y-93077484D01*
X119765003Y-93286953D01*
X119639040Y-93475470D01*
X119478720Y-93635790D01*
X119290203Y-93761753D01*
X119080734Y-93848518D01*
X118969549Y-93870634D01*
X118858365Y-93892750D01*
X118631635Y-93892750D01*
X118520451Y-93870634D01*
X118409266Y-93848518D01*
X118199797Y-93761753D01*
X118011280Y-93635790D01*
X117850960Y-93475470D01*
X117724997Y-93286953D01*
X117638232Y-93077484D01*
X117594000Y-92855114D01*
X117594000Y-92628386D01*
X117638232Y-92406016D01*
X117724997Y-92196547D01*
X117850960Y-92008030D01*
X118011280Y-91847710D01*
X118199797Y-91721747D01*
X118409266Y-91634982D01*
X118520451Y-91612866D01*
X118631635Y-91590750D01*
X118858365Y-91590750D01*
X118969549Y-91612866D01*
X118969549Y-91612866D01*
G37*
G36*
X134583254Y-88229568D02*
G01*
X134956511Y-88384176D01*
X134956513Y-88384177D01*
X135292436Y-88608634D01*
X135578116Y-88894314D01*
X135802574Y-89230239D01*
X135957182Y-89603496D01*
X136036000Y-89999743D01*
X136036000Y-90403757D01*
X135957182Y-90800004D01*
X135802574Y-91173261D01*
X135802573Y-91173263D01*
X135578116Y-91509186D01*
X135292436Y-91794866D01*
X134956513Y-92019323D01*
X134956512Y-92019324D01*
X134956511Y-92019324D01*
X134583254Y-92173932D01*
X134187007Y-92252750D01*
X133782993Y-92252750D01*
X133386746Y-92173932D01*
X133013489Y-92019324D01*
X133013488Y-92019324D01*
X133013487Y-92019323D01*
X132677564Y-91794866D01*
X132391884Y-91509186D01*
X132167427Y-91173263D01*
X132167426Y-91173261D01*
X132012818Y-90800004D01*
X131934000Y-90403757D01*
X131934000Y-89999743D01*
X132012818Y-89603496D01*
X132167426Y-89230239D01*
X132391884Y-88894314D01*
X132677564Y-88608634D01*
X133013487Y-88384177D01*
X133013489Y-88384176D01*
X133386746Y-88229568D01*
X133782993Y-88150750D01*
X134187007Y-88150750D01*
X134583254Y-88229568D01*
X134583254Y-88229568D01*
G37*
G36*
X153633254Y-88229568D02*
G01*
X154006511Y-88384176D01*
X154006513Y-88384177D01*
X154342436Y-88608634D01*
X154628116Y-88894314D01*
X154852574Y-89230239D01*
X155007182Y-89603496D01*
X155086000Y-89999743D01*
X155086000Y-90403757D01*
X155007182Y-90800004D01*
X154852574Y-91173261D01*
X154852573Y-91173263D01*
X154628116Y-91509186D01*
X154342436Y-91794866D01*
X154006513Y-92019323D01*
X154006512Y-92019324D01*
X154006511Y-92019324D01*
X153633254Y-92173932D01*
X153237007Y-92252750D01*
X152832993Y-92252750D01*
X152436746Y-92173932D01*
X152063489Y-92019324D01*
X152063488Y-92019324D01*
X152063487Y-92019323D01*
X151727564Y-91794866D01*
X151441884Y-91509186D01*
X151217427Y-91173263D01*
X151217426Y-91173261D01*
X151062818Y-90800004D01*
X150984000Y-90403757D01*
X150984000Y-89999743D01*
X151062818Y-89603496D01*
X151217426Y-89230239D01*
X151441884Y-88894314D01*
X151727564Y-88608634D01*
X152063487Y-88384177D01*
X152063489Y-88384176D01*
X152436746Y-88229568D01*
X152832993Y-88150750D01*
X153237007Y-88150750D01*
X153633254Y-88229568D01*
X153633254Y-88229568D01*
G37*
G36*
X115533254Y-88229568D02*
G01*
X115906511Y-88384176D01*
X115906513Y-88384177D01*
X116242436Y-88608634D01*
X116528116Y-88894314D01*
X116752574Y-89230239D01*
X116907182Y-89603496D01*
X116986000Y-89999743D01*
X116986000Y-90403757D01*
X116907182Y-90800004D01*
X116752574Y-91173261D01*
X116752573Y-91173263D01*
X116528116Y-91509186D01*
X116242436Y-91794866D01*
X115906513Y-92019323D01*
X115906512Y-92019324D01*
X115906511Y-92019324D01*
X115533254Y-92173932D01*
X115137007Y-92252750D01*
X114732993Y-92252750D01*
X114336746Y-92173932D01*
X113963489Y-92019324D01*
X113963488Y-92019324D01*
X113963487Y-92019323D01*
X113627564Y-91794866D01*
X113341884Y-91509186D01*
X113117427Y-91173263D01*
X113117426Y-91173261D01*
X112962818Y-90800004D01*
X112884000Y-90403757D01*
X112884000Y-89999743D01*
X112962818Y-89603496D01*
X113117426Y-89230239D01*
X113341884Y-88894314D01*
X113627564Y-88608634D01*
X113963487Y-88384177D01*
X113963489Y-88384176D01*
X114336746Y-88229568D01*
X114732993Y-88150750D01*
X115137007Y-88150750D01*
X115533254Y-88229568D01*
X115533254Y-88229568D01*
G37*
G36*
X148068512Y-89305677D02*
G01*
X148217812Y-89335374D01*
X148381784Y-89403294D01*
X148529354Y-89501897D01*
X148654853Y-89627396D01*
X148753456Y-89774966D01*
X148821376Y-89938938D01*
X148856000Y-90113009D01*
X148856000Y-90290491D01*
X148821376Y-90464562D01*
X148753456Y-90628534D01*
X148654853Y-90776104D01*
X148529354Y-90901603D01*
X148381784Y-91000206D01*
X148217812Y-91068126D01*
X148068512Y-91097823D01*
X148043742Y-91102750D01*
X147866258Y-91102750D01*
X147841488Y-91097823D01*
X147692188Y-91068126D01*
X147528216Y-91000206D01*
X147380646Y-90901603D01*
X147255147Y-90776104D01*
X147156544Y-90628534D01*
X147088624Y-90464562D01*
X147054000Y-90290491D01*
X147054000Y-90113009D01*
X147088624Y-89938938D01*
X147156544Y-89774966D01*
X147255147Y-89627396D01*
X147380646Y-89501897D01*
X147528216Y-89403294D01*
X147692188Y-89335374D01*
X147841488Y-89305677D01*
X147866258Y-89300750D01*
X148043742Y-89300750D01*
X148068512Y-89305677D01*
X148068512Y-89305677D01*
G37*
G36*
X109968512Y-89305677D02*
G01*
X110117812Y-89335374D01*
X110281784Y-89403294D01*
X110429354Y-89501897D01*
X110554853Y-89627396D01*
X110653456Y-89774966D01*
X110721376Y-89938938D01*
X110756000Y-90113009D01*
X110756000Y-90290491D01*
X110721376Y-90464562D01*
X110653456Y-90628534D01*
X110554853Y-90776104D01*
X110429354Y-90901603D01*
X110281784Y-91000206D01*
X110117812Y-91068126D01*
X109968512Y-91097823D01*
X109943742Y-91102750D01*
X109766258Y-91102750D01*
X109741488Y-91097823D01*
X109592188Y-91068126D01*
X109428216Y-91000206D01*
X109280646Y-90901603D01*
X109155147Y-90776104D01*
X109056544Y-90628534D01*
X108988624Y-90464562D01*
X108954000Y-90290491D01*
X108954000Y-90113009D01*
X108988624Y-89938938D01*
X109056544Y-89774966D01*
X109155147Y-89627396D01*
X109280646Y-89501897D01*
X109428216Y-89403294D01*
X109592188Y-89335374D01*
X109741488Y-89305677D01*
X109766258Y-89300750D01*
X109943742Y-89300750D01*
X109968512Y-89305677D01*
X109968512Y-89305677D01*
G37*
G36*
X158228512Y-89305677D02*
G01*
X158377812Y-89335374D01*
X158541784Y-89403294D01*
X158689354Y-89501897D01*
X158814853Y-89627396D01*
X158913456Y-89774966D01*
X158981376Y-89938938D01*
X159016000Y-90113009D01*
X159016000Y-90290491D01*
X158981376Y-90464562D01*
X158913456Y-90628534D01*
X158814853Y-90776104D01*
X158689354Y-90901603D01*
X158541784Y-91000206D01*
X158377812Y-91068126D01*
X158228512Y-91097823D01*
X158203742Y-91102750D01*
X158026258Y-91102750D01*
X158001488Y-91097823D01*
X157852188Y-91068126D01*
X157688216Y-91000206D01*
X157540646Y-90901603D01*
X157415147Y-90776104D01*
X157316544Y-90628534D01*
X157248624Y-90464562D01*
X157214000Y-90290491D01*
X157214000Y-90113009D01*
X157248624Y-89938938D01*
X157316544Y-89774966D01*
X157415147Y-89627396D01*
X157540646Y-89501897D01*
X157688216Y-89403294D01*
X157852188Y-89335374D01*
X158001488Y-89305677D01*
X158026258Y-89300750D01*
X158203742Y-89300750D01*
X158228512Y-89305677D01*
X158228512Y-89305677D01*
G37*
G36*
X139178512Y-89305677D02*
G01*
X139327812Y-89335374D01*
X139491784Y-89403294D01*
X139639354Y-89501897D01*
X139764853Y-89627396D01*
X139863456Y-89774966D01*
X139931376Y-89938938D01*
X139966000Y-90113009D01*
X139966000Y-90290491D01*
X139931376Y-90464562D01*
X139863456Y-90628534D01*
X139764853Y-90776104D01*
X139639354Y-90901603D01*
X139491784Y-91000206D01*
X139327812Y-91068126D01*
X139178512Y-91097823D01*
X139153742Y-91102750D01*
X138976258Y-91102750D01*
X138951488Y-91097823D01*
X138802188Y-91068126D01*
X138638216Y-91000206D01*
X138490646Y-90901603D01*
X138365147Y-90776104D01*
X138266544Y-90628534D01*
X138198624Y-90464562D01*
X138164000Y-90290491D01*
X138164000Y-90113009D01*
X138198624Y-89938938D01*
X138266544Y-89774966D01*
X138365147Y-89627396D01*
X138490646Y-89501897D01*
X138638216Y-89403294D01*
X138802188Y-89335374D01*
X138951488Y-89305677D01*
X138976258Y-89300750D01*
X139153742Y-89300750D01*
X139178512Y-89305677D01*
X139178512Y-89305677D01*
G37*
G36*
X129018512Y-89305677D02*
G01*
X129167812Y-89335374D01*
X129331784Y-89403294D01*
X129479354Y-89501897D01*
X129604853Y-89627396D01*
X129703456Y-89774966D01*
X129771376Y-89938938D01*
X129806000Y-90113009D01*
X129806000Y-90290491D01*
X129771376Y-90464562D01*
X129703456Y-90628534D01*
X129604853Y-90776104D01*
X129479354Y-90901603D01*
X129331784Y-91000206D01*
X129167812Y-91068126D01*
X129018512Y-91097823D01*
X128993742Y-91102750D01*
X128816258Y-91102750D01*
X128791488Y-91097823D01*
X128642188Y-91068126D01*
X128478216Y-91000206D01*
X128330646Y-90901603D01*
X128205147Y-90776104D01*
X128106544Y-90628534D01*
X128038624Y-90464562D01*
X128004000Y-90290491D01*
X128004000Y-90113009D01*
X128038624Y-89938938D01*
X128106544Y-89774966D01*
X128205147Y-89627396D01*
X128330646Y-89501897D01*
X128478216Y-89403294D01*
X128642188Y-89335374D01*
X128791488Y-89305677D01*
X128816258Y-89300750D01*
X128993742Y-89300750D01*
X129018512Y-89305677D01*
X129018512Y-89305677D01*
G37*
G36*
X120128512Y-89305677D02*
G01*
X120277812Y-89335374D01*
X120441784Y-89403294D01*
X120589354Y-89501897D01*
X120714853Y-89627396D01*
X120813456Y-89774966D01*
X120881376Y-89938938D01*
X120916000Y-90113009D01*
X120916000Y-90290491D01*
X120881376Y-90464562D01*
X120813456Y-90628534D01*
X120714853Y-90776104D01*
X120589354Y-90901603D01*
X120441784Y-91000206D01*
X120277812Y-91068126D01*
X120128512Y-91097823D01*
X120103742Y-91102750D01*
X119926258Y-91102750D01*
X119901488Y-91097823D01*
X119752188Y-91068126D01*
X119588216Y-91000206D01*
X119440646Y-90901603D01*
X119315147Y-90776104D01*
X119216544Y-90628534D01*
X119148624Y-90464562D01*
X119114000Y-90290491D01*
X119114000Y-90113009D01*
X119148624Y-89938938D01*
X119216544Y-89774966D01*
X119315147Y-89627396D01*
X119440646Y-89501897D01*
X119588216Y-89403294D01*
X119752188Y-89335374D01*
X119901488Y-89305677D01*
X119926258Y-89300750D01*
X120103742Y-89300750D01*
X120128512Y-89305677D01*
X120128512Y-89305677D01*
G37*
G36*
X120647260Y-87198371D02*
G01*
X120681071Y-87212376D01*
X120724784Y-87230482D01*
X120724787Y-87230484D01*
X120794559Y-87277104D01*
X120853896Y-87336441D01*
X120853897Y-87336443D01*
X120900518Y-87406216D01*
X120918624Y-87449929D01*
X120932629Y-87483740D01*
X120949000Y-87566043D01*
X120949000Y-87649957D01*
X120932629Y-87732260D01*
X120918624Y-87766071D01*
X120900518Y-87809784D01*
X120900516Y-87809787D01*
X120853896Y-87879559D01*
X120794559Y-87938896D01*
X120724787Y-87985516D01*
X120724784Y-87985518D01*
X120681071Y-88003624D01*
X120647260Y-88017629D01*
X120564957Y-88034000D01*
X120481043Y-88034000D01*
X120398740Y-88017629D01*
X120364929Y-88003624D01*
X120321216Y-87985518D01*
X120321213Y-87985516D01*
X120251441Y-87938896D01*
X120192104Y-87879559D01*
X120145484Y-87809787D01*
X120145482Y-87809784D01*
X120127376Y-87766071D01*
X120113371Y-87732260D01*
X120097000Y-87649957D01*
X120097000Y-87566043D01*
X120113371Y-87483740D01*
X120127376Y-87449929D01*
X120145482Y-87406216D01*
X120192103Y-87336443D01*
X120192104Y-87336441D01*
X120251441Y-87277104D01*
X120321213Y-87230484D01*
X120321216Y-87230482D01*
X120364929Y-87212376D01*
X120398740Y-87198371D01*
X120481043Y-87182000D01*
X120564957Y-87182000D01*
X120647260Y-87198371D01*
X120647260Y-87198371D01*
G37*
G36*
X120647260Y-84448371D02*
G01*
X120681071Y-84462376D01*
X120724784Y-84480482D01*
X120724787Y-84480484D01*
X120794559Y-84527104D01*
X120853896Y-84586441D01*
X120853897Y-84586443D01*
X120900518Y-84656216D01*
X120918624Y-84699929D01*
X120932629Y-84733740D01*
X120949000Y-84816043D01*
X120949000Y-84899957D01*
X120932629Y-84982260D01*
X120918624Y-85016071D01*
X120900518Y-85059784D01*
X120900516Y-85059787D01*
X120853896Y-85129559D01*
X120794559Y-85188896D01*
X120724787Y-85235516D01*
X120724784Y-85235518D01*
X120681071Y-85253624D01*
X120647260Y-85267629D01*
X120564957Y-85284000D01*
X120481043Y-85284000D01*
X120398740Y-85267629D01*
X120364929Y-85253624D01*
X120321216Y-85235518D01*
X120321213Y-85235516D01*
X120251441Y-85188896D01*
X120192104Y-85129559D01*
X120145484Y-85059787D01*
X120145482Y-85059784D01*
X120127376Y-85016071D01*
X120113371Y-84982260D01*
X120097000Y-84899957D01*
X120097000Y-84816043D01*
X120113371Y-84733740D01*
X120127376Y-84699929D01*
X120145482Y-84656216D01*
X120192103Y-84586443D01*
X120192104Y-84586441D01*
X120251441Y-84527104D01*
X120321213Y-84480484D01*
X120321216Y-84480482D01*
X120364929Y-84462376D01*
X120398740Y-84448371D01*
X120481043Y-84432000D01*
X120564957Y-84432000D01*
X120647260Y-84448371D01*
X120647260Y-84448371D01*
G37*
G36*
X157415091Y-81773585D02*
G01*
X157449069Y-81783893D01*
X157480390Y-81800634D01*
X157507839Y-81823161D01*
X157530366Y-81850610D01*
X157547107Y-81881931D01*
X157557415Y-81915909D01*
X157561500Y-81957390D01*
X157561500Y-82558610D01*
X157557415Y-82600091D01*
X157547107Y-82634069D01*
X157530366Y-82665390D01*
X157507839Y-82692839D01*
X157480390Y-82715366D01*
X157449069Y-82732107D01*
X157415091Y-82742415D01*
X157373610Y-82746500D01*
X156697390Y-82746500D01*
X156655909Y-82742415D01*
X156621931Y-82732107D01*
X156590610Y-82715366D01*
X156563161Y-82692839D01*
X156540634Y-82665390D01*
X156523893Y-82634069D01*
X156513585Y-82600091D01*
X156509500Y-82558610D01*
X156509500Y-81957390D01*
X156513585Y-81915909D01*
X156523893Y-81881931D01*
X156540634Y-81850610D01*
X156563161Y-81823161D01*
X156590610Y-81800634D01*
X156621931Y-81783893D01*
X156655909Y-81773585D01*
X156697390Y-81769500D01*
X157373610Y-81769500D01*
X157415091Y-81773585D01*
X157415091Y-81773585D01*
G37*
G36*
X138365091Y-81773585D02*
G01*
X138399069Y-81783893D01*
X138430390Y-81800634D01*
X138457839Y-81823161D01*
X138480366Y-81850610D01*
X138497107Y-81881931D01*
X138507415Y-81915909D01*
X138511500Y-81957390D01*
X138511500Y-82558610D01*
X138507415Y-82600091D01*
X138497107Y-82634069D01*
X138480366Y-82665390D01*
X138457839Y-82692839D01*
X138430390Y-82715366D01*
X138399069Y-82732107D01*
X138365091Y-82742415D01*
X138323610Y-82746500D01*
X137647390Y-82746500D01*
X137605909Y-82742415D01*
X137571931Y-82732107D01*
X137540610Y-82715366D01*
X137513161Y-82692839D01*
X137490634Y-82665390D01*
X137473893Y-82634069D01*
X137463585Y-82600091D01*
X137459500Y-82558610D01*
X137459500Y-81957390D01*
X137463585Y-81915909D01*
X137473893Y-81881931D01*
X137490634Y-81850610D01*
X137513161Y-81823161D01*
X137540610Y-81800634D01*
X137571931Y-81783893D01*
X137605909Y-81773585D01*
X137647390Y-81769500D01*
X138323610Y-81769500D01*
X138365091Y-81773585D01*
X138365091Y-81773585D01*
G37*
G36*
X119315091Y-81773585D02*
G01*
X119349069Y-81783893D01*
X119380390Y-81800634D01*
X119407839Y-81823161D01*
X119430366Y-81850610D01*
X119447107Y-81881931D01*
X119457415Y-81915909D01*
X119461500Y-81957390D01*
X119461500Y-82558610D01*
X119457415Y-82600091D01*
X119447107Y-82634069D01*
X119430366Y-82665390D01*
X119407839Y-82692839D01*
X119380390Y-82715366D01*
X119349069Y-82732107D01*
X119315091Y-82742415D01*
X119273610Y-82746500D01*
X118597390Y-82746500D01*
X118555909Y-82742415D01*
X118521931Y-82732107D01*
X118490610Y-82715366D01*
X118463161Y-82692839D01*
X118440634Y-82665390D01*
X118423893Y-82634069D01*
X118413585Y-82600091D01*
X118409500Y-82558610D01*
X118409500Y-81957390D01*
X118413585Y-81915909D01*
X118423893Y-81881931D01*
X118440634Y-81850610D01*
X118463161Y-81823161D01*
X118490610Y-81800634D01*
X118521931Y-81783893D01*
X118555909Y-81773585D01*
X118597390Y-81769500D01*
X119273610Y-81769500D01*
X119315091Y-81773585D01*
X119315091Y-81773585D01*
G37*
G36*
X152617750Y-82471500D02*
G01*
X151515750Y-82471500D01*
X151515750Y-81769500D01*
X152617750Y-81769500D01*
X152617750Y-82471500D01*
X152617750Y-82471500D01*
G37*
G36*
X135567750Y-82471500D02*
G01*
X134465750Y-82471500D01*
X134465750Y-81769500D01*
X135567750Y-81769500D01*
X135567750Y-82471500D01*
X135567750Y-82471500D01*
G37*
G36*
X114517750Y-82471500D02*
G01*
X113415750Y-82471500D01*
X113415750Y-81769500D01*
X114517750Y-81769500D01*
X114517750Y-82471500D01*
X114517750Y-82471500D01*
G37*
G36*
X133567750Y-82471500D02*
G01*
X132465750Y-82471500D01*
X132465750Y-81769500D01*
X133567750Y-81769500D01*
X133567750Y-82471500D01*
X133567750Y-82471500D01*
G37*
G36*
X116517750Y-82471500D02*
G01*
X115415750Y-82471500D01*
X115415750Y-81769500D01*
X116517750Y-81769500D01*
X116517750Y-82471500D01*
X116517750Y-82471500D01*
G37*
G36*
X154617750Y-82471500D02*
G01*
X153515750Y-82471500D01*
X153515750Y-81769500D01*
X154617750Y-81769500D01*
X154617750Y-82471500D01*
X154617750Y-82471500D01*
G37*
G36*
X146505721Y-80654924D02*
G01*
X146605995Y-80696459D01*
X146605996Y-80696460D01*
X146696242Y-80756760D01*
X146772990Y-80833508D01*
X146772991Y-80833510D01*
X146833291Y-80923755D01*
X146874826Y-81024029D01*
X146896000Y-81130480D01*
X146896000Y-81239020D01*
X146874826Y-81345471D01*
X146833291Y-81445745D01*
X146833290Y-81445746D01*
X146772990Y-81535992D01*
X146696242Y-81612740D01*
X146650812Y-81643095D01*
X146605995Y-81673041D01*
X146505721Y-81714576D01*
X146399270Y-81735750D01*
X146290730Y-81735750D01*
X146184279Y-81714576D01*
X146084005Y-81673041D01*
X146039188Y-81643095D01*
X145993758Y-81612740D01*
X145917010Y-81535992D01*
X145856710Y-81445746D01*
X145856709Y-81445745D01*
X145815174Y-81345471D01*
X145794000Y-81239020D01*
X145794000Y-81130480D01*
X145815174Y-81024029D01*
X145856709Y-80923755D01*
X145917009Y-80833510D01*
X145917010Y-80833508D01*
X145993758Y-80756760D01*
X146084004Y-80696460D01*
X146084005Y-80696459D01*
X146184279Y-80654924D01*
X146290730Y-80633750D01*
X146399270Y-80633750D01*
X146505721Y-80654924D01*
X146505721Y-80654924D01*
G37*
G36*
X142105721Y-80654924D02*
G01*
X142205995Y-80696459D01*
X142205996Y-80696460D01*
X142296242Y-80756760D01*
X142372990Y-80833508D01*
X142372991Y-80833510D01*
X142433291Y-80923755D01*
X142474826Y-81024029D01*
X142496000Y-81130480D01*
X142496000Y-81239020D01*
X142474826Y-81345471D01*
X142433291Y-81445745D01*
X142433290Y-81445746D01*
X142372990Y-81535992D01*
X142296242Y-81612740D01*
X142250812Y-81643095D01*
X142205995Y-81673041D01*
X142105721Y-81714576D01*
X141999270Y-81735750D01*
X141890730Y-81735750D01*
X141784279Y-81714576D01*
X141684005Y-81673041D01*
X141639188Y-81643095D01*
X141593758Y-81612740D01*
X141517010Y-81535992D01*
X141456710Y-81445746D01*
X141456709Y-81445745D01*
X141415174Y-81345471D01*
X141394000Y-81239020D01*
X141394000Y-81130480D01*
X141415174Y-81024029D01*
X141456709Y-80923755D01*
X141517009Y-80833510D01*
X141517010Y-80833508D01*
X141593758Y-80756760D01*
X141684004Y-80696460D01*
X141684005Y-80696459D01*
X141784279Y-80654924D01*
X141890730Y-80633750D01*
X141999270Y-80633750D01*
X142105721Y-80654924D01*
X142105721Y-80654924D01*
G37*
G36*
X105023256Y-78274298D02*
G01*
X105129579Y-78295447D01*
X105430042Y-78419903D01*
X105700451Y-78600585D01*
X105930415Y-78830549D01*
X106111097Y-79100958D01*
X106235553Y-79401421D01*
X106299000Y-79720391D01*
X106299000Y-80045609D01*
X106235553Y-80364579D01*
X106111097Y-80665042D01*
X105930415Y-80935451D01*
X105700451Y-81165415D01*
X105430042Y-81346097D01*
X105129579Y-81470553D01*
X105023256Y-81491702D01*
X104810611Y-81534000D01*
X104485389Y-81534000D01*
X104272744Y-81491702D01*
X104166421Y-81470553D01*
X103865958Y-81346097D01*
X103595549Y-81165415D01*
X103365585Y-80935451D01*
X103184903Y-80665042D01*
X103060447Y-80364579D01*
X102997000Y-80045609D01*
X102997000Y-79720391D01*
X103060447Y-79401421D01*
X103184903Y-79100958D01*
X103365585Y-78830549D01*
X103595549Y-78600585D01*
X103865958Y-78419903D01*
X104166421Y-78295447D01*
X104272744Y-78274298D01*
X104485389Y-78232000D01*
X104810611Y-78232000D01*
X105023256Y-78274298D01*
X105023256Y-78274298D01*
G37*
G36*
X163760756Y-78274298D02*
G01*
X163867079Y-78295447D01*
X164167542Y-78419903D01*
X164437951Y-78600585D01*
X164667915Y-78830549D01*
X164848597Y-79100958D01*
X164973053Y-79401421D01*
X165036500Y-79720391D01*
X165036500Y-80045609D01*
X164973053Y-80364579D01*
X164848597Y-80665042D01*
X164667915Y-80935451D01*
X164437951Y-81165415D01*
X164167542Y-81346097D01*
X163867079Y-81470553D01*
X163760756Y-81491702D01*
X163548111Y-81534000D01*
X163222889Y-81534000D01*
X163010244Y-81491702D01*
X162903921Y-81470553D01*
X162603458Y-81346097D01*
X162333049Y-81165415D01*
X162103085Y-80935451D01*
X161922403Y-80665042D01*
X161797947Y-80364579D01*
X161734500Y-80045609D01*
X161734500Y-79720391D01*
X161797947Y-79401421D01*
X161922403Y-79100958D01*
X162103085Y-78830549D01*
X162333049Y-78600585D01*
X162603458Y-78419903D01*
X162903921Y-78295447D01*
X163010244Y-78274298D01*
X163222889Y-78232000D01*
X163548111Y-78232000D01*
X163760756Y-78274298D01*
X163760756Y-78274298D01*
G37*
G36*
X116517750Y-81171500D02*
G01*
X115415750Y-81171500D01*
X115415750Y-80469500D01*
X116517750Y-80469500D01*
X116517750Y-81171500D01*
X116517750Y-81171500D01*
G37*
G36*
X157415091Y-80198585D02*
G01*
X157449069Y-80208893D01*
X157480390Y-80225634D01*
X157507839Y-80248161D01*
X157530366Y-80275610D01*
X157547107Y-80306931D01*
X157557415Y-80340909D01*
X157561500Y-80382390D01*
X157561500Y-80983610D01*
X157557415Y-81025091D01*
X157547107Y-81059069D01*
X157530366Y-81090390D01*
X157507839Y-81117839D01*
X157480390Y-81140366D01*
X157449069Y-81157107D01*
X157415091Y-81167415D01*
X157373610Y-81171500D01*
X156697390Y-81171500D01*
X156655909Y-81167415D01*
X156621931Y-81157107D01*
X156590610Y-81140366D01*
X156563161Y-81117839D01*
X156540634Y-81090390D01*
X156523893Y-81059069D01*
X156513585Y-81025091D01*
X156509500Y-80983610D01*
X156509500Y-80382390D01*
X156513585Y-80340909D01*
X156523893Y-80306931D01*
X156540634Y-80275610D01*
X156563161Y-80248161D01*
X156590610Y-80225634D01*
X156621931Y-80208893D01*
X156655909Y-80198585D01*
X156697390Y-80194500D01*
X157373610Y-80194500D01*
X157415091Y-80198585D01*
X157415091Y-80198585D01*
G37*
G36*
X154617750Y-81171500D02*
G01*
X153515750Y-81171500D01*
X153515750Y-80469500D01*
X154617750Y-80469500D01*
X154617750Y-81171500D01*
X154617750Y-81171500D01*
G37*
G36*
X152617750Y-81171500D02*
G01*
X151515750Y-81171500D01*
X151515750Y-80469500D01*
X152617750Y-80469500D01*
X152617750Y-81171500D01*
X152617750Y-81171500D01*
G37*
G36*
X138365091Y-80198585D02*
G01*
X138399069Y-80208893D01*
X138430390Y-80225634D01*
X138457839Y-80248161D01*
X138480366Y-80275610D01*
X138497107Y-80306931D01*
X138507415Y-80340909D01*
X138511500Y-80382390D01*
X138511500Y-80983610D01*
X138507415Y-81025091D01*
X138497107Y-81059069D01*
X138480366Y-81090390D01*
X138457839Y-81117839D01*
X138430390Y-81140366D01*
X138399069Y-81157107D01*
X138365091Y-81167415D01*
X138323610Y-81171500D01*
X137647390Y-81171500D01*
X137605909Y-81167415D01*
X137571931Y-81157107D01*
X137540610Y-81140366D01*
X137513161Y-81117839D01*
X137490634Y-81090390D01*
X137473893Y-81059069D01*
X137463585Y-81025091D01*
X137459500Y-80983610D01*
X137459500Y-80382390D01*
X137463585Y-80340909D01*
X137473893Y-80306931D01*
X137490634Y-80275610D01*
X137513161Y-80248161D01*
X137540610Y-80225634D01*
X137571931Y-80208893D01*
X137605909Y-80198585D01*
X137647390Y-80194500D01*
X138323610Y-80194500D01*
X138365091Y-80198585D01*
X138365091Y-80198585D01*
G37*
G36*
X135567750Y-81171500D02*
G01*
X134465750Y-81171500D01*
X134465750Y-80469500D01*
X135567750Y-80469500D01*
X135567750Y-81171500D01*
X135567750Y-81171500D01*
G37*
G36*
X133567750Y-81171500D02*
G01*
X132465750Y-81171500D01*
X132465750Y-80469500D01*
X133567750Y-80469500D01*
X133567750Y-81171500D01*
X133567750Y-81171500D01*
G37*
G36*
X119315091Y-80198585D02*
G01*
X119349069Y-80208893D01*
X119380390Y-80225634D01*
X119407839Y-80248161D01*
X119430366Y-80275610D01*
X119447107Y-80306931D01*
X119457415Y-80340909D01*
X119461500Y-80382390D01*
X119461500Y-80983610D01*
X119457415Y-81025091D01*
X119447107Y-81059069D01*
X119430366Y-81090390D01*
X119407839Y-81117839D01*
X119380390Y-81140366D01*
X119349069Y-81157107D01*
X119315091Y-81167415D01*
X119273610Y-81171500D01*
X118597390Y-81171500D01*
X118555909Y-81167415D01*
X118521931Y-81157107D01*
X118490610Y-81140366D01*
X118463161Y-81117839D01*
X118440634Y-81090390D01*
X118423893Y-81059069D01*
X118413585Y-81025091D01*
X118409500Y-80983610D01*
X118409500Y-80382390D01*
X118413585Y-80340909D01*
X118423893Y-80306931D01*
X118440634Y-80275610D01*
X118463161Y-80248161D01*
X118490610Y-80225634D01*
X118521931Y-80208893D01*
X118555909Y-80198585D01*
X118597390Y-80194500D01*
X119273610Y-80194500D01*
X119315091Y-80198585D01*
X119315091Y-80198585D01*
G37*
G36*
X114517750Y-81171500D02*
G01*
X113415750Y-81171500D01*
X113415750Y-80469500D01*
X114517750Y-80469500D01*
X114517750Y-81171500D01*
X114517750Y-81171500D01*
G37*
M02*
